<?xml version="1.0" encoding="UTF-8" standalone="no"?>
<!-- Created with Inkscape (http://www.inkscape.org/) -->

<svg
   xmlns:dc="http://purl.org/dc/elements/1.1/"
   xmlns:cc="http://creativecommons.org/ns#"
   xmlns:rdf="http://www.w3.org/1999/02/22-rdf-syntax-ns#"
   xmlns:svg="http://www.w3.org/2000/svg"
   xmlns="http://www.w3.org/2000/svg"
   xmlns:sodipodi="http://sodipodi.sourceforge.net/DTD/sodipodi-0.dtd"
   xmlns:inkscape="http://www.inkscape.org/namespaces/inkscape"
   version="1.1"
   id="svg964"
   width="816.64001"
   height="1122.5601"
   viewBox="0 0 816.64001 1122.5601"
   sodipodi:docname="Algoritme.svg"
   inkscape:version="0.92.4 (5da689c313, 2019-01-14)">
  <metadata
     id="metadata970">
    <rdf:RDF>
      <cc:Work
         rdf:about="">
        <dc:format>image/svg+xml</dc:format>
        <dc:type
           rdf:resource="http://purl.org/dc/dcmitype/StillImage" />
        <dc:title />
      </cc:Work>
    </rdf:RDF>
  </metadata>
  <defs
     id="defs968" />
  <sodipodi:namedview
     pagecolor="#ffffff"
     bordercolor="#666666"
     borderopacity="1"
     objecttolerance="10"
     gridtolerance="10"
     guidetolerance="10"
     inkscape:pageopacity="0"
     inkscape:pageshadow="2"
     inkscape:window-width="1280"
     inkscape:window-height="780"
     id="namedview966"
     showgrid="false"
     inkscape:zoom="0.48816987"
     inkscape:cx="53.935173"
     inkscape:cy="455.1598"
     inkscape:window-x="0"
     inkscape:window-y="0"
     inkscape:window-maximized="1"
     inkscape:current-layer="svg964" />
  <path
     style="fill:#000000;fill-opacity:1;stroke-width:0.64000005"
     d="m 578.38434,469.80031 c -0.81668,-1.52598 -0.49987,-17.02042 0.3946,-19.29886 0.81371,-2.07275 1.91074,-0.77982 1.57351,1.85449 -0.37932,2.96311 -0.34681,15.41491 0.0447,17.14368 0.40027,1.76715 -1.10751,1.99239 -2.01288,0.30069 z M 536.6503,458.5992 c -5.27539,-5.65999 -10.87637,-12.42643 -10.55341,-12.74939 0.27394,-0.27393 5.33315,4.88526 10.09465,10.29414 1.232,1.3995 2.96,3.02109 3.84,3.60353 1.22548,0.81109 1.42615,1.23961 0.8573,1.83069 -0.57317,0.59557 -1.54066,-0.0844 -4.23854,-2.97897 z m 5.55383,2.22023 c -0.5295,-0.85674 -0.45854,-0.91734 11.17543,-9.54399 4.70142,-3.48611 8.82418,-6.16773 9.16169,-5.95913 0.95474,0.59006 -1.1673,2.58028 -7.78971,7.30583 -3.344,2.38617 -7.0725,5.37527 -8.28555,6.64243 -2.29467,2.39703 -3.47519,2.82772 -4.26186,1.55486 z m -2.40932,-11.87981 c -2.28963,-2.03012 -6.05304,-4.64887 -8.36312,-5.81947 -2.31009,-1.17058 -4.20015,-2.39458 -4.20015,-2.72 0,-0.8179 -0.0907,-0.84762 4.85421,1.59054 2.43418,1.2002 5.30357,3.0002 6.3764,4 1.07285,0.99979 3.06352,2.70797 4.42373,3.79593 1.50056,1.20024 2.19759,2.1484 1.7725,2.41113 -0.38533,0.23814 -2.57394,-1.22801 -4.86357,-3.25813 z m 76.93084,-1.8589 c -5.9273,-5.43134 -8.5777,-8.72618 -7.9006,-9.8217 0.2794,-0.4521 2.5406,1.43702 5.9877,5.00255 3.0463,3.15094 6.3308,6.22513 7.2988,6.83156 1.8657,1.16878 2.3726,2.87537 0.8541,2.87537 -0.4983,0 -3.3063,-2.1995 -6.24,-4.88778 z M 474.75154,447.834 c -9.33787,-1.49359 -14.27156,-3.85243 -25.77837,-12.32487 -4.02567,-2.96409 -6.81001,-6.12198 -7.77722,-8.82063 -3.03995,-8.48178 -3.24441,-9.91365 -3.24441,-22.72 0,-6.864 0.144,-14.20801 0.32,-16.32001 l 0.32,-3.84 -11.16253,-0.50332 c -6.31582,-0.28478 -11.52615,-0.8051 -12,-1.19836 -1.06981,-0.88787 -1.06451,-16.20515 0.01,-29.0596 0.42557,-5.09087 0.66023,-16.49029 0.54016,-26.24 -0.28468,-23.11593 -0.29965,-22.68583 0.833,-23.93739 1.44637,-1.59822 0.6093,-4.62855 -1.96879,-7.12733 -2.70805,-2.62475 -2.85072,-5.18234 -0.49019,-8.78775 1.50745,-2.30243 2.02146,-2.61031 4.96,-2.97095 7.71472,-0.94677 8.7183,-1.1561 8.7183,-1.81846 0,-0.3838 -1.28866,-3.34681 -2.86369,-6.58446 -2.45472,-5.04597 -4.10529,-7.29852 -7.92289,-10.81239 -0.38242,-0.352 -1.58046,-1.70034 -2.66231,-2.99631 -2.2037,-2.63987 -7.88038,-6.61701 -10.99372,-7.70232 -2.93377,-1.02272 -6.96764,-3.91685 -8.90045,-6.3857 -3.95634,-5.05358 -4.65822,-8.83578 -2.80055,-15.09123 0.92284,-3.10754 0.90529,-3.42057 -0.32,-5.70669 -2.26092,-4.21838 -1.47419,-9.0528 2.27261,-13.96512 1.66488,-2.18277 1.69258,-2.35947 0.95629,-6.10196 -2.02606,-10.29825 -0.50601,-15.33753 7.12226,-23.61164 4.56155,-4.94777 7.51402,-8.53519 10.75245,-13.06489 2.7221,-3.8075 12.46913,-8.70706 17.36163,-8.72722 1.92845,-0.008 2.83243,-0.88483 3.45039,-3.347 0.40883,-1.62891 4.61402,-5.66329 8.94798,-8.58452 3.17984,-2.14331 10.46342,-4.21103 16.06435,-4.56046 4.46022,-0.27826 5.32022,-0.51388 5.58606,-1.53048 0.17283,-0.66087 1.42018,-1.64174 2.77191,-2.17971 1.35172,-0.53798 3.54287,-1.56347 4.86921,-2.27888 1.32634,-0.71541 3.9325,-1.45772 5.79146,-1.64958 2.92253,-0.30164 4.15516,-0.0213 9.10847,2.0712 3.15069,1.33102 6.41507,3.02135 7.25417,3.75627 2.35872,2.06589 6.47437,7.42706 6.47437,8.43371 0,1.36493 -1.77711,1.08096 -2.23347,-0.35689 -0.21985,-0.69269 -2.14715,-2.84075 -4.28289,-4.77349 -4.24246,-3.8392 -11.67793,-7.41789 -15.35915,-7.39236 -2.61593,0.0181 -12.93515,4.61831 -13.18945,5.87967 -0.10173,0.50456 0.54627,1.25057 1.44,1.65777 0.89372,0.40721 1.62496,1.17856 1.62496,1.7141 0,1.34416 -1.00056,1.21864 -3.19014,-0.40018 -1.65317,-1.22224 -2.40976,-1.33287 -6.85408,-1.00223 -6.69249,0.4979 -13.83701,3.01565 -17.8238,6.28116 -4.31542,3.53469 -6.16397,7.61497 -3.44991,7.61497 1.67472,0 3.79793,1.11741 3.79793,1.99878 0,0.42016 -0.90329,0.52916 -2.4,0.2896 -7.47609,-1.19659 -19.85712,2.80556 -23.59554,7.62722 -1.01446,1.3084 -2.78046,3.52789 -3.92446,4.93221 -2.85874,3.50923 -2.70488,3.95999 1.17598,3.44517 4.09406,-0.54309 3.70668,0.26861 -1.18877,2.4909 -2.01697,0.91561 -4.09921,1.93879 -4.62722,2.27373 -0.528,0.33495 -2.00924,1.17817 -3.29165,1.87383 -1.35876,0.73708 -3.2235,2.67594 -4.46908,4.6467 -2.04623,3.23757 -2.13585,3.64128 -2.10051,9.46187 0.046,7.56437 0.69128,9.01745 3.78215,8.51588 2.60585,-0.42288 2.98766,0.53759 0.63909,1.60767 -0.88,0.40095 -1.6,1.13873 -1.6,1.63951 0,0.50078 -0.99253,1.49612 -2.20563,2.21186 -2.3813,1.405 -4.83437,5.48363 -4.83437,8.03792 0,2.41562 1.13163,4.86716 2.24668,4.86716 0.5491,0 1.71722,-0.47101 2.59581,-1.04669 0.87861,-0.57568 1.74418,-0.89998 1.92349,-0.72066 0.44834,0.44833 -2.14936,4.90601 -4.09855,7.03319 -2.44885,2.67245 -2.70167,7.87793 -0.55886,11.5066 1.9858,3.36279 5.34398,6.60601 7.49143,7.23499 2.34966,0.68819 9.40458,5.55728 13.40672,9.2529 1.91769,1.77082 3.69558,3.21967 3.95085,3.21967 1.16649,0 8.83138,12.94022 10.16086,17.15404 l 0.86892,2.75404 8.04633,-0.28566 c 17.30345,-0.61427 47.61246,-2.65544 50.09455,-3.37363 0.59852,-0.17318 1.74328,-1.38 2.5439,-2.68183 0.80063,-1.30182 2.58504,-3.59684 3.96536,-5.10004 1.38032,-1.5032 2.39556,-2.84206 2.25609,-2.97524 -0.59217,-0.56546 -12.01227,-5.49168 -12.73096,-5.49168 -0.88562,0 -2.50623,-0.83865 -14.53947,-7.52402 -12.07033,-6.70598 -15.19109,-10.53986 -15.06288,-18.50485 0.0904,-5.61757 2.25742,-10.804 5.25364,-12.57391 2.40592,-1.42121 2.44748,-2.057 0.1861,-2.8463 -0.968,-0.33786 -3.17366,-1.51122 -4.90145,-2.60748 -2.77948,-1.76352 -3.32189,-2.4927 -4.70746,-6.32831 -2.33801,-6.47223 -2.70533,-15.86286 -0.83977,-21.46888 0.76541,-2.30003 2.28645,-5.53279 3.38011,-7.18391 4.45453,-6.7251 16.7943,-14.84179 29.71645,-19.54648 11.08766,-4.03679 13.55095,-3.9335 18.53169,0.77708 4.97738,4.7074 6.24724,8.31667 5.86967,16.68312 -0.25575,5.66716 -0.57207,7.15299 -2.31527,10.87547 -5.26249,11.2377 -12.14882,18.90377 -21.06875,23.45438 -4.57859,2.33582 -4.42313,2.39829 9.13478,3.67058 4.77246,0.44785 8.90587,1.649 10.52822,3.05945 0.54548,0.47423 2.14378,1.22035 3.55178,1.65806 4.69753,1.46031 15.67795,7.74132 27.36745,15.65469 1.3241,0.89637 3.4601,3.27531 4.74667,5.28654 1.97104,3.08123 2.33905,4.21458 2.33822,7.20078 -10e-4,5.68205 -1.7268,9.84376 -5.38756,12.99631 -1.72928,1.48923 -3.1443,2.96078 -3.14447,3.27013 -3.1e-4,0.55199 5.49624,0.0641 7.36748,-0.654 0.52371,-0.20096 0.95221,-0.86571 0.95221,-1.47721 0,-0.90265 0.96193,-1.24786 5.11285,-1.83488 6.18212,-0.87427 9.42545,-2.43631 13.16743,-6.34166 2.93472,-3.06284 5.92607,-9.50435 4.8933,-10.53712 -0.32407,-0.32407 -1.61157,0.39735 -3.03338,1.69969 -2.29719,2.10413 -4.7802,2.99122 -4.7802,1.70778 0,-0.30523 1.14887,-1.31524 2.55305,-2.24448 3.65837,-2.421 7.51794,-10.29199 9.29724,-18.96026 0.82032,-3.99644 0.67769,-7.37735 -0.33773,-8.00491 -0.26516,-0.16388 -1.16397,0.22509 -1.99734,0.86438 -4.44956,3.4133 -5.37511,1.78106 -1.30052,-2.29353 3.62281,-3.62281 4.97549,-7.72075 4.39739,-13.32195 -0.40475,-3.92168 -4.728,-12.22282 -8.80913,-16.91458 -2.18508,-2.51201 -2.60876,-2.75166 -3.39443,-1.92 -0.49375,0.52265 -1.40176,2.53428 -2.01781,4.47028 -1.16942,3.67503 -2.00171,5.12 -2.94908,5.12 -1.00941,0 -0.59224,-2.36719 1.0321,-5.85645 2.70937,-5.82004 2.07461,-9.56612 -2.82696,-16.68333 -2.98053,-4.32782 -11.33754,-12.02023 -13.05872,-12.02023 -0.53322,0 -1.10001,0.88177 -1.33701,2.08 -0.55845,2.82347 -2.07746,4.7896 -2.99303,3.87403 -0.50292,-0.50292 -0.40867,-1.13753 0.33825,-2.27746 1.54805,-2.36264 2.04232,-9.37168 0.8259,-11.71189 -1.60464,-3.08711 -5.41345,-6.43168 -8.30983,-7.29697 -1.49179,-0.44568 -3.76499,-1.34613 -5.05155,-2.00101 -4.19577,-2.1357 -15.59416,-2.65385 -19.90079,-0.90466 -0.68377,0.27773 -1.12,0.16624 -1.12,-0.28622 0,-1.43459 4.36309,-2.59587 9.73944,-2.59225 5.98492,0.004 8.28468,0.51019 15.46487,3.40367 5.98374,2.41134 9.9183,6.26264 11.61416,11.36839 0.90299,2.71863 1.96076,3.99511 6.82184,8.23235 6.39633,5.57546 11.03963,11.86063 12.6807,17.1646 0.83591,2.70166 1.48976,3.61844 3.243,4.5471 2.6086,1.38173 6.49187,6.87099 9.5647,13.52033 1.85844,4.0215 2.21926,5.5266 2.22475,9.28 0.004,2.464 -0.38794,5.41487 -0.87007,6.5575 -0.69152,1.63884 -0.7253,2.67838 -0.16,4.9234 1.28077,5.08641 0.87501,8.75231 -1.80852,16.33951 -2.05874,5.82072 -2.45928,7.69525 -2.16864,10.14924 0.43404,3.66485 -0.69905,6.6658 -4.07026,10.77991 -3.59012,4.38127 -8.37211,6.9158 -15.32225,8.12104 -1.10344,0.19135 -3.0142,1.03191 -4.24611,1.86791 -2.88566,1.95826 -12.96372,3.75051 -20.30761,3.61143 -4.86999,-0.0922 -16.66772,-1.82397 -19.29538,-2.8323 -1.69004,-0.64853 -5.20836,1.82553 -7.75231,5.45137 -2.43388,3.46894 -2.45937,4.16165 -0.16839,4.57454 0.69516,0.12529 1.55916,0.80531 1.92,1.51116 0.36084,0.70586 1.33224,2.36688 2.15867,3.69115 1.46333,2.34488 1.47284,2.45317 0.36397,4.14553 -0.62625,0.95576 -2.53319,3.0961 -4.23766,4.75631 l -3.09904,3.01855 1.13507,3.38688 c 1.26806,3.78371 1.47932,14.24071 0.52418,25.94688 -0.44281,5.42717 -0.38102,6.57432 0.35782,6.64294 0.49118,0.0456 5.24171,0.0158 10.55671,-0.0663 11.41989,-0.17632 13.26543,0.38156 14.25031,4.30761 0.52918,2.10948 0.99005,8.85399 1.64802,24.11712 0.26882,6.23604 1.4071,7.16507 8.95147,7.30592 3.05265,0.057 6.11327,-0.19769 6.80137,-0.56595 0.6881,-0.36826 2.1232,-2.39719 3.1891,-4.50873 1.10419,-2.1874 2.58617,-4.13451 3.44452,-4.52559 2.37589,-1.08253 4.89486,0.49953 6.77157,4.25295 1.32006,2.64014 1.59415,4.09579 1.56658,8.32 -0.0362,5.55207 -1.34955,9.13224 -4.63673,12.64 -3.2311,3.44791 -8.83612,1.4863 -10.07511,-3.52604 -0.57379,-2.32129 -1.22533,-2.66004 -5.41474,-2.81529 -1.936,-0.0717 -6.20427,-0.47936 -9.48505,-0.90582 -4.96647,-0.64558 -6.12073,-1.01298 -6.89501,-2.19468 -0.88586,-1.352 -1.89627,-8.1423 -3.52265,-23.67355 -0.4052,-3.86946 -0.89119,-7.43795 -1.08,-7.92997 -0.27882,-0.72659 -1.64329,-0.81562 -7.26627,-0.47411 -10.31716,0.62663 -10.12755,0.49245 -10.26512,7.26362 -0.0628,3.08871 -0.0919,6.19184 -0.0648,6.89584 0.0271,0.704 0.13205,6.2699 0.23313,12.36866 0.20375,12.29272 0.21953,12.24375 -3.95004,12.26155 -1.26267,0.005 -5.15067,0.4401 -8.64,0.96602 -3.48933,0.52592 -7.71841,0.95792 -9.39796,0.96 -2.57702,0.003 -3.1387,0.22856 -3.59815,1.44377 -2.98163,7.88637 -2.59896,17.7825 0.89375,23.11305 1.5073,2.30043 7.41845,6.59855 11.00655,8.0031 4.78718,1.87392 19.34713,3.91963 28.4621,3.99901 6.6063,0.0575 8.46313,0.28505 10.01164,1.22675 2.82502,1.718 4.19295,6.43116 4.11763,14.18716 -0.0653,6.72179 -0.95087,9.63063 -3.04466,10.0006 -0.70133,0.12393 -1.72212,0.79368 -2.26845,1.48834 -0.93674,1.19109 -1.9937,1.2771 -18.56,1.51033 -12.77286,0.17982 -19.05122,0.01 -23.00668,-0.62283 z m 35.33796,-1.55081 c 2.01189,-0.2515 3.86179,-0.66112 4.11092,-0.91024 0.24912,-0.24912 0.48278,-5.35768 0.51924,-11.35235 0.0635,-10.45197 0.013,-10.91142 -1.23091,-11.19235 -0.71347,-0.16112 -5.32921,-0.5733 -10.25721,-0.91594 -14.76068,-1.02632 -21.89148,-2.19288 -26.67738,-4.36424 -4.7129,-2.13824 -9.32156,-6.28887 -11.27967,-10.15864 -2.53661,-5.013 -3.32559,-12.52143 -1.97668,-18.81116 0.40042,-1.86711 0.46518,-3.53433 0.14954,-3.84996 -0.3062,-0.3062 -4.93372,-0.75424 -10.28337,-0.99564 -10.56906,-0.47693 -11.34766,-0.29155 -11.92828,2.84005 -1.85952,10.02939 -1.85376,9.89181 -0.75495,18.03578 0.59367,4.4 1.22093,9.728 1.39393,11.84 0.47742,5.8285 0.68927,6.42541 3.38644,9.54174 1.63823,1.89283 2.39315,3.31083 2.18546,4.10504 -0.24627,0.94176 0.47268,1.65916 3.21213,3.20521 1.94118,1.09553 5.04506,3.33798 6.8975,4.98321 7.11504,6.31916 16.13414,8.43089 36.07533,8.44666 7.04,0.006 14.44608,-0.19565 16.45796,-0.44717 z m 9.32335,-11.38896 c 0.18971,-6.7072 -0.60534,-10.59771 -1.90093,-9.30212 -1.04924,1.04925 -1.50067,13.02472 -0.55741,14.7872 1.51195,2.82511 2.2712,1.13105 2.45834,-5.48508 z m 24.75603,-53.0856 c 1.27781,-0.49034 3.86078,-5.50794 4.41884,-8.58394 0.22589,-1.24509 0.0959,-3.98109 -0.2888,-6.08 -1.1218,-6.11997 -3.73461,-7.8055 -6.36762,-4.10778 -1.29491,1.81853 -1.33688,2.21317 -0.62971,5.92 0.67733,3.55041 0.61842,4.3788 -0.55552,7.81158 -1.2164,3.55694 -1.23494,3.89897 -0.25154,4.64 1.18251,0.89108 2.12697,0.99392 3.67435,0.40014 z m -85.73734,-1.88515 c 2.816,-0.19847 10.86876,-0.55753 17.89502,-0.79792 l 12.77502,-0.43707 0.47699,-2.24 c 0.26235,-1.232 0.47846,-7.712 0.48027,-14.4 0.002,-6.688 0.28549,-15.76 0.63042,-20.16 0.34493,-4.4 0.83048,-14.264 1.07901,-21.92 l 0.45187,-13.92 -10.1743,-0.15746 c -12.17091,-0.18837 -15.0266,-0.13029 -41.8543,0.8512 -11.44,0.41853 -21.07874,1.0148 -21.41943,1.32504 -0.3791,0.34522 -0.60166,9.56065 -0.57363,23.75264 0.0252,12.75372 -0.22755,28.59797 -0.56163,35.20945 -0.48411,9.58052 -0.43983,12.22279 0.2181,13.01554 0.72389,0.87224 2.95689,0.94819 18.14105,0.61705 9.52354,-0.2077 19.61954,-0.54001 22.43554,-0.73847 z m -16.98355,-25.58335 c -0.67975,-0.81906 -0.56849,-1.44946 0.64954,-3.68 0.80839,-1.48041 2.54861,-3.84364 3.86716,-5.25164 2.1616,-2.30826 3.82685,-4.7871 3.82685,-5.69656 0,-0.1874 -1.224,-1.76969 -2.72,-3.5162 -6.48811,-7.5746 -7.62427,-9.11241 -7.3194,-9.9069 0.3848,-1.00275 7.63764,-1.67088 18.1994,-1.67651 8.04499,-0.004 8.48206,0.29432 5.54311,3.78706 -2.00858,2.38705 -2.82311,2.49355 -2.82311,0.36911 0,-1.52383 -0.19043,-1.60543 -4,-1.7141 -4.52639,-0.12911 -4.77959,-0.11543 -8.96,0.48438 -4.05884,0.58237 -3.95447,1.52431 0.77874,7.02875 2.10031,2.44253 3.82831,4.82851 3.84,5.30217 0.0257,1.04013 -1.8137,3.7677 -5.53037,8.20087 -1.5226,1.81615 -2.76837,3.61615 -2.76837,4 0,0.91468 4.05912,0.88798 10.68678,-0.0703 4.32845,-0.62583 5.31322,-0.97469 5.31322,-1.88223 0,-2.02995 1.24174,-1.92332 2.5476,0.21876 0.70802,1.16143 1.19111,2.39968 1.07352,2.75168 -0.11759,0.352 -1.62844,0.67723 -3.35746,0.72273 -1.72901,0.0455 -6.31166,0.40526 -10.18366,0.79946 -3.872,0.39421 -7.22074,0.71698 -7.44164,0.71727 -0.2209,3e-4 -0.77075,-0.44423 -1.22191,-0.98782 z m 92.4512,21.07989 c 1.45738,-0.55925 1.28602,-3.27841 -0.23706,-3.76182 -0.68716,-0.2181 -3.47557,-0.48653 -6.19644,-0.59652 -4.71163,-0.19047 -5.04311,-0.30481 -6.96576,-2.40279 -1.91061,-2.08484 -2.04724,-2.57792 -2.55095,-9.20661 -0.29273,-3.85208 -0.46662,-8.73179 -0.38643,-10.84379 0.18937,-4.98728 -1.08006,-11.9417 -2.36566,-12.96 -0.70379,-0.55745 -3.8464,-0.8 -10.36535,-0.8 -6.48824,0 -9.68254,0.24517 -10.42294,0.8 -1.4214,1.06513 -1.78759,5.28501 -0.45706,5.26701 0.528,-0.007 4.20228,-0.25477 8.16507,-0.55028 9.1486,-0.68222 9.84613,-0.33184 10.86496,5.45761 0.39351,2.23611 1.04436,7.23366 1.44634,11.10566 1.24979,12.03855 1.80657,15.72781 2.49968,16.56296 0.36824,0.4437 2.13255,0.87348 3.9207,0.95507 1.78815,0.0816 3.88389,0.40316 4.65721,0.71459 1.63891,0.66004 6.92359,0.82304 8.39369,0.25891 z m 5.48255,-3.36989 c 0.008,-1.27745 -0.14252,-1.39195 -0.9502,-0.72164 -0.99831,0.82853 -1.27961,2.66706 -0.52372,3.42295 0.62286,0.62286 1.46239,-0.91579 1.47392,-2.70131 z m -97.5902,-67.97688 c 3.66133,-0.0699 3.72867,-0.0996 1.44745,-0.63751 -4.00447,-0.94425 -13.57152,-1.1206 -15.97458,-0.29447 -1.21739,0.41852 -2.76681,0.5441 -3.44315,0.27906 -2.20619,-0.86452 -4.10972,-0.64242 -4.10972,0.47952 0,0.9448 0.92448,1.01059 9.12,0.64905 5.016,-0.22127 10.848,-0.43531 12.96,-0.47565 z m 48.86848,-1.15466 c 0.54489,-0.34526 0.70767,-1.057 0.43687,-1.9102 -0.5056,-1.59301 -1.15088,-1.68935 -3.08787,-0.46101 -1.04628,0.6635 -4.85324,0.98823 -14.53748,1.24003 -20.17163,0.52448 -20.3784,1.58177 -0.32,1.63626 9.152,0.0249 17.03082,-0.20242 17.50848,-0.50508 z m -38.62848,-3.31454 c 7.744,-0.38467 18.45289,-0.75812 23.79754,-0.82987 8.63854,-0.11599 9.87615,-0.27012 11.14582,-1.38809 5.59532,-4.92674 7.58501,-6.98129 7.15364,-7.38681 -0.27335,-0.25696 -4.529,-0.21483 -9.457,0.0936 -4.928,0.30846 -14.72,0.87652 -21.76,1.26235 -7.04,0.38583 -14.96,0.95184 -17.6,1.2578 -2.64,0.30596 -8.976,0.60817 -14.08,0.67158 -5.104,0.0634 -10.11086,0.29722 -11.12634,0.51956 l -1.84634,0.40429 3.76634,2.94287 c 2.07148,1.61858 4.13197,3.06046 4.57887,3.20418 1.02296,0.32897 7.57392,0.13537 25.42747,-0.75149 z M 418.9497,289.56849 c -0.11863,-0.616 -0.6398,-1.12 -1.15816,-1.12 -0.51837,0 -1.03954,0.504 -1.15817,1.12 -0.15133,0.78582 0.19423,1.12 1.15817,1.12 0.96393,0 1.30949,-0.33418 1.15816,-1.12 z m 9.60047,-1.27208 -0.19863,-2.39208 -3.32772,-0.0656 c -5.15427,-0.10168 -5.54096,0.60953 -1.86597,3.43186 1.01546,0.77986 2.68885,1.41794 3.71863,1.41794 1.77123,0 1.8616,-0.12916 1.67369,-2.39208 z m 22.52137,0.71317 c 3.696,-0.27125 9.168,-0.55358 12.16,-0.62741 2.992,-0.0738 9.328,-0.31553 14.08,-0.53711 7.67633,-0.35795 8.76492,-0.55098 9.76,-1.73064 0.616,-0.73025 1.12,-2.04141 1.12,-2.91368 0,-1.55442 -0.0795,-1.5793 -4,-1.2516 -2.2,0.18389 -9.472,0.62365 -16.16,0.97724 -6.688,0.35359 -14.896,0.93765 -18.24,1.29791 -3.344,0.36027 -8.6279,0.79797 -11.742,0.97269 -6.46514,0.36274 -7.73528,0.98272 -6.69422,3.2676 0.79833,1.75215 3.62368,2.19074 9.47622,1.47104 1.936,-0.23807 6.544,-0.65479 10.24,-0.92604 z m 44.6825,-3.91562 c -0.24544,-2.12656 -2.29331,-2.75062 -3.5202,-1.07275 -1.44849,1.98093 -1.01736,2.82728 1.4402,2.82728 2.11087,0 2.26729,-0.13195 2.08,-1.75453 z m 33.70084,-17.34374 c 7.62706,-3.56913 11.31353,-9.30449 10.3928,-16.169 -0.47592,-3.54826 -4.35783,-8.3601 -9.05355,-11.22236 -2.13543,-1.30164 -4.89184,-3.15012 -6.12535,-4.10774 -2.78347,-2.16089 -16.05621,-9.08079 -19.51724,-10.17555 -1.408,-0.44536 -3.27309,-1.25893 -4.14462,-1.80793 -2.71627,-1.71103 -8.96279,-2.65331 -17.74416,-2.67668 -9.58678,-0.0255 -13.69168,0.79122 -19.98353,3.97598 -3.72656,1.88629 -4.22728,2.38171 -5.33806,5.28154 -0.89281,2.33082 -1.16208,4.35132 -0.99136,7.43875 0.20966,3.79149 0.49018,4.55093 2.65853,7.1971 3.05497,3.7282 5.81546,5.62135 15.79306,10.8309 18.1695,9.48676 33.14749,14.07192 44.35668,13.57876 4.58665,-0.20179 6.4068,-0.60419 9.6968,-2.14377 z m 0.69294,-8.56414 c -1.27554,-1.8211 -1.25906,-2.98644 0.0629,-4.4472 0.78862,-0.87142 0.8414,-1.1704 0.2066,-1.1704 -0.46892,0 -1.64173,0.936 -2.60625,2.08 -1.54246,1.8295 -1.80807,1.94187 -2.20542,0.93305 -0.29477,-0.74839 0.47169,-3.02795 2.20571,-6.56 3.42617,-6.97887 4.82969,-7.25603 2.91288,-0.57523 -0.28461,0.99197 0.0281,1.50289 1.26459,2.06628 1.85866,0.84686 2.24123,3.32243 0.70985,4.59336 -0.61595,0.5112 -0.80618,1.40743 -0.56,2.63836 0.44855,2.24272 -0.57097,2.46896 -1.99087,0.44178 z m -20.22684,-3.09003 c -0.5112,-0.32338 -1.66384,-0.59238 -2.56144,-0.59777 -3.33638,-0.02 -4.34816,-3.79798 -1.68676,-6.29824 1.83375,-1.72271 4.29958,-1.7828 6.28786,-0.15324 1.30752,1.07163 1.40321,1.41506 0.7109,2.55131 -0.44,0.72215 -0.8,2.01991 -0.8,2.88391 0,1.86456 -0.67353,2.42189 -1.95056,1.61403 z m -0.83029,-4.15517 c 0.20844,-0.54318 0.24062,-1.12596 0.0715,-1.29507 -0.57018,-0.57017 -2.41067,0.49194 -2.41067,1.39115 0,1.21109 1.86697,1.13442 2.33915,-0.0961 z m 7.68752,4.40093 c -0.9037,-0.90369 -0.39008,-4.52805 0.79346,-5.59915 1.5115,-1.36788 5.49987,-1.17511 5.49987,0.26582 0,0.66674 -0.54077,0.90323 -1.77018,0.77418 -1.80312,-0.18928 -1.96246,0.003 -2.66856,3.22582 -0.37848,1.72729 -1.00803,2.17989 -1.85459,1.33333 z m -18.34667,-4.97555 c 0,-0.50723 0.288,-1.10023 0.64,-1.31778 0.352,-0.21755 0.64,-0.95455 0.64,-1.63777 0,-1.66935 -2.30092,-1.64218 -3.2,0.0378 -0.97684,1.82523 -2.56,1.62734 -2.56,-0.32 0,-1.94505 -1.03217,-2.10908 -1.61986,-0.25743 -0.32824,1.03418 -0.80569,1.27001 -2.07858,1.02668 -0.90886,-0.17374 -2.16342,0.003 -2.78791,0.3932 -1.47463,0.92092 -2.33148,0.0472 -1.32695,-1.35315 1.31795,-1.83718 1.56668,-2.64645 1.14843,-3.73642 -0.36617,-0.95421 -0.51421,-0.9454 -1.66848,0.0992 -0.69666,0.63047 -1.26665,1.51667 -1.26665,1.96934 0,1.02066 -1.0781,1.73891 -1.87286,1.24772 -0.848,-0.5241 0.35297,-4.33566 1.67284,-5.30914 0.59657,-0.44 1.90752,-0.8 2.91323,-0.8 1.42339,0 2.00646,0.42306 2.63134,1.9092 0.74729,1.7773 0.876,1.83596 1.863,0.84895 0.92761,-0.9276 1.40381,-0.95859 3.80635,-0.24769 7.0362,2.08199 8.28734,3.55273 5.90981,6.94713 -1.12122,1.60076 -2.84371,1.90373 -2.84371,0.50018 z m -21.76,-3.82077 c -4.60564,-2.49523 -5.02776,-2.57806 -7.39199,-1.45065 -2.86381,1.36566 -4.28295,1.35469 -5.99418,-0.0463 l -1.36798,-1.12 2.30322,-5.44 c 1.26677,-2.992 2.44092,-5.75741 2.60922,-6.14533 0.1683,-0.38793 -0.43765,-1.19259 -1.34654,-1.78812 -2.34433,-1.53606 -1.45534,-2.30655 2.66131,-2.30655 3.27915,0 3.75195,0.19443 6.04223,2.4847 2.0709,2.0709 2.48471,2.91778 2.48471,5.08508 0,2.20239 0.26936,2.7315 1.76,3.45718 1.32643,0.64574 1.71203,1.24557 1.56527,2.43493 -0.1071,0.86796 -0.2511,2.41811 -0.32,3.44478 -0.1494,2.22608 -0.85777,2.5538 -3.00527,1.39034 z m -7.43459,-4.4646 c 2.55021,-1.06555 4.87459,-4.12263 4.87459,-6.41121 0,-1.79276 -1.99501,-4.2212 -3.46781,-4.2212 -1.84156,0 -5.4609,8.37061 -4.59501,10.62708 0.42331,1.10314 0.56026,1.10337 3.18823,0.005 z m 7.43459,-0.12574 c 0,-1.1302 -1.37777,-0.93337 -1.77334,0.25333 -0.13933,0.418 0.20267,0.76 0.76,0.76 0.55734,0 1.01334,-0.456 1.01334,-1.01333 z m -7.04,-23.85422 3.52,-1.10936 -0.22848,-3.72771 c -0.17921,-2.92377 -0.0412,-3.66598 0.64,-3.44151 0.47766,0.1574 1.01248,1.41567 1.18848,2.79616 0.27274,2.13927 0.54842,2.50997 1.86666,2.50997 1.12415,0 1.70944,-0.4883 2.14249,-1.78746 0.85403,-2.56208 0.24528,-4.19563 -2.88563,-7.74357 l -2.76301,-3.13103 -2.04286,2.04286 c -1.68283,1.68284 -2.26233,1.9254 -3.28823,1.37635 -1.26404,-0.67649 -2.46356,-4.25635 -1.68656,-5.03336 0.23358,-0.23357 0.94146,0.26045 1.57309,1.09781 1.46611,1.94367 2.60405,1.2535 2.60405,-1.57938 0,-1.77271 0.24867,-2.20222 1.27506,-2.20222 2.36892,0 9.60494,9.76838 9.60494,12.96635 0,0.9866 0.40407,1.94888 0.89795,2.1384 2.75831,1.05846 14.73867,-9.4243 17.99407,-15.74475 5.19629,-10.08876 5.06179,-9.69337 5.31761,-15.63167 0.14246,-3.30676 -0.073,-6.77655 -0.51167,-8.24075 -0.98179,-3.27693 -5.98377,-8.6157 -9.4837,-10.12225 l -2.74573,-1.18191 -5.57427,1.86345 c -7.01912,2.34646 -15.14456,6.07026 -18.03649,8.26593 -1.22222,0.92796 -2.86531,1.9752 -3.65132,2.3272 -0.786,0.352 -3.36018,2.35539 -5.7204,4.45198 -3.43668,3.05283 -4.73107,4.76379 -6.49946,8.59125 -1.34645,2.91423 -2.33698,6.20008 -2.5383,8.42022 -0.38921,4.29225 0.64103,5.58193 1.75724,2.19977 0.82174,-2.48988 3.27528,-4.49475 4.78952,-3.91368 1.38305,0.53073 1.18976,1.7515 -0.34069,2.15172 -3.9406,1.03049 -4.21461,10.53757 -0.42448,14.72774 1.94948,2.15524 3.39617,2.32812 6.58094,0.7864 1.59279,-0.77106 3.03173,-1.26618 3.19764,-1.10027 0.61969,0.61969 -0.46853,2.188 -2.24728,3.23874 -3.31006,1.95529 -6.74661,1.21283 -9.42381,-2.03602 -2.00524,-2.43339 -2.38533,-1.37988 -0.50207,1.39159 2.10996,3.10507 6.59214,5.43734 10.5247,5.47645 0.88,0.009 3.184,-0.4833 5.12,-1.09344 z m 9.17258,-20.07631 c -1.10936,-1.48198 -4.66446,-9.79549 -5.08236,-11.88499 -0.59853,-2.9927 0.90328,-2.63531 2.13835,0.50885 0.88078,2.24228 1.25923,2.56 3.04931,2.56 2.39712,0 4.16212,1.66334 4.16212,3.92239 0,0.86988 0.32624,1.90785 0.72498,2.30659 1.15363,1.15363 0.16969,2.93714 -1.19809,2.1717 -0.80606,-0.4511 -1.41843,-0.36564 -2.15473,0.30071 -0.82477,0.7464 -1.14972,0.76915 -1.63958,0.11475 z m 1.70742,-4.97614 c 0,-0.352 -0.288,-0.64 -0.64,-0.64 -0.352,0 -0.64,0.288 -0.64,0.64 0,0.352 0.288,0.64 0.64,0.64 0.352,0 0.64,-0.288 0.64,-0.64 z m 4.6189,-0.81214 c -1.91241,-2.03568 -1.84887,-4.96081 0.14853,-6.83727 2.89171,-2.71662 5.37159,-0.0197 2.96947,3.22932 -1.53704,2.07895 -1.3092,3.14009 0.6742,3.14009 1.82564,0 1.12811,1.55693 -0.80156,1.7891 -1.00126,0.12047 -2.08673,-0.35908 -2.99064,-1.32124 z m 9.22836,-4.46786 c -1.66412,-2.65598 -4.62822,-14.06583 -3.94237,-15.17556 0.88676,-1.43481 1.45973,-0.47301 2.47749,4.15874 1.4864,6.76457 2.6239,9.25682 4.22496,9.25682 1.45377,0 1.73242,1.24423 0.54466,2.432 -1.16013,1.16012 -2.30233,0.92786 -3.30474,-0.672 z m 81.2817,249.31564 c -0.24441,-0.2444 -0.25521,-2.1164 -0.024,-4.16 l 0.42037,-3.71562 h -4.8043 c -3.07624,0 -5.03397,-0.28775 -5.44281,-0.8 -0.7302,-0.91489 -0.0145,-8.05141 1.10196,-10.98789 0.5176,-1.36139 0.89765,-1.67028 1.41658,-1.15135 0.51893,0.51893 0.49926,1.459 -0.0733,3.504 -0.43037,1.53714 -0.68821,3.7849 -0.57298,4.99502 0.20765,2.18067 0.24018,2.20197 3.6609,2.39683 1.93625,0.11031 3.76247,-0.11385 4.16,-0.51061 0.38974,-0.38898 0.85262,-2.61485 1.02862,-4.94638 0.19452,-2.57693 0.63369,-4.3425 1.12,-4.50272 1.11961,-0.36887 1.15038,18.43672 0.032,19.5551 -0.87657,0.87656 -1.38825,0.95842 -2.02304,0.32362 z m 12.21786,-0.25426 c -0.62325,-0.36284 -2.06325,-0.57008 -3.2,-0.46054 -1.89063,0.1822 -2.08321,0.0314 -2.25901,-1.76868 -0.1858,-1.90245 1.82606,-5.69544 5.66931,-10.68848 1.68572,-2.19003 1.2292,-4.008 -0.8449,-3.3646 -3.87569,1.20224 -4.44704,1.19516 -4.21586,-0.0523 0.27813,-1.5008 4.57171,-3.67647 6.22181,-3.15275 0.67225,0.21336 1.65463,1.28065 2.18306,2.37174 1.20137,2.48054 0.66396,4.57966 -2.47399,9.66355 -2.97508,4.82001 -2.64155,5.89858 1.66627,5.38838 2.5546,-0.30256 3.18649,-0.18986 3.18649,0.5683 0,0.52013 -0.73875,1.22655 -1.64167,1.56984 -2.0423,0.77649 -2.85403,0.7624 -4.29151,-0.0745 z m -60.91482,-8.15642 c 0.51411,-0.45244 3.74786,-1.29454 14.368,-3.74154 1.08522,-0.25005 1.39408,-0.15802 0.96,0.28604 -0.352,0.36009 -3.72984,1.40528 -7.5063,2.32263 -7.34075,1.78318 -8.80099,1.99467 -7.8217,1.13287 z m 28.03822,-11.99215 c -0.59362,-0.90596 -2.68825,-2.66484 -4.65476,-3.90863 -4.61564,-2.91931 -7.09546,-5.26928 -7.09546,-6.7239 0,-1.70153 0.76415,-1.43497 3.23445,1.12825 1.21305,1.25869 3.97081,3.55245 6.12834,5.09725 3.59346,2.57292 4.71721,3.87518 4.71721,5.46658 0,1.14175 -1.26413,0.56684 -2.32978,-1.05955 z m -26.47022,-0.52432 c 0,-0.13834 0.44695,-0.42304 0.99324,-0.63267 0.56955,-0.21856 0.82644,-0.11127 0.60223,0.25152 -0.37585,0.60814 -1.59547,0.89949 -1.59547,0.38115 z m 76.92571,-0.4457 c 0.1279,-0.38348 3.5359,-2.06717 7.5734,-3.74154 4.0375,-1.67437 8.5928,-3.68472 10.1229,-4.46744 2.9975,-1.53329 5.5942,-1.39029 3.8916,0.21432 -0.5025,0.47359 -2.4976,1.36759 -4.4336,1.98666 -1.936,0.61907 -6.0343,2.381 -9.1072,3.9154 -5.4291,2.71086 -8.5212,3.51495 -8.0471,2.0926 z m -67.81919,-5.82234 c 0.3189,-0.9567 1.77348,-1.48345 1.77348,-0.64224 0,0.34368 -0.45607,0.79987 -1.01348,1.01377 -0.6233,0.23919 -0.91589,0.0962 -0.76,-0.37153 z m 44.92541,-13.48043 c 0.45779,-7.91834 0.98343,-9.72065 2.41691,-8.28716 0.77564,0.77563 0.87215,3.68551 0.25893,7.80716 -0.18329,1.232 -0.52699,3.608 -0.76375,5.28 -0.29682,2.09607 -0.73088,3.04 -1.39792,3.04 -0.83526,0 -0.90551,-1.07111 -0.51417,-7.84 z M 425.79154,252.06266 c -8.34121,-3.89253 -13.81656,-15.61051 -12.78824,-27.36854 0.48729,-5.57176 1.36422,-7.23821 5.44977,-10.35634 5.61459,-4.28512 12.4522,-6.8493 18.26422,-6.8493 2.94147,0 3.79066,0.33659 7.22193,2.86255 4.26547,3.14005 5.83401,5.61222 7.40328,11.66821 1.29105,4.98231 1.28379,11.18657 -0.0199,17.0229 -0.93976,4.20711 -1.34192,4.91324 -4.64,8.14735 -6.02926,5.91232 -14.45339,7.87738 -20.89105,4.87317 z m 11.73334,-1.59477 c 4.2495,-1.61468 8.69078,-4.77801 10.23569,-7.29042 2.1783,-3.54247 2.97625,-9.07373 2.15144,-14.91355 -0.9251,-6.54991 -2.37409,-11.71444 -3.85372,-13.73544 -1.77034,-2.41811 -7.03953,-5.08766 -10.07641,-5.10505 -4.52415,-0.0259 -16.50538,5.67981 -19.0145,9.05513 -1.24243,1.67135 -2.6448,7.89696 -2.01017,8.92383 0.1758,0.28445 1.04819,0.24018 1.93865,-0.0984 2.9899,-1.13677 4.50081,-0.71065 6.9012,1.94629 2.54002,2.8115 2.67641,3.6088 1.55008,9.06191 -0.4204,2.03544 -0.55304,3.91215 -0.29473,4.17046 0.25831,0.25831 1.46801,-0.068 2.68821,-0.72512 2.40924,-1.29746 3.52874,-0.92997 2.44199,0.80161 -0.62711,0.99919 -1.44489,1.35523 -5.93878,2.58557 -2.43556,0.66681 -2.26806,1.80984 0.53727,3.66632 4.42589,2.92892 8.12887,3.41034 12.74378,1.65682 z m -1.17334,-9.26785 c 0,-0.9854 2.2115,-3.12628 4.39409,-4.25375 1.37442,-0.70999 1.4874,-1.10415 1.22465,-4.27247 -0.17785,-2.14472 -0.71581,-3.90958 -1.39538,-4.57783 -1.04167,-1.02431 -1.17459,-1.00382 -2.28724,0.35249 -1.87353,2.28382 -2.99001,1.82032 -3.43497,-1.42601 -0.21606,-1.5763 -0.73266,-3.41015 -1.148,-4.07522 -0.41534,-0.66507 -0.59556,-1.62513 -0.40049,-2.13348 0.39844,-1.03831 8.07503,-5.00529 9.68587,-5.00529 2.06296,0 0.97397,1.32701 -2.47853,3.02027 -3.34424,1.64017 -3.52,1.84755 -3.52,4.15305 0,2.21568 0.15303,2.42845 1.76,2.44703 3.59589,0.0416 5.28,2.69584 5.28,8.32158 0,3.63435 -0.1719,4.11796 -2.176,6.12207 -2.21934,2.21934 -5.504,3.01159 -5.504,1.32756 z m -14.3199,0.69354 c 0.59013,-1.14119 1.20376,-3.94919 1.36361,-6.24 0.26718,-3.82871 0.15887,-4.28772 -1.3411,-5.68337 -2.06327,-1.91979 -4.48982,-1.45642 -5.81742,1.11088 -0.80565,1.55794 -0.81519,2.22249 -0.0676,4.70658 1.12284,3.73092 3.39596,8.18081 4.17896,8.18081 0.33581,0 1.0934,-0.9337 1.68354,-2.0749 z"
     id="path974"
     inkscape:connector-curvature="0"
     sodipodi:nodetypes="ccscccscccssccccscscsccccsccccsccscsscsccsccccsccccssscscscccsccscccscccccscsssscccccccccccscsscccsccscccccscsscsccccssssssscccsccccsssscsccccscccssccscscccccscscscssccssccsccscccccccscccsscsccccsccscscccsscsccsccccccscccccccscccsscccccsccsccscscssscccscccsscsscsscsccccsccccscssccscscssccccscsscccsccssccccsccsccsccscccccscccccccssccccccccscscccccsccscccssscsccsccsccccccccccccssccsscccsccccccccccscccsccccscccssscscsccccsccsccccssccccsccscsscccccsscccscsscccccscccccccssscsccccssccsccccscsccccccccssscccssssscscscccscscccccsccssccccccccccccsccscsccccccccccsccscsccscsccscccsccscccsscscscsssccccscccccccsscssccssccscscscscscscccccscc"
     inkscape:export-filename="/home/phigit/Documents/Misc_Projects/Talks/2020-04-23-KreativeComputere/Images/Algoritme.png"
     inkscape:export-xdpi="284.10999"
     inkscape:export-ydpi="284.10999" />
</svg>
