<?xml version="1.0" encoding="UTF-8" standalone="no"?>
<!-- Created with Inkscape (http://www.inkscape.org/) -->

<svg
   xmlns:dc="http://purl.org/dc/elements/1.1/"
   xmlns:cc="http://creativecommons.org/ns#"
   xmlns:rdf="http://www.w3.org/1999/02/22-rdf-syntax-ns#"
   xmlns:svg="http://www.w3.org/2000/svg"
   xmlns="http://www.w3.org/2000/svg"
   xmlns:sodipodi="http://sodipodi.sourceforge.net/DTD/sodipodi-0.dtd"
   xmlns:inkscape="http://www.inkscape.org/namespaces/inkscape"
   version="1.1"
   id="svg2145"
   width="816.64001"
   height="1122.5601"
   viewBox="0 0 816.64001 1122.5601"
   sodipodi:docname="Beregner.svg"
   inkscape:version="0.92.4 (5da689c313, 2019-01-14)">
  <metadata
     id="metadata2151">
    <rdf:RDF>
      <cc:Work
         rdf:about="">
        <dc:format>image/svg+xml</dc:format>
        <dc:type
           rdf:resource="http://purl.org/dc/dcmitype/StillImage" />
        <dc:title />
      </cc:Work>
    </rdf:RDF>
  </metadata>
  <defs
     id="defs2149" />
  <sodipodi:namedview
     pagecolor="#ffffff"
     bordercolor="#666666"
     borderopacity="1"
     objecttolerance="10"
     gridtolerance="10"
     guidetolerance="10"
     inkscape:pageopacity="0"
     inkscape:pageshadow="2"
     inkscape:window-width="1280"
     inkscape:window-height="780"
     id="namedview2147"
     showgrid="false"
     inkscape:zoom="0.84093496"
     inkscape:cx="-148.02511"
     inkscape:cy="684.80272"
     inkscape:window-x="0"
     inkscape:window-y="0"
     inkscape:window-maximized="1"
     inkscape:current-layer="svg2145" />
  <path
     style="fill:#000000;fill-opacity:1;stroke-width:0.64000005"
     d="m 546.74171,457.58021 c -2.64,-0.24908 -12.18352,-0.49051 -21.20783,-0.53652 -9.0243,-0.046 -23.5683,-0.36658 -32.32,-0.71239 -8.75169,-0.34581 -20.95217,-0.79458 -27.11217,-0.99728 -6.16,-0.2027 -13.648,-0.62026 -16.64,-0.92793 -2.992,-0.30766 -11.2,-0.398 -18.24,-0.20074 -11.53739,0.32327 -12.93665,0.48275 -14.18529,1.61683 -1.38082,1.25412 -1.38776,1.25356 -2.15219,-0.17479 l -0.7669,-1.43297 -22.80781,0.52666 c -12.5443,0.28966 -33.31982,0.58653 -46.16782,0.65972 -12.848,0.0732 -23.648,0.219 -24,0.32406 -0.352,0.10506 -12.24669,-0.041 -26.43265,-0.32457 -24.77707,-0.49529 -25.82916,-0.46844 -26.72,0.68208 -0.82984,1.07174 -1.01146,1.09321 -1.72735,0.20415 -0.69885,-0.86789 -4.6435,-1.01742 -31.2,-1.18267 -74.49549,-0.46353 -74.90236,-0.47017 -75.66745,-1.23526 -0.4117,-0.4117 -0.47495,-0.7749 -0.14055,-0.80711 0.3344,-0.0322 13.712,0.0147 29.728,0.10425 16.016,0.0896 35.6,0.1879 43.52,0.21856 l 14.4,0.0557 0.31729,-33.28 c 0.17451,-18.304 0.26945,-39.68827 0.21098,-47.5206 l -0.10631,-14.24061 1.70903,-0.37866 c 5.63972,-1.24958 18.34137,-6.24175 29.22901,-11.48798 5.05899,-2.43767 6.78935,-2.86815 7.16976,-1.78369 0.43861,1.25038 -7.836,5.38757 -16.98204,8.49078 -4.75488,1.61331 -8.75716,3.26907 -8.89396,3.67948 -0.18886,0.56659 16.31988,0.66318 68.59059,0.40134 61.81006,-0.30964 75.40543,-0.15651 74.41078,0.83814 -0.27085,0.27085 -54.25536,0.75289 -126.05268,1.12554 -19.89679,0.10327 -26.26773,0.32547 -26.88,0.93751 -0.44935,0.4492 -0.78595,2.26667 -0.76497,4.13045 0.0206,1.83057 0.10231,7.6483 0.18155,12.9283 0.15267,10.17305 -0.25156,30.52062 -0.83915,42.24 -0.3893,7.76455 0.5296,31.3007 1.29633,33.20372 0.44691,1.10921 1.08123,1.17914 8.08015,0.8909 4.17735,-0.17205 7.78618,-0.50381 8.01962,-0.73727 0.5556,-0.55559 1.05206,-61.35966 0.59348,-72.6872 l -0.0895,-2.20984 6.08,-0.80045 c 3.344,-0.44025 11.696,-0.83227 18.56,-0.87117 6.864,-0.0389 16.656,-0.37904 21.76,-0.75589 5.104,-0.37685 12.016,-0.74457 15.36,-0.81716 3.344,-0.0726 17.024,-0.49288 30.4,-0.93399 44.81166,-1.4778 89.68369,-1.85408 94.40001,-0.79161 l 2.24,0.50462 -0.31965,4.76267 c -0.1758,2.61947 -0.26903,7.21067 -0.20717,10.20267 0.0619,2.992 0.13675,13.50401 0.16644,23.36001 0.0297,9.856 0.33802,19.504 0.68519,21.44 0.34719,1.936 0.77026,6.81585 0.94016,10.8441 0.21104,5.00322 0.58725,7.60242 1.18723,8.20239 0.61039,0.61039 3.41576,0.99115 9.19697,1.24826 l 8.31866,0.36997 0.89304,-7.29236 c 1.15044,-9.39429 1.24197,-52.43506 0.1312,-61.69237 -0.42237,-3.52 -1.06192,-9.28 -1.42125,-12.8 -0.35931,-3.52 -0.84781,-8.24299 -1.08554,-10.49554 -0.29,-2.74784 -0.21549,-3.96158 0.22644,-3.68846 0.63007,0.38941 1.81509,6.74635 1.6287,8.73708 -0.0491,0.5242 0.15314,2.2522 0.44936,3.84 0.29623,1.58781 0.7138,5.19092 0.92795,8.00692 0.21415,2.816 0.63937,8 0.94493,11.52 0.64262,7.40299 0.50189,43.25168 -0.2123,54.08001 -0.66954,10.15137 -1.11705,9.72636 10.91633,10.36737 5.23232,0.27872 20.74531,0.66153 34.47331,0.85069 30.48405,0.42005 41.39746,0.95888 41.76216,2.06194 0.29505,0.89238 -9.01098,0.96582 -17.76216,0.14017 z M 364.0217,453.35642 c 8.096,-0.23645 16.016,-0.50159 17.6,-0.5892 1.584,-0.0876 4.57281,-0.18806 6.6418,-0.22323 l 3.7618,-0.0639 -0.44294,-2.72 c -1.21338,-7.45127 -1.50739,-12.51493 -0.90112,-15.52 1.50816,-7.47536 6.16439,-17.92516 9.07315,-20.36246 1.78406,-1.49491 6.19641,-3.60534 7.57574,-3.62349 2.00934,-0.0264 8.02057,6.18072 9.14142,9.43936 1.99604,5.80308 2.92262,26.20051 1.37308,30.22659 -0.74849,1.94478 0.65359,2.79786 4.52785,2.75492 2.05107,-0.0227 10.06523,-0.14789 17.80923,-0.27812 l 14.08,-0.23681 -0.0674,-7.36 c -0.037,-4.048 -0.2377,-9.088 -0.44592,-11.2 -1.38187,-14.01631 -1.81599,-23.98741 -1.74658,-40.11636 l 0.079,-18.35635 -3.06957,-0.4857 c -8.69334,-1.37555 -93.54393,0.28117 -131.06958,2.55915 -8.448,0.51283 -20.544,0.86761 -26.88,0.78837 -6.336,-0.0792 -13.968,0.16942 -16.96,0.55255 l -5.44,0.6966 -0.0916,12.46087 c -0.0504,6.85347 -0.27163,19.66087 -0.49172,28.46087 -0.2201,8.8 -0.3851,16.288 -0.36667,16.64 0.0184,0.352 0.19946,4.04522 0.4023,8.20717 0.23465,4.81489 0.63409,7.6471 1.09822,7.78694 0.40118,0.12087 7.89139,0.39634 16.6449,0.61214 l 15.91547,0.39237 -0.33609,-1.77931 c -0.18484,-0.97862 -0.82965,-3.50731 -1.43289,-5.61931 -0.9059,-3.17165 -1.02769,-5.39948 -0.69972,-12.8 0.34496,-7.78381 0.64634,-9.62629 2.2959,-14.03563 2.11776,-5.66088 2.6047,-6.28434 5.71735,-7.32031 3.29892,-1.09796 5.24609,-0.88706 8.97749,0.97237 3.74031,1.86387 4.89773,3.71014 6.72583,10.72869 1.24071,4.7634 1.84966,17.96408 1.09491,23.73488 -0.32226,2.464 -0.35158,4.73322 -0.0651,5.04269 0.60936,0.65838 15.05221,1.51193 21.09141,1.24647 2.288,-0.10057 10.784,-0.37632 18.88,-0.61278 z m -44.16,-57.56618 c -2.96803,-1.77288 -7.99922,-2.05408 -10.56,-0.5902 -2.07388,1.18554 -2.56,1.1787 -2.56,-0.036 0,-0.56013 1.19033,-1.51199 2.72,-2.1751 4.6997,-2.0373 13.14677,0.0422 13.80693,3.39891 0.26764,1.36087 -0.2927,1.26257 -3.40693,-0.59762 z m 95.42805,-0.83502 c -0.74743,-0.8259 -2.40201,-1.29908 -5.57314,-1.5938 -3.7447,-0.34803 -5.00459,-0.20043 -7.42386,0.86973 -3.41923,1.51248 -4.67105,1.62174 -4.67105,0.40769 0,-0.48465 1.47163,-1.51425 3.27028,-2.28801 2.83076,-1.21776 3.91703,-1.34623 8.08273,-0.95587 3.96031,0.37111 5.15627,0.75815 6.75405,2.18577 1.12137,1.00194 1.66329,1.90682 1.2828,2.14197 -0.36233,0.22393 -1.13715,-0.12143 -1.72181,-0.76748 z m -94.60254,58.00482 c 2.26036,-2.73059 2.93531,-22.24 0.76943,-22.24 -0.27848,0 -2.04368,1.03458 -3.9227,2.29906 -2.83667,1.90894 -3.79783,2.23593 -5.66431,1.92704 -1.23636,-0.2046 -2.8859,-0.37518 -3.66565,-0.37905 -0.77976,-0.004 -2.40178,-0.87105 -3.6045,-1.92705 -2.69017,-2.36201 -3.3591,-2.39776 -3.90848,-0.2089 -1.19812,4.77369 0.49418,15.42404 3.05788,19.24453 l 1.39282,2.07562 7.44164,0.004 c 5.17809,0.003 7.64307,-0.23897 8.10387,-0.79563 z m 95.59773,-2.24 c 0.82452,-2.03939 1.05831,-22.2632 0.26615,-23.02222 -0.28573,-0.27378 -0.84573,0.0613 -1.24444,0.7446 -1.4745,2.52694 -3.52588,4.12479 -5.85705,4.56211 -4.25854,0.79891 -8.53426,-2.16696 -12.51989,-8.68449 -0.88392,-1.44544 -2.27544,0.68107 -3.80374,5.81284 -1.98668,6.67089 -1.44341,15.94901 1.2259,20.93668 0.72983,1.36369 1.09433,1.41048 10.98819,1.41048 h 10.23333 z m -5.22249,-91.55126 c -2.63959,-0.10519 -5.03763,-0.42964 -5.329,-0.721 -0.29136,-0.29136 10.0763,-0.70982 23.03925,-0.92989 12.96296,-0.22008 25.27433,-0.61563 27.35862,-0.879 3.83942,-0.48515 5.21055,-1.53568 3.11743,-2.38851 -2.05311,-0.83652 -10.70783,-2.87504 -12.2392,-2.88279 -1.73462,-0.009 -15.25218,-3.22124 -23.14784,-5.50109 -8.90674,-2.57179 -15.68701,-2.76609 -56.96001,-1.63223 -44.56518,1.2243 -59.52,1.43651 -59.52,0.84462 0,-1.03179 8.55556,-1.40907 40,-1.7639 28.82744,-0.3253 42.13422,-0.8362 56.64,-2.17466 5.82315,-0.5373 6.40446,-0.46969 13.76001,1.60038 7.97081,2.24322 18.32748,4.7647 24.96,6.07688 10.45237,2.06789 13.37758,2.76743 20.48,4.89764 4.224,1.2669 8.04,2.39822 8.48,2.51404 0.44,0.11582 0.8,0.50763 0.8,0.87068 0,0.41009 -2.48453,0.66258 -6.56,0.66669 -3.608,0.004 -10.016,0.32071 -14.24,0.70464 -7.47314,0.67923 -30.97545,1.08261 -40.63926,0.6975 z m -97.92075,-4.41435 c 0,-1.01015 3.43978,-5.3144 4.24704,-5.3144 1.36698,0 1.02846,1.63699 -0.78393,3.79089 -1.49991,1.78255 -3.46311,2.64621 -3.46311,1.52351 z m 20.90667,-0.62107 c -0.73241,-0.73241 -0.46784,-3.11291 0.49025,-4.41101 0.67803,-0.91866 1.10628,-1.05584 1.64378,-0.52654 0.542,0.53373 0.47987,1.3069 -0.24426,3.04 -1.01342,2.42546 -1.18728,2.60004 -1.88977,1.89755 z m 37.31716,-2.15604 c -1.33617,-1.87648 -1.34652,-3.81729 -0.0203,-3.81729 0.76713,0 2.59651,3.35946 2.59651,4.76822 0,1.56049 -1.0688,1.16597 -2.57617,-0.95093 z m 20.56247,-0.31956 c -2.0877,-2.37775 -2.56979,-4.13773 -1.13341,-4.13773 0.9341,0 4.90711,4.63317 4.90711,5.72247 0,1.38416 -1.84856,0.60786 -3.7737,-1.58474 z m -103.7463,-7.33773 c 0,-0.7646 13.61253,-0.7646 16,0 0.98212,0.31453 -1.79833,0.53704 -7.2,0.57621 -5.48252,0.0397 -8.8,-0.17748 -8.8,-0.57621 z"
     id="path2155"
     inkscape:connector-curvature="0"
     sodipodi:nodetypes="ccsscscccssssscssccccssccccscsssccsscccccssscsccccccccccsccscccscssscccccccccccsccccccscsscsccccccsccssccssscscccsscscccscsssccccscccccccccccccccccsccscssccsssscsscssccssscsscccscsscccsscsscs"
     inkscape:export-filename="/home/phigit/Documents/Misc_Projects/Talks/2020-04-23-KreativeComputere/Images/Gætter.png"
     inkscape:export-xdpi="284.10999"
     inkscape:export-ydpi="284.10999" />
  <path
     sodipodi:nodetypes="ccscccsccccscsssccscscsccsccsssssscccsscccsccccsccccsccsccscccsccccscccccccscscccccsscsccccsccssccsccsccccccscccccsssccsccccccccsssccccsccsssccsscscsssccccsccccccccccsscscscccsscsscsscscscccccccccccccccsssssssccsccccscssccccscscscccccsccscscccssccsccssccccccscccscscccscsscscscsccscccccsccscsssssccccc"
     inkscape:connector-curvature="0"
     id="path76"
     d="m 316.95546,275.31853 c -0.22804,-0.4261 -0.87918,-0.77088 -1.58756,-0.84062 -1.05577,-0.10395 -1.35434,-0.41418 -2.4697,-2.56612 -0.6978,-1.34633 -1.09893,-2.50448 -0.89138,-2.57366 0.20753,-0.0692 1.02188,-0.99054 1.80964,-2.04746 0.78777,-1.05693 1.89245,-2.53153 2.45484,-3.2769 2.15992,-2.8626 1.01681,-3.9607 -4.74502,-4.55817 -1.96186,-0.20344 -4.38978,-0.67455 -5.39536,-1.04693 l -1.82835,-0.67705 -0.12141,-2.06598 c -0.16758,-2.85131 0.43689,-4.61608 1.98574,-5.79745 1.14684,-0.87473 1.63779,-0.98673 4.32548,-0.98673 2.79893,0 3.11319,-0.0797 4.09136,-1.038 3.0622,-2.9999 3.1091,-4.27441 0.28757,-7.81516 -1.1418,-1.43285 -2.07601,-2.73259 -2.07601,-2.88832 0,-0.15573 -0.27633,-0.55948 -0.61407,-0.89722 -0.56712,-0.56713 -0.56369,-0.72579 0.0449,-2.07533 2.15012,-4.7681 8.06705,-5.62102 11.25971,-1.62308 0.47916,0.60003 1.08639,0.86147 2.0009,0.86147 1.15599,0 1.38233,-0.16607 1.89338,-1.38917 0.31923,-0.76403 0.71145,-2.21802 0.8716,-3.23107 0.16014,-1.01305 0.47111,-2.02186 0.69104,-2.24179 0.84701,-0.84702 6.39872,-1.36785 9.01107,-0.84538 1.39522,0.27905 2.39503,1.971 2.39782,4.05781 0.003,2.24506 0.6655,4.33122 1.52082,4.78897 0.93564,0.50074 1.81511,0.0441 6.01442,-3.12306 l 3.19662,-2.41089 1.29115,0.8762 c 0.71013,0.4819 1.41458,0.87619 1.56543,0.87619 0.6593,0 3.01746,3.58822 3.01746,4.5914 0,0.58873 0.15873,1.07042 0.35274,1.07042 0.194,0 1.63776,-1.02117 3.20836,-2.26927 2.5407,-2.019 2.85564,-2.40937 2.85564,-3.5396 0,-0.69868 -0.21232,-1.44037 -0.47182,-1.64819 -0.2595,-0.20783 -1.8365,-0.4532 -3.50443,-0.54527 -3.86035,-0.2131 -7.81488,-1.89281 -9.19371,-3.90507 -0.82701,-1.20694 -0.87815,-1.54467 -0.63693,-4.20648 0.22174,-2.4471 0.44245,-3.12169 1.42872,-4.36696 1.44841,-1.82877 2.31524,-2.16644 5.56137,-2.16644 3.9144,0 4.84734,-0.27639 5.11976,-1.51672 0.2028,-0.92333 -0.0923,-1.38653 -2.39484,-3.75856 -3.27116,-3.36994 -5.32825,-7.38405 -4.52218,-8.8244 0.74529,-1.33177 3.79184,-3.26325 5.14716,-3.26325 0.73229,0 1.63143,-0.27147 1.99805,-0.60326 1.50414,-1.36123 5.22206,1.22922 4.17366,2.90798 -0.3887,0.6224 -0.23674,0.95239 1.11276,2.41643 1.73037,1.87723 3.14805,2.21103 4.24457,0.99939 0.62318,-0.68861 1.57,-3.75314 1.8142,-5.87193 0.19884,-1.72524 1.65493,-2.54246 4.81889,-2.70455 1.91658,-0.0982 3.17175,0.0441 4.27187,0.48429 1.14161,0.45677 1.59767,0.50391 1.70684,0.1764 0.26185,-0.78554 1.5151,-0.47998 2.34176,0.57094 0.9767,1.24167 0.94004,3.62494 -0.0587,3.81408 -0.47477,0.0899 -0.72222,-0.28826 -0.98588,-1.50668 -0.32459,-1.50002 -0.35237,-1.39152 -0.35676,1.39291 -0.007,4.63053 0.96334,6.98292 2.88123,6.98292 0.74852,0 1.96429,-1.01384 5.20864,-4.34352 4.6871,-4.8104 5.56067,-5.35138 7.39871,-4.5819 1.35182,0.56594 4.03958,3.34961 4.03958,4.18375 0,1.58606 -2.85642,5.0866 -6.02518,7.38385 -0.45253,0.32807 -1.00244,1.43477 -1.30759,2.63151 -0.45214,1.77326 -0.45116,2.21123 0.007,3.09707 0.56668,1.09584 0.71908,1.1431 5.78313,1.79368 3.73633,0.48 4.25818,1.00724 3.76261,3.80139 -0.2025,1.1418 -0.53077,2.99972 -0.72949,4.12872 -0.27344,1.55352 -0.24693,2.1234 0.109,2.34337 0.30649,0.18942 0.33993,0.40758 0.096,0.62635 -0.39111,0.35079 -6.37111,1.58302 -7.68237,1.58302 -0.41568,0 -1.12709,0.52146 -1.58092,1.1588 l -0.82515,1.15881 1.42335,2.06663 c 0.78283,1.13664 2.33157,3.08449 3.44162,4.32855 2.24104,2.51158 2.17393,2.36965 1.61463,3.4147 -0.29364,0.54869 -0.28147,0.90144 0.0446,1.29439 0.35155,0.4236 0.31217,0.74792 -0.1825,1.50288 -0.66495,1.01485 -0.9949,1.18234 -4.44729,2.25764 l -2.15787,0.6721 -2.5024,-2.22743 c -1.37632,-1.22508 -3.12295,-2.77307 -3.8814,-3.43998 -1.58298,-1.39191 -3.57213,-1.6789 -4.02251,-0.58036 -0.14895,0.3633 -0.41025,1.97553 -0.58067,3.58271 -0.41543,3.91793 -1.46889,5.80993 -3.54792,6.37203 -2.16176,0.58446 -4.27703,0.48425 -5.97907,-0.28326 -1.65712,-0.74726 -2.87441,-2.77578 -3.65552,-6.09162 -0.52647,-2.2349 -1.43902,-3.10804 -3.24832,-3.10804 -1.17352,0 -3.55011,1.43505 -4.69084,2.83245 -0.86405,1.05849 -3.82221,2.82937 -4.72628,2.82937 -0.87097,0 -1.79781,-0.88385 -3.29462,-3.14183 l -0.95675,-1.44328 -0.80463,0.86368 c -0.91945,0.9869 -1.74447,3.40261 -1.43633,4.20561 0.22813,0.5945 1.89555,1.02564 3.96662,1.02564 0.7343,0 2.20531,0.27431 3.2689,0.60958 1.69903,0.53557 2.01239,0.79956 2.581,2.17434 0.79375,1.91911 0.80371,2.59126 0.0748,5.0458 -0.86263,2.9048 -2.21594,3.87138 -5.42035,3.87138 -1.47052,0 -2.72821,0.19049 -2.99068,0.45295 -0.77023,0.77023 -0.50367,1.99941 0.67942,3.13287 0.68292,0.65428 1.13236,1.46984 1.13236,2.05476 0,0.53342 0.16695,1.55199 0.37101,2.26347 0.34314,1.19645 0.27227,1.39232 -0.94364,2.60823 -0.72306,0.72305 -1.31464,1.44754 -1.31464,1.60998 0,0.16243 -0.59704,0.75072 -1.32675,1.3073 l -1.32676,1.01196 -1.70856,-0.6525 c -0.93971,-0.35888 -1.96457,-1.04322 -2.27747,-1.52077 -0.59804,-0.91273 -1.80943,-1.49895 -3.80381,-1.84076 -0.85797,-0.14704 -1.47101,0.0116 -2.17036,0.56174 -0.87582,0.68892 -0.97466,1.02488 -0.97466,3.31295 0,3.12864 -0.82068,6.03344 -2.02399,7.16389 -0.78546,0.7379 -4.09818,2.04954 -4.73582,1.8751 -0.12271,-0.0336 -1.44659,-0.16095 -2.94195,-0.28309 h 10e-6 c -1.49536,-0.12213 -2.93913,-0.44299 -3.20836,-0.71301 -0.34062,-0.34161 -0.46966,-1.54715 -0.42423,-3.96327 0.0485,-2.57834 -0.0976,-3.81246 -0.56746,-4.79342 -0.91637,-1.91326 -1.97528,-1.8746 -5.15965,0.1884 -3.59899,2.3316 -3.75984,3.08777 -0.40242,1.89165 0.81668,-0.29095 1.62349,-0.44332 1.79291,-0.33861 0.58035,0.35867 0.30808,1.26078 -0.55025,1.82318 -1.74808,1.14539 -4.31526,0.69515 -5.17282,-0.90721 m 19.12935,4.52951 c 1.83151,-1.11673 2.50264,-2.74647 2.58341,-6.27338 0.0481,-2.10045 0.26354,-3.34535 0.69213,-3.99946 1.70348,-2.59984 6.45798,-2.41847 8.77017,0.33455 1.1275,1.34246 1.23528,1.38488 2.63641,1.03753 1.14621,-0.28416 1.63857,-0.68735 2.28598,-1.87199 0.45381,-0.8304 0.93739,-2.11996 1.0746,-2.8657 0.22112,-1.20172 0.0958,-1.51887 -1.10244,-2.78935 -1.04105,-1.10384 -1.35059,-1.74679 -1.34614,-2.79611 0.0101,-2.37705 1.0572,-3.06121 4.68523,-3.06121 2.46954,0 2.47881,-0.004 3.61063,-1.56645 1.28876,-1.77908 1.41788,-3.09852 0.49303,-5.03796 -0.75815,-1.58986 -1.54662,-1.85599 -4.75079,-1.60357 -1.88263,0.14833 -2.58735,0.0393 -3.57206,-0.55259 -1.17875,-0.70853 -1.22673,-0.83154 -1.22673,-3.14535 0,-2.3012 0.077,-2.50255 1.73685,-4.54037 2.83666,-3.48265 3.15611,-5.81233 1.08148,-7.88696 -1.80117,-1.80117 -3.30512,-1.8062 -5.52554,-0.0185 -4.43589,3.57149 -6.19072,4.15654 -7.88607,2.6292 -1.0734,-0.96704 -1.47117,-2.04249 -2.00845,-5.43038 -0.4099,-2.58463 -0.52725,-2.829 -1.48103,-3.08408 -1.09352,-0.29246 -5.91466,0.24791 -6.35076,0.71181 -0.14085,0.14983 -0.62189,1.51411 -1.06897,3.03173 -0.98473,3.34272 -1.76275,4.22361 -3.73035,4.22361 -1.43292,0 -3.67646,-1.26339 -4.9154,-2.76799 -0.33779,-0.41022 -1.08561,-0.62911 -2.14931,-0.62911 -1.92664,0 -3.4009,1.0815 -3.89996,2.86095 -0.42417,1.51239 0.14599,2.80489 2.37306,5.37951 2.11119,2.44066 2.17512,3.24877 0.51406,6.49819 -1.53855,3.00978 -2.92872,3.80793 -7.17603,4.12002 -2.0561,0.15108 -3.08275,0.3926 -3.30364,0.77718 -0.17625,0.30689 -0.56918,0.8922 -0.87315,1.3007 -0.49623,0.66685 -0.45669,0.92633 0.387,2.53986 1.01536,1.94184 2.24636,2.56157 5.0967,2.56586 2.46886,0.004 5.28842,0.80254 6.25919,1.77331 0.79668,0.79669 0.90248,1.18559 0.7511,2.76097 -0.14683,1.52815 -0.46954,2.15996 -1.93682,3.79193 -2.75768,3.0672 -2.78207,4.4434 -0.10239,5.77653 l 1.40902,0.70099 1.96206,-1.30182 c 2.90081,-1.92468 4.47201,-2.36151 5.87829,-1.6343 1.92466,0.99528 2.67544,2.96097 2.68354,7.02612 0.004,1.70589 0.1875,3.03158 0.45863,3.30273 0.76996,0.76995 5.57396,0.57274 6.98346,-0.28669 z m -4.60965,-18.51729 c -0.12602,-0.2039 -0.53999,-0.37073 -0.91994,-0.37073 -0.92607,0 -2.38949,-1.22455 -2.52631,-2.11395 -0.63557,-4.13151 -0.88131,-8.65653 -0.52724,-9.70839 0.62766,-1.86463 3.17468,-3.75734 5.45828,-4.0561 2.36419,-0.3093 3.23013,5.9e-4 5.45339,1.95318 1.77098,1.55517 2.22061,2.52071 2.57748,5.5348 0.29308,2.47537 -1.17804,6.29988 -2.78886,7.25029 -0.68725,0.40549 -1.2501,0.9553 -1.25078,1.2218 -0.002,0.5911 -5.12229,0.86144 -5.47602,0.2891 z m 0.19288,-1.11236 c 0,-0.35634 -1.19344,-1.14565 -1.73223,-1.14565 -0.14963,0 0.0354,0.33971 0.41114,0.75491 0.73194,0.80879 1.32109,0.98304 1.32109,0.39074 z m 4.40225,-3.62159 c 3.19625,-1.86013 3.95631,-4.95763 1.72669,-7.03691 -1.47233,-1.37308 -2.47458,-1.81079 -4.14623,-1.81079 -2.13905,0 -3.44943,1.49127 -3.85646,4.38881 -0.36629,2.60751 0.2488,4.37105 1.82902,5.244 1.17822,0.65088 2.3285,0.4478 4.44698,-0.78511 z m 45.34447,-8.68185 c 0.8092,-0.25697 1.58714,-2.6509 1.58714,-4.88404 0,-1.15513 0.25365,-2.70733 0.56367,-3.44931 0.31003,-0.74199 0.49235,-1.46448 0.40517,-1.60554 -0.0872,-0.14106 0.12627,-0.28177 0.47433,-0.31269 0.34806,-0.0309 1.35275,-0.214 2.23265,-0.40686 1.44554,-0.31683 1.73785,-0.24914 3.03095,0.70182 0.78712,0.57885 2.16314,1.92058 3.05781,2.98161 0.89468,1.06104 2.02286,2.18873 2.50707,2.506 0.79901,0.52353 1.00252,0.51357 2.20168,-0.10781 0.72671,-0.37657 1.84161,-1.34196 2.47755,-2.1453 1.13429,-1.43288 1.14411,-1.48119 0.51689,-2.543 -0.35166,-0.59531 -1.62887,-2.14614 -2.83825,-3.44628 -3.10297,-3.33587 -3.30461,-3.79323 -2.84525,-6.4534 0.36813,-2.13178 0.43421,-2.22533 2.0662,-2.92488 1.18416,-0.50759 2.12092,-0.65311 3.14754,-0.48894 3.25385,0.52031 4.33906,-0.64241 4.75262,-5.09205 0.28209,-3.03518 0.54269,-2.82025 -3.95063,-3.2584 -4.37074,-0.4262 -6.0989,-1.9752 -6.0989,-5.46664 0,-1.6297 0.72223,-2.62817 4.7822,-6.61127 3.15373,-3.09401 3.61881,-4.27803 2.22705,-5.66979 -1.80505,-1.80505 -2.77983,-1.39247 -7.2156,3.05406 -4.80437,4.81603 -5.71174,5.29234 -8.37064,4.39403 -2.38325,-0.80518 -3.12411,-2.25177 -3.12411,-6.10004 0,-1.98096 -0.19277,-2.94473 -0.7922,-3.96068 l -0.79219,-1.34267 h -2.78492 c -2.47725,0 -2.84429,0.0938 -3.32221,0.84927 -0.60451,0.95554 -1.7418,5.72427 -1.75063,7.34052 -0.004,0.79589 -0.0923,0.92107 -0.35515,0.50548 -0.30354,-0.4799 -0.52727,-0.46752 -1.70557,0.0944 -0.74591,0.3557 -1.59703,0.64673 -1.89137,0.64673 -0.29434,0 -2.11452,-1.37573 -4.04483,-3.05719 -3.75238,-3.26859 -4.84369,-3.8966 -6.10735,-3.5145 -2.70619,0.81828 -3.29821,3.66151 -1.36837,6.57169 0.61951,0.9342 2.13425,2.63274 3.36609,3.77455 3.22919,2.99314 3.53319,5.21463 0.93347,6.82134 -1.24023,0.76651 -1.56244,0.80818 -3.49209,0.45164 -2.08406,-0.38508 -5.06376,-0.16883 -6.04702,0.43885 -0.87091,0.53826 -1.55187,2.76302 -1.55187,5.07016 v 2.2375 l 1.95191,1.25253 c 1.36583,0.87645 2.79536,1.397 4.76107,1.73366 1.54505,0.26463 2.94022,0.40015 3.10038,0.30116 0.4114,-0.25426 2.70374,0.56241 3.49193,1.24403 1.10308,0.95394 0.86768,3.42095 -0.50447,5.28679 -0.64077,0.87129 -1.36265,1.59188 -1.60419,1.60131 -0.75484,0.0294 -4.33614,3.53387 -4.76551,4.66323 -0.32779,0.86214 -0.27614,1.34736 0.26014,2.44404 1.03553,2.11765 2.15151,2.02771 5.01016,-0.40381 3.822,-3.25093 4.80678,-3.80369 6.28306,-3.52674 0.7081,0.13284 1.87705,0.5894 2.59768,1.01457 1.02186,0.60292 1.31022,1.01674 1.31022,1.88026 0,0.60896 0.25478,1.71698 0.56618,2.46227 0.3114,0.74529 0.56619,1.73263 0.56619,2.1941 0,2.15272 3.70592,3.33029 7.09432,2.25426 z m -3.79036,-20.90965 c -0.77782,-0.15094 -1.72539,-0.55605 -2.10572,-0.90023 -0.38032,-0.34419 -0.94392,-0.6258 -1.25242,-0.6258 -1.33453,0 -2.6253,-5.4206 -1.90874,-8.01576 0.25522,-0.92433 0.2465,-1.47624 -0.0277,-1.75039 -0.28223,-0.28221 -0.18681,-0.4669 0.32326,-0.62574 0.39802,-0.12395 1.61193,-0.63552 2.69758,-1.13685 2.19885,-1.01537 3.42082,-0.95261 5.93154,0.30462 1.16247,0.58211 1.63697,0.65289 2.16524,0.32297 0.97579,-0.60939 1.06422,-0.54885 1.06422,0.72861 0,0.63311 0.23835,1.61201 0.52966,2.17534 0.2913,0.56332 0.64621,1.80155 0.78868,2.7516 0.22759,1.51768 0.11724,1.95783 -0.909,3.62568 -0.93337,1.51691 -1.55694,2.05992 -3.10375,2.70274 -2.07088,0.86062 -2.05206,0.85863 -4.1929,0.44321 z m 4.13026,-2.26434 c 1.88695,-1.15054 2.47699,-2.3178 2.17834,-4.30933 -0.25646,-1.71018 -1.31898,-3.15031 -2.00946,-2.72357 -0.20406,0.12612 -0.73988,-0.23942 -1.19074,-0.81229 -0.7094,-0.90143 -1.07666,-1.03773 -2.72907,-1.01283 -1.66826,0.0251 -2.05071,0.18697 -3.02883,1.28167 -0.9942,1.11271 -1.09387,1.43963 -0.89073,2.92168 0.27436,2.00172 0.9016,2.97934 2.78423,4.33952 1.68506,1.21743 3.24182,1.31783 4.88626,0.31515 z m 2.207,1.89675 c -0.25783,-0.41718 0.33759,-0.86763 0.68613,-0.51909 0.35889,0.35888 0.292,0.87046 -0.1138,0.87046 -0.19534,0 -0.4529,-0.15811 -0.57233,-0.35137 z m -11.4377,-18.13879 c -0.65159,-1.04336 -0.59304,-1.20771 0.38102,-1.06938 0.54579,0.0775 0.89238,0.42411 0.96989,0.9699 0.15133,1.0655 -0.70809,1.12879 -1.35091,0.0995 z m -8.3948,-10.95132 c -0.29938,-0.18502 -0.62925,-0.25147 -0.73305,-0.14767 -0.1038,0.1038 0.0562,0.34011 0.35559,0.52513 0.29938,0.18503 0.62925,0.25148 0.73305,0.14768 0.1038,-0.1038 -0.0562,-0.34011 -0.35559,-0.52514 z m -57.75059,64.80657 c -0.7266,-0.24778 -1.32109,-0.7053 -1.32109,-1.0167 0,-0.45376 0.44968,-0.54224 2.26473,-0.44558 2.61461,0.13922 3.37648,0.61049 2.28695,1.41463 -0.86925,0.64156 -1.4633,0.65032 -3.23059,0.0477 z m 4.73179,-22.05306 c -1.06297,-1.56431 -1.28892,-3.4982 -0.40872,-3.4982 0.30169,0 0.87693,0.74242 1.27832,1.64984 0.40139,0.9074 0.9189,1.7667 1.15003,1.90955 0.69329,0.42847 0.47431,1.34752 -0.32108,1.34752 -0.43335,0 -1.13895,-0.58519 -1.69855,-1.40871 z m 92.65155,0.46507 c 0,-0.3114 0.16986,-0.56618 0.37746,-0.56618 0.2076,0 0.37745,0.25478 0.37745,0.56618 0,0.31141 -0.16985,0.56619 -0.37745,0.56619 -0.2076,0 -0.37746,-0.25478 -0.37746,-0.56619 z m -52.39932,-28.36701 c 0.1784,-0.91068 2.90842,-1.77651 4.01762,-1.2742 0.50756,0.22985 0.82514,0.65755 0.75491,1.01665 -0.0937,0.47934 -0.66229,0.64929 -2.5078,0.74965 -2.05456,0.11173 -2.36961,0.0433 -2.26473,-0.4921 z"
     style="fill:#000000;fill-opacity:1;stroke-width:0.37745482"
     inkscape:export-filename="/home/phigit/Documents/Misc_Projects/Talks/2020-04-23-KreativeComputere/Images/Beregning.png"
     inkscape:export-xdpi="284"
     inkscape:export-ydpi="284"
     inkscape:transform-center-y="15.458984" />
</svg>
