<?xml version="1.0" encoding="UTF-8" standalone="no"?>
<!-- Created with Inkscape (http://www.inkscape.org/) -->

<svg
   xmlns:dc="http://purl.org/dc/elements/1.1/"
   xmlns:cc="http://creativecommons.org/ns#"
   xmlns:rdf="http://www.w3.org/1999/02/22-rdf-syntax-ns#"
   xmlns:svg="http://www.w3.org/2000/svg"
   xmlns="http://www.w3.org/2000/svg"
   xmlns:sodipodi="http://sodipodi.sourceforge.net/DTD/sodipodi-0.dtd"
   xmlns:inkscape="http://www.inkscape.org/namespaces/inkscape"
   version="1.1"
   id="svg925"
   width="816.64001"
   height="1122.5601"
   viewBox="0 0 816.64001 1122.5601"
   sodipodi:docname="Chatbot.svg"
   inkscape:version="0.92.4 (5da689c313, 2019-01-14)">
  <metadata
     id="metadata931">
    <rdf:RDF>
      <cc:Work
         rdf:about="">
        <dc:format>image/svg+xml</dc:format>
        <dc:type
           rdf:resource="http://purl.org/dc/dcmitype/StillImage" />
        <dc:title />
      </cc:Work>
    </rdf:RDF>
  </metadata>
  <defs
     id="defs929" />
  <sodipodi:namedview
     pagecolor="#ffffff"
     bordercolor="#666666"
     borderopacity="1"
     objecttolerance="10"
     gridtolerance="10"
     guidetolerance="10"
     inkscape:pageopacity="0"
     inkscape:pageshadow="2"
     inkscape:window-width="1280"
     inkscape:window-height="780"
     id="namedview927"
     showgrid="false"
     inkscape:zoom="0.69037645"
     inkscape:cx="47.944032"
     inkscape:cy="392.85968"
     inkscape:window-x="0"
     inkscape:window-y="0"
     inkscape:window-maximized="1"
     inkscape:current-layer="svg925" />
  <path
     style="fill:#000000;fill-opacity:1;stroke-width:0.64000005"
     d="m 244.35579,734.65778 c -0.72634,-1.17523 -1.53584,-17.16518 -0.94734,-18.71302 0.28874,-0.75943 1.42709,-2.91079 2.52967,-4.7808 1.94299,-3.2953 2.09379,-5.01428 0.38228,-4.35751 -0.45819,0.17587 -1.3048,-0.025 -1.88137,-0.44685 -0.93151,-0.68115 -1.04478,-2.87776 -1.01659,-19.713 0.0248,-14.81088 -0.15015,-19.09742 -0.80156,-19.63804 -0.45842,-0.38045 -2.83623,-0.63375 -5.28562,-0.56303 -3.9195,0.11315 -4.9723,-0.13076 -8.7972,-2.03815 -5.65494,-2.82 -7.54834,-5.21811 -9.72673,-12.31953 -2.12595,-6.93043 -2.06854,-13.27927 0.15845,-17.52319 0.73613,-1.40283 1.71597,-3.84167 2.17741,-5.41964 1.67466,-5.72677 7.45704,-10.89096 12.19467,-10.89096 h 1.78772 l -0.35112,-12.16488 c -0.38843,-13.4578 -0.0299,-15.24463 4.05153,-20.1962 2.68372,-3.25581 5.75789,-4.53559 13.77535,-5.73467 3.93668,-0.58876 8.88558,-1.46468 10.99758,-1.94649 2.112,-0.4818 6.432,-1.33385 9.6,-1.89342 19.88212,-3.51188 25.17049,-4.17282 38.4,-4.79922 7.744,-0.36667 18.76189,-1.09718 24.4842,-1.62337 8.10411,-0.74521 11.64127,-0.80444 16,-0.26794 7.07437,0.87077 17.14135,2.47337 18.27892,2.90989 0.47766,0.1833 2.13937,0.45516 3.69268,0.60414 5.27795,0.5062 9.85741,1.44535 12.42421,2.54795 11.83605,5.0843 17.6902,8.54524 18.91048,11.17975 0.4607,0.99463 0.87523,6.71131 1.06916,14.74446 0.29972,12.41533 0.65642,14.72 2.27831,14.72 1.45147,0 4.75038,3.22163 6.39716,6.24729 1.31207,2.4107 1.73134,4.04963 1.69786,6.63696 -0.0595,4.5967 1.86862,10.38159 3.56703,10.7022 1.89479,0.35768 2.18896,1.22662 1.94299,5.73936 -0.24421,4.48058 -0.53714,5.02229 -2.88765,5.34 -1.32004,0.17842 -1.66367,0.67941 -2.0579,3.00026 -0.86889,5.11521 -4.63765,10.04705 -9.71417,12.71208 -1.1018,0.57841 -4.16327,1.35995 -6.80327,1.73676 l -4.8,0.68509 -0.45583,4.48 c -1.056,10.37885 -1.99024,22.72378 -2.05845,27.20001 -0.0771,5.06278 -0.49575,6.4 -2.0035,6.4 -1.22406,0 -1.18736,0.20057 0.67778,3.70419 0.88,1.65312 1.6,3.35776 1.6,3.78822 0,0.4304 0.58613,1.09626 1.30251,1.47962 1.04332,0.5584 1.22602,1.1049 0.91811,2.74618 -0.21143,1.12697 -0.58156,4.63942 -0.82252,7.80544 l -0.4381,5.75635 -9.6,0.4688 c -5.28,0.25779 -24.144,0.59066 -41.92001,0.73965 -17.776,0.14893 -35.344,0.43405 -39.04,0.6336 -3.696,0.19949 -18.57765,0.52333 -33.07035,0.71955 -19.87559,0.26918 -26.46496,0.17139 -26.81678,-0.39789 z m 65.32713,-2.4556 c 7.04,-0.26586 22.16,-0.40538 33.6,-0.31015 20.21289,0.16832 48.54954,-0.72051 49.36211,-1.54829 0.22116,-0.22534 0.59684,-2.93779 0.83486,-6.02777 l 0.43274,-5.61805 -2.11485,-0.85875 c -2.92725,-1.18868 -34.90018,-1.93114 -45.78017,-1.06311 -23.30548,1.85933 -39.91353,2.70503 -47.33485,2.41024 -10.34672,-0.41101 -40.58095,0.51693 -46.87036,1.43847 -2.61279,0.38278 -5.13279,1.01331 -5.6,1.40102 -1.0684,0.88672 -1.13783,7.53517 -0.10242,9.80768 l 0.74706,1.63962 25.01294,-0.39386 c 13.75712,-0.21657 30.77294,-0.61126 37.81294,-0.87705 z m -51.2,-14.13754 c 3.52,-0.30515 16.47436,-0.5673 28.78747,-0.58266 21.71122,-0.0269 33.49625,-0.48454 52.81253,-2.04998 5.15148,-0.41754 18.29437,-0.69011 29.54226,-0.61274 13.2467,0.0911 20.40211,-0.0869 20.66616,-0.51411 0.45253,-0.73216 -0.88962,-3.44915 -2.8129,-5.69421 l -1.27057,-1.48313 -38.26247,-0.3378 c -79.88547,-0.70515 -96.80922,-0.63155 -97.47121,0.42407 -0.33113,0.528 -0.45078,1.44646 -0.2659,2.04102 0.20316,0.65338 -0.13987,1.33575 -0.86709,1.72499 -0.66179,0.35418 -1.885,1.92909 -2.71826,3.49978 -1.31859,2.48557 -1.39876,2.9959 -0.6184,3.93613 0.70063,0.84422 1.46294,0.98451 3.4875,0.64185 1.42498,-0.24115 5.47088,-0.68812 8.99088,-0.99321 z m 131.27526,-13.05869 c 1.18709,-0.29229 1.40657,-0.95027 1.76887,-5.3028 1.16488,-13.99472 1.61853,-21.58289 1.6458,-27.52908 0.0339,-7.38089 -0.0748,-7.51203 -4.39551,-5.30776 -3.06721,1.56478 -3.14916,1.91919 -3.67399,15.89029 -0.22855,6.08439 -0.61372,11.185 -0.85591,11.33469 -0.57024,0.35242 -41.54581,1.20212 -60.16452,1.24761 -7.92,0.0193 -21.456,-0.22068 -30.08,-0.53339 -8.624,-0.31271 -21.22741,-0.51893 -28.00758,-0.45828 l -12.32758,0.11028 -0.62418,-1.64172 c -0.34331,-0.90294 -0.46631,-3.43272 -0.27335,-5.62171 0.41901,-4.75347 0.91493,-32.45417 1.09931,-61.40449 l 0.13338,-20.94448 2.56,-0.32417 c 6.98941,-0.88505 38.49316,-1.78208 80,-2.2779 25.34401,-0.30274 47.11739,-0.74288 48.3853,-0.97808 1.66441,-0.30875 2.39305,-0.18622 2.62097,0.44074 0.17363,0.4776 0.0704,6.19637 -0.22937,12.70837 -1.09097,23.69897 -1.36004,44.76818 -0.58366,45.70366 0.97713,1.17736 2.86044,0.61078 5.18374,-1.55952 1.66148,-1.55204 1.90303,-2.22142 1.90303,-5.27356 0,-1.92273 0.26679,-4.90318 0.59287,-6.62322 0.5845,-3.08313 1.16115,-9.05325 1.60023,-16.56736 0.12341,-2.112 0.56732,-9.024 0.98645,-15.36 0.41914,-6.336 0.6672,-13.248 0.55126,-15.36 -0.20079,-3.65728 -0.3174,-3.89561 -2.45081,-5.00855 -2.02045,-1.05401 -3.14958,-1.11674 -11.52,-0.64 -9.71876,0.55354 -25.63347,0.59323 -63.04001,0.15725 -26.28037,-0.3063 -67.99484,0.81272 -71.52,1.91857 l -2.4,0.75289 -0.12918,4.60992 c -0.071,2.53545 -0.19583,8.35392 -0.27729,12.92992 -0.0815,4.576 -0.38334,15.664 -0.67083,24.64 -0.28748,8.976 -0.3787,27.40151 -0.2027,40.94557 l 0.32,24.62557 34.42499,0.0927 c 18.93373,0.0512 34.535,0.20154 34.66947,0.33446 0.38448,0.38004 73.46532,0.64666 74.9808,0.27354 z m -22.48523,-12.37637 14.71003,-0.4555 0.77462,-6.4 c 1.05066,-8.68077 1.07695,-15.68001 0.0589,-15.68001 -1.28635,0 -9.50027,3.17926 -13.38316,5.18004 -4.65871,2.40056 -7.45761,2.42959 -9.63877,0.1 -2.38145,-2.54353 -2.68542,-4.14474 -1.15597,-6.08913 1.55022,-1.97079 6.51784,-4.02125 8.14019,-3.36 2.50689,1.02178 6.95718,0.85745 10.71409,-0.39564 7.06333,-2.3559 6.55149,-1.10522 6.6914,-16.35071 0.0673,-7.32849 0.39003,-17.50052 0.71728,-22.60452 0.32725,-5.104 0.60094,-12.22652 0.60818,-15.82781 l 0.0132,-6.54781 -1.69122,-0.42446 c -0.93017,-0.23346 -6.61817,-0.23811 -12.64,-0.0104 -6.02183,0.22777 -24.05279,0.43342 -40.06879,0.457 -16.016,0.0236 -32.72,0.30206 -37.12,0.61886 -4.4,0.3168 -14.192,0.74697 -21.76,0.95594 -7.568,0.20896 -14.336,0.493 -15.04,0.63119 -1.24573,0.24455 -1.28,0.76169 -1.28,19.31935 0,10.48745 -0.144,29.72408 -0.32,42.74808 l -0.32,23.68 24.64,0.45492 c 13.552,0.2502 25.36,0.56559 26.24,0.70085 2.15814,0.33174 42.83518,-0.13438 61.11003,-0.70026 z m -61.11003,-12.90642 c -1.584,-0.24195 -3.99517,-0.92347 -5.35815,-1.51449 -1.36299,-0.59103 -2.88071,-1.0746 -3.37273,-1.0746 -0.492,0 -2.07392,-0.7445 -3.51538,-1.65445 -1.8684,-1.17947 -2.42339,-1.85189 -1.93313,-2.34215 0.49027,-0.49027 1.47237,-0.16843 3.42086,1.12102 2.32554,1.53896 3.95363,1.955 10.9164,2.78952 6.85163,0.82119 9.71764,0.85944 17.61269,0.23503 9.63024,-0.76164 13.95035,-1.774 20.80769,-4.87601 4.01496,-1.81623 4.94175,-2.01145 4.94175,-1.04098 0,1.62184 -8.69715,5.63669 -16.72926,7.72268 -3.71214,0.96407 -6.74579,1.2076 -14.31074,1.14887 -5.28,-0.041 -10.896,-0.2725 -12.48,-0.51444 z m -21.80184,-3.30727 c -0.39979,-0.74701 -0.5483,-2.25109 -0.33003,-3.34241 0.46688,-2.33444 3.96217,-6.17941 5.61742,-6.17941 1.8068,0 1.35353,1.51942 -0.72816,2.44087 -2.18087,0.96535 -3.88665,4.84587 -2.66647,6.06605 0.39,0.39 0.70908,1.08348 0.70908,1.54108 0,1.32728 -1.8053,0.96217 -2.60184,-0.52618 z m 69.57582,-4.38856 c 1.09466,-1.85311 1.08668,-1.96039 -0.28382,-3.81408 -1.51494,-2.04908 -1.79791,-3.23918 -0.77015,-3.23918 1.27268,0 3.1382,2.53976 3.57474,4.86676 0.35705,1.90322 0.21194,2.5494 -0.72662,3.2357 -2.1724,1.58849 -3.04934,1.07566 -1.79415,-1.0492 z m -9.22193,-11.5765 c -3.90483,-0.50752 -6.32572,-1.70579 -8.65585,-4.28437 -1.54633,-1.71124 -1.64068,-9.47187 -0.17637,-14.50889 1.60103,-5.50738 5.71168,-13.84006 7.97939,-16.17503 1.68628,-1.73628 5.23769,-3.37167 7.35069,-3.3849 0.31344,-0.002 1.81874,0.62013 3.3451,1.38243 2.70917,1.35303 6.005,5.3061 6.005,7.20251 0,0.51477 0.32238,1.1352 0.71642,1.37872 0.93421,0.57738 0.14906,12.27275 -1.05256,15.67849 -1.26095,3.57392 -4.7156,8.42372 -7.88911,11.07512 -1.52672,1.27553 -2.96461,2.28265 -3.19531,2.23801 -0.2307,-0.0446 -2.22302,-0.31558 -4.4274,-0.60209 z m 0.48157,-21.8669 c 5.08475,-3.90362 9.47094,-5.31104 12.54666,-4.02592 2.01209,0.84071 2.17973,0.82169 2.17973,-0.24729 0,-0.63691 -0.72,-2.21901 -1.6,-3.51576 -0.88,-1.29675 -1.6,-2.6263 -1.6,-2.95456 0,-2.46623 -7.44313,-3.08856 -10.44335,-0.87318 -2.55034,1.88319 -7.47666,11.09437 -7.47666,13.97981 0,2.76565 -0.55337,2.97018 6.39362,-2.3631 z m -61.93709,20.16038 c -2.35052,-0.21088 -3.01539,-0.62149 -4.64189,-2.86682 -2.51766,-3.47553 -3.22993,-6.40965 -2.85347,-11.75465 0.56614,-8.03829 1.04955,-10.14442 3.32622,-14.49192 2.72443,-5.20251 4.4187,-6.9769 8.69812,-9.10943 7.93572,-3.95453 13.51269,-0.24721 16.23735,10.79387 0.82477,3.34219 0.89156,4.5941 0.31289,5.86415 -0.40466,0.88814 -0.73575,2.76145 -0.73575,4.16293 0,1.5643 -0.74782,4.02956 -1.93687,6.38505 -1.59778,3.1652 -2.83995,4.50652 -7.09541,7.66175 -3.59789,2.66767 -5.67426,3.791 -6.86313,3.71302 -0.93753,-0.0615 -2.93915,-0.22257 -4.44806,-0.35795 z m -2.69653,-8.414 c 0,-5.80474 4.76962,-12.00325 11.96008,-15.54311 3.28423,-1.61682 4.4923,-1.90439 6.59063,-1.56885 2.99599,0.47908 3.17462,-0.0524 1.56813,-4.66586 -1.56039,-4.48105 -1.97761,-4.95873 -5.27242,-6.0364 -2.91572,-0.95369 -3.3145,-0.94284 -6.24606,0.16996 -3.75808,1.42654 -6.14916,4.06323 -8.74928,9.64802 -1.76683,3.79498 -1.93743,4.75063 -1.94425,10.89129 -0.008,6.94733 0.46775,9.87774 1.49925,9.24023 0.32666,-0.20188 0.59392,-1.16276 0.59392,-2.13528 z m 0.12182,-36.39624 c 0.32908,-1.70896 4.52401,-2.77722 12.49914,-3.18298 5.316,-0.27047 7.43522,-0.15434 8.16,0.44718 1.73291,1.43819 1.06385,1.85193 -3.02096,1.86813 -10.05221,0.0399 -12.34981,0.21569 -14.00511,1.07168 -2.4335,1.25841 -3.89883,1.17613 -3.63307,-0.20401 z m 60.67818,0.25919 c 0,-1.06281 1.59231,-2.49685 4.28822,-3.86201 3.04115,-1.53998 12.34398,-1.44691 14.30761,0.14313 2.17676,1.76264 1.27961,3.55099 -1.47529,2.94082 -3.08669,-0.68367 -8.68834,-0.36404 -12.27211,0.70023 -3.91157,1.16161 -4.84843,1.17665 -4.84843,0.0778 z m 25.28001,59.10081 c 1.056,-0.69936 2.55083,-1.27346 3.32185,-1.27578 1.64596,-0.005 10.15884,-2.9917 12.03985,-4.22418 0.71459,-0.46822 2.48902,-1.27108 3.94317,-1.78414 1.45416,-0.51305 3.86866,-1.82002 5.36555,-2.90436 1.49689,-1.08434 2.95098,-1.97154 3.23131,-1.97154 1.19439,0 8.93748,-4.99213 13.26054,-8.54933 5.0362,-4.14401 6.39828,-5.90612 5.36445,-6.93994 -0.41581,-0.41581 -2.24146,0.92981 -5.33929,3.93538 -3.88599,3.77026 -10.75343,9.10247 -14.18862,11.01674 -3.16937,1.76614 -12.98032,6.03363 -16.11881,7.01125 -4.23196,1.31822 -9.92134,1.58857 -10.98778,0.52213 -0.48504,-0.48505 -1.31281,-0.42085 -2.848,0.22086 -4.02041,1.68052 -4.82189,4.30322 -1.69841,5.55772 2.1109,0.84783 2.5291,0.79258 4.65419,-0.61481 z m 40.51155,-9.42524 c 3.55124,-1.65184 5.68272,-4.18903 7.20311,-8.57413 0.80069,-2.30936 0.52839,-4.40063 -0.57301,-4.40063 -0.31817,0 -2.36287,1.42637 -4.54376,3.16971 -2.18089,1.74334 -5.96159,4.4016 -8.40157,5.90724 -3.71559,2.29279 -4.43632,3.01802 -4.43632,4.46405 0,1.71664 0.0211,1.72448 3.68,1.36892 2.024,-0.19667 5.2062,-1.0675 7.07155,-1.93516 z m -164.22829,-6.09476 c 0.0678,-3.608 0.13979,-12.13367 0.16,-18.94592 l 0.0367,-12.38594 -4.42802,0.43533 c -11.13074,1.09428 -18.36754,6.15614 -19.28361,13.48813 -0.89114,7.13243 2.13824,16.50022 6.37486,19.71302 3.20932,2.43376 8.60938,4.18529 13.01677,4.22203 l 4,0.0333 z m 161.00219,-7.43255 c 3.077,-2.76791 6.16987,-5.6774 6.87304,-6.46553 0.70316,-0.78813 2.07116,-1.84287 3.04,-2.34388 1.50653,-0.77906 1.75866,-1.30225 1.74184,-3.61447 -0.0322,-4.43856 -2.42737,-9.38431 -5.63497,-11.6359 -2.41862,-1.69776 -3.32183,-1.94767 -7.03917,-1.94767 h -4.26452 l -0.7458,8.32 c -0.41018,4.576 -0.94909,11.56 -1.19757,15.52 -0.40225,6.41065 -0.33752,7.2 0.59041,7.2 0.57321,0 3.55974,-2.26465 6.63674,-5.03255 z m 14.73214,-2.36374 c 1.36429,-0.95559 2.03299,-4.57979 1.03007,-5.58272 -0.84972,-0.84971 -4.08766,2.3447 -4.08766,4.0327 0,2.71745 0.80687,3.12649 3.05759,1.55002 z M 226.29591,627.7829 c 2.24603,-1.20204 9.6184,-3.17362 12.88114,-3.44479 1.70176,-0.14144 3.50176,-0.59546 4,-1.00896 0.9366,-0.77731 1.26081,-5.14681 0.4426,-5.96503 -0.25481,-0.25479 -1.63924,0.89225 -3.07651,2.54901 l -2.61323,3.01228 -1.72233,-1.12851 c -2.91077,-1.90721 -6.80566,-0.90259 -10.01992,2.58446 -1.45229,1.57556 -2.46699,3.14547 -2.25487,3.48868 0.48946,0.79195 0.73762,0.7828 2.36312,-0.0871 z m 186.203,-5.50069 c -0.70032,-1.37275 -2.07671,-2.86195 -3.05863,-3.30934 -1.55102,-0.7067 -1.89372,-0.6652 -2.61134,0.31619 -0.45431,0.62132 -0.82601,1.358 -0.82601,1.63707 0,0.53044 7.20783,4.3863 7.56464,4.04673 0.11256,-0.10711 -0.36834,-1.31791 -1.06866,-2.69065 z m -10.60448,-0.84772 1.73483,-0.65958 -1.41631,-1.5076 c -1.22711,-1.30619 -1.42175,-2.24406 -1.45701,-7.02042 -0.0224,-3.03205 -0.29097,-5.51282 -0.59686,-5.51282 -0.65736,0 -0.62934,-0.25806 -0.92065,8.48 -0.12716,3.81402 0.027,6.88 0.3459,6.88 0.31639,0 1.35594,-0.29681 2.3101,-0.65958 z m -161.96196,-4.06518 c 0.84688,-1.29249 0.8921,-2.19424 0.29687,-5.92 -0.38621,-2.41738 -0.65876,-7.27524 -0.60567,-10.79524 0.12895,-8.55118 0.1191,-8.64 -0.95823,-8.64 -1.35685,0 -2.18676,1.92964 -2.36911,5.50844 -0.2123,4.16663 1.51167,21.37156 2.14147,21.37156 0.27259,0 0.94519,-0.68614 1.49467,-1.52476 z m 164.89712,-1.03383 c 0.11734,-0.35123 0.0566,-3.22 -0.13504,-6.37505 -0.32206,-5.30308 -0.7723,-7.11901 -1.56784,-6.32348 -0.49779,0.49779 -0.49355,9.62402 0.005,11.57712 0.45012,1.76203 1.29666,2.32128 1.6975,1.12141 z m -160.74667,-3.96941 c 0,-1.03387 -0.18925,-1.21875 -0.71223,-0.69576 -0.39173,0.39172 -0.51874,1.02532 -0.28223,1.408 0.66201,1.07115 0.99446,0.83305 0.99446,-0.71224 z m -0.18061,-9.56828 -0.27363,-6.49628 3.74713,-3.51805 c 3.67772,-3.45291 4.94853,-5.84955 2.62711,-4.95452 -0.616,0.2375 -2.34112,0.75928 -3.83361,1.15951 -3.49496,0.93721 -4.09637,2.64843 -4.05975,11.55141 0.028,6.79718 0.35174,8.75421 1.44834,8.75421 0.37476,0 0.51033,-2.55713 0.34441,-6.49628 z m 35.38061,-10.47224 c 10.384,-0.19269 23.056,-0.55759 28.16,-0.81091 10.23621,-0.50803 23.52063,-0.44332 28.48,0.13872 10.41133,1.22189 53.79681,0.85723 55.11732,-0.46327 0.58411,-0.58412 -1.54754,-4.06525 -3.0846,-5.03734 -0.80999,-0.51226 -2.62471,-1.26501 -4.03271,-1.67278 -2.74061,-0.7937 -14.74258,-3.32382 -17.92,-3.77769 -1.056,-0.15085 -4.8,-0.74968 -8.32,-1.33074 -8.1079,-1.33841 -33.67976,-1.47727 -51.52001,-0.27977 -14.40028,0.96659 -16.14108,1.28291 -16.61511,3.01912 -0.64754,2.37169 -3.98446,7.34318 -4.92883,7.34318 -1.1884,0 -0.64536,-1.90338 1.52364,-5.34047 0.85399,-1.35326 1.41216,-2.60101 1.24039,-2.77279 -0.17178,-0.17177 -1.91213,-0.11243 -3.86745,0.13187 -3.28828,0.41085 -3.78096,0.70305 -6.56345,3.89279 -2.83297,3.24759 -4.70919,4.33964 -4.70919,2.74099 0,-0.38919 0.72,-1.56329 1.6,-2.60911 1.53121,-1.81974 2.03122,-3.08328 1.22011,-3.08328 -0.20894,0 -4.16894,0.76285 -8.8,1.69523 -8.00185,1.61102 -8.58701,1.83602 -11.78011,4.52948 -4.62455,3.90094 -4.44032,4.51264 1.28,4.25007 2.552,-0.11713 13.136,-0.37062 23.52,-0.5633 z m 69.16484,-6.31027 c -2.57266,-4.6605 -3.19627,-6.80121 -1.98127,-6.80121 0.34296,0 1.06625,0.85605 1.6073,1.90233 0.54106,1.04629 1.70046,2.95848 2.57644,4.24931 1.57824,2.32567 2.14361,5.36836 0.99753,5.36836 -0.32735,0 -1.76735,-2.12346 -3.2,-4.71879 z m -13.9125,3.27879 c -0.46154,-0.73377 -2.29047,-5.50853 -3.21972,-8.40569 -0.27177,-0.84731 -0.12008,-1.12411 0.51034,-0.93126 1.79642,0.54955 5.45252,10.13695 3.86567,10.13695 -0.3592,0 -0.87952,-0.36 -1.15629,-0.8 z m -86.29234,-2.93451 c 11.37961,-3.17362 28.08725,-6.51547 32.64,-6.52863 1.408,-0.004 3.712,-0.27829 5.12,-0.60938 7.60852,-1.78912 28.91362,-3.21941 48,-3.22242 15.70268,-0.003 26.72581,1.01974 34.99369,3.24507 1.29454,0.34842 5.47054,1.19575 9.28,1.88295 7.53526,1.35929 15.11654,3.7175 18.64606,5.79997 1.77831,1.04923 2.34816,1.1488 2.7698,0.48398 1.28521,-2.02647 0.71214,-2.69038 -4.84615,-5.61421 -7.22357,-3.79982 -12.91216,-5.68875 -20.00285,-6.64208 -3.8063,-0.51176 -11.38454,-1.58642 -16.84054,-2.38814 -9.3081,-1.36777 -10.57139,-1.41113 -20.48001,-0.70295 -5.808,0.41511 -13.296,0.88835 -16.64,1.05166 -3.344,0.1633 -9.3375,0.45396 -13.31889,0.64591 -3.9814,0.19195 -9.0214,0.61163 -11.2,0.93262 -11.06303,1.63001 -14.4804,2.19607 -25.40111,4.2075 -6.512,1.19942 -13.856,2.48709 -16.32,2.86148 -7.59268,1.15369 -10.60229,2.10306 -11.90102,3.75412 -1.52051,1.93302 -1.55772,2.84181 -0.099,2.41764 0.616,-0.17912 3.136,-0.88792 5.6,-1.57509 z"
     id="path935"
     inkscape:connector-curvature="0"
     sodipodi:nodetypes="cscccscccccsscsccccsscccccssccsccscccccscsccsccccccccccccccccccccccccccccccccccccccscccsscccsccssccccsccccssscccccsccccccccscccsccscccccsccsscscccccscsccscssccccsssscccscccscccccsccccsscssscsscccccscscsccsccccscccscscccccscccccscccssscssccccsccsscsccccccsscccccccssccsscscssccccccccccccccsccscccscsscccssscccccccscsssccsccsssssccccsscsccccssssccscscssccscscccccccscsccscsscccccc"
     inkscape:export-filename="/home/phigit/Documents/Misc_Projects/Talks/2020-04-23-KreativeComputere/Images/Chatbot.png"
     inkscape:export-xdpi="467.92001"
     inkscape:export-ydpi="467.92001" />
</svg>
