<?xml version="1.0" encoding="UTF-8" standalone="no"?>
<!-- Created with Inkscape (http://www.inkscape.org/) -->

<svg
   xmlns:dc="http://purl.org/dc/elements/1.1/"
   xmlns:cc="http://creativecommons.org/ns#"
   xmlns:rdf="http://www.w3.org/1999/02/22-rdf-syntax-ns#"
   xmlns:svg="http://www.w3.org/2000/svg"
   xmlns="http://www.w3.org/2000/svg"
   xmlns:sodipodi="http://sodipodi.sourceforge.net/DTD/sodipodi-0.dtd"
   xmlns:inkscape="http://www.inkscape.org/namespaces/inkscape"
   version="1.1"
   id="svg69"
   width="816.64001"
   height="1122.5601"
   viewBox="0 0 816.64001 1122.5601"
   sodipodi:docname="GAN.svg"
   inkscape:version="0.92.4 (5da689c313, 2019-01-14)">
  <metadata
     id="metadata75">
    <rdf:RDF>
      <cc:Work
         rdf:about="">
        <dc:format>image/svg+xml</dc:format>
        <dc:type
           rdf:resource="http://purl.org/dc/dcmitype/StillImage" />
        <dc:title />
      </cc:Work>
    </rdf:RDF>
  </metadata>
  <defs
     id="defs73" />
  <sodipodi:namedview
     pagecolor="#ffffff"
     bordercolor="#666666"
     borderopacity="1"
     objecttolerance="10"
     gridtolerance="10"
     guidetolerance="10"
     inkscape:pageopacity="0"
     inkscape:pageshadow="2"
     inkscape:window-width="1280"
     inkscape:window-height="780"
     id="namedview71"
     showgrid="false"
     inkscape:zoom="0.69037645"
     inkscape:cx="507.81578"
     inkscape:cy="728.49541"
     inkscape:window-x="0"
     inkscape:window-y="0"
     inkscape:window-maximized="1"
     inkscape:current-layer="svg69" />
  <path
     style="fill:#000000;fill-opacity:1;stroke-width:0.64000005"
     d="m 577.10684,626.80187 c -0.12954,-0.12953 -8.05012,-0.34653 -17.6013,-0.48221 l -17.36579,-0.24669 -4.11979,-4.84773 c -2.2659,-2.66625 -4.1198,-5.17986 -4.1198,-5.5858 0,-1.53872 -13.83691,-18.51326 -16.06187,-19.70402 -0.77492,-0.41473 -2.17502,-0.21913 -4.52986,0.63286 -1.87455,0.67821 -4.16386,1.39307 -5.08735,1.58856 -0.92348,0.1955 -2.30236,0.8631 -3.06416,1.48357 l -1.38508,1.12811 1.30416,3.7802 c 1.89446,5.49123 1.72761,7.39829 -0.86736,9.91343 -3.43186,3.32629 -4.75367,2.10541 -7.55006,-6.97363 l -1.47842,-4.8 -3.11956,-0.35824 c -4.19394,-0.48163 -4.77395,-1.4425 -4.73638,-7.84657 0.0248,-4.23255 0.26572,-5.49525 1.25778,-6.59311 1.21016,-1.33921 1.20895,-1.41167 -0.0874,-5.25981 -0.72295,-2.14604 -1.31445,-4.24117 -1.31445,-4.65584 0,-1.09768 -4.09359,-7.01074 -6.19623,-8.95027 -3.63023,-3.34861 -5.4124,-12.18697 -3.68884,-18.29417 1.15591,-4.0958 2.87044,-5.52084 7.93566,-6.59575 3.83938,-0.81477 3.53244,-0.26282 5.44349,0.86532 0,0 1.49419,1.40074 1.8345,3.18652 -0.20691,0.20692 0.47428,2.47449 1.51377,5.03906 1.42147,7.54286 0.91374,3.33692 1.42147,7.54286 -0.49829,3.37958 0,0 -0.55241,5.77875 0.95707,0.53561 -0.0747,1.4499 -0.70679,3.12442 -0.61741,1.6357 1.61647,2.19305 2.5464,3.40626 1.15528,1.50721 2.27404,5.25831 2.96077,9.92722 0.46019,3.12866 0.51407,3.17966 3.93809,3.72719 l 2.56781,0.41061 0.11147,-7.25555 c 0.0613,-3.99055 0.37154,-7.5156 0.6894,-7.83347 0.3439,-0.34389 0.16615,-1.20636 -0.43895,-2.12986 -0.89483,-1.36568 -0.95345,-3.29498 -0.48845,-16.07377 0.29065,-7.98699 0.52037,-15.3858 0.51053,-16.4418 -0.0433,-4.64212 -0.99173,-53.3087 -1.07227,-55.02252 -0.0998,-2.12348 -0.0259,-2.14503 11.95067,-3.48497 4.21418,-0.47148 5.42026,-0.85134 6.1963,-1.95156 3.4912,-4.94955 7.93448,-10.1308 9.62278,-11.22096 1.79548,-1.15937 1.94699,-1.50994 1.60763,-3.71985 -0.49672,-3.23458 0.64828,-7.28263 2.3117,-8.17287 1.08941,-0.58303 1.68774,-0.45371 3.25215,0.7029 l 1.91711,1.41739 1.55202,-1.67378 c 1.94105,-2.09335 3.24189,-2.12541 4.16352,-0.10263 0.83295,1.8281 -0.0798,4.67 -2.08179,6.48176 -1.72373,1.55996 -1.55783,1.98949 1.3392,3.46745 7.48025,3.81613 11.67449,7.20534 17.53819,14.17194 0.48714,0.57877 2.05622,1.25007 3.48683,1.49177 3.74591,0.63286 8.60527,2.59258 9.34789,3.76987 0.47663,0.75561 0.32346,1.2417 -0.60525,1.92079 -1.1505,0.84127 -0.91047,1.00711 3.21414,2.22057 2.45161,0.72128 5.32149,1.50382 6.37749,1.73897 4.92857,1.09753 14.37478,4.28419 15.02615,5.06905 0.39941,0.48125 0.8317,3.41788 0.96066,6.52584 0.12895,3.10796 0.51558,12.27484 0.85918,20.37084 0.34359,8.096 0.49067,19.76 0.32684,25.92 -0.16383,6.16 -0.35074,22.432 -0.41535,36.16 -0.0742,15.76159 -0.35334,25.133 -0.75748,25.42942 -0.352,0.25819 -1.576,0.29814 -2.72,0.0888 -1.56874,-0.28709 -2.08,-0.15155 -2.08,0.55138 0,1.06171 1.98666,3.05042 3.04726,3.05042 1.11868,0 1.48318,2.07257 0.78974,4.49046 -0.35035,1.2216 -0.64141,3.663 -0.6468,5.42532 -0.005,1.76232 -0.25315,3.58811 -0.55058,4.05731 -0.42532,0.67094 -2.95942,0.81067 -11.8691,0.65443 -6.23058,-0.10926 -11.43431,-0.30463 -11.56384,-0.43417 z m 21.18399,-2.27777 c 0.0388,-0.0416 0.24403,-2.01957 0.45591,-4.39557 l 0.38526,-4.32001 -4.29593,-0.008 c -2.36275,-0.004 -9.04791,-0.40372 -14.85591,-0.88683 -10.20034,-0.84846 -15.6179,-0.82372 -27.84,0.12715 l -5.76,0.44812 -0.56807,3.34832 c -0.85216,5.02282 -0.67316,5.11674 10.02256,5.25813 5.00803,0.0662 12.41751,0.32822 16.46551,0.58227 5.70492,0.35802 25.62243,0.24067 25.99067,-0.15314 z m -54.79067,-6.86509 c 0,-3.22404 -0.0628,-3.32836 -4.51728,-7.50252 -2.4845,-2.32816 -6.68838,-6.90488 -9.34196,-10.17049 -3.66023,-4.50443 -5.19591,-5.93748 -6.36273,-5.93748 -2.09851,0 -1.93036,1.31083 0.45672,3.56027 2.87597,2.71013 8.41636,9.54046 16.52845,20.37668 1.21176,1.61868 2.43576,2.94306 2.72,2.94306 0.28424,0 0.5168,-1.47128 0.5168,-3.26952 z m 52.85984,-4.5073 c 0.26564,-0.42982 -0.43078,-1.46008 -1.67145,-2.47265 -2.91054,-2.37548 -8.24974,-2.84469 -32.53352,-2.85905 l -19.42513,-0.0115 -6.17487,-6.57905 c -3.39618,-3.61848 -6.39823,-6.57048 -6.67122,-6.56 -0.4745,0.0182 1.58181,2.59515 10.87795,13.63208 4.10618,4.87511 4.23424,4.96443 6.50352,4.53601 4.91936,-0.92873 32.79097,-0.36965 47.5571,0.95395 0.59523,0.0534 1.28716,-0.23456 1.53762,-0.63981 z m -92.31853,-2.11681 c 0.19705,-0.51349 -0.27614,-2.95871 -1.05152,-5.43381 -1.40986,-4.50041 -2.18641,-5.21655 -4.24435,-3.9142 -1.40765,0.89082 0.31774,7.41099 2.39312,9.04348 1.88514,1.48286 2.42871,1.53988 2.90275,0.30453 z m 95.68533,-4.75513 c 0.69665,-0.44144 0.98819,-6.93603 1.48632,-33.11021 0.69287,-36.4065 0.3933,-62.09361 -0.83319,-71.44105 l -0.81876,-6.24 -2.9105,-0.10059 c -7.82668,-0.27052 -48.00321,0.25667 -49.95312,0.65547 -2.09182,0.42782 -2.25858,0.651 -2.71277,3.63049 -0.26616,1.74605 -0.32106,6.48663 -0.12199,10.53464 0.19906,4.048 0.47506,19.456 0.61333,34.24 0.14258,15.24362 0.49987,26.88 0.82535,26.88 0.62362,0 10.11895,-9.93711 16.76936,-17.54958 6.83585,-7.82473 11.15217,-10.0504 14.17893,-7.31123 3.11823,2.82196 0.39381,7.96499 -10.96583,20.70081 -6.46995,7.25375 -13.27678,14.45116 -17.49565,18.49955 l -3.07188,2.94774 -0.38089,8.06125 c -0.30169,6.38495 -0.20159,8.17207 0.48136,8.59415 0.47424,0.2931 8.65199,0.49765 18.17277,0.45456 9.52078,-0.0431 18.60652,0.15586 20.19052,0.4421 3.93131,0.71042 15.47885,0.78851 16.54664,0.1119 z m -57.57044,-12.71125 c 0.0476,-3.93835 -0.14762,-5.28 -0.7682,-5.28 -1.53229,0 -2.368,1.51333 -2.368,4.288 0,3.34128 -1.19248,3.65132 -3.2,0.832 -0.87742,-1.23221 -1.92471,-1.92 -2.92358,-1.92 -0.85603,0 -1.55642,0.1838 -1.55642,0.40843 0,0.64087 5.16135,6.11813 7.65705,8.12572 l 2.25521,1.81414 0.42008,-1.49414 c 0.23104,-0.82178 0.44878,-3.87015 0.48386,-6.77415 z m -40.83555,5.03442 c 1.90264,-0.66308 5.76335,-1.99803 8.57935,-2.96657 2.816,-0.96854 5.63137,-2.20534 6.25639,-2.74844 0.62502,-0.54311 2.20902,-1.00816 3.52,-1.03344 2.22365,-0.0429 2.37468,-0.17023 2.25056,-1.89772 l -0.13306,-1.85175 1.31988,1.41671 c 1.1177,1.19972 1.72626,1.34923 3.97305,0.97608 1.45924,-0.24236 3.43087,-0.83859 4.38139,-1.32497 0.95053,-0.48637 2.26348,-0.88432 2.91768,-0.88432 0.6542,0 1.74851,-0.42284 2.43178,-0.93965 0.68328,-0.5168 1.75086,-0.9488 2.37241,-0.96 4.08656,-0.0736 6.42054,-1.70887 15.1011,-10.58035 17.32084,-17.70181 23.87115,-26.90876 20.01504,-28.13263 -1.89941,-0.60285 -4.53175,1.00655 -8.53045,5.21548 -8.5218,8.96984 -13.87119,14.87329 -16.83416,18.57775 -3.45673,4.32178 -4.07097,4.70716 -13.12161,8.23275 -3.344,1.30261 -6.3536,2.6155 -6.688,2.91753 -0.3344,0.30201 -1.23895,0.54912 -2.01012,0.54912 -0.77115,0 -2.65755,0.56968 -4.192,1.26595 -1.53443,0.69627 -3.6618,1.27227 -4.72748,1.28 -1.06568,0.008 -2.60762,0.48336 -3.42655,1.05695 l -1.48894,1.0429 1.82654,1.49409 c 1.09961,0.89945 1.46089,1.50324 0.90779,1.5171 -0.50531,0.0127 -1.58949,-0.60713 -2.4093,-1.37729 -1.38645,-1.3025 -1.76928,-1.35388 -5.48125,-0.73556 -2.34319,0.39031 -4.78159,0.43997 -5.90647,0.1203 -4.35542,-1.23775 -12.48422,-0.11414 -12.48422,1.72564 0,0.71831 0.95121,0.92992 4.18008,0.92992 3.24236,0 4.26829,0.22985 4.57326,1.02459 0.49852,1.29914 -0.56966,1.95455 -4.03165,2.4737 -1.51059,0.22653 -3.36985,0.91661 -4.13169,1.5335 -1.30131,1.05374 -1.31959,1.1872 -0.30186,2.20492 1.477,1.47701 6.87106,1.41859 11.29251,-0.12229 z m -3.90065,-14.07395 c 0,-4.25338 -3.81499,-9.60846 -6.88,-9.65745 -1.71721,-0.0275 -1.7226,0.0408 -0.41113,5.20529 1.29692,5.10724 1.76024,5.65169 4.80949,5.65169 1.99948,0 2.48164,-0.23305 2.48164,-1.19953 z m 16.69234,-0.0805 c 1.23282,0 0.4982,-1.63764 -1.78223,-3.97302 -1.30344,-1.33484 -2.59944,-2.42698 -2.88,-2.42698 -0.28057,0 -0.51011,1.25199 -0.51011,2.7822 0,2.2527 0.27405,2.91444 1.44,3.47704 0.792,0.38216 1.82355,0.57018 2.29234,0.41781 0.46879,-0.15238 1.11679,-0.27705 1.44,-0.27705 z m 9.81233,-3.11048 c 0.4073,-0.65902 -12.07171,-12.88952 -13.15144,-12.88952 -0.83686,0 -0.18904,0.83633 5.51642,7.12168 2.11769,2.33292 4.2217,4.70892 4.67558,5.28 0.89247,1.12293 2.41212,1.37343 2.95944,0.48784 z m 9.65533,-3.14517 3.2,-1.74576 0.58441,-6.71929 c 0.57442,-6.60428 0.74815,-43.87409 0.28933,-62.06884 -0.27383,-10.85921 -0.47936,-11.12044 -5.86893,-7.45936 -4.41281,2.99757 -10.46529,4.189 -13.16846,2.5922 -1.00258,-0.59224 -2.33291,-1.94025 -2.95631,-2.99557 -0.84491,-1.43033 -1.25482,-1.69336 -1.61023,-1.03325 -0.54569,1.01351 -1.58382,38.80543 -1.5309,55.73153 l 0.0354,11.32601 2.8316,3.07399 c 5.5895,6.06798 11.63416,11.07468 13.35175,11.05904 0.90328,-0.008 3.08233,-0.80054 4.84233,-1.7607 z m -12.2122,-13.56441 c -3.07768,-1.24505 -7.02054,-8.2432 -5.50066,-9.76308 0.4604,-0.46041 0.9849,0.0998 1.70303,1.81892 0.57075,1.36632 1.77357,3.25246 2.67294,4.19143 1.58554,1.65536 1.7133,1.67966 4.20651,0.8 3.21844,-1.13553 4.74025,-1.15003 5.16269,-0.0492 0.96813,2.5229 -4.50367,4.51524 -8.24451,3.00191 z m 8.37095,-18.58125 c -1.62225,-1.69325 -1.9123,-2.54964 -2.12033,-6.26014 -0.22445,-4.0034 -0.094,-4.51828 1.90029,-7.49855 1.60505,-2.39863 2.53723,-3.2 3.72239,-3.2 2.33905,0 3.19854,2.33127 3.20946,8.70535 0.008,4.68408 -0.20874,5.82911 -1.45307,7.67557 -1.9131,2.83886 -2.98017,2.9561 -5.25874,0.57777 z m 4.12418,-2.19403 c 0.41781,-0.50343 0.66907,-1.99637 0.55837,-3.31765 -0.16795,-2.00428 -0.49241,-2.47956 -1.95824,-2.8685 -1.72733,-0.45832 -3.47209,0.66515 -1.86495,1.20086 1.01324,0.33775 2.66189,2.01039 2.66189,2.70063 0,0.30171 -0.432,0.98057 -0.96,1.50857 -0.528,0.528 -0.96,1.12457 -0.96,1.32571 0,0.73079 1.78258,0.34245 2.52293,-0.54962 z m 0.33888,-8.65523 c 0.20754,-0.33581 0.18996,-1.35716 -0.039,-2.26966 -0.39639,-1.57932 -0.47426,-1.60674 -1.61958,-0.57024 -1.38604,1.25435 -1.55994,2.55984 -0.40317,3.02661 1.25408,0.50603 1.65617,0.46962 2.06181,-0.18671 z m -17.11863,6.21057 c -1.36805,-1.03107 -3.02318,-5.05199 -3.02318,-7.34443 0,-2.31204 3.6691,-13.11031 4.67113,-13.74724 1.4276,-0.90746 2.25914,-0.51696 3.63308,1.70612 3.54824,5.74118 4.04743,15.57208 0.94809,18.67142 -1.66546,1.66547 -4.53097,1.99398 -6.22912,0.71413 z m 4.65682,-2.4 c 0.704,-0.704 1.28,-2.1139 1.28,-3.13312 0,-1.5365 -0.45553,-2.07849 -2.6661,-3.1722 -2.55682,-1.26501 -3.7339,-1.29698 -3.7339,-0.10142 0,0.30674 0.648,0.64975 1.44,0.76223 1.78791,0.25392 2.28268,2.72615 0.86016,4.29802 -0.77346,0.85467 -0.82911,1.28155 -0.24343,1.86722 1.04952,1.04953 1.58384,0.9587 3.06327,-0.52073 z m 0.2629,-11.44994 c -0.0722,-3.38913 -1.23907,-4.75848 -2.54599,-2.98774 -1.21754,1.64963 -1.15893,3.50946 0.15637,4.96285 1.59023,1.75719 2.45392,1.04332 2.38962,-1.97511 z m 19.59736,46.30552 c 0.62681,-0.75527 0.8018,-5.55968 0.75173,-20.64 -0.10495,-31.60859 -0.84186,-57.34952 -1.65715,-57.88579 -1.40492,-0.9241 -2.39739,-0.55989 -1.75338,0.64345 0.33357,0.62329 0.79157,4.43929 1.01778,8.48 0.63251,11.29828 0.458,51.1623 -0.26395,60.29502 -0.76391,9.66357 -0.3196,11.78777 1.90497,9.10732 z m -50.70826,-2.98358 c 1.1196,-1.1196 0.94166,-1.792 -0.47423,-1.792 -1.4065,0 -2.22869,0.96388 -1.63777,1.92 0.52371,0.84738 1.17616,0.80784 2.112,-0.128 z m 0.33239,-4.832 c 0.68501,-1.3743 0.75916,-3.16253 0.33831,-8.16 -0.54829,-6.51099 -1.67536,-9.35507 -3.87941,-9.78938 -0.78531,-0.15475 -0.90881,0.4304 -0.67539,3.2 0.15711,1.86416 0.5465,4.39738 0.8653,5.62938 0.31881,1.232 0.58127,4.184 0.58322,6.56 0.003,3.37828 0.20926,4.32 0.94714,4.32 0.51896,0 1.33834,-0.792 1.82083,-1.76 z m -5.70904,-9.16957 c -0.66845,-3.18465 -1.50335,-5.76882 -1.85535,-5.7426 -1.17926,0.0878 -0.72146,10.32628 0.58808,13.15217 l 1.18632,2.56 0.64815,-2.08966 c 0.49297,-1.58935 0.35717,-3.47595 -0.5672,-7.87991 z m 24.90973,-10.35043 c 0.40604,-17.8555 0.25876,-20.96 -0.99437,-20.96 -0.352,0 -0.46717,0.648 -0.25593,1.44 0.21124,0.792 0.0537,9.10144 -0.35012,18.46543 -0.4038,9.36399 -0.55208,17.49999 -0.32951,18.08 1.15307,3.00486 1.55509,-0.54168 1.92993,-17.02543 z m 0.15063,-24.32 c 0.27776,-0.792 0.54201,-8.56827 0.58723,-17.28059 0.087,-16.76931 0.28084,-17.87957 2.87835,-16.48943 0.7693,0.41172 1.84066,0.57899 2.38079,0.37172 0.81567,-0.313 0.84112,-0.5467 0.1502,-1.3792 -0.89005,-1.07245 -6.51145,-4.10251 -7.61101,-4.10251 -0.42419,0 -0.66057,3.26979 -0.65932,9.12 0.003,13.09291 0.75968,31.20001 1.30414,31.20001 0.25554,0 0.69187,-0.648 0.96962,-1.44 z m 17.08821,-23.26963 c 4.47306,-1.55625 9.53321,-6.65038 6.60603,-6.65038 -0.50053,0 -3.45029,-0.864 -6.55502,-1.92 -6.81032,-2.31636 -7.13001,-2.33189 -7.8713,-0.38217 -0.32157,0.84581 -0.8578,1.70663 -1.1916,1.91294 -1.83544,1.13435 -1.28917,6.85568 0.78377,8.20895 0.85167,0.55598 4.93844,-0.0248 8.22812,-1.16934 z m -12.58531,-7.04839 c -0.4363,-1.13697 -2.29861,-1.15111 -2.29861,-0.0175 0,0.47547 0.34148,1.84347 0.75886,3.04 l 0.75886,2.1755 0.55966,-2.15804 c 0.30781,-1.18693 0.40736,-2.55493 0.22123,-3.04 z m 70.66139,0.50613 c 0,-0.34956 -1.224,-0.83498 -2.72,-1.07869 -3.79397,-0.61808 -8.26218,-1.83023 -14.19065,-3.84969 l -5.07064,-1.72726 -2.92936,1.51378 -2.92935,1.51377 4.8,0.17341 c 2.64,0.0954 5.19243,0.31479 5.67207,0.48757 1.37445,0.49515 -0.38764,2.21902 -2.26821,2.21902 -0.85767,0 -1.42432,0.21858 -1.25922,0.48572 0.46658,0.75494 20.89536,1.01145 20.89536,0.26237 z m -31.70718,-4.61797 c 5.80515,-2.4167 7.38718,-3.74847 7.38718,-6.21866 0,-2.45072 -3.91565,-8.02796 -7.1931,-10.2455 -4.39279,-2.97217 -9.83957,-5.90596 -10.96481,-5.90596 -1.40886,0 -1.35189,2.43049 0.18708,7.98047 1.00874,3.63786 1.07777,4.55352 0.38493,5.10614 -0.96026,0.76593 -3.05364,10.4575 -2.46466,11.41048 0.70962,1.14817 7.55998,-0.003 12.66338,-2.12697 z m -15.11012,-0.20058 c 1.14843,-2.40332 2.21916,-15.3776 1.53909,-18.64954 -0.73454,-3.53407 -2.86467,-3.79367 -6.01596,-0.73317 -2.93327,2.84876 -10.04009,15.14378 -10.11974,17.50748 -0.0143,0.42587 1.19791,1.09349 2.69391,1.48361 1.496,0.39012 4.016,1.09939 5.6,1.57617 3.96996,1.19494 5.28363,0.94804 6.3027,-1.18455 z m -18.19023,-4.88266 1.2442,-2.13038 -3.7295,0.38492 c -4.94539,0.51041 -5.61441,1.29534 -2.50167,2.93512 3.02427,1.59317 3.41633,1.49964 4.98697,-1.18966 z m 19.81556,-22.55523 c -0.0396,-1.31359 -0.45939,-2.85516 -0.9329,-3.42571 -0.78397,-0.94463 -0.96347,-0.91073 -2.00803,0.37925 -2.09695,2.58963 -1.04477,6.01637 1.72542,5.61934 1.04277,-0.14946 1.2738,-0.63847 1.21551,-2.57288 z m 6.15197,-4.14335 c 0,-1.51268 -1.57943,-0.54913 -1.82147,1.11121 -0.19336,1.32642 -0.0918,1.41165 0.8,0.6715 0.56181,-0.46625 1.02147,-1.26848 1.02147,-1.78271 z M 222.5714,626.09908 c -0.20037,-0.32419 -0.17368,-3.49815 0.0593,-7.05322 l 0.4236,-6.46379 2.46293,-2.2251 c 1.35458,-1.22382 2.4629,-2.51387 2.4629,-2.86678 0,-0.35292 -1.279,-0.64167 -2.84223,-0.64167 -1.57665,0 -3.06803,-0.35621 -3.34934,-0.8 -0.27891,-0.44 -0.41437,-4.18323 -0.30101,-8.3183 0.17111,-6.24207 0.0422,-7.5812 -0.75929,-7.88876 -0.53096,-0.20375 -3.10672,0.65948 -5.72391,1.9183 -2.61719,1.25882 -5.09267,2.28876 -5.50107,2.28876 -0.64003,0 -2.58604,1.03763 -8.72315,4.65124 -0.704,0.41452 -2.94203,1.8642 -4.97341,3.22151 -4.79801,3.20588 -11.10846,5.76578 -13.02656,5.28437 -0.81653,-0.20494 -2.07358,-1.00481 -2.79345,-1.77749 -0.71986,-0.77269 -2.60676,-1.73444 -4.19309,-2.13723 l -2.88426,-0.73234 -3.02461,3.74721 c -2.1532,2.6676 -3.3012,3.61436 -3.98462,3.28613 -1.20751,-0.57997 -5.54855,-0.58155 -7.75078,-0.003 -1.56362,0.41089 -1.7073,0.77468 -2.24,5.67179 l -0.56922,5.23273 -2.98827,2.05366 c -2.86192,1.96682 -3.26513,2.05654 -9.53586,2.122 -7.40345,0.0773 -9.98137,-0.7431 -12.22171,-3.88937 -1.06838,-1.50041 -1.34579,-2.78174 -1.29153,-5.96563 0.0565,-3.31506 -0.13083,-4.11251 -1.02677,-4.37111 -0.60272,-0.17397 -5.13666,-0.5116 -10.07542,-0.75027 -10.55665,-0.51017 -10.47948,-0.55026 -11.13503,5.78333 -0.61437,5.93576 -2.15622,7.38201 -9.814598,9.20607 -4.86216,1.15806 -7.06171,0.91246 -9.83773,-1.09849 -5.197536,-3.76507 -7.110353,-7.14624 -6.426577,-11.35985 0.310067,-1.91073 0.142876,-2.33527 -1.152012,-2.92526 -1.084859,-0.4943 -2.080823,-0.49281 -3.509536,0.005 -1.816428,0.63321 -2.058236,0.55621 -2.703982,-0.86105 -0.521832,-1.14529 -0.518077,-1.78669 0.01422,-2.42806 0.427664,-0.5153 0.851367,-4.64373 1.036461,-10.09895 l 0.313082,-9.2275 3.454904,-2.88 c 1.900197,-1.584 4.461313,-3.6533 5.69137,-4.59845 2.14435,-1.64768 2.25568,-1.93763 2.70304,-7.04 0.25662,-2.92686 0.45565,-9.92955 0.4423,-15.56155 -0.0255,-10.7401 0.23547,-11.88968 2.88994,-12.73217 0.75976,-0.24114 2.43426,-1.27516 3.72111,-2.29782 2.10654,-1.67406 2.67028,-1.82224 5.65617,-1.48674 1.824038,0.20496 3.631348,0.61892 4.016248,0.91991 0.89953,0.70344 8.71178,1.80045 9.49561,1.33339 1.20874,-0.72025 7.08858,-0.0797 7.79513,0.84925 0.96179,1.26449 1.68617,1.17854 3.75011,-0.44496 1.36823,-1.07625 2.47648,-1.3429 5.04631,-1.21419 1.81116,0.0907 5.11556,0.20734 7.34311,0.25914 l 4.05008,0.0942 0.25519,6.08 c 0.14035,3.344 0.47781,9.248 0.74992,13.12 l 0.49472,7.04 10.24,0.43793 c 5.632,0.24087 13.264,0.73364 16.96,1.09506 3.696,0.36141 8.84481,0.6741 11.44181,0.69485 2.59699,0.0207 5.01594,0.21952 5.37545,0.44171 0.4249,0.2626 0.51863,3.56173 0.26784,9.42721 l -0.38582,9.02324 3.2309,1.0787 c 3.55619,1.1873 5.21726,0.84018 8.22982,-1.7198 0.88,-0.7478 2.32,-1.8515 3.2,-2.45267 5.8657,-4.00711 10.24175,-6.767 12.2125,-7.70218 1.25558,-0.59582 3.25318,-1.89335 4.43912,-2.88342 l 2.15625,-1.80012 -0.1073,-6.34025 c -0.059,-3.48715 0.34565,-10.80426 0.89927,-16.26026 0.55361,-5.456 1.13402,-18.46843 1.28979,-28.91649 0.15577,-10.44807 0.48733,-21.23127 0.7368,-23.96267 l 0.45357,-4.96618 7.68,-2.37769 c 4.224,-1.30773 10.272,-3.15028 13.44,-4.09456 9.29936,-2.77183 20.81292,-6.64224 25.14069,-8.45132 l 4.0207,-1.68071 7.8193,1.06237 c 8.70022,1.18206 31.40187,2.51883 33.46402,1.97049 0.73387,-0.19513 1.64503,0.0337 2.0429,0.51312 0.47845,0.57651 0.82803,7.26728 1.04729,20.0445 0.36819,21.4564 0.46885,23.42248 1.9158,37.41914 1.32559,12.82271 1.29529,14.88961 -0.26304,17.9442 -0.7108,1.39327 -1.38819,3.35637 -1.50533,4.36244 -0.11714,1.00608 -0.42553,2.17314 -0.68531,2.59347 -0.25978,0.42033 -0.0559,1.68576 0.45294,2.81206 1.34809,2.98363 1.10981,8.11992 -0.41836,9.01781 -2.7985,1.6443 -10.45935,10.24963 -14.77375,16.59514 -1.39302,2.04882 -2.87627,3.92082 -3.29611,4.16 -0.41984,0.23919 -2.09747,2.15602 -3.72809,4.25964 -3.28723,4.24082 -3.66457,6.53536 -1.02624,6.24058 l 1.56326,-0.17466 -1.52248,1.62061 c -1.00341,1.06807 -1.92807,1.49188 -2.71208,1.24304 -0.85622,-0.27175 -1.89957,0.39913 -3.72286,2.39377 -1.39329,1.52424 -2.53325,3.15069 -2.53325,3.61434 0,0.46366 -1.3481,2.40451 -2.99577,4.31301 -3.3953,3.93275 -3.64005,4.01179 -13.64423,4.40614 -3.696,0.1457 -7.152,0.34732 -7.68,0.44805 -0.528,0.10073 -3.1792,-0.0548 -5.89155,-0.34577 -3.40415,-0.3651 -5.58458,-0.29634 -7.04,0.22199 -1.15965,0.41301 -6.30262,1.0083 -11.42882,1.32289 -5.12621,0.31458 -10.11296,0.87331 -11.08166,1.24162 -2.16398,0.82274 -2.77842,0.83792 -3.24672,0.0802 z M 97.426662,622.04853 c 1.16368,-0.792 2.644618,-2.16 3.290958,-3.04001 2.58917,-3.52517 1.99585,-12.14856 -0.929708,-13.51252 -0.77427,-0.36098 -2.41576,-1.21189 -3.64776,-1.89091 -4.61396,-2.54299 -10.0196,-0.89212 -11.91241,3.63802 -0.48818,1.16836 -0.887483,3.64556 -0.887348,5.50486 2.31e-4,3.19408 0.187688,3.58355 3.398338,7.06056 3.05887,3.31264 3.65634,3.68 5.98511,3.68 1.62926,0 3.37032,-0.53312 4.70282,-1.44 z m -8.06231,-6.55534 c -1.42391,-2.17316 -0.71923,-4.53649 1.73038,-5.80323 1.88447,-0.9745 2.04714,-0.95504 3.51073,0.41992 1.95461,1.83626 1.94395,3.42756 -0.0362,5.40773 -2.00719,2.00719 -3.87949,1.9984 -5.20489,-0.0245 z m 4.19501,-1.56582 c 0.47404,-0.88576 0.45269,-1.37191 -0.0746,-1.69778 -0.82601,-0.51051 -2.61365,1.54005 -2.08637,2.39322 0.5603,0.90658 1.45822,0.61761 2.16094,-0.69544 z m 144.365118,8.51648 c 4.21062,-0.57457 14.39303,-1.22257 22.62757,-1.44 12.4078,-0.32762 15.0502,-0.55973 15.42908,-1.35532 0.25145,-0.52801 0.95519,-1.91092 1.56386,-3.07314 2.06295,-3.93909 2.339,-3.88006 -18.3288,-3.91958 -19.11343,-0.0365 -32.09477,0.72637 -33.59881,1.9746 -0.52948,0.43944 -0.83723,2.19513 -0.83723,4.77648 v 4.08164 h 2.74433 c 1.50937,0 6.18937,-0.47011 10.4,-1.04468 z m -93.18936,-1.17251 c 3.72231,-1.88623 5.80503,-4.92101 5.80503,-8.45862 0,-4.10677 -3.51698,-6.49199 -9.80292,-6.64836 -0.6396,-0.0159 -2.4719,0.47099 -4.07176,1.08198 -2.42201,0.92497 -3.11106,1.58264 -4.11709,3.9296 -2.22475,5.19015 -1.40892,9.16882 2.20216,10.73962 3.06949,1.33521 6.51738,1.11275 9.98458,-0.64422 z m -7.8483,-3.32948 c -0.9192,-0.9192 -0.34947,-3.30973 1.18286,-4.96315 1.97147,-2.12725 4.05923,-1.98884 5.37101,0.35607 0.84527,1.51098 0.82933,1.86022 -0.15337,3.36 -0.86507,1.32027 -1.61168,1.67374 -3.53526,1.67374 -1.34122,0 -2.63058,-0.192 -2.86524,-0.42666 z m 4.69333,-2.77334 c 0,-0.352 -0.288,-0.64 -0.64,-0.64 -0.352,0 -0.64,0.288 -0.64,0.64 0,0.352 0.288,0.64 0.64,0.64 0.352,0 0.64,-0.288 0.64,-0.64 z m 143.0403,-5.18773 c 2.46992,-3.24773 4.61915,-6.86089 3.38596,-5.69227 -1.23611,1.1714 -6.08964,7.56324 -6.43912,8.48 -0.72513,1.90216 -0.0327,1.26994 3.05316,-2.78773 z m -17.55167,0.50494 c 8.86623,-0.12039 10.88971,-0.32822 12.32,-1.26538 1.70772,-1.11894 2.42797,-3.23503 0.91137,-2.67762 -0.44,0.16172 -11.312,0.36868 -24.16,0.45992 l -23.36,0.16587 -2.08,1.56036 c -1.144,0.8582 -2.08,1.78853 -2.08,2.06742 0,0.27888 6.264,0.3555 13.92,0.17027 7.656,-0.18524 18.69388,-0.40162 24.52863,-0.48084 z m -151.43811,-3.07279 c 2.83222,0.0231 7.39416,0.23184 10.13764,0.46388 4.45094,0.37646 5.14023,0.28294 6.4,-0.86833 2.13726,-1.95318 4.8943,-3.16984 9.19693,-4.05854 4.49792,-0.92902 6.67797,-0.33081 10.26188,2.8159 2.10142,1.84508 2.15709,1.85508 7.83102,1.406 4.42484,-0.35021 5.811,-0.69051 6.14189,-1.50781 0.23503,-0.58053 0.576,-4.55022 0.75771,-8.82153 0.31496,-7.40334 0.26376,-7.83264 -1.0964,-9.1928 -1.25533,-1.25533 -1.82178,-1.37159 -4.71398,-0.96752 -5.77915,0.80742 -18.50527,1.10691 -50.89374,1.19772 -30.985165,0.0869 -31.615596,0.11378 -32.068135,1.36861 -0.857563,2.37792 -1.376653,14.31353 -0.679187,15.61675 0.364763,0.68157 1.477105,1.41797 2.471871,1.63646 1.55654,0.34188 2.251717,-0.0458 4.986983,-2.78106 3.77753,-3.77754 5.59739,-4.35252 10.38495,-3.28111 3.52012,0.78777 5.23566,2.04734 8.639638,6.34334 1.0326,1.3032 1.51639,1.42408 4.13052,1.03207 1.62852,-0.24421 5.2782,-0.42513 8.11041,-0.40203 z M 80.780149,596.9663 c 0,-4.55862 0.579509,-5.401 2.695815,-3.91869 1.342398,0.94026 1.544928,0.86937 3.795968,-1.32871 3.30901,-3.23116 4.38822,-2.66316 4.38822,2.30954 0,4.0886 -0.80216,4.96905 -2.044,2.24351 -0.40511,-0.88912 -0.90294,-1.52193 -1.10628,-1.40625 -0.20335,0.11567 -1.44972,0.703 -2.76972,1.30516 -1.46923,0.67024 -2.400003,1.53828 -2.400003,2.23825 0,1.17991 -1.146143,2.67941 -2.048,2.67941 -0.2816,0 -0.512,-1.855 -0.512,-4.12222 z m 46.103551,2.21678 c -0.57848,-0.35752 -0.64378,-1.39212 -0.24571,-3.89296 0.60653,-3.81042 1.71631,-4.57943 2.02271,-1.4016 0.16461,1.70722 0.47327,2.08 1.72223,2.08 1.71218,0 2.6879,1.08532 1.78629,1.98693 -0.95285,0.95285 -4.42519,1.75934 -5.28552,1.22763 z m -14.51838,-0.99089 c -0.28822,-0.7511 -0.57815,-0.80746 -1.25671,-0.24429 -0.67386,0.55925 -1.26319,0.4823 -2.49679,-0.32598 -1.43541,-0.94052 -1.65658,-0.94893 -1.99167,-0.0757 -0.77796,2.02733 -2.16,1.05136 -2.16,-1.52535 0,-4.4185 1.56928,-6.09868 2.88824,-3.09235 0.95397,2.17444 2.51596,1.81123 2.75231,-0.64 0.36172,-3.75158 1.54356,-2.47652 2.22453,2.4 0.19726,1.41259 0.38425,1.24393 1.59643,-1.44 0.75515,-1.672 1.66238,-3.04 2.01608,-3.04 0.69432,0 5.16241,6.65784 5.16241,7.69243 0,0.96177 -1.6654,0.74551 -2.56,-0.33243 -1.12185,-1.35173 -3.03044,-1.19268 -3.84,0.32 -0.81577,1.52428 -1.81649,1.65444 -2.33483,0.30367 z m 24.98852,0.22905 c -0.21036,-0.34038 0.2225,-0.77708 0.96191,-0.97044 1.62669,-0.42539 1.63069,-0.47668 0.2244,-2.8743 -1.09756,-1.87125 -1.08974,-1.93413 0.3909,-3.13874 1.68412,-1.37017 3.2891,-1.61404 3.2891,-0.49979 0,0.40119 -0.49313,1.09003 -1.09584,1.53074 -0.92654,0.6775 -0.96387,0.96032 -0.24164,1.83056 1.21867,1.4684 1.81028,1.289 2.93748,-0.89075 0.54608,-1.056 1.34547,-1.91889 1.77643,-1.91753 0.9761,0.003 5.58357,5.61911 5.58357,6.8058 0,1.12027 -1.26793,1.08243 -2.80841,-0.0838 -0.93808,-0.71018 -1.5102,-0.75333 -2.55744,-0.19287 -1.72146,0.9213 -7.95628,1.21692 -8.46046,0.40115 z m -41.434498,-1.06311 c -2.20696,-2.43866 -0.45929,-6.50961 2.79458,-6.50961 3.214048,0 3.992888,3.62013 1.411338,6.56 -1.267938,1.44393 -2.870968,1.42471 -4.205918,-0.0504 z m 2.82881,-2.84561 c -0.0792,-0.76525 -0.95699,-0.61705 -1.232,0.208 -0.1408,0.4224 0.0896,0.6528 0.512,0.512 0.4224,-0.1408 0.7464,-0.4648 0.72,-0.72 z m 35.591998,2.32267 c -0.68229,-0.68229 -0.5185,-5.22261 0.20452,-5.66946 0.77602,-0.47961 1.19891,0.54445 1.42602,3.45315 0.16036,2.05392 -0.66757,3.17928 -1.63054,2.21631 z m 48.26643,6.62377 c -0.82143,-0.82144 -1.65443,-0.18656 -1.04629,0.79742 0.23557,0.38116 0.7215,0.51182 1.07985,0.29035 0.43712,-0.27016 0.42608,-0.62814 -0.0335,-1.08777 z m 93.21105,1.08607 c 1.86906,-0.37381 1.92698,-0.49907 2.29381,-4.96 0.20698,-2.51708 0.1603,-8.7107 -0.10375,-13.76361 -0.26404,-5.0529 -0.26099,-11.10091 0.007,-13.44 0.26777,-2.33909 0.68451,-9.35328 0.92607,-15.58707 0.5025,-12.96744 0.31783,-13.64369 -3.55007,-13.00032 -5.92709,0.98588 -36.28093,1.41861 -44.21033,0.63027 -1.936,-0.19248 -4.384,-0.0938 -5.44,0.2193 -1.59308,0.47234 -1.89733,0.87407 -1.78687,2.35938 0.0732,0.98457 -0.14848,2.3163 -0.49267,2.95941 -0.34418,0.64312 -0.76889,5.76562 -0.9438,11.38335 -0.34305,11.0181 0.0251,12.41676 2.49424,9.47446 0.75301,-0.89732 2.94454,-2.41104 4.87008,-3.36381 3.76842,-1.86464 7.38037,-4.52352 10.5271,-7.74937 1.08456,-1.11183 3.50843,-3.05284 5.38639,-4.31337 3.95208,-2.65274 5.30976,-2.40834 6.49017,1.1683 1.85927,5.63367 -2.52403,11.91566 -14.99241,21.48657 -1.60498,1.232 -3.27681,2.35417 -3.71518,2.49372 -1.80406,0.57427 -9.61248,6.84437 -10.09101,8.10301 -0.48131,1.26594 -0.18812,13.70537 0.36493,15.48327 0.1935,0.62203 5.78826,0.8 25.14895,0.8 13.69505,0 25.76295,-0.17257 26.81756,-0.38349 z m 9.56018,-2.33651 c 1.94765,-2.05771 3.70389,-4.87282 3.2942,-5.28036 -0.58295,-0.57989 -6.29186,5.59613 -6.29186,6.80667 0,1.06786 1.04667,0.53494 2.99766,-1.52631 z m -112.78816,-2.56 c 1.29714,-1.496 3.92465,-4.304 5.83892,-6.24 1.91426,-1.936 3.47847,-3.88 3.47603,-4.32 -0.006,-1.11403 -2.23964,-1.00252 -3.20445,0.16 -1.21847,1.46818 -2.10384,1.15433 -3.7018,-1.31222 -0.804,-1.24099 -1.74,-2.08444 -2.08,-1.8743 -0.91964,0.56837 -0.74752,1.58652 0.2682,1.58652 1.01191,0 2.9536,2.68943 2.9536,4.09104 0,0.51483 -0.76072,1.53443 -1.69048,2.26579 -1.34195,1.05559 -1.88,1.17243 -2.60979,0.56676 -0.78171,-0.64876 -0.69632,-0.93451 0.57048,-1.90905 1.41642,-1.08963 1.42589,-1.14677 0.1922,-1.1603 -0.71369,-0.008 -1.93769,-0.46257 -2.72,-1.01053 l -1.42241,-0.99629 v 6.43629 c 0,7.51026 0.47175,7.9348 4.1295,3.71629 z m 8.38178,-0.74373 c 1.19282,-0.87221 1.17485,-0.93156 -0.51507,-1.70155 -1.50426,-0.68538 -1.93175,-0.63424 -3.03361,0.36293 -0.70543,0.6384 -1.2826,1.4041 -1.2826,1.70155 0,0.87914 3.49133,0.61687 4.83128,-0.36293 z m 103.88017,-3.09627 c 1.77556,-2.2 5.40185,-6.69078 8.05842,-9.97952 2.65657,-3.28874 4.83013,-6.2808 4.83013,-6.64902 0,-0.36823 1.6081,-2.50115 3.57355,-4.73983 1.96545,-2.23868 3.45607,-4.42279 3.31247,-4.85358 -0.31829,-0.95486 -7.52602,5.7058 -7.52602,6.95479 0,0.47694 -0.27746,0.86716 -0.61658,0.86716 -0.33912,0 -2.48881,1.75137 -4.77708,3.89194 -2.28827,2.14057 -4.44814,3.71416 -4.79972,3.49687 -1.361,-0.84114 -1.75273,-4.73772 -1.22536,-12.18881 0.29897,-4.224 0.39519,-8.31929 0.21383,-9.10065 -0.18137,-0.78135 -0.35561,-6.03735 -0.3872,-11.68 -0.0525,-9.38054 -0.15482,-10.25935 -1.1943,-10.25935 -2.1993,0 -2.8737,1.84813 -3.01038,8.24961 -0.0722,3.38272 -0.33727,15.5434 -0.58899,27.02375 -0.41107,18.74842 -0.29586,22.96664 0.62727,22.96664 0.15492,0 1.7344,-1.8 3.50996,-4 z m -88.23145,2.16972 c 2.288,-0.61406 5.168,-1.75543 6.4,-2.53637 1.232,-0.78094 2.96,-1.60427 3.84,-1.82962 1.90022,-0.48661 8.63447,-4.03392 13.12,-6.91106 1.76,-1.1289 4.928,-2.99969 7.04,-4.1573 9.15411,-5.01747 19.4851,-13.88375 22.61881,-19.41195 1.64277,-2.89803 1.81669,-6.07648 0.36302,-6.6343 -1.10093,-0.42247 -5.38183,1.34792 -5.38183,2.22568 0,0.79744 -7.71782,6.83198 -10.65241,8.3291 -1.40288,0.71569 -3.48266,2.17184 -4.62173,3.2359 -1.13907,1.06405 -2.70437,2.13224 -3.47845,2.37376 -0.77407,0.24153 -2.35343,1.26428 -3.50968,2.27279 -1.15624,1.00851 -2.35295,1.83365 -2.65935,1.83365 -1.18521,0 -10.07757,5.91882 -13.52781,9.00421 -1.99475,1.78381 -5.59541,4.23375 -8.00145,5.4443 -2.40605,1.21055 -4.66048,2.48686 -5.00987,2.83625 -0.34939,0.34938 -1.12669,0.63524 -1.72734,0.63524 -0.95239,0 -1.00416,0.28655 -0.40463,2.24 0.37812,1.232 0.85516,2.2234 1.0601,2.20311 0.20494,-0.0203 2.24462,-0.53931 4.53262,-1.15339 z M 300.6782,587.81323 c -0.44384,-0.44383 -1.65805,0.45795 -1.65805,1.23143 0,0.42438 0.36722,0.37582 0.97547,-0.12898 0.53651,-0.44526 0.84367,-0.94136 0.68258,-1.10245 z m -198.68849,-4.64857 c 0.69362,-3.36846 2.06853,-31.09256 1.60222,-32.30774 -0.25063,-0.65312 -0.95836,-0.97975 -1.84892,-0.85329 -1.38869,0.1972 -1.46034,0.52925 -1.908418,8.84489 -0.25606,4.752 -0.76006,10.73976 -1.12,13.30614 -1.25728,8.96434 -0.60942,13.90555 1.763288,13.44861 0.61694,-0.11881 1.24164,-1.12646 1.51183,-2.43861 z m 37.23264,1.30991 c 1.22033,-1.15548 0.3186,-37.89968 -0.96963,-39.51136 -0.73372,-0.91794 -2.72262,-0.27353 -5.97333,1.93539 -2.23037,1.51557 -2.31524,2.34992 -0.23902,2.34992 3.43345,0 5.25941,8.41044 2.47484,11.39932 -0.71771,0.77038 -1.7063,1.40068 -2.19687,1.40068 -0.98517,0 -1.99269,2.40415 -1.2942,3.08823 0.24248,0.23747 1.25247,-0.53624 2.24444,-1.71937 1.94472,-2.3195 3.19157,-2.2202 3.19157,0.25415 0,0.95101 -0.62674,1.95813 -1.62599,2.61287 -2.28678,1.49835 -3.05702,3.14894 -2.20893,4.73362 0.54305,1.01469 0.47965,1.37025 -0.29749,1.66847 -1.52745,0.58614 -1.14233,2.87047 0.95021,5.63604 2.13542,2.82225 2.33383,3.56599 0.95128,3.56599 -0.52301,0 -1.71328,-1.152 -2.64505,-2.56 -2.08298,-3.1476 -3.14869,-3.22576 -4.36278,-0.32 -0.54365,1.30111 -1.38711,2.24 -2.01234,2.24 -1.44489,0 -0.92089,-3.26086 1.30549,-8.12391 1.85573,-4.05344 1.70689,-5.42199 -0.70941,-6.52292 -2.09433,-0.95425 -2.35636,-0.67976 -2.54279,2.6637 -0.0829,1.48672 -0.29066,5.21076 -0.4617,8.27564 -0.17104,3.06488 -0.49662,5.87288 -0.72351,6.24 -1.09526,1.77216 0.54775,2.08747 8.54541,1.63997 4.44268,-0.24859 8.31259,-0.67448 8.5998,-0.94643 z m -28.81521,-11.86605 c 0.0731,-1.408 -0.15499,-2.6392 -0.50699,-2.73601 -0.83236,-0.2289 -1.87705,11.54306 -1.22609,13.81614 0.38774,1.35399 0.61033,0.63066 1.0463,-3.40013 0.30458,-2.816 0.61363,-6.272 0.68678,-7.68 z m 3.88184,8.54612 c 0.92235,-8.82461 0.0497,-23.2032 -1.06249,-17.50612 -0.40614,2.08045 -0.75622,13.48587 -0.56478,18.4 0.16772,4.30513 1.13966,3.77123 1.62727,-0.89388 z m 5.44307,0.0219 c 1.12281,-5.43611 1.52758,-15.68484 0.91975,-23.28804 -0.50075,-6.26356 -0.54576,-6.4 -2.11165,-6.4 h -1.6 l -0.0462,16.8 c -0.0415,15.08783 0.0596,16.80001 0.99195,16.80001 0.75619,0 1.25762,-1.06251 1.84616,-3.91197 z m 41.74158,2.72788 c 6.6665,-0.40935 6.80866,-0.45129 9.00116,-2.65591 1.22523,-1.232 4.00916,-3.52916 6.18652,-5.1048 2.17736,-1.57564 3.95884,-3.08764 3.95884,-3.36 0,-0.27236 -0.936,-0.49654 -2.08,-0.49818 -1.144,-0.002 -6.832,-0.30542 -12.64,-0.67507 -12.71133,-0.80903 -21.79269,-1.10086 -22.87827,-0.73522 -0.57222,0.19274 -0.78343,2.10407 -0.74591,6.74971 0.0288,3.56446 0.21384,6.7421 0.41119,7.06144 0.20727,0.33536 2.82009,0.38067 6.18591,0.10727 3.2049,-0.26033 8.87515,-0.66049 12.60056,-0.88924 z m -75.573478,-0.37813 c 0,-1.54579 -1.06745,-1.69691 -2.653338,-0.37563 l -1.506665,1.25528 2.080003,0.0213 c 1.39421,0.0143 2.08,-0.28277 2.08,-0.90094 z m 6.56449,-4.8453 c 1.42659,-15.99586 2.06389,-28.90743 1.44928,-29.36219 -0.35957,-0.26605 -1.55944,-0.53697 -2.66637,-0.60204 l -2.0126,-0.1183 0.30885,7.84503 c 0.16987,4.31476 0.0268,11.72451 -0.31792,16.4661 -0.66662,9.16909 -0.29148,11.78707 1.63613,11.41797 0.9116,-0.17455 1.20763,-1.21754 1.60263,-5.64657 z m 83.975618,4.0865 c 0.60507,-0.82748 1.03244,-0.89588 2.08335,-0.33345 1.02913,0.55078 1.49509,0.49919 2.10257,-0.23278 0.47023,-0.56659 1.35176,-0.79698 2.21781,-0.57961 1.2153,0.30502 1.50064,0.0445 1.84677,-1.68618 0.59692,-2.9846 0.5005,-6.36695 -0.1815,-6.36695 -0.325,0 -1.405,0.66289 -2.4,1.4731 -0.99501,0.8102 -3.75866,2.84471 -6.14145,4.52114 -2.38279,1.67642 -4.16579,3.31754 -3.96223,3.64691 0.60569,0.98003 3.61407,0.68007 4.43468,-0.44218 z m -69.62068,-19.11897 c 0.2108,-10.32202 0.10204,-15.15009 -0.33159,-14.72 -0.35491,0.352 -0.70754,4.384 -0.78363,8.96 -0.0761,4.576 -0.41354,11.71555 -0.7499,15.86566 -0.33636,4.15012 -0.40079,8.03812 -0.14317,8.64001 1.0337,2.41514 1.70389,-3.84043 2.00829,-18.74567 z m -10.666038,13.24223 c 0.007,-1.29923 0.43038,-5.81823 0.94004,-10.04223 1.16229,-9.63303 1.28674,-19.45617 0.23314,-18.40258 -1.23447,1.23448 -2.97984,31.91534 -1.77317,31.16958 0.32263,-0.1994 0.59262,-1.42555 0.59999,-2.72477 z m 202.519168,-6.04223 c 4.97567,-5.016 10.16996,-10.51476 11.54287,-12.21946 l 2.49621,-3.09947 -0.13432,-6.82053 c -0.20774,-10.5489 -0.53917,-11.33453 -3.95732,-9.38054 -0.88,0.50305 -2.52936,0.92485 -3.66524,0.93732 -1.54839,0.017 -2.33804,0.46315 -3.15526,1.78268 -3.46167,5.5894 -7.31489,7.55709 -11.03324,5.63426 -1.88389,-0.9742 -2.03721,-0.96775 -2.45741,0.10336 -0.72178,1.83988 -0.52567,18.8475 0.24631,21.36158 0.54854,1.78641 0.5096,2.76628 -0.17458,4.39348 -1.40675,3.34568 -1.11475,6.42732 0.60904,6.42732 0.34995,0 4.70727,-4.104 9.68294,-9.12 z m -7.05023,-11.02784 c -1.05166,-0.80237 -1.09962,-1.04149 -0.31247,-1.55803 0.51142,-0.3356 1.72079,-0.452 2.68749,-0.25866 1.5518,0.31036 1.98626,-0.009 3.71014,-2.72727 1.07388,-1.69334 1.95251,-3.40025 1.95251,-3.79314 0,-0.96695 3.32157,-3.36056 5.38046,-3.87731 1.82203,-0.4573 4.87817,1.09602 4.83413,2.457 -0.0436,1.34819 -5.55826,6.86525 -6.86222,6.86525 -0.68186,0 -2.50709,0.85876 -4.05606,1.90835 -3.11286,2.1093 -5.44821,2.42257 -7.33398,0.98381 z m 12.5669,-6.68293 c 1.81473,-1.81473 2.41175,-3.24923 1.35227,-3.24923 -0.70833,0 -4.6015,3.85462 -4.6015,4.55594 0,1.10246 1.40516,0.53736 3.24923,-1.30671 z m -193.32923,5.993 c 0,-4.73123 -0.24356,-8.60223 -0.54124,-8.60223 -0.63309,0 -1.52794,15.50657 -0.9776,16.94072 0.96956,2.52665 1.51884,-0.48889 1.51884,-8.33849 z m 197.61376,5.75819 c -0.21452,-0.21453 -0.73503,0.28262 -1.15666,1.10476 -0.73288,1.42903 -0.71571,1.4462 0.39005,0.39006 0.63616,-0.60762 0.98114,-1.28029 0.76661,-1.49482 z m -180.97616,-1.72042 c -0.004,-1.17919 -2.43376,-4.96 -3.18819,-4.96 -0.35718,0 -0.64941,0.96399 -0.64941,2.1422 0,1.5891 0.37179,2.32151 1.44,2.83669 1.93374,0.9326 2.40044,0.92893 2.3976,-0.0189 z m -12.83449,-10.56 c 0.0203,-1.144 -0.2143,-2.08 -0.52132,-2.08 -0.82825,0 -1.42267,4.66955 -0.90819,7.13453 l 0.44778,2.14547 0.47243,-2.56 c 0.25983,-1.408 0.48902,-3.496 0.5093,-4.64 z m 202.70663,-5.04702 c 0.34687,-10.56692 -0.2095,-18.33337 -1.28754,-17.97303 -0.40821,0.13646 -0.80632,1.51978 -0.8847,3.07407 -0.81184,16.09982 -0.8273,18.13704 -0.15316,20.1797 0.59692,1.8087 0.55045,2.49048 -0.25336,3.71726 -1.26701,1.93369 -0.53192,2.69441 1.06271,1.09978 1.05564,-1.05564 1.26501,-2.45022 1.51605,-10.09778 z m -190.06353,2.5599 c -0.92831,-0.92832 -3.64621,1.23556 -3.64621,2.90296 v 1.63954 l 2.04718,-2.04718 c 1.12594,-1.12594 1.84551,-2.24884 1.59903,-2.49532 z m 0.80977,-3.10071 c 3.82523,-1.93839 4.54542,-2.89217 2.18385,-2.89217 -1.9804,0 -6.77845,2.14472 -7.94641,3.55202 -1.28752,1.55136 2.18322,1.15394 5.76256,-0.65985 z m -16.91659,-2.12612 c -0.43004,-0.43003 -2.25939,1.16622 -2.25939,1.9715 0,0.36346 0.57776,0.13796 1.28392,-0.5011 0.70616,-0.63907 1.14512,-1.30075 0.97547,-1.4704 z m -15.699388,0.51395 c 0,-0.352 -0.41501,-0.64 -0.92223,-0.64 -0.50723,0 -1.10022,0.288 -1.31777,0.64 -0.21755,0.352 0.19745,0.64 0.92223,0.64 0.72477,0 1.31777,-0.288 1.31777,-0.64 z m 178.559998,-5.12 c 0,-0.352 -0.127,-0.64 -0.28222,-0.64 -0.15523,0 -0.46023,0.288 -0.67778,0.64 -0.21755,0.352 -0.0905,0.64 0.28223,0.64 0.37277,0 0.67777,-0.288 0.67777,-0.64 z m 5.76,-1.28 c 0,-0.352 -0.127,-0.64 -0.28222,-0.64 -0.15523,0 -0.46023,0.288 -0.67778,0.64 -0.21755,0.352 -0.0905,0.64 0.28223,0.64 0.37277,0 0.67777,-0.288 0.67777,-0.64 z m 17.23423,-2.79854 c 0.76445,-2.06985 1.30079,-11.22137 0.68012,-11.60496 -0.30025,-0.18556 -0.7268,-0.0447 -0.9479,0.31306 -0.22109,0.35774 -1.21373,0.65044 -2.20585,0.65044 -2.27605,0 -2.88043,0.77877 -3.86569,4.98111 -0.64017,2.73053 -0.63251,3.77728 0.0399,5.44 0.45791,1.13239 1.10631,2.24547 1.44091,2.47352 1.03709,0.70687 4.32919,-0.81985 4.85855,-2.25317 z m 8.74997,-4.73126 c 2.15015,-1.4357 2.95294,-7.02851 1.2158,-8.4702 -0.76773,-0.63717 -1.16071,-0.63015 -1.9622,0.035 -2.52879,2.09872 -3.16877,5.84769 -1.38699,8.12498 0.71465,0.9134 1.13785,0.97494 2.13339,0.31021 z m -27.64963,-0.53365 c 0.86915,-0.33353 0.9938,-2.39599 0.9573,-15.84 -0.0231,-8.50111 -0.23788,-16.60856 -0.47733,-18.01656 l -0.43538,-2.56 -11.82958,-0.20692 c -10.83913,-0.1896 -37.25513,0.84352 -39.77045,1.5554 -1.71728,0.48603 -1.95487,1.93696 -2.14913,13.12536 -0.10155,5.8486 -0.38816,12.80571 -0.63691,15.46023 -0.63064,6.72986 -1.40805,6.48161 19.1802,6.12477 13.61909,-0.23605 31.7796,0.1011 33.73437,0.62627 0.23521,0.0632 0.87732,-0.0577 1.42691,-0.26855 z m 6.2052,-2.28824 c 0.49028,-0.91609 0.77868,-6.09126 0.84391,-15.14373 0.0911,-12.64456 0.19447,-13.80813 1.28344,-14.44832 0.6514,-0.38295 2.00596,-1.36665 3.01014,-2.18602 1.00418,-0.81937 5.5016,-2.92891 9.99426,-4.68788 11.32121,-4.43247 12.24988,-4.71697 12.98804,-3.97881 0.36025,0.36025 0.64067,5.38776 0.65772,11.79222 0.0284,10.67171 0.69428,16.37872 1.82914,15.67734 0.63689,-0.39362 0.40937,-31.25966 -0.23814,-32.30736 -0.53176,-0.86041 -0.0359,-0.98701 -14.10828,3.60218 -12.18281,3.97297 -19.26641,6.9281 -19.77328,8.249 -0.18658,0.48619 -0.069,7.58427 0.26133,15.77352 0.33031,8.18925 0.60763,15.82555 0.61626,16.96955 0.0185,2.44828 1.48813,2.83212 2.63546,0.68831 z m 6.49667,-9.23351 c 2.13657,-1.93027 2.87102,-2.24131 4.51558,-1.9124 1.08019,0.21604 2.43757,0.82138 3.01638,1.3452 1.49261,1.3508 2.5516,1.17979 2.5516,-0.41203 0,-0.75044 1.02851,-2.33444 2.28557,-3.52 1.9078,-1.79929 2.76879,-2.15557 5.20915,-2.15557 h 2.92357 l -0.40358,-3.36 c -0.22197,-1.848 -0.40609,-6.74401 -0.40915,-10.88001 -0.005,-6.81275 -0.1139,-7.52 -1.15756,-7.52 -0.6336,0 -1.4256,0.25236 -1.76,0.5608 -0.3344,0.30843 -2.48,1.17373 -4.768,1.92287 -2.288,0.74915 -6.608,2.76363 -9.6,4.47663 l -5.44,3.11455 -0.20221,10.32258 c -0.11122,5.67742 -0.002,10.32258 0.24243,10.32258 0.24456,0 1.59286,-1.03734 2.99622,-2.3052 z m -27.35644,-27.23312 14.72,-0.0576 6.47132,-2.10631 c 3.55922,-1.15847 8.0182,-2.89017 9.90884,-3.84823 1.89064,-0.95806 4.71637,-2.06313 6.27941,-2.45572 1.56303,-0.39259 2.95478,-1.05797 3.09277,-1.47863 0.18325,-0.55864 -2.04652,-0.83779 -8.27072,-1.03542 -4.68689,-0.14882 -11.46037,-0.63514 -15.05217,-1.08072 -5.81308,-0.72114 -6.86778,-0.69224 -9.6,0.26304 -4.88772,1.70891 -15.95715,5.32558 -22.90945,7.4851 -3.52,1.09337 -7.76461,2.41157 -9.43247,2.92933 -5.49106,1.70459 -4.44607,2.33544 3.10011,1.87149 3.8348,-0.23577 13.59636,-0.45461 21.69236,-0.4863 z m 45.12,100.04988 c 0,-0.29064 0.77115,-1.22664 1.71365,-2.08 l 1.71364,-1.55156 -1.43722,2.08 c -1.45039,2.09905 -1.99007,2.51981 -1.99007,1.55156 z m 8.65998,-11.17916 c -0.27395,-0.63118 -0.31852,-1.32718 -0.099,-1.54666 0.64991,-0.64992 1.17382,0.263 0.87469,1.52417 -0.26519,1.11805 -0.29969,1.11905 -0.77565,0.0225 z"
     id="path79"
     inkscape:connector-curvature="0"
     sodipodi:nodetypes="csccscccccsssccccsscssccccccscccccccccscsccccccccccsccccccscccsssccsccccccsscsscccscsscsssccscscsscccccscccsscccccssscsccscccccsscsscccccscccccccsccscssccscccccccccsscccccsccssscssscscsccccccsccccscsccccccccccccscscccccccssscccsccccscsccsscssccssccscsccsscsscscccsccscccccscssscsscccccscsccsccccccscccccscccccccscscscsccccccscsccccsccccsccsccscsccsscccssccccccccccccccccsssccccccscscscccccsccccccccccccccccccscccsccscccsccssccsccscccccccsccscccccccccccsssccccccccccccsscsccscsscscscscscccssssssscccccscsccsccsccccccsscsccccscssscsssccssscccssccccsscccssscsccsccsscccssccccssccccscsccscccccccccscccccscssccccccscccsscscccccsscsccccsscccscsssscsssccccscssscsccsccsccccssccsccccscccccsccccccscsccsccccsscsscssccccccscccccccscssccccsscccccscscccssscccsccscccccsccccsccscscccccsscscssccscssscscsscscssssssscscccccssccccsccccsccccsscscscsssscsccssssssssssssssscccscccccccccccccccscssscccccscsscsscccccccssscscsccscsscccssccsscccsccscccsccccc" />
</svg>
