<?xml version="1.0" encoding="UTF-8" standalone="no"?>
<!-- Created with Inkscape (http://www.inkscape.org/) -->

<svg
   xmlns:dc="http://purl.org/dc/elements/1.1/"
   xmlns:cc="http://creativecommons.org/ns#"
   xmlns:rdf="http://www.w3.org/1999/02/22-rdf-syntax-ns#"
   xmlns:svg="http://www.w3.org/2000/svg"
   xmlns="http://www.w3.org/2000/svg"
   xmlns:sodipodi="http://sodipodi.sourceforge.net/DTD/sodipodi-0.dtd"
   xmlns:inkscape="http://www.inkscape.org/namespaces/inkscape"
   version="1.1"
   id="svg2353"
   width="816.64001"
   height="1122.5601"
   viewBox="0 0 816.64001 1122.5601"
   sodipodi:docname="Hangman Start.svg"
   inkscape:version="0.92.4 (5da689c313, 2019-01-14)">
  <metadata
     id="metadata2359">
    <rdf:RDF>
      <cc:Work
         rdf:about="">
        <dc:format>image/svg+xml</dc:format>
        <dc:type
           rdf:resource="http://purl.org/dc/dcmitype/StillImage" />
        <dc:title />
      </cc:Work>
    </rdf:RDF>
  </metadata>
  <defs
     id="defs2357" />
  <sodipodi:namedview
     pagecolor="#ffffff"
     bordercolor="#666666"
     borderopacity="1"
     objecttolerance="10"
     gridtolerance="10"
     guidetolerance="10"
     inkscape:pageopacity="0"
     inkscape:pageshadow="2"
     inkscape:window-width="1280"
     inkscape:window-height="780"
     id="namedview2355"
     showgrid="false"
     inkscape:zoom="0.59463081"
     inkscape:cx="100.83752"
     inkscape:cy="996.20518"
     inkscape:window-x="0"
     inkscape:window-y="0"
     inkscape:window-maximized="1"
     inkscape:current-layer="svg2353" />
  <path
     style="fill:#000000;fill-opacity:1;stroke-width:0.64000005"
     d="m 308.10642,352.37309 c -1.51294,-2.38878 -3.38384,-5.35123 -4.15754,-6.58323 -1.53662,-2.44682 -18.27312,-19.48885 -29.39348,-29.93006 -5.1869,-4.87012 -7.67031,-6.75227 -9.5981,-7.2743 -1.43038,-0.38734 -3.75269,-1.156 -5.16069,-1.70813 -1.408,-0.55213 -4,-1.04303 -5.76,-1.09087 -1.76,-0.0479 -4.9165,-0.57067 -7.01446,-1.16182 -8.75409,-2.46668 -23.85162,-0.58648 -35.41642,4.41066 -13.20238,5.70474 -15.01669,6.68441 -28.28912,15.27526 -3.344,2.16447 -6.81424,4.30053 -7.71164,4.74678 -3.76421,1.87186 -11.00746,7.87118 -18.0389,14.94097 -4.1308,4.15333 -7.79266,7.55151 -8.13748,7.55151 -0.34482,0 -0.94841,0.60067 -1.34132,1.33482 -1.23671,2.31082 -1.47353,0.74781 -0.2715,-1.79193 2.39234,-5.05475 6.1186,-9.6351 9.14923,-11.24635 1.29338,-0.68764 3.66862,-2.47552 5.27831,-3.97306 1.60968,-1.49754 4.41768,-3.79397 6.24,-5.10318 1.82231,-1.3092 3.3133,-2.66485 3.3133,-3.01253 0,-0.95287 -4.5959,1.99593 -6.24707,4.00822 -0.79589,0.96995 -2.76563,2.26711 -4.37721,2.88257 -1.88558,0.72011 -3.13573,1.6598 -3.50687,2.63599 -0.48992,1.28858 -0.77307,1.41189 -1.88073,0.81909 -1.32688,-0.71013 -1.18641,-1.91364 0.22336,-1.91364 0.85389,0 8.8089,-5.49611 14.18852,-9.80283 1.056,-0.8454 2.88203,-2.03046 4.05784,-2.63347 2.10242,-1.07823 2.13087,-1.07442 1.71687,0.22996 -0.59009,1.85922 0.37014,1.65109 2.64541,-0.57341 1.06871,-1.04487 4.79539,-3.32782 8.2815,-5.07322 3.48611,-1.74541 7.63438,-4.11577 9.21838,-5.26747 6.2922,-4.57495 23.12802,-11.77785 29.19616,-12.49104 1.91391,-0.22494 3.62754,-0.64797 3.80807,-0.94008 0.18052,-0.29209 0.47759,-5.50749 0.66014,-11.58976 0.18256,-6.08228 0.69911,-18.11469 1.14791,-26.73869 0.44879,-8.624 0.81497,-16.544 0.81373,-17.6 -0.0123,-10.42989 0.45088,-22.93177 0.93312,-25.18624 0.86148,-4.02745 0.83574,-44.32834 -0.0287,-44.86258 -0.43673,-0.26991 -0.65575,-3.63684 -0.60802,-9.34654 0.041,-4.90856 0.0395,-11.08465 -0.003,-13.72465 -0.0429,-2.64 0.051,-7.94253 0.20864,-11.78341 0.1738,-4.23294 0.0216,-7.47888 -0.38652,-8.24139 -0.49367,-0.92243 -0.46146,-1.38888 0.12077,-1.74872 0.56883,-0.35155 0.66514,-1.46297 0.3396,-3.91861 -0.60181,-4.53958 -0.76998,-7.09866 -1.35032,-20.54787 -0.5012,-11.615067 -0.47634,-11.77627 1.76389,-11.44411 0.87211,0.129306 9.15314,0.762528 10.25236,0.783962 0.60907,0.0119 1.26373,0.274534 1.45478,0.58368 0.19106,0.309146 6.30586,0.583264 13.58844,0.609152 12.15837,0.0432 13.13836,-0.03546 11.98522,-0.962483 -1.17898,-0.947776 -1.09917,-0.980679 1.30416,-0.537658 2.76357,0.509427 3.59632,0.492864 11.84,-0.235456 2.992,-0.264339 7.168,-0.25911 9.28,0.01165 6.18244,0.792499 15.94116,1.036685 16.69605,0.417773 0.38283,-0.313869 4.99083,-0.525453 10.24,-0.470183 5.24918,0.0553 12.85595,-0.285721 16.90395,-0.757747 4.048,-0.472032 9.952,-0.907507 13.12,-0.967725 3.168,-0.06022 16.67444,-0.319123 30.01431,-0.575341 19.78582,-0.380025 24.35304,-0.310144 24.7902,0.379328 0.29474,0.464852 0.56554,3.293185 0.60176,6.285188 0.0362,2.992 0.25664,6.88 0.4898,8.64 l -4.05934,-4.67681 0.4691,-7.876774 -14.31293,0.359449 c -23.61261,0.593005 -36.25775,1.073172 -45.03294,1.710005 -8.55906,0.62116 -62.22164,1.98601 -83.84,2.1324 -7.54032,0.0511 -13.86198,-0.23101 -16.64,-0.74246 -8.84337,-1.62811 -9.18136,-1.3195 -8.07698,7.37494 0.82899,6.52633 1.96868,58.19689 2.02833,91.95923 0.0316,17.89732 -1.33119,52.30836 -3.23168,81.6 -0.82888,12.77513 -0.8195,20.93332 0.0246,21.45503 0.36537,0.22581 3.51201,0.52389 6.99253,0.6624 7.31215,0.29097 14.56206,1.65744 20.12452,3.79307 2.14425,0.82325 5.15209,1.86599 6.68408,2.3172 2.17175,0.63963 4.99189,2.86658 12.8,10.10763 5.50801,5.10799 12.64114,11.89217 15.8514,15.07597 3.21027,3.18379 6.23427,6.17419 6.72,6.64532 4.3832,4.25149 8.23569,9.36279 8.24042,10.933 10e-4,0.50028 0.42558,1.37683 0.94239,1.94791 1.14928,1.26993 1.56851,5.22765 0.59066,5.57607 -0.39033,0.13908 -1.94756,-1.70158 -3.4605,-4.09036 z"
     id="path2906"
     inkscape:connector-curvature="0"
     sodipodi:nodetypes="ccscscssscsscccccsccccscccccscccccccccccccscccccssccccsssccccsccsscsccccsccccccc"
     inkscape:export-filename="/home/phigit/Documents/Misc_Projects/Talks/2020-04-23-KreativeComputere/Images/Hangman Start.png"
     inkscape:export-xdpi="160.02"
     inkscape:export-ydpi="160.02" />
</svg>
