<?xml version="1.0" encoding="UTF-8" standalone="no"?>
<!-- Created with Inkscape (http://www.inkscape.org/) -->

<svg
   xmlns:dc="http://purl.org/dc/elements/1.1/"
   xmlns:cc="http://creativecommons.org/ns#"
   xmlns:rdf="http://www.w3.org/1999/02/22-rdf-syntax-ns#"
   xmlns:svg="http://www.w3.org/2000/svg"
   xmlns="http://www.w3.org/2000/svg"
   xmlns:sodipodi="http://sodipodi.sourceforge.net/DTD/sodipodi-0.dtd"
   xmlns:inkscape="http://www.inkscape.org/namespaces/inkscape"
   version="1.1"
   id="svg2853"
   width="816.64001"
   height="1122.5601"
   viewBox="0 0 816.64001 1122.5601"
   sodipodi:docname="Hjerne.svg"
   inkscape:version="0.92.4 (5da689c313, 2019-01-14)">
  <metadata
     id="metadata2859">
    <rdf:RDF>
      <cc:Work
         rdf:about="">
        <dc:format>image/svg+xml</dc:format>
        <dc:type
           rdf:resource="http://purl.org/dc/dcmitype/StillImage" />
        <dc:title />
      </cc:Work>
    </rdf:RDF>
  </metadata>
  <defs
     id="defs2857">
    <inkscape:path-effect
       effect="bspline"
       id="path-effect3541"
       is_visible="true"
       weight="33.333333"
       steps="2"
       helper_size="0"
       apply_no_weight="true"
       apply_with_weight="true"
       only_selected="false" />
  </defs>
  <sodipodi:namedview
     pagecolor="#ffffff"
     bordercolor="#666666"
     borderopacity="1"
     objecttolerance="10"
     gridtolerance="10"
     guidetolerance="10"
     inkscape:pageopacity="0"
     inkscape:pageshadow="2"
     inkscape:window-width="1280"
     inkscape:window-height="780"
     id="namedview2855"
     showgrid="false"
     inkscape:zoom="0.59463081"
     inkscape:cx="64.767559"
     inkscape:cy="737.24137"
     inkscape:window-x="0"
     inkscape:window-y="0"
     inkscape:window-maximized="1"
     inkscape:current-layer="svg2853" />
  <path
     style="fill:#000000;fill-opacity:1;stroke-width:0.6380071"
     d="m 338.88695,521.39648 c -6.49209,0.0375 -13.76305,0.31109 -18.76563,0.80274 -3.68449,0.3621 -7.99125,0.75671 -9.57031,0.87695 -5.00031,0.38073 -16.22814,2.19858 -17.29101,2.79883 -0.56213,0.31747 -4.72403,1.3524 -9.25,2.30078 -7.60086,1.5927 -21.11869,5.48786 -26.41211,7.61133 -1.22816,0.49268 -5.10426,1.78626 -8.61328,2.87305 -7.02075,2.17444 -18.51083,7.53551 -23.83008,11.11914 -1.8775,1.2649 -3.75298,2.29882 -4.16797,2.29882 -0.79865,10e-6 -8.44138,5.37506 -17.87891,12.57422 -6.55026,4.99669 -24.95279,22.33269 -28.06445,26.4375 -11.11683,14.66498 -16.57955,22.29854 -20.02344,27.97852 -2.23471,3.68569 -4.47687,6.93153 -4.98242,7.21484 -0.50556,0.2833 -1.94694,2.72445 -3.20313,5.42383 -1.25619,2.69938 -3.11014,6.63091 -4.11914,8.73633 -2.06841,4.31599 -6.33879,17.91646 -6.34179,20.19726 -0.004,3.08107 -2.62945,14.88031 -3.53321,15.87891 -2.12542,2.34857 -2.81789,17.48387 -1.24023,27.08594 0.5189,3.15813 0.94431,8.05584 0.94531,10.88476 0.002,3.25104 0.50654,7.00766 1.3711,10.20899 0.75228,2.78554 1.44411,6.06871 1.5371,7.29687 0.30417,4.01498 3.45408,12.69436 5.42188,14.93555 2.31307,2.63439 10.8125,18.99293 10.8125,20.81055 0,1.37006 1.14757,2.62981 5.74219,6.31054 1.49719,1.19939 3.29529,3.15207 3.99609,4.33985 0.89373,1.51475 2.63018,2.8416 5.81641,4.4414 2.49845,1.25445 5.54722,3.05062 6.77539,3.99219 3.67433,2.8168 13.73811,5.58615 24.56445,6.75977 5.26356,0.57056 9.99903,1.12562 10.52539,1.23242 2.22601,0.45146 3.05314,0.27618 4.08789,-0.86719 1.55459,-1.71784 3.57207,-1.9691 17.92383,-2.22851 7.01808,-0.12685 14.19666,-0.51873 15.95117,-0.8711 10.13034,-2.03474 16.21913,-3.51172 19.99024,-4.84765 9.17248,-3.2493 17.06146,-6.41031 18.02148,-7.22071 0.55399,-0.46766 1.60707,-0.84961 2.33985,-0.84961 1.38263,0 9.29306,-3.92574 11.05859,-5.48828 0.55399,-0.4903 1.78337,-0.89258 2.73242,-0.89258 1.12074,0 2.5056,-0.781 3.95313,-2.22851 1.22579,-1.2258 3.4418,-2.84195 4.92382,-3.5918 1.48202,-0.74986 2.91857,-1.74841 3.19336,-2.21875 0.2748,-0.47028 1.71169,-1.17566 3.19141,-1.56836 1.47972,-0.39269 3.26499,-1.21972 3.9668,-1.83789 1.74182,-1.53414 3.49632,-2.1621 5.58203,-1.99609 1.40773,0.11204 1.7539,-0.1283 1.7539,-1.2168 0,-0.96576 0.68935,-1.64257 2.39258,-2.34961 1.31589,-0.5462 2.63317,-1.4099 2.92578,-1.91992 0.37258,-0.64943 1.09663,-0.80389 2.41797,-0.51367 1.06443,0.23377 2.25214,0.11053 2.72656,-0.28321 1.10321,-0.91559 6.66092,-2.58865 8.62696,-2.59765 0.84962,-0.004 2.07117,0.46805 2.71289,1.04883 1.04762,0.94806 1.28068,0.95646 2.2832,0.084 0.78286,-0.68133 3.26383,-1.09566 8.30274,-1.38672 6.41184,-0.37036 7.4942,-0.27439 10.04296,0.88672 1.81865,0.82841 3.44723,1.15244 4.48243,0.89258 1.03637,-0.26011 2.02159,-0.0635 2.71679,0.54297 0.59995,0.52329 2.38382,1.12272 3.96289,1.33008 9.82077,1.28973 31.02058,8.06007 39.54493,12.6289 1.22362,0.65581 2.41734,1.19141 2.65234,1.19141 0.23499,0 4.54634,1.96529 9.58008,4.36719 5.03376,2.40191 10.09268,4.54856 11.24218,4.77148 1.1495,0.22299 4.7378,1.65739 7.97461,3.18555 3.23679,1.52808 7.03388,3.24006 8.4375,3.80468 3.44818,1.38723 18.81071,5.56484 20.46289,5.56446 0.72808,-1.3e-4 3.37143,0.69596 5.87305,1.54687 5.23645,1.781 14.55474,3.79219 15.33399,3.31055 0.29083,-0.17972 3.52187,-0.087 7.18164,0.20508 5.10646,0.40755 6.8769,0.3406 7.61132,-0.28516 0.57768,-0.49222 5.48961,-1.23378 12.39258,-1.87109 6.28962,-0.58072 11.73489,-1.23945 12.09961,-1.46485 0.36473,-0.22541 1.82184,-0.63201 3.23828,-0.90234 6.29576,-1.20161 9.72923,-2.03594 11.50782,-2.80078 1.05272,-0.45267 3.44425,-1.27481 5.31445,-1.82617 1.87021,-0.55137 4.1665,-1.5472 5.10352,-2.21289 0.937,-0.66563 2.70738,-1.6846 3.93554,-2.26368 4.62959,-2.18268 8.15164,-4.6161 11.14453,-7.70507 3.55623,-3.67039 8.63477,-10.89104 8.63477,-12.27539 0,-0.5171 0.81805,-1.98498 1.81836,-3.26368 3.32099,-4.24504 7.75195,-13.70725 7.75195,-16.55468 0,-0.95969 0.88785,-3.86079 1.97461,-6.44727 1.28307,-3.05382 1.85578,-5.30501 1.63281,-6.41992 -0.18887,-0.94431 0.10276,-2.9865 0.64844,-4.53711 1.072,-3.0463 2.38051,-15.3171 2.23828,-21.00195 -0.0483,-1.92997 0.22457,-4.88656 0.60742,-6.57032 0.57289,-2.51949 0.5275,-3.25484 -0.25586,-4.14843 -0.54273,-0.61912 -0.77162,-1.57387 -0.5332,-2.22266 0.74537,-2.02842 -0.44729,-13.93689 -1.51367,-15.11523 -0.53621,-0.59252 -0.94601,-1.77255 -0.91211,-2.6211 0.11653,-2.91825 -1.31097,-9.13395 -2.21289,-9.63867 -0.56157,-0.31428 -1.19852,-2.61884 -1.68555,-6.09375 -0.43078,-3.07347 -1.18517,-6.37395 -1.67578,-7.33594 -0.50541,-0.99107 -0.71786,-2.44261 -0.49023,-3.34961 0.61662,-2.45683 -0.18192,-4.67404 -1.76758,-4.90625 -1.08543,-0.15896 -1.83139,-1.32619 -3.39453,-5.30859 -2.56823,-6.54301 -3.84976,-8.97145 -6.39453,-12.12109 -1.13406,-1.40362 -2.65067,-3.7194 -3.36914,-5.14649 -0.71847,-1.42709 -1.77782,-2.98737 -2.35547,-3.4668 -1.28896,-1.06973 -2.8224,-4.11608 -4.81641,-9.57031 -1.94795,-5.32819 -6.02745,-11.14742 -10.48437,-14.95508 -1.93659,-1.65448 -3.52149,-3.3537 -3.52149,-3.77539 0,-0.91337 -6.4057,-7.09552 -9.57031,-9.23632 -1.22816,-0.83082 -3.52728,-2.58833 -5.10938,-3.90625 -1.5821,-1.3179 -3.56614,-2.61494 -4.41015,-2.88282 -0.84401,-0.26788 -2.88592,-1.45826 -4.53711,-2.64453 -1.65118,-1.18626 -3.54128,-2.15911 -4.20117,-2.16211 -1.58046,-0.008 -7.87396,-2.95247 -9.49414,-4.4414 -0.70181,-0.64496 -3.14295,-1.95066 -5.42383,-2.90235 -2.28087,-0.95169 -6.40388,-2.86576 -9.16211,-4.25195 -2.75822,-1.38621 -8.78768,-3.78558 -13.39844,-5.33399 -4.61075,-1.5484 -9.12179,-3.23864 -10.02539,-3.75585 -0.9036,-0.51721 -4.28712,-1.51914 -7.51953,-2.22461 -3.2324,-0.70549 -6.13751,-1.44241 -6.45508,-1.63868 -0.31756,-0.19628 -3.82485,-1.18684 -7.79297,-2.20117 -3.96813,-1.01432 -8.02192,-2.15589 -9.00976,-2.53711 -0.98782,-0.38123 -2.51257,-0.69336 -3.38868,-0.69336 -0.87611,0 -4.23091,-0.7601 -7.45507,-1.68945 -3.7632,-1.08473 -7.69024,-1.73721 -10.9668,-1.82031 -2.80723,-0.0712 -9.55513,-0.58709 -14.99414,-1.14649 -5.43901,-0.5594 -13.18921,-1.18735 -17.22461,-1.39648 -10.05068,-0.52085 -25.49681,-2.20553 -27.43555,-2.99219 -0.87726,-0.35596 -5.32692,-1.04047 -9.88867,-1.52148 -4.56175,-0.48101 -9.72986,-1.21845 -11.48437,-1.63867 -1.88642,-0.45182 -7.59971,-0.65082 -14.0918,-0.61329 z m 4.39062,3.94727 c 16.68047,0.031 26.87546,1.11208 30.93555,3.27344 1.30459,0.69449 4.52642,1.50742 7.1582,1.80664 10.59966,1.20514 15.3035,1.90505 16.9043,2.51367 1.17026,0.44498 2.09213,0.41966 3.0332,-0.084 1.54926,-0.82914 10.61861,-0.33662 12.51758,0.67968 2.15711,1.15445 2.84321,4.0891 2.35742,10.07618 -0.8163,10.0605 -5.61585,18.1837 -20.49609,34.6875 -11.33806,12.5751 -14.24133,16.40895 -17.81445,23.52343 -4.69656,9.35143 -8.11265,21.07813 -6.14063,21.07813 0.71199,0 1.34076,-1.5844 1.35156,-3.40235 0.0116,-1.95506 2.05431,-8.23139 4.50196,-13.83593 2.41956,-5.5402 7.6701,-13.73051 11.44726,-17.85352 1.4466,-1.57907 3.97297,-4.44894 5.61328,-6.37891 1.6403,-1.92997 5.19431,-5.95859 7.89649,-8.95312 2.7022,-2.99452 5.2221,-6.15411 5.59961,-7.01953 0.37752,-0.86541 1.82499,-3.00915 3.21875,-4.76367 3.92826,-4.94501 5.23319,-9.41266 5.4707,-18.73438 0.11057,-4.33922 0.29815,-7.98564 0.41602,-8.10351 0.21279,-0.2128 11.46416,1.21649 25.19922,3.20117 3.94081,0.56943 9.25182,1.75953 11.80273,2.64453 2.55091,0.88499 5.78584,1.90663 7.18945,2.27148 25.56362,6.64468 42.42774,11.94881 42.42774,13.34375 0,0.5929 -4.89758,2.05184 -11.18555,3.33203 -12.59021,2.56329 -27.76321,12.61105 -29.66211,19.64258 -1.26583,4.68733 -1.05973,11.33299 0.45508,14.62305 1.40837,3.05888 8.88958,12.75976 9.83984,12.75977 1.15461,0 0.51111,-1.72821 -1.2832,-3.44727 -1.01735,-0.97468 -3.21224,-3.75072 -4.87891,-6.16797 -2.79301,-4.05087 -3.05402,-4.7576 -3.32422,-9.0332 -0.42565,-6.73548 0.99857,-11.15206 4.61719,-14.31446 6.48688,-5.66904 15.20667,-10.4819 21.2793,-11.74414 1.98872,-0.41336 6.19929,-1.43239 9.35742,-2.26562 6.82604,-1.80094 6.95358,-1.80814 8.28906,-0.47266 0.84714,0.84714 1.30658,0.90219 2.43946,0.29688 1.15254,-0.6158 2.10668,-0.45433 5.49609,0.92383 6.09684,2.47901 15.37918,7.41681 23.68164,12.59765 9.70262,6.05452 9.50551,5.90214 16.27539,12.57617 4.3852,4.3231 6.70493,7.25986 9.20508,11.66016 1.83797,3.23487 4.5504,7.31775 6.0293,9.07227 1.4789,1.75452 4.2289,6.0593 6.10937,9.56836 1.88046,3.50904 4.50407,8.16632 5.83203,10.34765 3.58042,5.8813 5.99268,10.90998 7.13477,14.875 0.55921,1.94146 2.43058,6.39112 4.1582,9.88867 3.76777,7.62781 5.38093,13.18358 7.03516,24.22461 2.18742,14.59965 3.55363,34.79326 2.63281,38.91797 -0.31335,1.40362 -1.00903,4.84902 -1.54687,7.65625 -0.53784,2.80723 -1.72275,7.11398 -2.63282,9.57031 -0.91007,2.45633 -2.02697,6.04464 -2.48242,7.97461 -1.2737,5.39734 -4.2705,12.34519 -8.94336,20.73633 -3.24516,5.82737 -5.64507,8.87046 -8.27539,10.4961 -1.17492,0.72611 -2.28807,1.89761 -2.47265,2.60351 -0.2179,0.83323 -1.8651,1.97307 -4.69727,3.24805 -2.39934,1.08015 -5.32214,2.68703 -6.49609,3.57226 -2.55965,1.93003 -8.76009,4.28618 -15.73047,5.97657 -2.80723,0.68082 -5.96487,1.50059 -7.01758,1.82226 -1.05271,0.32169 -7.36993,0.93061 -14.03711,1.35156 -6.66717,0.4209 -12.56203,0.98963 -13.09961,1.26563 -1.46238,0.75085 -13.9135,1.22297 -17.20508,0.65234 -1.57907,-0.27378 -4.74957,-0.82354 -7.04492,-1.2207 -2.29535,-0.39723 -6.50016,-1.72981 -9.3457,-2.96289 -2.84555,-1.23314 -5.53019,-2.24219 -5.96485,-2.24219 -1.56723,0 -13.44086,-3.91868 -19.56054,-6.45508 -3.43909,-1.42536 -7.82039,-3.62615 -9.73633,-4.89062 -3.45221,-2.27838 -13.97241,-6.49397 -19.70117,-7.89453 -1.63624,-0.40003 -4.15886,-1.40764 -5.60547,-2.24024 -1.44661,-0.83267 -5.17783,-2.37509 -8.29297,-3.42773 -7.87343,-2.66056 -17.4668,-6.41643 -17.4668,-6.83789 0,-0.19332 1.67382,-1.86643 3.7207,-3.71875 5.1625,-4.67181 7.81919,-10.87141 8.17774,-19.08594 0.64056,-14.67506 1.606,-28.38468 2.22461,-31.58008 0.87386,-4.51383 3.41927,-9.21296 6.25781,-11.55273 1.77844,-1.46589 2.86822,-1.84571 5.28516,-1.84571 1.67457,0 3.04297,-0.28777 3.04297,-0.63867 0,-0.35091 -1.24897,-0.63672 -2.77539,-0.63672 -2.04538,0 -3.4279,0.47852 -5.26172,1.82032 -7.29887,5.3405 -8.60538,10.16453 -9.52539,35.18359 -0.20001,5.43901 -0.83106,12.00571 -1.40235,14.5918 -1.24715,5.6456 -4.65846,11.28349 -8.51367,14.07617 -3.80863,2.75901 -5.92603,2.97656 -10.87109,1.11523 -7.8374,-2.95001 -25.78582,-3.85462 -39.85938,-2.00976 -4.10066,0.53753 -7.62353,0.80809 -7.83008,0.60156 -0.20654,-0.20651 0.11437,-1.14867 0.71289,-2.09375 0.59852,-0.94508 1.54431,-2.723 2.10352,-3.95117 0.55922,-1.22816 1.54527,-3.38154 2.18945,-4.78516 3.55984,-7.75664 4.57564,-10.27159 4.8711,-12.05859 0.17986,-1.08786 0.71741,-3.69926 1.19531,-5.80469 2.59285,-11.42319 3.40497,-18.49378 3.04297,-26.47852 -0.16705,-3.68448 -0.34539,-7.84639 -0.39649,-9.25 l -0.0918,-2.55273 4.14648,-0.36914 c 4.42871,-0.39422 6.82446,-1.42279 14.67383,-6.29883 9.4757,-5.88638 15.00377,-11.05664 19.82227,-18.53906 5.73211,-8.90116 17.26948,-18.17778 26.58593,-21.37695 8.58724,-2.94876 17.99472,-4.81285 24.70508,-4.89453 5.51966,-0.0672 7.01105,0.15645 10.78711,1.61523 2.4101,0.93107 6.24287,1.99014 8.51758,2.35351 2.27469,0.36339 7.22892,1.80018 11.00976,3.19141 7.29235,2.68335 12.18145,3.25247 14.34571,1.66992 1.66075,-1.21437 0.40267,-1.71866 -2.5625,-1.02734 -2.16352,0.50442 -3.77096,0.1945 -11.44922,-2.20117 -4.91265,-1.5328 -11.22793,-3.36631 -14.03516,-4.07617 -2.80723,-0.70985 -6.68331,-1.76657 -8.61328,-2.34766 -5.33971,-1.6077 -14.19044,-0.9671 -24.97461,1.80859 -11.65933,3.00094 -17.31739,5.90199 -24.52148,12.57618 -5.30388,4.9138 -7.35948,7.29635 -14.30469,16.5664 -3.13346,4.18233 -9.07934,9.01265 -17.31055,14.06445 -7.48719,4.59519 -10.93518,5.81293 -15.04883,5.31446 l -3.32812,-0.4043 -2.52539,-5.19336 c -2.76172,-5.678 -8.27176,-14.44336 -9.07813,-14.44336 -0.27874,0 -1.29196,-1.36251 -2.25195,-3.02929 -2.15651,-3.74428 -6.77731,-8.92301 -11.12695,-12.47071 -3.3835,-2.7597 -7.94276,-5.44912 -9.35157,-5.51562 -1.19974,-0.0567 -0.95885,1.2196 0.31836,1.68554 4.77213,1.74105 17.19451,12.56783 18.72266,16.31836 0.4607,1.13068 2.26376,3.7774 4.00781,5.88282 3.84126,4.63722 9.51013,16.21573 10.9336,22.33007 1.42926,6.13929 1.44387,17.55125 0.0312,25.52149 -2.20533,12.44286 -7.33924,26.58565 -12.6211,34.77148 -2.16221,3.35101 -2.56113,3.63165 -8.87695,6.24805 -12.1487,5.03266 -22.50992,11.04061 -29.03516,16.83594 -3.72553,3.30884 -15.06373,8.42654 -21.08203,9.51562 -2.04042,0.36928 -5.40672,1.51049 -7.48047,2.53711 -2.07374,1.02669 -4.24774,1.86719 -4.83203,1.86719 -0.58431,0 -3.0504,0.66737 -5.48047,1.48242 -4.33103,1.45267 -6.86417,1.95253 -19.73047,3.89258 -6.24851,0.94221 -13.57723,1.36058 -19.61914,1.12305 -3.67811,-0.14458 -4.00853,-1.32485 -0.90625,-3.24219 3.70413,-2.28929 13.3804,-12.90485 15.28125,-16.76563 1.79124,-3.63816 3.68517,-9.87973 3.60547,-11.88281 -0.0602,-1.51342 -0.78814,0.2434 -2.5039,6.03906 -2.28413,7.71548 -8.84949,15.60788 -18.50977,22.25196 -3.89762,2.68071 -4.46156,2.87151 -9.25195,3.14062 -2.80549,0.15759 -7.89555,0.48 -11.31055,0.71484 -7.56868,0.52063 -15.98631,-0.90992 -22.05469,-3.74804 -4.86504,-2.27539 -10.33398,-7.14141 -10.33398,-9.19336 0,-1.02043 -0.70038,-1.8068 -2.39258,-2.6875 -4.54119,-2.36356 -9.7969,-9.74942 -16.60937,-23.34375 -7.57816,-15.12225 -10.84635,-28.70174 -11.05664,-45.9375 -0.23785,-19.49392 2.06332,-38.00504 5.22265,-42.02149 0.76298,-0.96997 1.22852,-2.56278 1.22852,-4.19531 0,-7.16106 13.6758,-33.11369 27.25195,-51.71679 2.43278,-3.3336 6.10007,-8.42926 8.14844,-11.32422 2.04838,-2.89496 3.90792,-5.26368 4.13281,-5.26368 0.22489,0 3.7066,-3.23006 7.73828,-7.17773 8.30664,-8.13354 15.30662,-14.36733 18.125,-16.14258 1.05271,-0.66309 2.91833,-1.98754 4.14649,-2.94336 3.27632,-2.54977 14.79284,-9.41727 23.84375,-14.21875 14.88487,-7.89638 28.75223,-12.55739 50.36914,-16.92773 6.73077,-1.36078 15.33686,-3.12939 19.125,-3.93164 9.45337,-2.00203 9.11577,-2.33785 8.85351,8.77734 -0.33371,14.14244 -3.04203,25.48071 -7.30859,30.60352 -1.14582,1.37578 -2.82609,3.50621 -3.73438,4.73437 -3.84845,5.20371 -11.13907,11.73088 -18.19336,16.28711 -8.79248,5.67891 -13.44734,8.53276 -16.17187,9.91797 -1.57907,0.80285 -4.07037,2.26826 -5.53516,3.25586 -1.4648,0.98759 -3.47331,2.10229 -4.46484,2.47656 -2.78635,1.05176 -9.91307,5.14552 -9.56445,5.49414 0.34738,0.34737 14.91419,-6.79844 17.55468,-8.61133 0.92977,-0.63836 3.41216,-2.10852 5.51758,-3.26757 2.10542,-1.15906 8.77015,-5.37198 14.81055,-9.36328 6.04038,-3.99132 11.55911,-7.25782 12.26172,-7.25782 0.7026,0 2.2876,-0.48292 3.52344,-1.07226 3.55783,-1.69661 9.31709,-0.50429 17.89257,3.70117 5.85548,2.87156 7.78429,4.21703 11.79493,8.23242 4.59651,4.60199 5.29289,5.63519 8.16406,12.10742 1.8622,4.19784 3.46637,12.80403 4.31054,23.12696 0.26635,3.25697 0.67064,4.94531 1.18555,4.94531 0.95151,0 0.8063,-6.82434 -0.2168,-10.20508 -0.37097,-1.22585 -0.67859,-3.80794 -0.68359,-5.74023 -0.0108,-4.00139 -1.39337,-10.59676 -3.00976,-14.35938 -1.58662,-3.69324 -3.95273,-6.81118 -7.88086,-10.37695 -9.12137,-8.27996 -20.07994,-13.47559 -30.25196,-14.34375 -2.56084,-0.21856 -2.27521,-1.69926 1.17383,-6.10742 4.69312,-5.99823 6.5913,-9.50572 7.39063,-13.65039 0.42537,-2.20562 1.06664,-5.30375 1.42382,-6.88282 0.3572,-1.57907 0.81142,-7.25258 1.00977,-12.60937 0.22793,-6.15551 0.64886,-10.13464 1.14453,-10.8125 0.696,-0.95185 2.91707,-1.10405 19.73633,-1.34766 2.64868,-0.0384 5.16395,-0.0552 7.54687,-0.0508 z m -93.49609,42.70117 c -1.47372,0.0275 -11.62498,6.36964 -19.59766,12.24414 -7.29606,5.37596 -24.7861,21.81256 -28.09375,26.40235 -7.91705,10.98594 -12.66663,18.88355 -16.66406,27.71093 l -2.15625,4.76368 0.1543,11.06054 c 0.0854,6.08282 0.31909,11.32335 0.51758,11.64453 1.05534,1.70755 2.38457,-0.31633 1.42773,-2.17382 -0.32933,-0.63929 -0.63082,-5.23381 -0.66992,-10.20899 -0.094,-11.96469 0.15844,-12.77581 8.37695,-26.91016 5.6551,-9.72577 12.09725,-18.81768 14.17774,-20.01171 0.95977,-0.55084 2.20006,-1.77456 2.75781,-2.71875 0.55775,-0.94419 2.52014,-2.95666 4.36133,-4.47266 1.84118,-1.516 5.7888,-5.00081 8.77148,-7.74414 5.59049,-5.14186 19.70785,-14.96839 24.64063,-17.15039 2.65437,-1.17416 3.71524,-2.46775 1.99609,-2.43555 z m 259.43555,24.86719 c -1.3237,0 -1.10412,0.4584 1.43164,2.99414 1.27283,1.27282 2.88833,3.6114 3.58984,5.19727 1.16785,2.64014 1.20785,3.26446 0.48633,7.39453 -1.23597,7.0748 -2.5069,10.56708 -5.47461,15.03711 -4.42016,6.65776 -7.65953,9.58055 -14.15039,12.76172 -5.19522,2.54619 -7.41804,4.48317 -5.10938,4.45507 1.06423,-0.0128 4.87665,-1.40746 6.85938,-2.50976 2.83792,-1.57776 8.04238,-0.97634 11.97656,1.38476 3.88045,2.32885 5.82359,4.5999 7.38086,8.62891 2.04809,5.29897 3.92847,17.1271 4.82813,30.35937 0.58286,8.57259 0.83601,9.87898 2.6914,13.9043 1.12633,2.44362 3.01406,5.29294 4.19532,6.33008 2.21563,1.94535 3.65164,2.35648 4.33789,1.24609 0.21687,-0.3509 -0.14393,-0.63672 -0.80079,-0.63672 -1.49955,0 -4.09247,-2.72937 -5.75781,-6.06054 -2.3879,-4.77649 -3.2944,-9.25535 -3.6582,-18.08594 -0.19738,-4.79099 -0.62033,-10.00297 -0.93945,-11.58203 -0.31912,-1.57907 -0.91662,-4.45089 -1.32813,-6.38086 -0.4115,-1.92997 -0.97557,-4.65694 -1.25391,-6.06055 -0.86329,-4.35338 -2.2297,-7.28096 -4.49804,-9.64453 -2.3162,-2.41341 -8.68395,-5.98633 -10.66992,-5.98633 -2.29092,0 -1.97923,-0.85821 1.76367,-4.85937 5.25717,-5.61993 8.69365,-11.64709 9.89258,-17.35352 1.11083,-5.28714 1.27523,-11.3817 0.37109,-13.75976 -0.80452,-2.11605 -5.04315,-6.77344 -6.16406,-6.77344 z m -262.85938,17.39258 c -1.1741,0.13771 -7.65384,4.23922 -8.97851,5.75195 -1.33725,1.52708 -1.0965,1.40358 5.11132,-2.59766 2.39379,-1.54291 4.20708,-2.94919 4.0293,-3.12695 -0.028,-0.028 -0.0838,-0.0365 -0.16211,-0.0273 z m -11.93164,7.35742 c -0.65679,0.17176 -4.26649,3.35756 -8.02148,7.08008 -10.77988,10.68666 -15.57971,20.38784 -15.65821,31.65039 -0.0384,5.50919 0.0975,6.07816 3.3418,14.01758 l 3.38086,8.27539 -1.03711,2.71289 c -1.27076,3.3274 -6.29957,8.00503 -10.03906,9.33789 -1.48931,0.53082 -4.28683,1.52919 -6.2168,2.21875 -3.27199,1.16896 -3.93941,1.19648 -9.88281,0.41601 -3.50569,-0.46039 -6.47398,-0.73504 -6.59766,-0.61132 -0.7929,0.79284 4.86983,2.43869 10.66602,3.09961 10.11543,1.1535 13.04732,3.10816 18.18359,12.12109 3.09743,5.43532 5.03653,12.12228 5.11133,17.62305 0.0584,4.30138 -1.43327,7.10432 -7.72656,14.50586 -2.38132,2.80065 -5.46622,6.56271 -6.85547,8.36132 -1.38926,1.7986 -2.89663,3.41208 -3.34961,3.58594 -0.453,0.1738 -0.82422,0.61273 -0.82422,0.97461 0,0.36194 0.25043,0.6582 0.55664,0.6582 0.71479,0 5.30207,-4.96975 6.82422,-7.39257 0.64236,-1.02248 2.93706,-3.86789 5.09961,-6.32422 8.90103,-10.11025 9.29412,-11.99892 5.32617,-25.62891 -2.3812,-8.17951 -6.61462,-14.56196 -11.38476,-17.1582 -2.99877,-1.63215 -4.28701,-3.46875 -2.4336,-3.46875 0.43863,-2.6e-4 2.51957,-0.82823 4.625,-1.83985 3.99251,-1.9183 8.80474,-6.37945 9.54492,-8.84765 0.23677,-0.78953 0.69499,-1.43555 1.01953,-1.43555 0.32457,0 2.65674,2.00122 5.18165,4.44727 3.76143,3.64398 6.15451,5.24412 13.24414,8.8496 4.75904,2.42023 10.08727,4.744 11.84179,5.16407 1.75452,0.42013 3.9079,1.23231 4.78516,1.80664 1.8661,1.22172 8.81742,1.68086 11.28125,0.74414 2.43662,-0.92639 1.43797,-1.36819 -3.43555,-1.51953 -4.83026,-0.14999 -7.20703,-1.08731 -7.20703,-2.83985 0,-1.5184 2.23588,-4.3438 3.8418,-4.85351 0.69184,-0.2196 1.42041,-1.04612 1.61914,-1.83789 0.40834,-1.62697 6.31606,-4.85547 8.88476,-4.85547 0.89649,0 1.8443,-0.53433 2.23047,-1.25586 0.89033,-1.6636 5.21554,-2.765 9.60742,-2.44727 3.00951,0.21769 4.45407,0.82795 9.48243,4.01563 4.68475,2.96985 6.70337,4.75307 9.61133,8.48242 4.39187,5.63238 5.41144,8.44811 4.51171,12.46289 -0.99716,4.44952 -6.09703,19.01185 -7.52539,21.48828 -0.70839,1.22817 -2.92134,5.10424 -4.91797,8.61328 -1.99663,3.50904 -3.89474,6.65297 -4.21875,6.98633 -0.32401,0.33335 -0.58006,1.04985 -0.56836,1.59375 0.0434,2.02312 2.29627,-1.46139 10.42969,-16.13281 1.36162,-2.45614 3.7343,-7.93422 5.27149,-12.17383 4.67996,-12.90759 7.99023,-18.23633 11.33203,-18.23633 0.55991,0 1.01758,-0.28581 1.01758,-0.63672 0,-1.53932 -3.13347,-0.16742 -6.16407,2.69922 -2.00041,1.8922 -3.40625,1.93419 -3.40625,0.10157 0,-4.52136 -10.45143,-15.02572 -19.64257,-19.74219 -2.83999,-1.45727 -3.31835,-1.50931 -8.66016,-0.94531 -7.88351,0.83228 -15.05497,4.40503 -19.88477,9.90625 -1.86619,2.12564 -3.59007,4.64726 -3.83007,5.60351 -0.53101,2.1157 -1.87541,2.2256 -6.73829,0.55078 -4.3795,-1.50844 -14.24731,-6.49028 -17.16601,-8.66601 -1.22816,-0.91554 -2.95087,-2.6337 -3.82813,-3.81836 -0.87726,-1.18465 -2.82928,-3.6901 -4.33789,-5.56641 -2.80714,-3.49144 -7.9951,-14.61196 -9.08398,-19.4707 -0.44842,-2.00098 -0.35023,-3.84168 0.3789,-7.04102 1.4385,-6.31181 3.52259,-12.44097 4.72852,-13.90429 0.57837,-0.70181 2.18335,-2.98292 3.56641,-5.07032 1.38308,-2.08739 5.3939,-6.71008 8.91211,-10.27148 3.51822,-3.5614 5.85993,-6.33386 5.20312,-6.16211 z m 225.82617,34.30078 c -0.31633,-0.0453 -0.75238,0.34709 -1.38086,0.9375 -1.82892,1.71821 -1.95578,2.4389 -0.60351,3.42773 0.70347,0.51437 1.16539,2.84185 1.66015,8.36329 0.92649,10.33986 3.38816,18.26503 7.2461,23.33789 1.58415,2.08304 2.87878,4.00047 2.8789,4.25976 1.1e-4,0.25919 -2.94219,0.41932 -6.53906,0.35742 -7.96056,-0.13717 -15.80979,1.19687 -21.15625,3.59571 -4.3813,1.9657 -6.13061,3.76938 -7.73437,7.96875 -1.14185,2.98989 -1.08082,4.87715 0.17383,5.29492 0.56296,0.18745 0.68485,-0.27883 0.41796,-1.61328 -0.23535,-1.17675 0.0311,-2.68367 0.7168,-4.03906 3.07236,-6.07293 7.34574,-8.00289 20.39844,-9.21485 5.26012,-0.48875 10.71404,-0.719 12.12109,-0.51172 3.17405,0.46773 7.46954,2.85965 8.81055,4.90625 0.5754,0.87816 1.64515,1.55035 2.48437,1.56055 0.81019,0.0101 3.51773,0.8988 6.01758,1.97461 2.49986,1.07581 6.51884,2.24832 8.93164,2.60547 2.41281,0.35722 7.40145,1.08185 11.08594,1.61133 5.05088,0.7258 7.70922,1.48272 10.80469,3.07422 2.25807,1.16097 4.20632,2.41389 4.33008,2.78515 0.12376,0.37125 -0.71744,1.02876 -1.8711,1.46094 -12.33697,4.6214 -17.48239,7.43159 -22.33984,12.20312 -3.23063,3.17345 -4.85823,5.4251 -6.46875,8.95118 -5.27938,11.55864 -9.38601,19.54686 -11.04688,21.48046 -3.6253,4.22055 -17.54375,7.88828 -24.88086,6.55665 -6.8791,-1.24853 -16.07244,-4.9604 -19.27148,-7.7793 -1.61954,-1.42716 -3.80667,-3.03413 -4.85938,-3.57031 -1.05271,-0.53612 -3.39459,-2.22965 -5.20507,-3.76368 -1.81048,-1.53403 -3.51888,-2.78906 -3.79493,-2.78906 -0.93784,0 3.8817,4.53801 7.08594,6.67188 1.75452,1.16845 4.89168,3.44787 6.97071,5.06445 2.07904,1.61658 4.16894,2.9375 4.64453,2.9375 0.4756,0 2.64946,0.75972 4.83203,1.6875 2.18257,0.92773 5.26078,2.05159 6.83984,2.49609 4.43413,1.24813 11.11775,1.09182 16.37305,-0.38281 10.08314,-2.82937 12.99449,-5.15842 16.74414,-13.38476 7.25041,-15.90653 9.15152,-19.36942 12.39844,-22.58594 5.29812,-5.24849 14.05577,-9.82914 23.33007,-12.20508 3.66094,-0.93787 4.17963,-0.91682 9.77735,0.38867 3.25171,0.7584 7.349,1.92512 9.10351,2.59375 7.87715,3.00189 20.98164,3.38237 29.98633,0.86914 3.15813,-0.88141 7.32003,-2.03872 9.25,-2.57031 1.92997,-0.53158 5.66314,-2.0119 8.29492,-3.28906 5.40663,-2.62374 14.45538,-8.66394 13.47071,-8.99219 -0.35603,-0.11867 -1.45115,0.32404 -2.4336,0.98437 -0.98246,0.6604 -2.68001,1.80792 -3.77148,2.54883 -6.80397,4.61905 -24.19554,10.27 -34.03906,11.06055 -7.19143,0.57753 -14.25626,-0.072 -19.16407,-1.76367 -1.57907,-0.54429 -3.73049,-1.22662 -4.7832,-1.51563 -4.82625,-1.32489 -10.06843,-3.43884 -15.83984,-6.38867 -6.59478,-3.37059 -8.20916,-3.79316 -20.52735,-5.37305 -8.24952,-1.05808 -14.1391,-2.96138 -18.82226,-6.08398 -1.57907,-1.05284 -3.76512,-2.48989 -4.85938,-3.19336 -3.17101,-2.03856 -8.41518,-8.50406 -10.48437,-12.92578 -2.57924,-5.51174 -3.75238,-11.36646 -4.17969,-20.86524 -0.31027,-6.8971 -0.4271,-9.11516 -1.12305,-9.21484 z m -295.32617,22.02734 c -0.0768,-0.0158 -0.21419,0.2892 -0.47851,0.9043 -0.30158,0.70181 -0.5672,1.50912 -0.5918,1.79297 -0.0247,0.28392 0.2409,0.33795 0.5918,0.12109 0.35091,-0.21686 0.61845,-1.02221 0.59375,-1.79101 -0.0216,-0.67387 -0.0384,-1.01157 -0.11524,-1.02735 z m 6.22852,11.67383 c -0.0798,-0.012 -0.14559,0.003 -0.18946,0.0469 -0.17545,0.17545 0.0511,0.76332 0.50196,1.30664 0.45091,0.54334 0.96322,0.84342 1.13867,0.66797 0.17545,-0.17546 -0.051,-0.76331 -0.50195,-1.30664 -0.33819,-0.4075 -0.70993,-0.67876 -0.94922,-0.71485 z m 7.6875,4.93164 c -0.34545,0.004 -0.23051,0.30842 0.5625,0.90821 0.68115,0.51519 1.6854,0.92626 2.23242,0.91406 0.63749,-0.0145 0.42081,-0.34917 -0.60156,-0.93359 -1.04379,-0.59664 -1.84791,-0.89299 -2.19336,-0.88868 z m -33.88086,1.92188 c -0.0941,-0.016 -0.22234,0.005 -0.38477,0.0586 -0.61121,0.20244 -0.91009,1.76537 -1.02344,5.33789 -0.15077,4.7515 1.2e-4,5.40674 2.55079,10.98828 3.14786,6.88824 8.98542,14.40938 13.18945,16.99414 4.4039,2.70764 10.69211,4.84382 16.95898,5.76172 3.15814,0.46255 5.8851,0.8698 6.06055,0.9043 1.38903,0.27312 10.6189,-2.58367 11.2832,-3.49219 1.16011,-1.58653 0.63435,-1.79595 -1.60351,-0.63867 -2.72701,1.41019 -11.15727,2.22443 -16.06836,1.55274 -8.8849,-1.21511 -16.32598,-4.85379 -20.80664,-10.17579 -5.18981,-6.16423 -6.012,-7.42085 -8.24805,-12.60351 -2.33498,-5.41196 -3.0104,-10.10868 -1.92578,-13.4043 0.2803,-0.85174 0.29981,-1.2352 0.0176,-1.2832 z m 95.27734,56.33789 c -0.29595,-0.0322 -0.50586,0.49202 -0.50586,1.32422 0,0.95107 0.2754,1.50185 0.63867,1.27734 0.3509,-0.21687 0.63672,-0.79239 0.63672,-1.27734 0,-0.48495 -0.28582,-1.05854 -0.63672,-1.27539 -0.0454,-0.0281 -0.0905,-0.0442 -0.13281,-0.0488 z"
     id="path2863"
     inkscape:connector-curvature="0"
     sodipodi:nodetypes="ccssccccccscccscsccccccscccccccscccccsscccccccccccccccsscsccccccccccccccccsccssccsccccccsccccsccsccscccscccssccsccccccccccccsscscccssccscccccssccscssscccccccccccccscccccsccccssscsccsccscsccccccccscccscscccsccccccscccccccscccccsccccsccccccscsscsccssccssscccccccccccscscccscccsscscscccccsccccccscsccccssccccscscccccscsccscssccsccscccsccccccccccccccscccccccssccccccsccsccscscsccccsscsccccccccccccccccccccccccscccccccccccccccccssccsccccccccccccccccccccscsccccccccscccccccccccccscsccccscccscsccccccccccsccccccsccccscsccc" />
</svg>
