<?xml version="1.0" encoding="UTF-8" standalone="no"?>
<!-- Created with Inkscape (http://www.inkscape.org/) -->

<svg
   xmlns:dc="http://purl.org/dc/elements/1.1/"
   xmlns:cc="http://creativecommons.org/ns#"
   xmlns:rdf="http://www.w3.org/1999/02/22-rdf-syntax-ns#"
   xmlns:svg="http://www.w3.org/2000/svg"
   xmlns="http://www.w3.org/2000/svg"
   xmlns:sodipodi="http://sodipodi.sourceforge.net/DTD/sodipodi-0.dtd"
   xmlns:inkscape="http://www.inkscape.org/namespaces/inkscape"
   version="1.1"
   id="svg2145"
   width="816.64001"
   height="1122.5601"
   viewBox="0 0 816.64001 1122.5601"
   sodipodi:docname="Ide.svg"
   inkscape:version="0.92.4 (5da689c313, 2019-01-14)">
  <metadata
     id="metadata2151">
    <rdf:RDF>
      <cc:Work
         rdf:about="">
        <dc:format>image/svg+xml</dc:format>
        <dc:type
           rdf:resource="http://purl.org/dc/dcmitype/StillImage" />
        <dc:title></dc:title>
      </cc:Work>
    </rdf:RDF>
  </metadata>
  <defs
     id="defs2149" />
  <sodipodi:namedview
     pagecolor="#ffffff"
     bordercolor="#666666"
     borderopacity="1"
     objecttolerance="10"
     gridtolerance="10"
     guidetolerance="10"
     inkscape:pageopacity="0"
     inkscape:pageshadow="2"
     inkscape:window-width="1280"
     inkscape:window-height="780"
     id="namedview2147"
     showgrid="false"
     inkscape:zoom="0.84093496"
     inkscape:cx="261.04339"
     inkscape:cy="684.80272"
     inkscape:window-x="0"
     inkscape:window-y="0"
     inkscape:window-maximized="1"
     inkscape:current-layer="svg2145" />
  <path
     style="fill:#000000;stroke-width:0.64000005;fill-opacity:1"
     d="m 546.74171,457.58021 c -2.64,-0.24908 -12.18352,-0.49051 -21.20783,-0.53652 -9.0243,-0.046 -23.5683,-0.36658 -32.32,-0.71239 -8.75169,-0.34581 -20.95217,-0.79458 -27.11217,-0.99728 -6.16,-0.2027 -13.648,-0.62026 -16.64,-0.92793 -2.992,-0.30766 -11.2,-0.398 -18.24,-0.20074 -11.53739,0.32327 -12.93665,0.48275 -14.18529,1.61683 -1.38082,1.25412 -1.38776,1.25356 -2.15219,-0.17479 l -0.7669,-1.43297 -22.80781,0.52666 c -12.5443,0.28966 -33.31982,0.58653 -46.16782,0.65972 -12.848,0.0732 -23.648,0.219 -24,0.32406 -0.352,0.10506 -12.24669,-0.041 -26.43265,-0.32457 -24.77707,-0.49529 -25.82916,-0.46844 -26.72,0.68208 -0.82984,1.07174 -1.01146,1.09321 -1.72735,0.20415 -0.69885,-0.86789 -4.6435,-1.01742 -31.2,-1.18267 -74.49549,-0.46353 -74.90236,-0.47017 -75.66745,-1.23526 -0.4117,-0.4117 -0.47495,-0.7749 -0.14055,-0.80711 0.3344,-0.0322 13.712,0.0147 29.728,0.10425 16.016,0.0896 35.6,0.1879 43.52,0.21856 l 14.4,0.0557 0.31729,-33.28 c 0.17451,-18.304 0.26945,-39.68827 0.21098,-47.5206 l -0.10631,-14.24061 1.70903,-0.37866 c 5.63972,-1.24958 18.34137,-6.24175 29.22901,-11.48798 5.05899,-2.43767 6.78935,-2.86815 7.16976,-1.78369 0.43861,1.25038 -7.836,5.38757 -16.98204,8.49078 -4.75488,1.61331 -8.75716,3.26907 -8.89396,3.67948 -0.18886,0.56659 16.31988,0.66318 68.59059,0.40134 61.81006,-0.30964 75.40543,-0.15651 74.41078,0.83814 -0.27085,0.27085 -54.25536,0.75289 -126.05268,1.12554 -19.89679,0.10327 -26.26773,0.32547 -26.88,0.93751 -0.44935,0.4492 -0.78595,2.26667 -0.76497,4.13045 0.0206,1.83057 0.10231,7.6483 0.18155,12.9283 0.15267,10.17305 -0.25156,30.52062 -0.83915,42.24 -0.3893,7.76455 0.5296,31.3007 1.29633,33.20372 0.44691,1.10921 1.08123,1.17914 8.08015,0.8909 4.17735,-0.17205 7.78618,-0.50381 8.01962,-0.73727 0.5556,-0.55559 1.05206,-61.35966 0.59348,-72.6872 l -0.0895,-2.20984 6.08,-0.80045 c 3.344,-0.44025 11.696,-0.83227 18.56,-0.87117 6.864,-0.0389 16.656,-0.37904 21.76,-0.75589 5.104,-0.37685 12.016,-0.74457 15.36,-0.81716 3.344,-0.0726 17.024,-0.49288 30.4,-0.93399 44.81166,-1.4778 89.68369,-1.85408 94.40001,-0.79161 l 2.24,0.50462 -0.31965,4.76267 c -0.1758,2.61947 -0.26903,7.21067 -0.20717,10.20267 0.0619,2.992 0.13675,13.50401 0.16644,23.36001 0.0297,9.856 0.33802,19.504 0.68519,21.44 0.34719,1.936 0.77026,6.81585 0.94016,10.8441 0.21104,5.00322 0.58725,7.60242 1.18723,8.20239 0.61039,0.61039 3.41576,0.99115 9.19697,1.24826 l 8.31866,0.36997 0.89304,-7.29236 c 1.15044,-9.39429 1.24197,-52.43506 0.1312,-61.69237 -0.42237,-3.52 -1.06192,-9.28 -1.42125,-12.8 -0.35931,-3.52 -0.84781,-8.24299 -1.08554,-10.49554 -0.29,-2.74784 -0.21549,-3.96158 0.22644,-3.68846 0.63007,0.38941 1.81509,6.74635 1.6287,8.73708 -0.0491,0.5242 0.15314,2.2522 0.44936,3.84 0.29623,1.58781 0.7138,5.19092 0.92795,8.00692 0.21415,2.816 0.63937,8 0.94493,11.52 0.64262,7.40299 0.50189,43.25168 -0.2123,54.08001 -0.66954,10.15137 -1.11705,9.72636 10.91633,10.36737 5.23232,0.27872 20.74531,0.66153 34.47331,0.85069 30.48405,0.42005 41.39746,0.95888 41.76216,2.06194 0.29505,0.89238 -9.01098,0.96582 -17.76216,0.14017 z M 364.0217,453.35642 c 8.096,-0.23645 16.016,-0.50159 17.6,-0.5892 1.584,-0.0876 4.57281,-0.18806 6.6418,-0.22323 l 3.7618,-0.0639 -0.44294,-2.72 c -1.21338,-7.45127 -1.50739,-12.51493 -0.90112,-15.52 1.50816,-7.47536 6.16439,-17.92516 9.07315,-20.36246 1.78406,-1.49491 6.19641,-3.60534 7.57574,-3.62349 2.00934,-0.0264 8.02057,6.18072 9.14142,9.43936 1.99604,5.80308 2.92262,26.20051 1.37308,30.22659 -0.74849,1.94478 0.65359,2.79786 4.52785,2.75492 2.05107,-0.0227 10.06523,-0.14789 17.80923,-0.27812 l 14.08,-0.23681 -0.0674,-7.36 c -0.037,-4.048 -0.2377,-9.088 -0.44592,-11.2 -1.38187,-14.01631 -1.81599,-23.98741 -1.74658,-40.11636 l 0.079,-18.35635 -3.06957,-0.4857 c -8.69334,-1.37555 -93.54393,0.28117 -131.06958,2.55915 -8.448,0.51283 -20.544,0.86761 -26.88,0.78837 -6.336,-0.0792 -13.968,0.16942 -16.96,0.55255 l -5.44,0.6966 -0.0916,12.46087 c -0.0504,6.85347 -0.27163,19.66087 -0.49172,28.46087 -0.2201,8.8 -0.3851,16.288 -0.36667,16.64 0.0184,0.352 0.19946,4.04522 0.4023,8.20717 0.23465,4.81489 0.63409,7.6471 1.09822,7.78694 0.40118,0.12087 7.89139,0.39634 16.6449,0.61214 l 15.91547,0.39237 -0.33609,-1.77931 c -0.18484,-0.97862 -0.82965,-3.50731 -1.43289,-5.61931 -0.9059,-3.17165 -1.02769,-5.39948 -0.69972,-12.8 0.34496,-7.78381 0.64634,-9.62629 2.2959,-14.03563 2.11776,-5.66088 2.6047,-6.28434 5.71735,-7.32031 3.29892,-1.09796 5.24609,-0.88706 8.97749,0.97237 3.74031,1.86387 4.89773,3.71014 6.72583,10.72869 1.24071,4.7634 1.84966,17.96408 1.09491,23.73488 -0.32226,2.464 -0.35158,4.73322 -0.0651,5.04269 0.60936,0.65838 15.05221,1.51193 21.09141,1.24647 2.288,-0.10057 10.784,-0.37632 18.88,-0.61278 z m -44.16,-57.56618 c -2.96803,-1.77288 -7.99922,-2.05408 -10.56,-0.5902 -2.07388,1.18554 -2.56,1.1787 -2.56,-0.036 0,-0.56013 1.19033,-1.51199 2.72,-2.1751 4.6997,-2.0373 13.14677,0.0422 13.80693,3.39891 0.26764,1.36087 -0.2927,1.26257 -3.40693,-0.59762 z m 95.42805,-0.83502 c -0.74743,-0.8259 -2.40201,-1.29908 -5.57314,-1.5938 -3.7447,-0.34803 -5.00459,-0.20043 -7.42386,0.86973 -3.41923,1.51248 -4.67105,1.62174 -4.67105,0.40769 0,-0.48465 1.47163,-1.51425 3.27028,-2.28801 2.83076,-1.21776 3.91703,-1.34623 8.08273,-0.95587 3.96031,0.37111 5.15627,0.75815 6.75405,2.18577 1.12137,1.00194 1.66329,1.90682 1.2828,2.14197 -0.36233,0.22393 -1.13715,-0.12143 -1.72181,-0.76748 z m -94.60254,58.00482 c 2.26036,-2.73059 2.93531,-22.24 0.76943,-22.24 -0.27848,0 -2.04368,1.03458 -3.9227,2.29906 -2.83667,1.90894 -3.79783,2.23593 -5.66431,1.92704 -1.23636,-0.2046 -2.8859,-0.37518 -3.66565,-0.37905 -0.77976,-0.004 -2.40178,-0.87105 -3.6045,-1.92705 -2.69017,-2.36201 -3.3591,-2.39776 -3.90848,-0.2089 -1.19812,4.77369 0.49418,15.42404 3.05788,19.24453 l 1.39282,2.07562 7.44164,0.004 c 5.17809,0.003 7.64307,-0.23897 8.10387,-0.79563 z m 95.59773,-2.24 c 0.82452,-2.03939 1.05831,-22.2632 0.26615,-23.02222 -0.28573,-0.27378 -0.84573,0.0613 -1.24444,0.7446 -1.4745,2.52694 -3.52588,4.12479 -5.85705,4.56211 -4.25854,0.79891 -8.53426,-2.16696 -12.51989,-8.68449 -0.88392,-1.44544 -2.27544,0.68107 -3.80374,5.81284 -1.98668,6.67089 -1.44341,15.94901 1.2259,20.93668 0.72983,1.36369 1.09433,1.41048 10.98819,1.41048 h 10.23333 z m -5.22249,-91.55126 c -2.63959,-0.10519 -5.03763,-0.42964 -5.329,-0.721 -0.29136,-0.29136 10.0763,-0.70982 23.03925,-0.92989 12.96296,-0.22008 25.27433,-0.61563 27.35862,-0.879 3.83942,-0.48515 5.21055,-1.53568 3.11743,-2.38851 -2.05311,-0.83652 -10.70783,-2.87504 -12.2392,-2.88279 -1.73462,-0.009 -15.25218,-3.22124 -23.14784,-5.50109 -8.90674,-2.57179 -15.68701,-2.76609 -56.96001,-1.63223 -44.56518,1.2243 -59.52,1.43651 -59.52,0.84462 0,-1.03179 8.55556,-1.40907 40,-1.7639 28.82744,-0.3253 42.13422,-0.8362 56.64,-2.17466 5.82315,-0.5373 6.40446,-0.46969 13.76001,1.60038 7.97081,2.24322 18.32748,4.7647 24.96,6.07688 10.45237,2.06789 13.37758,2.76743 20.48,4.89764 4.224,1.2669 8.04,2.39822 8.48,2.51404 0.44,0.11582 0.8,0.50763 0.8,0.87068 0,0.41009 -2.48453,0.66258 -6.56,0.66669 -3.608,0.004 -10.016,0.32071 -14.24,0.70464 -7.47314,0.67923 -30.97545,1.08261 -40.63926,0.6975 z m -97.92075,-4.41435 c 0,-1.01015 3.43978,-5.3144 4.24704,-5.3144 1.36698,0 1.02846,1.63699 -0.78393,3.79089 -1.49991,1.78255 -3.46311,2.64621 -3.46311,1.52351 z m 20.90667,-0.62107 c -0.73241,-0.73241 -0.46784,-3.11291 0.49025,-4.41101 0.67803,-0.91866 1.10628,-1.05584 1.64378,-0.52654 0.542,0.53373 0.47987,1.3069 -0.24426,3.04 -1.01342,2.42546 -1.18728,2.60004 -1.88977,1.89755 z m 37.31716,-2.15604 c -1.33617,-1.87648 -1.34652,-3.81729 -0.0203,-3.81729 0.76713,0 2.59651,3.35946 2.59651,4.76822 0,1.56049 -1.0688,1.16597 -2.57617,-0.95093 z m 20.56247,-0.31956 c -2.0877,-2.37775 -2.56979,-4.13773 -1.13341,-4.13773 0.9341,0 4.90711,4.63317 4.90711,5.72247 0,1.38416 -1.84856,0.60786 -3.7737,-1.58474 z m -103.7463,-7.33773 c 0,-0.7646 13.61253,-0.7646 16,0 0.98212,0.31453 -1.79833,0.53704 -7.2,0.57621 -5.48252,0.0397 -8.8,-0.17748 -8.8,-0.57621 z M 354.1594,314.321 c -1.83402,-0.51304 -4.23478,-3.49779 -3.61718,-4.49708 0.77527,-1.25442 1.94731,-0.74843 2.8169,1.21611 0.48862,1.10387 1.33784,1.92 1.99786,1.92 1.19686,0 2.70125,-1.38627 2.53139,-2.33264 -0.2165,-1.20624 0.0874,-2.14736 0.69333,-2.14736 1.12699,0 0.70789,4.22018 -0.53039,5.3408 -1.25195,1.13301 -1.51074,1.16627 -3.89191,0.50017 z m -4.70779,-19.2774 c -1.16349,-0.9152 -1.74991,-1.97807 -1.74991,-3.17166 0,-2.18009 -0.85946,-2.93158 -4,-3.49746 -1.32,-0.23785 -2.43141,-0.63541 -2.4698,-0.88345 -0.0793,-0.51211 -0.5209,-8.26807 -0.55411,-9.73101 -0.012,-0.528 0.12163,-1.968 0.29691,-3.2 0.17529,-1.232 0.45634,-4.16659 0.62458,-6.52131 0.29458,-4.12317 0.2259,-4.37705 -1.85908,-6.87261 -3.3842,-4.05063 -4.97857,-6.96576 -5.84255,-10.68248 -1.10048,-4.73411 -0.20059,-11.51294 2.08606,-15.71427 2.15538,-3.96013 7.15129,-8.59998 11.76805,-10.92933 3.15591,-1.59229 4.13945,-1.76 10.32136,-1.76 3.75817,0 7.00627,0.28029 7.218,0.62287 0.21172,0.34258 1.30872,1.07214 2.43777,1.62124 2.76622,1.34531 3.73121,2.15947 5.68439,4.79589 1.93516,2.6121 3.72842,9.26712 3.72842,13.83662 0,6.05786 -3.83093,14.52032 -9.61102,21.2306 -3.13132,3.63524 -4.79045,7.61428 -3.71516,8.90993 0.42457,0.51156 0.52198,1.88653 0.25145,3.54898 -0.2429,1.49263 -0.56256,4.44188 -0.71035,6.55388 -0.2838,4.05564 -1.67664,6.08 -4.1833,6.08 -1.30671,0 -2.51162,1.78439 -2.51162,3.71955 0,2.86883 -4.52919,4.15282 -7.21009,2.04402 z m 5.06178,-2.25172 c 0.48443,-1.2624 -0.87748,-2.87185 -2.43014,-2.87185 -1.54446,0 -2.21125,1.63927 -1.17478,2.88814 1.02381,1.23363 3.12893,1.22411 3.60492,-0.0163 z m 5.85662,-5.79564 c 0.78821,-0.55209 1.31175,-1.20009 1.16342,-1.44 -0.14833,-0.23992 -3.68115,-0.39388 -7.85071,-0.34215 -9.86394,0.12239 -10.11889,0.14123 -9.5553,0.70594 2.01341,2.01741 13.78525,2.7974 16.24259,1.07621 z m -7.98628,-4.17019 c -0.97031,-0.97031 -8.52203,-1.60431 -8.52203,-0.71546 0,0.70142 2.16006,1.12356 6.688,1.30701 1.81642,0.0736 2.33266,-0.0929 1.83403,-0.59155 z m 5.87797,0.054 c 0.21755,-0.352 0.10754,-0.64 -0.24446,-0.64 -0.352,0 -0.81799,0.288 -1.03554,0.64 -0.21754,0.352 -0.10753,0.64 0.24447,0.64 0.352,0 0.81799,-0.288 1.03553,-0.64 z m 1.37323,-3.33895 c 0.85021,-0.85021 0.32425,-1.0072 -4.68778,-1.39921 -3.105,-0.24285 -7.19618,-0.61632 -9.09153,-0.82993 -5.31016,-0.59847 -3.98578,1.14797 1.8959,2.50008 5.42201,1.24645 10.48138,1.13109 11.88341,-0.27094 z m 2.77241,-4.11336 c 0.18279,-0.18279 -0.22624,-0.7408 -0.90896,-1.24002 -0.83147,-0.60799 -2.96553,-0.90768 -6.4635,-0.90768 -2.87219,0 -6.13423,-0.31794 -7.24897,-0.70654 -2.43176,-0.84772 -5.20421,-0.28365 -5.20421,1.05883 0,1.21524 0.71542,1.48485 5.81176,2.19012 3.96716,0.54901 13.33399,0.28518 14.01388,-0.39471 z m -2.88735,-5.14623 c 2.35651,-1.12374 2.90751,-2.70877 1.38182,-3.97499 -1.26198,-1.04734 -12.88432,-1.73519 -13.46425,-0.79685 -0.24827,0.4017 -1.01944,0.73037 -1.71371,0.73037 -1.58033,0 -2.26281,1.62608 -1.21326,2.89071 1.89351,2.28154 11.14991,2.99122 15.0094,1.15076 z m 5.55154,-6.76147 c 1.61789,-1.3282 5.40364,-6.94318 7.65918,-11.36 5.22035,-10.22249 2.06949,-22.15311 -7.05011,-26.69506 -3.22629,-1.60682 -13.50203,-1.5272 -16.69514,0.12937 -4.21512,2.18678 -8.93613,6.21923 -10.76939,9.19864 -3.02965,4.92383 -3.45591,6.95647 -2.70861,12.91631 0.72585,5.78873 2.45456,9.21773 6.87627,13.63943 2.23388,2.23389 2.54096,2.34758 5.28484,1.95672 1.60222,-0.22824 3.1208,-0.60338 3.3746,-0.83366 0.2538,-0.23027 0.0378,-1.82639 -0.48,-3.54693 -1.21768,-4.04606 -1.20132,-8.669 0.0369,-10.43686 1.08707,-1.55201 4.54392,-2.447 7.03577,-1.82159 2.88909,0.72511 3.76941,3.76845 2.99943,10.36932 -0.71743,6.15038 -0.39637,7.28431 2.06245,7.28431 0.76962,0 1.83782,-0.36 2.37378,-0.8 z m 2.54909,-16.33255 c -0.46793,-0.87433 -0.38428,-1.71797 0.30138,-3.03958 0.84932,-1.63707 0.84224,-1.88914 -0.0674,-2.3982 -0.79812,-0.44665 -0.92615,-1.17112 -0.59602,-3.3726 0.33883,-2.25944 0.14654,-3.24696 -0.99045,-5.08666 -1.55027,-2.50839 -1.34531,-4.17041 0.51429,-4.17041 2.98169,0 5.58397,6.38737 4.64704,11.40629 -0.30738,1.64654 -0.51587,4.00171 -0.46332,5.23371 0.079,1.85106 -0.14696,2.27453 -1.30114,2.43884 -0.86122,0.12261 -1.64502,-0.26515 -2.04439,-1.01139 z m -9.75044,14.41255 c 0.29523,-0.792 0.67964,-2.97084 0.85423,-4.84187 l 0.31745,-3.40186 -3.22986,-1.55814 c -1.77642,-0.85697 -3.46395,-1.55813 -3.75007,-1.55813 -0.28613,0 -0.52023,1.40483 -0.52023,3.12185 0,2.95155 1.26825,7.1138 2.70519,8.87815 1.04349,1.28125 3.03846,0.92887 3.62329,-0.64 z m 31.32547,17.76152 c -1.52567,-2.01662 -4.86195,-6.3461 -7.41395,-9.62107 -2.552,-3.27497 -4.64,-6.12232 -4.64,-6.32747 0,-1.1188 2.0189,-0.1197 2.80276,1.38702 0.50359,0.968 1.69508,2.48 2.64773,3.36 0.95265,0.88 2.89173,3.328 4.30906,5.44 1.41733,2.112 3.45829,4.77657 4.53547,5.92125 1.43903,1.52922 1.76943,2.27031 1.24568,2.79406 -0.52374,0.52374 -1.44856,-0.25971 -3.48675,-2.95379 z m -81.50428,-0.33823 c -0.67376,-1.09016 5.07142,-7.28233 10.67257,-11.50293 2.8453,-2.144 5.35429,-3.71638 5.57552,-3.49417 0.22123,0.2222 -0.31776,0.97243 -1.19776,1.66718 -7.28296,5.74986 -10.52684,8.70646 -11.84715,10.79797 -1.78271,2.82399 -2.61573,3.48246 -3.20318,2.53195 z m 93.82772,-19.13135 c -1.5459,-1.39903 -5.86323,-4.21504 -9.59406,-6.25781 -4.89495,-2.68017 -6.39717,-3.76913 -5.39621,-3.91171 3.46435,-0.49346 18.79695,9.72538 18.03263,12.01836 -0.12739,0.38216 -1.49645,-0.44981 -3.04236,-1.84884 z m -101.81739,-7.6536 c 0,-1.43978 3.12085,-2.62257 15.34134,-5.81429 4.61692,-1.20583 7.56611,-1.69262 7.94702,-1.31171 0.38091,0.38091 0.26908,0.69999 -0.30134,0.85983 -0.49886,0.13978 -3.06702,0.8879 -5.70702,1.66247 -2.64,0.77457 -6.50306,1.83828 -8.58458,2.36379 -2.08153,0.52552 -4.37761,1.37085 -5.10241,1.87852 -1.45909,1.02198 -3.59301,1.23663 -3.59301,0.36139 z m 88.96,-18.61138 c 0,-0.33716 1.368,-1.40126 3.04,-2.36468 1.672,-0.96341 4.01741,-2.48131 5.21201,-3.37312 1.19461,-0.8918 3.06661,-1.96432 4.16,-2.38336 1.69815,-0.65081 8.16819,-3.06473 14.66067,-5.46975 1.85533,-0.68728 3.05234,-0.27092 2.00466,0.69728 -0.32853,0.30362 -1.74933,0.92054 -3.15733,1.37094 -4.41704,1.41297 -16.33065,6.87616 -20.8505,9.56135 -4.62138,2.74552 -5.06951,2.91889 -5.06951,1.96134 z m -69.09372,-8.6855 c -1.92155,-1.22416 -6.17884,-3.26614 -9.46064,-4.53774 -5.84412,-2.26441 -9.1786,-4.23885 -8.42957,-4.99139 0.20685,-0.20781 2.65485,0.73235 5.44,2.08923 2.78517,1.35688 6.07193,2.80922 7.30393,3.22741 2.98621,1.01363 9.1185,4.70649 9.44574,5.68821 0.41392,1.24176 -0.55697,0.90852 -4.29946,-1.47572 z m 55.65372,-8.55226 c 0,-0.31393 1.22904,-1.96993 2.7312,-3.68001 1.50216,-1.71006 3.85695,-4.54921 5.23288,-6.30921 4.45115,-5.69362 14.73814,-14.35379 15.7949,-13.29703 0.38255,0.38255 -0.9986,1.80309 -3.73603,3.8426 -4.287,3.19401 -8.66803,7.64305 -15.54295,15.7842 -3.37344,3.99477 -4.48,4.89865 -4.48,3.65945 z m -31.63111,-5.98922 c -1.55971,-5.40305 -4.42434,-12.36106 -7.48936,-18.19122 -2.06774,-3.93316 -3.75953,-7.33416 -3.75953,-7.55777 0,-2.02178 7.2044,10.23172 9.5888,16.30899 3.40989,8.69099 3.83899,10.24 2.83664,10.24 -0.52008,0 -1.04953,-0.36 -1.17655,-0.8 z m 12.43111,-1.25261 c 0,-0.1316 0.8767,-2.94402 1.9482,-6.24981 2.31196,-7.13278 6.39571,-15.23869 8.75122,-17.37042 l 1.68748,-1.52716 -1.36869,2.24 c -3.16452,5.17906 -4.3461,7.75316 -6.89122,15.01266 -1.47562,4.20896 -3.00786,7.76096 -3.40497,7.89334 -0.39711,0.13236 -0.72202,0.13299 -0.72202,0.001 z"
     id="path2155"
     inkscape:connector-curvature="0"
     sodipodi:nodetypes="ccsscscccssssscssccccssccccscsssccsscccccssscsccccccccccsccscccscssscccccccccccsccccccscsscsccccccsccssccssscscccsscscccscsssccccscccccccccccccccccsccscssccsssscsscssccssscsscccscsscccsscsscsccsscscccscccccsscssccsssccsssccsccccccsccscccscscscscsssscscssccssscccscscccccsssccccsccscccccccccsssccsscsscscsscccscscccscscsccsscccccccscccccscscsssssccssscccccscccc"
     inkscape:export-filename="/home/phigit/Documents/Misc_Projects/Talks/2020-04-23-KreativeComputere/Images/Ide.png"
     inkscape:export-xdpi="284.10999"
     inkscape:export-ydpi="284.10999" />
</svg>
