<?xml version="1.0" encoding="UTF-8" standalone="no"?>
<!-- Created with Inkscape (http://www.inkscape.org/) -->

<svg
   xmlns:dc="http://purl.org/dc/elements/1.1/"
   xmlns:cc="http://creativecommons.org/ns#"
   xmlns:rdf="http://www.w3.org/1999/02/22-rdf-syntax-ns#"
   xmlns:svg="http://www.w3.org/2000/svg"
   xmlns="http://www.w3.org/2000/svg"
   xmlns:sodipodi="http://sodipodi.sourceforge.net/DTD/sodipodi-0.dtd"
   xmlns:inkscape="http://www.inkscape.org/namespaces/inkscape"
   version="1.1"
   id="svg925"
   width="816.64001"
   height="1122.5601"
   viewBox="0 0 816.64001 1122.5601"
   sodipodi:docname="Image Translation.svg"
   inkscape:version="0.92.4 (5da689c313, 2019-01-14)">
  <metadata
     id="metadata931">
    <rdf:RDF>
      <cc:Work
         rdf:about="">
        <dc:format>image/svg+xml</dc:format>
        <dc:type
           rdf:resource="http://purl.org/dc/dcmitype/StillImage" />
        <dc:title></dc:title>
      </cc:Work>
    </rdf:RDF>
  </metadata>
  <defs
     id="defs929" />
  <sodipodi:namedview
     pagecolor="#ffffff"
     bordercolor="#666666"
     borderopacity="1"
     objecttolerance="10"
     gridtolerance="10"
     guidetolerance="10"
     inkscape:pageopacity="0"
     inkscape:pageshadow="2"
     inkscape:window-width="1280"
     inkscape:window-height="780"
     id="namedview927"
     showgrid="false"
     inkscape:zoom="1.3807529"
     inkscape:cx="375.21335"
     inkscape:cy="844.5322"
     inkscape:window-x="0"
     inkscape:window-y="0"
     inkscape:window-maximized="1"
     inkscape:current-layer="svg925" />
  <path
     style="fill:#000000;fill-opacity:1;stroke-width:0.64000005"
     d="m 92.321279,370.15545 c -0.92389,-1.11347 -1.05997,-10.14015 -1.18531,-78.62141 -0.0538,-29.36612 0.14827,-38.0677 0.91247,-39.30421 0.23651,-0.38269 0.89435,-0.69579 1.46186,-0.69579 0.56751,0 1.48651,-0.38181 2.04223,-0.84846 0.55572,-0.46666 3.02639,-1.21396 5.490391,-1.66067 2.464,-0.44671 5.92,-1.19997 7.68,-1.67392 1.76,-0.47394 8.96,-2.3378 16,-4.14193 7.04,-1.80412 13.96163,-3.69305 15.3814,-4.19762 1.41977,-0.50457 3.14777,-0.91755 3.84,-0.91772 0.69223,-1.8e-4 2.6986,-0.54471 4.4586,-1.21007 1.76,-0.66536 7.088,-2.12986 11.84,-3.25446 8.85984,-2.09674 17.26754,-4.39852 23.93066,-6.55148 2.55382,-0.82518 3.98054,-1.00848 4.42102,-0.568 0.83074,0.83074 0.66819,18.93178 -0.52646,58.62433 -0.20129,6.688 -0.0901,15.04 0.24708,18.56 0.50016,5.2213 0.451,6.51787 -0.26693,7.04 -0.484,0.352 -3.21698,2.08 -6.0733,3.84 -2.85631,1.76 -6.82652,4.36617 -8.82268,5.7915 -1.99616,1.42532 -8.23739,5.40239 -13.86939,8.83792 -5.632,3.43553 -12.77551,7.81619 -15.87447,9.7348 -3.09895,1.91861 -7.85095,4.66243 -10.56,6.09737 -2.70904,1.43495 -5.21353,2.84121 -5.56553,3.12505 -0.6383,0.51468 -16.69366,9.83496 -19.28566,11.19549 -0.75112,0.39426 -3.97857,2.4044 -7.17212,4.46697 -4.108601,2.65357 -5.992021,4.28243 -6.441051,5.57052 -0.73909,2.12016 -0.88958,2.17575 -2.06281,0.76179 z m 7.923171,-8.3814 c 2.70003,-1.672 7.87224,-4.7335 11.49381,-6.80334 11.11072,-6.3501 15.43758,-8.89869 18.10466,-10.66393 1.408,-0.9319 4.864,-2.9377 7.68,-4.45732 2.816,-1.51964 6.992,-3.91589 9.28,-5.32501 2.288,-1.40912 6.464,-3.98178 9.28,-5.71703 2.816,-1.73525 5.94508,-3.63163 6.95352,-4.21418 1.00843,-0.58256 4.37878,-2.83852 7.48966,-5.01325 3.11087,-2.17472 7.67148,-5.13107 10.13468,-6.56965 2.46319,-1.43859 4.67645,-2.93584 4.91833,-3.32722 0.2419,-0.39139 0.51488,-18.37611 0.60665,-39.96606 0.14013,-32.96811 0.0237,-39.37324 -0.72697,-39.99625 -0.69213,-0.57442 -2.37422,-0.29717 -7.45484,1.22875 -3.60857,1.08379 -11.16903,3.14432 -16.80103,4.57897 -5.632,1.43463 -11.536,3.01948 -13.12,3.52189 -1.584,0.50241 -6.912,1.98045 -11.84,3.28454 -15.53534,4.1111 -16.41538,4.38475 -16.20539,5.03908 0.11296,0.352 0.49339,0.57706 0.84539,0.50014 0.352,-0.0769 1.44671,-0.32931 2.43269,-0.56086 1.309,-0.30741 2.17239,-0.0796 3.2,0.84449 0.77402,0.69602 1.89453,1.43693 2.49002,1.64646 0.59549,0.20954 1.5426,1.08285 2.10469,1.94072 0.91055,1.38968 0.92057,1.82954 0.0918,4.03439 -0.51157,1.36106 -1.08682,3.19756 -1.27834,4.08111 -0.19151,0.88354 -1.22405,2.12383 -2.29454,2.75618 -1.07049,0.63235 -1.94635,1.52661 -1.94635,1.98724 0,0.46063 -0.53208,1.52435 -1.1824,2.36382 -0.65033,0.83947 -1.35925,2.25231 -1.57538,3.13963 -0.61056,2.50659 -4.13194,5.74668 -6.24559,5.74668 -1.35697,0 -2.24849,0.60218 -3.55318,2.4 -3.45234,4.7572 -6.25792,6.32684 -7.85944,4.39713 -0.40299,-0.48558 -1.59009,-1.05435 -2.63799,-1.26393 -2.15498,-0.43099 -4.738501,-3.97095 -4.038241,-5.5332 0.23668,-0.528 0.50452,-2.11265 0.5952,-3.52146 0.16187,-2.51472 3.466081,-10.09306 4.745381,-10.88371 0.35807,-0.2213 1.05598,-1.37154 1.55092,-2.55609 0.50242,-1.20246 1.77019,-2.60378 2.8703,-3.17267 1.08373,-0.56042 1.97042,-1.42895 1.97042,-1.93007 0,-0.50112 0.92558,-1.77615 2.05683,-2.8334 1.13126,-1.05725 1.85194,-2.12717 1.60151,-2.37759 -0.76998,-0.76999 -17.945471,4.28224 -19.144711,5.63147 -0.84146,0.94671 -1.00201,1.93447 -0.71219,4.38151 0.24904,2.10279 0.10381,3.48503 -0.4343,4.1334 -0.99335,1.19692 -1.01072,2.13654 -0.44403,24.00861 0.2508,9.68 0.38725,24.656 0.30323,33.28 -0.24163,24.7998 -0.22914,41.79772 0.0319,43.36001 0.13231,0.792 0.58113,1.44 0.99737,1.44 0.41624,0 2.96593,-1.368 5.665961,-3.04 z m 33.88647,-22.68801 c -1.25517,-1.25517 -0.88524,-4.6339 1.10421,-10.08512 4.13819,-11.33892 4.01467,-14.96165 -0.63763,-18.70034 -3.30191,-2.65348 -5.41346,-6.94443 -4.59279,-9.33316 0.70822,-2.0614 0.39555,-3.35338 -0.81154,-3.35338 -0.4747,0 -1.49269,-0.88419 -2.2622,-1.96487 -1.14402,-1.60662 -1.34672,-2.59667 -1.11175,-5.43008 0.16432,-1.98143 0.74475,-3.97062 1.35554,-4.64552 1.5105,-1.6691 1.36419,-3.31953 -0.29427,-3.31953 -1.84659,0 -6.6785,4.4346 -6.43002,5.90131 0.2631,1.55298 -1.66716,2.19336 -2.89881,0.96171 -1.65417,-1.65416 -0.57047,-4.94187 2.68066,-8.13262 2.6282,-2.57938 3.17545,-2.82933 6.76274,-3.08881 2.26634,-0.16393 4.18517,-2.9e-4 4.57569,0.39024 1.0031,1.0031 0.05,4.93867 -1.69965,7.01797 -1.67443,1.98994 -2.61689,5.71368 -2.03396,8.03627 0.48049,1.91443 3.3717,3.34493 4.63741,2.29448 0.48861,-0.4055 0.88837,-1.13886 0.88837,-1.62968 0,-0.49082 1.27072,-2.11156 2.82383,-3.60163 1.85444,-1.77919 2.89804,-3.36835 3.04,-4.62924 0.18494,-1.64261 0.62374,-2.04892 3.03722,-2.81237 2.54026,-0.80353 2.89935,-0.78528 3.60768,0.18342 0.70455,0.96354 1.0017,0.80423 2.84798,-1.5269 2.88408,-3.64144 5.22705,-4.76039 8.03047,-3.83518 1.81307,0.59836 2.31307,1.18145 2.91266,3.3967 1.15448,4.26536 1.9454,6.13007 3.36621,7.93635 2.98689,3.79721 4.92896,11.52416 3.46409,13.78263 -2.10783,3.24974 -4.97014,8.78495 -4.97014,9.61136 0,0.48685 -1.43665,1.55809 -3.19257,2.38051 -3.01844,1.41377 -3.25828,1.43585 -4.3974,0.40495 -1.13666,-1.02865 -2.11517,-7.02016 -2.07563,-12.70919 0.01,-1.42359 -0.24996,-1.72032 -1.40112,-1.6 -1.51455,0.15831 -1.50413,0.23601 -0.68964,-5.14398 0.32102,-2.1205 0.16157,-3.01016 -0.71266,-3.97617 -1.11852,-1.23594 -0.95461,-3.21213 0.26642,-3.21213 1.06662,0 2.21469,2.70271 2.5827,6.08 l 0.3487,3.2 1.2024,-1.78014 c 1.12439,-1.66463 1.13869,-1.97611 0.2205,-4.8 -0.66851,-2.05596 -0.77282,-3.22414 -0.32681,-3.65986 0.43746,-0.42737 0.74252,-0.40436 0.91819,0.0692 0.1447,0.39008 0.66318,1.25408 1.15219,1.92 0.84672,1.15303 0.92256,1.12313 1.59068,-0.62709 0.51468,-1.34827 0.50834,-2.07066 -0.0238,-2.71185 -0.39894,-0.4807 -0.55464,-1.31889 -0.34598,-1.86264 0.25338,-0.66029 -0.14389,-1.18758 -1.19618,-1.58766 -1.12534,-0.42785 -1.45653,-0.9092 -1.15901,-1.6845 0.25785,-0.67196 0.16278,-0.92865 -0.24956,-0.6738 -0.36636,0.22641 -0.83774,1.26987 -1.04753,2.3188 -0.27239,1.36196 -1.05539,2.2529 -2.73914,3.11672 -1.62675,0.83456 -2.57669,1.88441 -3.06396,3.38618 -0.54131,1.66829 -1.06211,2.1766 -2.23008,2.1766 -2.19734,0 -3.91739,2.68851 -4.34004,6.7837 -0.33808,3.27558 -0.16596,3.87117 2.59361,8.97496 2.60094,4.8104 2.95571,5.9388 2.95571,9.401 0,2.16394 -0.47044,5.11019 -1.04542,6.54722 -0.73689,1.84167 -0.93831,3.65061 -0.68249,6.12934 0.29129,2.82233 0.16617,3.59207 -0.6338,3.89905 -0.57743,0.22158 -1.24602,-0.063 -1.58931,-0.67639 -0.92987,-1.6616 -1.80896,-1.24313 -1.80896,0.86112 0,1.28 -0.32,1.92 -0.96,1.92 -0.69059,0 -0.96,-0.70631 -0.96,-2.51687 0,-1.95479 0.28586,-2.6076 1.28,-2.92313 1.50909,-0.47896 1.63012,-1.34131 0.36572,-2.60571 -1.35583,-1.35583 -1.59049,-1.1651 -2.04222,1.6599 -0.2264,1.4158 -0.6618,2.7288 -0.96756,2.91777 -0.30577,0.18897 -0.55594,2.05459 -0.55594,4.14582 0,3.872 -0.70929,4.75693 -2.432,3.03422 z m 8.02809,-17.59019 c -0.99874,-0.99875 -1.09778,-0.9942 -1.50583,0.0692 -0.50866,1.32555 1.00111,2.57367 1.95696,1.61781 0.39723,-0.39722 0.23611,-0.99973 -0.45113,-1.68697 z m 1.44391,-6.57929 c 0,-0.69162 -0.576,-1.56575 -1.28,-1.94252 -1.14932,-0.6151 -1.28,-0.48671 -1.28,1.25749 0,1.51584 0.28115,1.94251 1.28,1.94251 0.8457,0 1.28,-0.42667 1.28,-1.25748 z m 15.13654,-6.12219 c -0.45523,-3.32124 -1.48345,-6.06033 -2.27498,-6.06033 -0.33557,0 -1.03404,0.42391 -1.55215,0.94202 -0.82936,0.82936 -0.8152,1.34601 0.1184,4.32 1.46684,4.67264 1.88321,5.24176 3.09763,4.23387 0.70572,-0.58569 0.8729,-1.52555 0.6111,-3.43556 z m -18.33654,2.06401 c 0,-0.10761 -0.71043,-1.1586 -1.57874,-2.33552 -1.66688,-2.25933 -1.57096,-3.86769 0.1467,-2.4599 0.89187,0.73097 0.95447,0.63835 0.51968,-0.76892 -0.27187,-0.88 -0.64314,-3.3964 -0.82503,-5.59201 -0.22766,-2.74822 -0.55665,-3.85236 -1.05589,-3.54381 -0.39885,0.2465 -1.30153,0.45891 -2.00595,0.47201 -1.73783,0.0323 -3.80187,4.25667 -3.21749,6.58503 0.45688,1.82038 6.05034,7.83878 7.28529,7.83878 0.40229,0 0.73143,-0.088 0.73143,-0.19566 z m -5.33333,-7.91101 c -0.23467,-0.23466 -0.42667,-1.12266 -0.42667,-1.97333 0,-2.10438 1.54158,-1.51482 1.80251,0.68936 0.19208,1.62255 -0.44382,2.21599 -1.37584,1.28397 z m 28.35082,-0.17125 c 0.89455,-1.67149 0.8469,-5.80208 -0.0669,-5.80208 -1.28439,0 -2.42924,2.16803 -2.45021,4.64 -0.0226,2.67555 1.36442,3.31594 2.51714,1.16208 z m -3.17749,-7.95185 c 0,-0.78883 0.3456,-1.77983 0.768,-2.20223 0.58901,-0.58901 0.59244,-0.94356 0.0147,-1.52131 -0.57774,-0.57775 -0.98974,-0.18745 -1.7678,1.67471 -1.02784,2.45996 -0.83913,4.61051 0.3406,3.8814 0.35445,-0.21909 0.64448,-1.04375 0.64448,-1.83257 z m -20.54717,-1.56471 c 0.89571,-1.67365 -0.15159,-3.19185 -1.45539,-2.10979 -0.79,0.65565 -0.83167,1.05112 -0.21483,2.03885 0.93361,1.49494 0.90868,1.49388 1.67022,0.0709 z m -21.35753,27.87448 c 1.59742,-4.74681 0.72852,-12.03981 -1.20417,-10.10712 -0.36692,0.36692 -1.31797,0.66712 -2.11344,0.66712 -1.93763,0 -3.36741,-4.27663 -2.24982,-6.72947 0.95966,-2.10624 6.25434,-5.43053 8.64934,-5.43053 h 1.8866 l -0.41637,-4.48 c -0.23122,-2.48784 -0.16432,-4.48 0.15045,-4.48 1.06338,0 2.3212,4.15377 2.09931,6.93265 -0.17559,2.19899 0.0812,3.09472 1.24098,4.32928 1.21131,1.28938 1.35705,1.85615 0.84888,3.30114 -0.78008,2.21815 -2.54281,2.56709 -4.35722,0.86254 -1.2516,-1.17582 -1.65361,-1.24055 -3.46291,-0.55761 -2.43234,0.9181 -2.55735,1.70937 -0.56568,3.58044 1.82516,1.71465 2.12157,1.72765 2.54419,0.11156 0.56038,-2.1429 1.54539,-1.43383 1.92342,1.38459 0.42698,3.18335 2.2832,5.89593 4.23224,6.18476 2.00422,0.29701 1.29097,1.67346 -0.98552,1.90189 -1.49768,0.15028 -2.0945,-0.16127 -2.78671,-1.45467 -1.19947,-2.24123 -2.14087,-1.72166 -2.68805,1.48355 -0.55651,3.25995 -0.94192,3.93988 -2.23323,3.93988 -0.75071,0 -0.87721,-0.35558 -0.51229,-1.44 z m 28.32722,-52.64 c -1.29504,-0.88 -3.01789,-1.60441 -3.82857,-1.6098 -4.21615,-0.028 -5.44995,-4.71461 -2.37722,-9.02986 0.98085,-1.37748 1.15984,-2.3316 0.82742,-4.41047 -0.4025,-2.51709 -0.28049,-2.79171 2.38583,-5.36994 1.54551,-1.49446 3.24202,-3.35963 3.77002,-4.14484 1.2041,-1.79064 4.61948,-2.60007 11.0543,-2.61982 4.94746,-0.0152 4.98976,-0.001 7.84,2.62624 1.57613,1.45283 2.8657,3.20837 2.8657,3.9012 0,0.69283 0.61883,2.12876 1.37518,3.19096 1.30647,1.83475 1.32245,2.02052 0.32,3.71754 -0.58035,0.98246 -1.05993,2.46184 -1.06575,3.28753 -0.0127,1.80935 -5.08056,6.94126 -6.85457,6.94126 -0.66562,0 -1.76926,0.42284 -2.45253,0.93965 -0.68328,0.5168 -2.27213,0.9488 -3.53077,0.96 -1.59591,0.0142 -2.74331,0.50454 -3.79156,1.62035 -0.82672,0.88 -2.10606,1.6 -2.84299,1.6 -0.73693,0 -2.39945,-0.72 -3.69449,-1.6 z m 4.6634,-1.63809 c 0.25154,-0.50705 0.80741,-1.78591 1.23527,-2.84191 l 0.77792,-1.92 0.96851,1.44 c 0.55025,0.81812 1.62577,1.44 2.49044,1.44 1.24448,0 1.52194,-0.33058 1.52194,-1.81333 0,-2.53956 0.63231,-2.89702 2.31996,-1.31156 1.93153,1.81458 3.62591,1.20825 3.04883,-1.091 -0.40389,-1.60923 -0.33352,-1.66443 1.58481,-1.24309 2.58764,0.56834 3.63604,-1.30027 1.5184,-2.70633 -1.67322,-1.11098 -1.17775,-2.71469 0.8387,-2.71469 0.82157,0 1.65957,-0.2683 1.86224,-0.59621 0.50109,-0.81078 -2.17194,-2.60379 -3.88174,-2.60379 -2.12752,0 -3.81334,-2.98403 -2.96121,-5.24159 0.52836,-1.39977 0.49353,-1.79841 -0.15711,-1.79841 -0.45976,0 -1.0139,0.46377 -1.23142,1.03061 -0.34007,0.88621 -0.70838,0.79195 -2.62869,-0.67274 l -2.2332,-1.70335 -1.60268,1.72932 c -1.50271,1.62145 -1.67549,1.66341 -2.77017,0.67273 -0.64213,-0.58112 -1.4947,-1.05657 -1.8946,-1.05657 -1.23127,0 -2.16234,2.52119 -1.70316,4.61185 0.42172,1.9201 0.37913,1.96577 -1.48566,1.59281 -1.42816,-0.28564 -2.20988,-0.0635 -3.05235,0.86744 -0.99515,1.09962 -1.03687,1.57061 -0.344,3.8832 0.77255,2.57852 0.74666,2.66673 -1.27886,4.3577 -1.71902,1.43511 -1.99417,2.01749 -1.63303,3.45641 0.3947,1.57262 0.67713,1.715 3.0956,1.56055 2.34576,-0.14981 2.70621,0.0127 3.04017,1.37075 0.58263,2.36921 3.59793,3.23056 4.55509,1.3012 z m 15.31408,-19.16191 c 0,-0.352 -0.271,-0.64 -0.60222,-0.64 -0.33123,0 -0.78023,0.288 -0.99778,0.64 -0.21755,0.352 0.0534,0.64 0.60223,0.64 0.54877,0 0.99777,-0.288 0.99777,-0.64 z m -57.07077,32.13315 c 0.94093,-0.98277 2.17668,-2.66774 2.74613,-3.74438 0.83269,-1.57436 1.55793,-2.02762 3.7051,-2.31562 3.81712,-0.51198 4.70418,-1.44459 4.20189,-4.41761 -0.37092,-2.19548 -0.25043,-2.50696 1.18011,-3.05085 2.07658,-0.78952 2.65417,-1.79612 1.69428,-2.95272 -1.09914,-1.32438 0.21512,-2.7253 2.79092,-2.97498 1.79888,-0.17436 2.03494,-0.4254 2.05499,-2.18535 0.0125,-1.0936 0.51646,-2.48217 1.12,-3.08572 0.60354,-0.60354 1.09735,-1.34779 1.09735,-1.65387 0,-1.04347 -1.33376,-1.38417 -2.29516,-0.58627 -1.20075,0.99654 -2.32315,0.0384 -2.43018,-2.07455 -0.0867,-1.71276 -2.15674,-2.4182 -2.63659,-0.89854 -0.17494,0.55402 -0.46266,1.46441 -0.63939,2.02309 -0.26916,0.85091 -0.64582,0.74273 -2.32057,-0.66648 -2.40787,-2.0261 -3.43811,-1.82553 -3.43811,0.66934 0,1.70664 -0.17288,1.84785 -2.08,1.69892 -2.05514,-0.16049 -2.95757,1.14453 -1.44,2.08244 0.352,0.21755 0.64,0.81054 0.64,1.31777 0,0.64441 -0.74758,0.92223 -2.48164,0.92223 -2.46939,0 -4.38027,1.29483 -3.65138,2.47421 0.546,0.88345 -0.26469,2.64579 -1.21708,2.64579 -0.44725,0 -1.1717,0.432 -1.6099,0.96 -0.63621,0.76659 -0.63362,1.15652 0.0129,1.93547 0.89637,1.08005 0.68994,1.43747 -1.44151,2.49588 -1.72701,0.85758 -2.37718,3.56865 -0.85584,3.56865 1.52945,0 1.20101,1.39524 -0.68189,2.8966 -1.46176,1.16558 -1.58664,1.53108 -0.93748,2.74405 0.48885,0.91342 1.35435,1.39935 2.49245,1.39935 1.0504,0 2.06131,0.50885 2.5429,1.28 1.07165,1.71599 1.84654,1.6147 3.87776,-0.50685 z m 313.12477,67.88034 c -4.17596,-0.20575 -5.05206,-0.47624 -7.29417,-2.25203 -1.6172,-1.28085 -3.11697,-3.31578 -4.10502,-5.56982 -0.85626,-1.9534 -1.85585,-4.17217 -2.22131,-4.93061 -0.36546,-0.75843 -0.47102,-1.69198 -0.23459,-2.07454 0.64197,-1.03872 -4.70428,-16.13872 -6.36822,-17.98649 -1.90903,-2.11992 -3.54467,-6.00269 -5.98094,-14.19788 -1.74179,-5.85904 -2.0157,-7.77681 -2.05127,-14.36204 -0.0226,-4.18005 -0.0669,-20.41608 -0.0985,-36.08008 -0.0316,-15.664 -0.085,-30.06401 -0.11871,-32.00001 -0.0589,-3.38401 5.5e-4,-3.51392 1.53874,-3.36282 4.33537,0.4259 18.92592,0.18469 24.27063,-0.40124 10.01659,-1.09809 10.41914,-0.95027 18.64281,6.84578 9.20704,8.72827 12.08477,10.98224 14.04656,11.00188 3.38107,0.0339 3.28034,-0.98061 2.80081,28.20864 -0.57461,34.9763 -0.57603,55.74571 -0.004,63.09296 0.43869,5.63791 0.39955,5.90546 -1.01006,6.90414 l -1.46643,1.03894 1.42446,1.09587 c 1.34126,1.03185 1.40118,1.42228 1.02578,6.68399 -0.34208,4.79467 -0.59735,5.7183 -1.79775,6.50484 -1.31726,0.86309 -3.28568,1.03108 -22.09249,1.88538 -2.288,0.10394 -6.2957,0.0838 -8.90601,-0.0449 z m 30.36648,-7.06412 c 1.0228,-5.65751 0.89566,-5.72192 -9.19286,-4.65809 -4.45919,0.47022 -12.28361,1.17304 -17.38761,1.56184 l -9.28,0.70688 -0.1938,3.37019 -0.1938,3.37018 17.7615,-0.17018 17.76151,-0.17018 z m -38.93749,-5.23824 c -0.65264,-5.5105 -6.21187,-17.85773 -6.19904,-13.76827 0.002,0.69143 0.40552,2.02685 0.89634,2.96759 0.49082,0.94076 1.21582,3.21856 1.61113,5.06178 0.78727,3.6709 2.91648,8.90777 3.62174,8.90777 0.24483,0 0.27625,-1.42599 0.0698,-3.16887 z m 16.51702,-0.0357 c 2.816,-0.31019 8.288,-0.88781 12.16,-1.28359 7.59903,-0.77674 8.88153,-1.30463 7.21596,-2.9702 -0.95749,-0.95749 -2.40933,-0.98216 -16.61257,-0.28232 -8.55987,0.42177 -15.81763,1.02061 -16.12837,1.33073 -0.85018,0.84851 0.0296,2.52558 1.67079,3.18472 1.82791,0.73416 5.16345,0.74006 11.69419,0.0207 z m 9.92,-7.35703 c 10.79228,-0.68307 10.87036,-0.6928 11.62613,-1.44857 0.4919,-0.4919 0.50754,-2.1583 0.0536,-5.70243 -0.38071,-2.97203 -0.50984,-14.11253 -0.31767,-27.40744 0.17807,-12.32 0.32945,-30.32 0.33641,-40 l 0.0127,-17.6 -9.39847,-0.17725 c -10.61911,-0.20025 -24.48242,0.62765 -25.29562,1.51065 -0.29713,0.32263 -0.8786,13.4026 -1.29216,29.0666 -0.41356,15.664 -0.91233,29.56 -1.10838,30.88 -0.52758,3.55211 1.16649,3.13826 3.92967,-0.96 4.18399,-6.20554 9.59147,-12.69571 12.43653,-14.92659 2.55042,-1.99984 2.95158,-2.12816 4.16,-1.33071 2.26497,1.49469 1.94967,4.12081 -1.06197,8.84526 -5.45026,8.54998 -10.29874,14.72156 -14.38231,18.3071 l -4.17401,3.66494 0.4116,7.9078 c 0.22638,4.34928 0.72199,8.48776 1.10136,9.19661 0.64702,1.20899 1.15168,1.26873 8.14623,0.96434 4.10106,-0.17846 10.76848,-0.5341 14.81648,-0.79031 z M 412.20012,318.614 c -0.2043,-0.51054 -0.35596,-0.3589 -0.38667,0.38667 -0.0278,0.67466 0.12348,1.05267 0.33614,0.84 0.21267,-0.21266 0.2354,-0.76467 0.0505,-1.22667 z m -4.34094,-5.38412 c 2.27068,-1.13277 2.52971,-3.26563 0.35923,-2.95786 -3.31502,0.47007 -3.99826,1.10864 -3.25594,3.0431 0.44503,1.15971 0.39839,1.16108 2.89671,-0.0852 z m 6.07639,-3.48998 c 0.74105,-0.72276 2.90511,-2.58705 4.80903,-4.14287 3.40385,-2.78151 5.31694,-5.16016 11.31058,-14.06303 1.65883,-2.464 3.54968,-5.26034 4.2019,-6.21409 1.4239,-2.08219 1.53326,-3.70591 0.24961,-3.70591 -1.24434,0 -5.91361,4.86638 -7.36894,7.68 -0.63724,1.232 -1.79624,2.816 -2.57555,3.52 -1.61963,1.4631 -8.38088,10.20341 -9.47601,12.24968 -0.40123,0.7497 -1.45709,1.5457 -2.34638,1.76889 -1.14651,0.28776 -1.61688,0.8367 -1.61688,1.88696 0,2.60085 0.86895,2.91609 2.81264,1.02037 z m -8.56617,0.1941 c 0.0116,-0.85588 -2.68786,-8.75385 -3.5488,-10.38315 -1.62539,-3.07595 -2.43796,-2.40557 -2.06532,1.70393 0.42396,4.67546 2.54886,9.15922 4.34065,9.15922 0.69685,0 1.26991,-0.216 1.27347,-0.48 z m 6.62483,-6.096 c 0.98166,-0.71781 1.149,-2.3929 1.39061,-13.92 0.15106,-7.2072 0.46333,-18.432 0.69393,-24.944 0.23059,-6.512 0.1798,-11.61595 -0.11286,-11.34211 -0.29265,0.27384 -0.60998,1.42584 -0.70516,2.56 -1.08211,12.89413 -1.66942,22.38488 -1.92966,31.18211 -0.30996,10.47839 -0.8745,13.0355 -2.35445,10.66456 -2.79741,-4.48156 -3.60077,-3.84512 -2.07474,1.64368 1.37657,4.95128 2.61842,5.96472 5.09233,4.15576 z m -10.59075,-13.35946 c -0.19941,-2.00393 -1.95556,-3.80287 -2.84456,-2.91386 -0.60783,0.60783 1.45607,4.92932 2.3542,4.92932 0.39073,0 0.60377,-0.87564 0.49036,-2.01546 z m 7.54345,-0.28854 c -0.3098,-0.8073 -0.61797,-0.91803 -1.12997,-0.40603 -0.3872,0.3872 -0.51231,1.20351 -0.27803,1.81403 0.30979,0.8073 0.61796,0.91804 1.12996,0.40604 0.3872,-0.3872 0.51231,-1.20352 0.27804,-1.81404 z m -3.39624,-2.28028 c 0.6371,-1.11916 0.90384,-2.26012 0.59952,-2.56444 -0.83331,-0.83331 -3.45725,2.27746 -2.9769,3.52923 0.58297,1.51921 1.07756,1.31849 2.37738,-0.96479 z m 1.49135,-5.82766 1.99912,0.0697 0.38465,-4.58886 c 0.21155,-2.52388 0.57465,-6.67687 0.80688,-9.22887 0.2862,-3.14519 0.20051,-4.64 -0.266,-4.64 -0.37852,0 -0.86622,0.288 -1.08376,0.64 -0.63559,1.02841 -2.13819,0.74182 -3.55878,-0.67877 -0.83391,-0.83392 -1.95159,-1.24569 -3.04,-1.12 -1.72062,0.1987 -1.72124,0.20078 -1.78498,5.95877 -0.0386,3.4894 0.27674,6.61074 0.8,7.91816 0.47506,1.18698 0.86376,2.93899 0.86376,3.89333 0,2.11689 0.57395,2.77634 1.88657,2.16761 0.54638,-0.25339 1.89303,-0.42936 2.99254,-0.39104 z m -3.82163,-7.87223 c -1.00238,-1.25627 -1.65822,-2.44843 -1.45742,-2.64923 0.57033,-0.57033 4.87994,2.96745 4.87994,4.00597 0,1.61578 -1.53684,1.00656 -3.42252,-1.35674 z m -4.86083,-7.15583 c 0.1618,-24.71337 0.74115,-41.45464 1.4401,-41.61371 0.41978,-0.0955 2.24972,1.12846 4.06651,2.72 3.60587,3.15879 5.44854,3.95897 2.60906,1.13299 -1.27857,-1.27249 -8.65725,-10.015 -9.6773,-11.466 -0.0413,-0.0587 0.0298,10.88531 0.1578,24.32 0.12805,13.4347 0.22008,25.79472 0.20451,27.46672 -0.0155,1.672 0.23966,3.04 0.56718,3.04 0.32752,0 0.61198,-2.52 0.63214,-5.6 z m 10.36585,-11.2 c 0.42475,-1.26242 -0.25269,-3.1162 -1.04399,-2.85682 -1.14296,0.37466 -1.29946,3.65682 -0.17436,3.65682 0.52205,0 1.0703,-0.36 1.21835,-0.8 z m -4.6425,-3.36 c 0,-0.88 -0.25719,-1.6 -0.57153,-1.6 -0.74641,0 -1.45535,1.8693 -0.99278,2.61775 0.69714,1.12799 1.56431,0.56381 1.56431,-1.01775 z m 7.04,-3.89572 c 0,-0.74656 -0.72,-2.13427 -1.6,-3.0838 -1.92864,-2.08103 -2.06265,-3.58048 -0.32,-3.58048 1.06158,0 1.28,-0.42667 1.28,-2.50041 0,-2.20174 -0.36311,-2.80212 -3.04,-5.0264 -2.88888,-2.40042 -5.37224,-3.99319 -6.22597,-3.99319 -0.21456,0 -0.30549,2.07061 -0.20207,4.60136 0.18797,4.59971 0.18878,4.60156 2.26804,5.1383 2.87623,0.74247 2.76531,2.42034 -0.16,2.42034 -2.23391,0 -2.24,0.008 -2.24,2.93085 0,2.90809 0.0146,2.92765 1.8755,2.51892 1.46377,-0.3215 2.02113,-0.1398 2.5389,0.82767 0.49924,0.93284 1.30214,1.22284 3.2445,1.17191 2.1822,-0.0572 2.5811,-0.27746 2.5811,-1.42507 z m 23.91758,-14.96656 c 6.29068,-0.32976 11.61303,-0.775 11.82745,-0.98943 0.51509,-0.51509 -7.43121,-7.8267 -9.58901,-8.82313 -0.92619,-0.4277 -3.04089,-2.28682 -4.69931,-4.1314 l -3.01533,-3.35377 h -5.42277 c -2.98252,0 -5.99088,0.30405 -6.68524,0.67566 -0.69437,0.37161 -4.27627,0.74685 -7.95978,0.83385 -3.68351,0.087 -6.95826,0.43097 -7.2772,0.76435 -0.35472,0.37078 2.16639,3.67555 6.49277,8.51096 l 7.07267,7.90483 3.90908,-0.39617 c 2.14999,-0.2179 9.056,-0.66598 15.34667,-0.99575 z m -16.55801,-2.95417 c -1.71943,-1.59352 -1.76546,-1.75943 -0.70348,-2.53597 1.25464,-0.91741 7.88887,-2.14339 12.86391,-2.3772 2.82346,-0.13269 3.2,2.3e-4 3.2,1.12961 0,0.71529 0.81418,1.79291 1.84544,2.44256 1.01631,0.64023 1.59139,1.39554 1.28,1.68111 -0.31099,0.28521 -4.18358,0.70899 -8.60575,0.94176 l -8.04031,0.42321 z m -6.39902,-6.02265 c -0.21785,-0.3525 -0.22904,-0.9112 -0.0248,-1.24157 0.20417,-0.33037 -0.13643,-0.88477 -0.7569,-1.232 -1.68463,-0.94277 -0.54977,-1.60195 4.19369,-2.43592 6.11646,-1.07537 9.06752,-1.05387 9.06752,0.0661 0,0.52513 0.75264,1.00408 1.76,1.12 2.9856,0.34353 2.12873,2.01082 -1.44,2.80195 -5.06538,1.12289 -12.35079,1.64739 -12.79945,0.92146 z m 161.94779,10.32839 c -0.31546,-0.99392 -1.30101,-1.26155 -5.96313,-1.6193 -13.56213,-1.04069 -26.44176,-1.5445 -30.96224,-1.21113 l -4.89702,0.36114 -0.95757,-1.85174 c -0.72636,-1.40463 -0.89808,-3.47389 -0.71119,-8.57001 0.56026,-15.27669 1.62311,-30.34434 2.79886,-39.67826 0.68726,-5.456 1.53694,-12.63285 1.88818,-15.94856 0.35259,-3.32852 1.00971,-6.36926 1.46718,-6.78927 0.49493,-0.45438 5.33865,-1.07696 12.02859,-1.54607 6.16,-0.43196 14.368,-1.0351 18.24,-1.34032 3.872,-0.30521 12.8,-0.85049 19.84,-1.21171 14.77907,-0.75832 28.98016,-1.71944 39.04,-2.6422 12.26707,-1.12523 25.1479,-1.21219 26.00819,-0.17558 0.58976,0.71063 0.40806,1.26543 -0.86381,2.63685 -2.22643,2.40077 -2.49261,3.63799 -3.05792,14.21686 -0.27283,5.104 -1.12761,13.168 -1.89958,17.92 -1.74439,10.73808 -2.50215,21.31776 -2.5785,36 -0.0326,6.248 -0.11968,11.382 -0.19373,11.40889 -1.21184,0.43995 -52.19609,0.49786 -57.73465,0.0656 -6.25738,-0.48839 -7.86716,-0.43595 -8.6904,0.28306 -1.38743,1.21179 -2.35253,1.1056 -2.80126,-0.30822 z m 67.29614,-19.2893 c 0.42048,-9.328 1.06336,-18.256 1.42861,-19.84 0.73094,-3.17012 1.56537,-10.50433 2.91257,-25.6 0.48691,-5.456 1.18496,-10.897 1.55123,-12.09112 0.36634,-1.19411 0.53088,-2.38978 0.3657,-2.65703 -0.58899,-0.95305 -7.78874,-1.26046 -15.66259,-0.66873 -8.31258,0.6247 -30.39987,2.1013 -48.64,3.25174 -5.808,0.36631 -16.032,1.08913 -22.72,1.60626 -6.688,0.51713 -14.39913,0.94443 -17.13584,0.94956 -4.79342,0.009 -4.99955,0.0717 -5.62236,1.70978 -0.35558,0.93526 -0.91805,5.32726 -1.24991,9.76 -0.33187,4.43275 -0.89064,10.65154 -1.24172,13.81954 -2.88435,26.02766 -3.62105,42.77309 -1.93111,43.89483 0.51752,0.3435 2.38094,0.5155 4.14094,0.38222 1.76,-0.13329 11.11885,0.02 20.79744,0.34076 l 17.59744,0.5831 2.35377,-2.52337 c 2.57418,-2.75966 4.11804,-6.8097 3.5137,-9.21757 -0.21203,-0.8448 -1.1056,-2.52689 -1.98572,-3.73798 -4.35298,-5.98992 -4.97081,-7.09427 -5.28676,-9.44988 -0.49337,-3.6783 1.20035,-6.13041 6.29594,-9.11503 2.33518,-1.36779 5.07502,-3.52048 6.08846,-4.78377 1.67002,-2.08176 2.0055,-2.23494 3.58195,-1.63558 1.98439,0.75448 1.80064,2.62227 -0.25798,2.62227 -0.80775,0 -1.47981,0.67417 -1.91411,1.92 -0.53204,1.52619 -1.04256,1.92 -2.48896,1.92 -2.24167,0 -2.68436,0.6149 -1.55476,2.15969 0.82189,1.12403 1.02061,1.05961 3.82848,-1.24122 1.62887,-1.33474 3.52308,-3.52742 4.20935,-4.87263 1.45363,-2.84933 2.50176,-3.16232 2.50176,-0.74707 0,1.29815 -1.28288,2.92245 -5.44,6.88764 -3.57216,3.40723 -5.44,5.66732 -5.44,6.58231 0,0.76639 1.15616,2.72924 2.56915,4.36189 3.26854,3.77649 4.39488,5.97638 4.88294,9.53721 0.33997,2.48067 0.0853,3.40535 -1.96608,7.13737 -1.29619,2.35811 -2.20089,4.69357 -2.01043,5.18992 0.29191,0.76067 4.49498,0.87278 26.75539,0.71366 L 640.56293,232.654 Z M 582.03905,230.254 c 1.29277,-1.54968 1.61162,-3.04001 0.65034,-3.04001 -0.68374,0 -3.24646,3.0994 -3.24646,3.92632 0,1.03397 1.39005,0.55941 2.59612,-0.88631 z m 5.24388,-3.61498 c 1.32109,-2.35214 1.76,-4.0031 1.76,-6.61977 0,-3.28782 -0.18887,-3.70108 -3.32032,-7.26568 -2.51008,-2.8573 -3.68138,-3.73462 -4.8,-3.59535 -1.11185,0.13842 -1.47968,-0.13209 -1.47968,-1.0882 0,-0.69984 0.39124,-1.50273 0.86944,-1.78423 1.72005,-1.01252 2.83014,-4.07189 2.07153,-5.70905 -0.96303,-2.07829 -1.82736,-1.91114 -4.2223,0.81654 -1.71727,1.95587 -1.99545,2.69964 -1.69717,4.53772 0.39037,2.40557 5.51328,9.14173 7.53344,9.90582 2.63584,0.99693 3.19719,8.07856 0.91635,11.55957 -0.89267,1.36243 -0.79206,2.37874 0.2354,2.37695 0.20531,-3.6e-4 1.16531,-1.4108 2.13331,-3.13432 z m -4.512,-12.99303 c -0.4224,-0.4224 -0.768,-0.9984 -0.768,-1.28 0,-0.76265 1.77837,-0.61897 2.27449,0.18377 0.65895,1.06626 -0.61177,1.99095 -1.50649,1.09623 z m -3.968,-10.37867 c 0,-0.55733 0.456,-1.01333 1.01333,-1.01333 1.13019,0 0.93337,1.37777 -0.25333,1.77333 -0.41801,0.13934 -0.76,-0.20266 -0.76,-0.76 z m 6.4,20.6782 c 0,-0.92008 -1.11047,-0.65643 -1.49895,0.35588 -0.23782,0.61985 -0.0486,0.80939 0.57152,0.57153 0.51008,-0.19574 0.92743,-0.61307 0.92743,-0.92741 z"
     id="path935"
     inkscape:connector-curvature="0"
     sodipodi:nodetypes="cccscsccscscssscsccscccscscccccsscsccscccssccscccccssccscccccccsscccccsscscccsccscccscccsccscsccccccsccsccccccsccccccccccccccccscssccccssscsccscccccccscssscsssccscccccccsscscccsccccssccccccccccsscscsscccccccsccccscscccccccscscscscssccccssccccscscscccscssccccccccssssscccccccccscccccsscsscsccssccsscccsccccccsccsscsccccscccccscccccccccccscccssscccccscsccccsccccsccsccccccccccccccsssssccccssccssccsccccsccccsccscsccsccccccscccccscccsssscccscccscccscssssscsscssssscccscccccscsssccccccscccccccccscccccsscsccccccsscccccccccccccccscsccccccccscsccccscscccscsccccscccssccsccscccsccccsscssscssccs" />
</svg>
