<?xml version="1.0" encoding="UTF-8" standalone="no"?>
<!-- Created with Inkscape (http://www.inkscape.org/) -->

<svg
   xmlns:dc="http://purl.org/dc/elements/1.1/"
   xmlns:cc="http://creativecommons.org/ns#"
   xmlns:rdf="http://www.w3.org/1999/02/22-rdf-syntax-ns#"
   xmlns:svg="http://www.w3.org/2000/svg"
   xmlns="http://www.w3.org/2000/svg"
   xmlns:sodipodi="http://sodipodi.sourceforge.net/DTD/sodipodi-0.dtd"
   xmlns:inkscape="http://www.inkscape.org/namespaces/inkscape"
   version="1.1"
   id="svg2853"
   width="816.64001"
   height="1122.5601"
   viewBox="0 0 816.64001 1122.5601"
   sodipodi:docname="Maler.svg"
   inkscape:version="0.92.4 (5da689c313, 2019-01-14)">
  <metadata
     id="metadata2859">
    <rdf:RDF>
      <cc:Work
         rdf:about="">
        <dc:format>image/svg+xml</dc:format>
        <dc:type
           rdf:resource="http://purl.org/dc/dcmitype/StillImage" />
        <dc:title />
      </cc:Work>
    </rdf:RDF>
  </metadata>
  <defs
     id="defs2857">
    <inkscape:path-effect
       effect="bspline"
       id="path-effect3541"
       is_visible="true"
       weight="33.333333"
       steps="2"
       helper_size="0"
       apply_no_weight="true"
       apply_with_weight="true"
       only_selected="false" />
  </defs>
  <sodipodi:namedview
     pagecolor="#ffffff"
     bordercolor="#666666"
     borderopacity="1"
     objecttolerance="10"
     gridtolerance="10"
     guidetolerance="10"
     inkscape:pageopacity="0"
     inkscape:pageshadow="2"
     inkscape:window-width="1280"
     inkscape:window-height="780"
     id="namedview2855"
     showgrid="false"
     inkscape:zoom="0.84093496"
     inkscape:cx="278.16108"
     inkscape:cy="726.98621"
     inkscape:window-x="0"
     inkscape:window-y="0"
     inkscape:window-maximized="1"
     inkscape:current-layer="svg2853" />
  <path
     style="fill:#000000;fill-opacity:1;stroke-width:0.6380071"
     d="m 320.8418,154.78711 c -1.55715,-0.13019 -4.28743,2.67835 -5.61524,5.88867 l -1.11133,2.68945 -5.27734,0.4043 c -5.64213,0.43369 -14.66389,2.33474 -18.55859,3.91016 -1.30754,0.52891 -3.41901,2.14144 -4.69141,3.58398 l -2.60979,6.4878 -14.99078,-0.94971 c -7.88263,0.93475 -10.5333,-0.60393 -14.21779,0.13965 -3.68449,0.74358 -8.27901,1.74429 -10.20898,2.22461 -3.77281,0.93895 -12.06409,2.79857 -19.77735,4.43359 -8.27989,1.75512 -16.68761,3.64754 -23.15429,5.21484 -3.43537,0.83262 -6.88443,1.51368 -7.66602,1.51367 -1.38965,0 -1.4271,0.19483 -1.64648,8.77344 -0.12338,4.82493 -0.3055,10.92682 -0.4043,13.5586 -0.0988,2.63178 -0.3782,16.5563 -0.62109,30.94336 l -0.44141,26.1582 -3.66211,3.82812 c -2.01449,2.10543 -5.43737,6.1244 -7.60547,8.93164 -2.1681,2.80723 -4.30769,5.53419 -4.75586,6.06055 -0.44819,0.52636 -2.23983,2.93179 -3.98047,5.3457 -1.74064,2.4139 -4.16237,5.42862 -5.38281,6.69922 -1.22046,1.27058 -3.0418,3.58216 -4.04687,5.13672 -1.00506,1.55456 -3.22387,4.08158 -4.92969,5.61524 -1.7058,1.53367 -4.4073,4.5688 -6.00391,6.74414 -4.35857,5.93838 -4.13948,5.7361 -5.25,4.81445 -0.53009,-0.43993 -1.78637,-2.53633 -2.79297,-4.6582 -4.11507,-8.6744 -8.89267,-11.59403 -17.66797,-10.79883 -4.00222,0.36267 -5.13579,0.73134 -6.84765,2.23437 -2.55133,2.2401 -5.28871,8.22331 -6.16797,13.47852 -0.73452,4.39016 -0.29271,16.36799 0.76953,20.86523 1.05687,4.47451 4.46008,9.40272 11.57031,16.75391 5.50424,5.69078 7.36061,7.17564 11.34766,9.07617 2.62187,1.2498 5.1446,2.27149 5.60547,2.27149 0.46088,0 1.54393,0.46495 2.4082,1.03125 1.76033,1.15341 4.37553,0.93837 12.10156,-0.99414 10.71356,-2.67977 16.96638,-8.58922 17.91407,-16.92774 0.16053,-1.41243 0.43656,-3.66186 0.61328,-5 0.17672,-1.33814 -0.007,-6.36335 -0.40821,-11.16601 -0.67102,-8.03273 -0.8635,-8.87658 -2.40625,-10.54297 -0.9224,-0.99631 -2.46666,-2.22447 -3.43164,-2.72852 -0.96499,-0.50403 -1.7539,-1.33238 -1.7539,-1.83984 0,-0.50748 1.86796,-3.36994 4.15039,-6.36133 2.28244,-2.99141 5.44909,-7.37634 7.03711,-9.74609 1.58802,-2.36976 3.5237,-5.2614 4.30273,-6.42383 0.77902,-1.16242 2.34578,-3.3158 3.48047,-4.78516 1.13472,-1.46936 2.81535,-3.78829 3.73438,-5.1543 1.28063,-1.90347 1.79972,-2.27674 2.22656,-1.5957 0.30631,0.48875 0.5751,4.90962 0.5957,9.82227 0.0207,4.91266 0.24309,11.94221 0.49414,15.62109 l 0.45508,6.6875 12.25195,-0.13672 c 6.73836,-0.0754 12.40625,0.11069 12.59375,0.41406 0.18749,0.30337 -1.73778,1.90821 -4.27734,3.56446 -10.09755,6.58543 -16.86404,10.71321 -19.33398,11.79883 l -2.5918,1.14062 0.0625,5.65625 c 0.0344,3.11072 0.12507,7.82685 0.20117,10.48047 l 0.13672,4.82422 19.30078,0.16015 c 10.61485,0.0877 20.30504,0.3693 21.5332,0.625 l 24.95704,-0.24276 c 40.63868,0.30526 34.44122,0.14227 40.63868,0.30526 24.2539,1.01534 0,0 24.2539,1.01534 2.85746,-0.30874 27.18304,-0.32449 28.31641,0.80888 0.41717,0.41718 1.64471,0.75782 2.72851,0.75782 1.50459,0 2.99281,0.90863 6.29493,3.83984 8.25696,7.32957 18.91406,11.04342 18.91406,6.5918 0,-2.00401 -6.60706,-14.5342 -9.07617,-17.21289 l -2.63282,-2.85547 5.05664,-5.13672 c 2.78097,-2.82624 9.2205,-8.70717 14.3086,-13.06641 16.96852,-14.5378 25.84205,-22.47282 33.45703,-29.98047 v -5.375 c -0.21494,-1.135 -0.28125,-3.15518 -0.28125,-6.71875 v -7.17773 l 0.28125,-0.25391 v -2.82812 c -0.0162,0.0142 -0.0227,0.0209 -0.0391,0.0351 -1.44615,1.26626 -3.24128,2.30274 -3.98828,2.30274 -2.53851,0 -1.57406,-1.23907 4.02734,-5.04492 v -14.95313 c -1.0758,-12.81051 -1.05476,-78.54498 0,-83.69336 v -2.56055 c -0.46504,-0.0345 -1.15502,-0.0812 -1.82617,-0.12695 -2.82763,0.61664 -11.70691,0.56151 -13.59535,0.52267 -1.88844,-0.0388 -9.6171,0.17654 -18.83043,0.20784 -25.25499,0.0859 -31.94435,-0.34604 -31.61719,-2.04492 0.12201,-0.63356 -1.18616,0.27445 0,0 -0.81674,-0.68219 -0.89553,-2.63958 -0.98976,-3.17501 l -2.32665,-3.06913 c -1.22817,-1.16156 -3.95708,-2.75035 -6.0625,-3.53125 -2.10542,-0.78091 -4.3055,-1.82395 -4.89062,-2.31836 -0.75855,-0.64094 -3.59797,-0.98669 -9.89063,-1.20508 -11.50067,-0.39913 -11.69531,-0.44542 -11.69531,-2.74414 0,-1.38256 0.67024,-2.42755 2.64648,-4.11914 2.19552,-1.87929 2.46298,-2.33654 1.5586,-2.68359 -0.0926,-0.0356 -0.19111,-0.0577 -0.29492,-0.0664 z m -58.57813,24.1875 c 1.01966,0.0341 2.67231,-0.56649 14.45695,0.5838 5.89232,0.57514 9.77769,0.55278 12.11604,1.42863 2.33836,0.87585 3.1297,2.6499 3.72584,3.84499 0.93146,1.86729 1.88345,2.00503 7.18555,1.03516 1.9067,-0.34878 11.93545,-0.75722 22.28711,-0.90821 15.2405,-0.22229 19.53669,-0.0945 22.57812,0.67383 3.97226,1.00342 4.42399,0.86295 5.74805,-1.78906 l 0.74414,-1.49023 h 19.75781 c 10.86708,0 20.76207,0.16566 21.99024,0.36718 2.39316,0.39268 2.21606,0.49601 -2.55079,1.48047 -0.87726,0.18118 -4.03489,0.8729 -7.01757,1.53711 -2.98268,0.66421 -7.57721,1.56117 -10.20899,1.99414 -2.63178,0.43298 -5.78942,1.25632 -7.01758,1.82813 -1.81001,0.8427 -4.67957,1.05494 -15.14648,1.12304 -7.10223,0.0461 -12.98878,0.0193 -13.08008,-0.0586 -0.0913,-0.078 -6.33837,-0.52226 -13.88281,-0.98828 -8.87972,-0.5485 -28.3418,-0.8572 -55.1875,-0.875 -27.05481,-0.0179 -41.54443,-0.24979 -41.6836,-0.66602 -0.26646,-0.79707 16.61792,-5.62789 29.07813,-8.32031 2.81585,-0.60845 4.40799,-0.85762 6.10742,-0.80078 z m 151.94922,2.95703 c 0.27244,0.002 0.52516,0.014 0.75781,0.0352 1.26067,0.1147 1.54912,7.74149 1.80469,47.59961 0.135,21.05423 0.43129,40.52068 0.65625,43.25781 0.47031,5.72246 0.43537,5.78933 -4.77344,9.43359 -1.9441,1.36017 -5.113,3.76446 -7.04297,5.34375 -5.80766,4.75242 -13.02467,9.87108 -13.94726,9.89258 -0.61247,0.0143 -0.74553,-0.45793 -0.45703,-1.60742 0.22454,-0.89463 0.835,-4.12274 1.35742,-7.17578 0.52243,-3.05304 1.23043,-6.385 1.57422,-7.40235 0.34379,-1.01735 0.625,-2.76868 0.625,-3.89257 0,-1.12391 0.6935,-4.88422 1.54101,-8.35743 0.84753,-3.47322 1.71707,-7.80706 1.93164,-9.6289 0.21457,-1.82184 0.84991,-4.4059 1.41211,-5.74219 1.21243,-2.8818 2.24705,-10.47137 2.15625,-15.82617 -0.0749,-4.41624 -1.37058,-6.72115 -4.23437,-7.53321 -2.22096,-0.6298 -6.48276,0.93895 -7.08399,2.60743 -0.21728,0.603 -0.93593,1.87553 -1.5957,2.82812 -0.65978,0.95258 -1.34854,3.25083 -1.53125,5.10547 -0.18271,1.85466 -0.72108,5.2367 -1.19531,7.51758 -1.87504,9.01821 -2.25236,11.43741 -2.89649,18.5039 -0.36783,4.03542 -0.92219,8.1973 -1.23046,9.25 -1.09717,3.74674 -1.94727,8.02065 -1.94727,9.78711 0,3.604 -3.55729,12.55294 -7.01563,17.64844 -0.95264,1.40361 -2.09486,3.69991 -2.53906,5.10352 -1.03779,3.27938 -3.04691,6.71825 -4.74218,8.11914 -1.56651,1.29448 -2.06313,1.37898 -2.64258,0.4414 -0.23499,-0.38014 -0.22599,-7.91696 0.0195,-16.74804 0.26515,-9.53702 0.17084,-20.71985 -0.23047,-27.54102 -0.37161,-6.31627 -0.83855,-18.51809 -1.03906,-27.11523 -0.20052,-8.59715 -0.67287,-20.65606 -1.04883,-26.79688 -0.55099,-8.99892 -0.78916,-19.30156 -0.57031,-24.66992 0.0498,-1.22123 7.11227,-3.39939 16.9375,-5.22461 5.78331,-1.07437 22.74048,-4.59028 28.00586,-5.80664 4.17555,-0.9646 7.07727,-1.42093 8.98437,-1.40625 z m -129.6582,8.65234 c 11.58543,0.0257 21.61886,0.14916 27.59179,0.39454 30.66144,1.25959 44.69588,2.07776 45.29102,2.63671 0.34716,0.32605 0.84865,5.53298 1.11328,11.57227 0.26462,6.03929 0.60812,13.42162 0.76367,16.4043 0.15557,2.98268 0.44816,11.59619 0.65039,19.14062 0.20224,7.54444 0.55472,18.02355 0.78321,23.28711 0.82452,18.99375 0.37543,53.95463 -0.70703,55.03711 -0.22383,0.22381 -2.04713,0.62055 -4.05274,0.88281 -6.60882,0.86422 -27.69494,1.09325 -39.05664,0.42383 -13.22826,-0.77942 -61.68453,-0.92992 -94.42578,-0.29297 -12.80799,0.24923 -24.57913,0.22086 -26.1582,-0.0625 l -2.8711,-0.51367 -0.42578,-10.19336 c -0.65166,-15.55643 -0.84527,-84.23123 -0.26758,-95.04687 0.28113,-5.26356 0.69628,-12.29728 0.92188,-15.63086 l 0.41015,-6.06055 1.91407,0.16797 c 1.05271,0.0923 6.07596,-0.26849 11.16406,-0.80078 6.96438,-0.72857 37.92601,-1.25781 65.35156,-1.33985 4.11383,-0.0123 8.14796,-0.0144 12.00977,-0.006 z m 29.05273,15.1504 c -6.81275,0.0251 -13.1826,0.21835 -16.77344,0.57031 -3.15813,0.30955 -9.61826,0.72501 -14.35546,0.92383 -4.73721,0.19881 -13.77944,0.63727 -20.09571,0.9746 -6.31627,0.33736 -19.66721,0.65107 -29.66797,0.69727 -10.00076,0.0461 -19.59956,0.12032 -21.33007,0.16602 l -3.14649,0.084 -0.20898,16.16211 c -0.11466,8.88885 -0.46971,16.65159 -0.79102,17.25195 -0.60421,1.12901 -0.3367,45.25336 0.33203,54.73438 0.34554,4.89909 0.46741,5.24918 2.06836,5.88476 1.12486,0.44658 20.84599,0.80968 58.16602,1.07227 31.055,0.21851 59.33471,0.61321 62.84375,0.87695 3.50904,0.26374 7.03538,0.52413 7.83594,0.57813 0.80054,0.054 1.62002,-0.33429 1.82226,-0.86133 0.33737,-0.87917 0.46995,-12.35716 0.8418,-72.98242 0.09,-14.66826 0.35906,-21.67036 0.86133,-22.47461 1.32018,-2.11394 -0.33721,-2.70884 -8.97266,-3.22266 -5.36115,-0.31898 -12.61694,-0.46065 -19.42969,-0.43554 z m -6.75781,2.20312 c 8.42523,0.0402 19.19987,0.5043 27.78711,1.27539 3.4378,0.30868 4.02591,0.54859 4.26562,1.74219 0.68452,3.40828 0.90505,22.00399 0.36328,30.7168 -0.3278,5.27228 -0.74083,21.07127 -0.91601,35.10742 -0.17518,14.03617 -0.3291,25.73486 -0.3418,25.99804 -0.0262,0.54489 -8.54339,0.47896 -25.22265,-0.19726 -6.31627,-0.25609 -31.71121,-0.47156 -56.43164,-0.47656 -51.18426,-0.0109 -46.22417,0.63342 -46.9336,-6.08594 -0.22789,-2.15933 -0.26309,-18.13807 -0.0781,-35.50781 0.18498,-17.36974 0.35239,-35.04389 0.37109,-39.27539 0.046,-10.41523 -0.20176,-10.14534 9.39258,-10.26368 45.29766,-0.5587 58.61248,-1.02994 77.0918,-2.73047 1.79835,-0.16549 4.28051,-0.26131 7.19921,-0.29296 1.09452,-0.0119 2.24953,-0.0155 3.45313,-0.01 z m -11.67578,9.50586 c -3.6883,0 -5.56642,0.86186 -4.75195,2.17969 0.29524,0.47762 0.80376,0.49616 1.625,0.0566 1.57636,-0.84371 4.86289,-0.81533 6.49218,0.0566 1.74722,0.93508 2.87773,-0.17981 1.41406,-1.39453 -0.65588,-0.54435 -2.53781,-0.89844 -4.77929,-0.89844 z m -50.31445,1.11133 c -1.08578,0.0174 -2.26642,0.1497 -3.44727,0.41601 -3.95415,0.89179 -5.1873,1.59229 -4.56836,2.59375 0.25948,0.41985 0.93089,0.55387 1.51758,0.30469 2.82097,-1.19811 7.37476,-1.73533 9.12109,-1.07617 1.0691,0.40354 1.96215,0.44605 2.17383,0.10351 0.87859,-1.42156 -1.53955,-2.39395 -4.79687,-2.34179 z m 50.67968,7.04101 c -1.84031,0.0286 -3.72588,1.05399 -5.82812,3.11719 -4.14065,4.06373 -6.57326,10.44832 -7.35742,19.31836 -0.76023,8.59934 -0.39123,12.92092 1.41796,16.6582 1.39006,2.87147 4.83447,6.60209 6.86133,7.43164 0.60409,0.24719 2.81583,0.39102 4.91602,0.32032 3.79097,-0.12763 3.82867,-0.14735 5.3164,-2.84961 2.06896,-3.75796 3.24208,-11.23802 3.44922,-21.99219 0.16538,-8.58708 0.0728,-9.40054 -1.64843,-14.41602 -1.46743,-4.27587 -2.21609,-5.56087 -3.82813,-6.57031 -1.10677,-0.69302 -2.19464,-1.03472 -3.29883,-1.01758 z m 0.01,1.87305 c 0.85097,-0.0427 1.66694,0.17857 2.42773,0.67969 2.85975,1.88365 5.86807,15.67746 4.51758,20.71679 -0.49581,1.8501 -0.73406,1.80677 -3.52344,-0.65429 -3.987,-3.5177 -7.16876,-5.64321 -8.99414,-6.00977 -0.96499,-0.19377 -1.75586,-0.60507 -1.75586,-0.91211 0,-0.30704 -0.57359,-0.55664 -1.27539,-0.55664 -1.84134,0 -1.63207,-2.23115 0.56836,-6.0625 2.61722,-4.55705 5.48224,-7.07299 8.03516,-7.20117 z m -50.88672,1.24023 c -2.86846,0.16318 -5.54795,2.56671 -7.44922,6.98633 -3.29969,7.67033 -5.03297,24.53168 -3.14062,30.55664 0.38574,1.22817 2.16665,3.73978 3.95703,5.58203 1.79036,1.84224 3.58054,3.34961 3.97851,3.34961 1.14836,0 5.46093,-3.36468 8.34961,-6.51562 3.5463,-3.86827 4.36914,-7.62639 4.36914,-19.96094 0,-11.20512 -0.80979,-14.19743 -4.82422,-17.82422 -1.73009,-1.56304 -3.51916,-2.27173 -5.24023,-2.17383 z m -0.47266,1.99024 c 0.34292,0.005 0.7304,0.0577 1.19336,0.14453 4.23288,0.79409 5.66979,2.39849 7.42383,8.29297 1.0377,3.48722 1.17855,6.2204 0.55664,10.75781 -0.22315,1.62804 -0.6297,2.95899 -0.9043,2.95899 -0.27459,0 -1.11339,-0.99173 -1.86328,-2.20508 -1.87595,-3.03535 -4.36499,-5.00098 -9.26562,-7.31641 -3.92784,-1.85582 -4.14658,-2.07284 -3.75586,-3.7207 0.76599,-3.23052 1.96687,-5.56584 3.79687,-7.37891 1.15089,-1.14022 1.7896,-1.54769 2.81836,-1.5332 z m 152.61524,1.21484 c 2.14775,0.0333 3.37177,2.25547 3.27929,6.11328 -0.10816,4.51132 -2.33348,16.89687 -4.03906,22.48243 -0.69648,2.28088 -1.26848,5.34364 -1.27148,6.80664 -0.003,1.463 -0.40406,4.33482 -0.89063,6.38086 -1.02946,4.32886 -1.96518,9.06054 -2.94336,14.88476 -2.10071,12.50795 -2.77599,14.75961 -5.50586,18.33594 -1.182,1.5485 -2.14843,3.41455 -2.14843,4.14648 0,1.35071 -2.8777,6.34189 -5.55078,9.62696 -0.80715,0.9919 -1.46875,2.57759 -1.46876,3.52343 10e-6,0.96461 -0.82844,2.72548 -1.88867,4.01172 -1.0396,1.2612 -2.85449,4.1736 -4.03125,6.47071 -2.23539,4.36367 -5.29928,8.81443 -8.26953,12.00976 -1.00865,1.08508 -1.92405,2.96684 -2.16015,4.44336 -0.28495,1.78198 -1.275,3.52359 -3.25391,5.72461 -2.75348,3.06253 -5.27734,4.13402 -5.27734,2.24023 0,-0.50778 0.71649,-2.27197 1.59375,-3.92187 1.59564,-3.00099 2.06505,-5.36328 1.06445,-5.36328 -0.29251,0 -1.77649,1.14911 -3.29688,2.55273 -1.52038,1.40361 -3.00435,2.55274 -3.29687,2.55274 -1.57788,0 0.97746,-5.43104 4.20312,-8.9336 1.13107,-1.22817 2.57461,-3.09377 3.20899,-4.14648 0.63438,-1.05271 1.83973,-2.65179 2.67773,-3.55469 0.83802,-0.90292 2.05384,-2.62561 2.70313,-3.82812 0.6493,-1.20252 2.79909,-5.05741 4.77539,-8.56641 1.97631,-3.50899 3.59179,-6.83907 3.5918,-7.40039 -10e-6,-0.56133 0.856,-2.28399 1.90234,-3.82813 1.04632,-1.54415 1.90806,-3.29146 1.91406,-3.88281 0.006,-0.59136 1.85441,-4.64312 4.10547,-9.0039 4.79323,-9.28552 5.27645,-10.79781 6.1582,-19.26954 0.36523,-3.50905 1.06056,-7.81579 1.54493,-9.57031 0.48437,-1.75452 1.19977,-6.34904 1.58984,-10.20898 0.39006,-3.85995 1.1265,-8.34845 1.63672,-9.97461 0.51022,-1.62617 0.93345,-3.63469 0.93945,-4.46485 0.0476,-6.48859 4.13466,-15.44108 7.42773,-16.26757 0.34339,-0.0862 0.66975,-0.12586 0.97657,-0.1211 z m -207.23633,40.90235 c 0.43357,0.14342 0.79178,2.32647 0.9043,5.51171 0.15739,4.45556 -0.0255,5.63166 -1.17969,7.5879 -0.75137,1.27348 -1.84988,2.65404 -2.44141,3.06836 -0.9002,0.63051 -5.96655,7.60526 -9.64453,13.27734 -1.45133,2.23821 -3.22959,4.59207 -6.2168,8.22656 -1.48966,1.81247 -3.46644,4.81283 -4.39257,6.66797 -0.92611,1.85517 -2.19575,3.64712 -2.82227,3.98242 -0.62651,0.33529 -1.47263,1.62243 -1.88086,2.85938 -0.45608,1.38194 -1.4483,2.61409 -2.57226,3.19531 -1.83501,0.94892 -2.13282,0.97976 -5.08204,0.52734 -7.59515,-1.16513 -7.57058,-1.13923 -5.07226,-5.38672 1.1149,-1.89549 3.07166,-4.60394 4.34765,-6.01953 1.27599,-1.4156 4.5143,-5.29168 7.19727,-8.61328 2.68297,-3.3216 6.19507,-7.61886 7.80469,-9.54883 1.60962,-1.92997 3.8985,-4.96223 5.08594,-6.73828 1.18743,-1.77604 4.00355,-5.07853 6.25781,-7.33789 2.25426,-2.25935 5.1996,-5.7704 6.54492,-7.80273 1.34532,-2.03233 2.76732,-3.58763 3.16211,-3.45703 z m 111.18945,2.41406 c -0.3487,0.0693 -0.0338,0.54012 1.06641,1.84765 2.13123,2.53281 2.60918,4.34979 1.74414,6.625 -0.37036,0.97414 -0.67383,2.04109 -0.67383,2.36915 0,0.84781 0.40182,0.7427 1.55078,-0.40625 2.29712,-2.29711 0.0481,-9.77601 -3.12304,-10.38672 -0.25926,-0.0499 -0.44822,-0.0719 -0.56446,-0.0488 z m -61.77148,4.11133 c -1.3931,-0.10114 -6.74905,2.73252 -7.78321,4.20898 -1.44084,2.0571 -1.29962,4.13818 0.35743,5.29883 1.77286,1.24175 2.1973,0.84497 0.9707,-0.90625 -0.52337,-0.74719 -0.80427,-1.91796 -0.625,-2.60352 0.41739,-1.59607 3.32946,-3.6737 5.85937,-4.17968 1.91404,-0.3828 2.50548,-1.1026 1.44532,-1.75782 -0.0552,-0.0341 -0.13174,-0.0538 -0.22461,-0.0605 z m 60.63867,0.79687 c -1.27723,0.10634 -5.86429,1.10443 -11.08398,2.42774 -11.508,2.91752 -23.30315,4.66523 -32.22071,4.77343 -5.37264,0.0652 -13.30131,-1.46501 -16.52343,-3.18945 -1.07354,-0.57449 -1.66946,-0.60006 -2.17969,-0.0898 -1.12159,1.12158 0.70707,2.43121 4.92383,3.52539 2.07081,0.53733 3.91293,1.12388 4.09375,1.30468 0.5676,0.56762 12.00644,0.35885 20.10351,-0.36718 8.61724,-0.77267 20.32817,-3.09304 25.46875,-5.04688 1.84311,-0.70053 3.94159,-1.27326 4.66406,-1.27344 1.55232,-3.8e-4 3.91942,-1.57305 3.08985,-2.05273 -0.0396,-0.0229 -0.15348,-0.0269 -0.33594,-0.0117 z m 110.80078,7.44141 c 0.11236,0.003 0.21393,0.02 0.30469,0.0488 2.53964,0.80605 2.08886,1.33093 -7.34961,8.55273 -3.15813,2.41644 -7.60779,5.99628 -9.88867,7.95703 -2.28087,1.96076 -4.3355,3.56922 -4.56641,3.57422 -0.95567,0.0201 1.74262,-6.521 2.95117,-7.1543 0.71349,-0.37387 2.6974,-1.84411 4.41016,-3.26757 8.28447,-6.88514 12.45333,-9.75848 14.13867,-9.71094 z m 5.87891,1.49023 c 0.041,-0.001 0.0685,0.009 0.082,0.0312 0.21593,0.34919 0.3704,3.98308 0.3418,8.07617 l -0.0527,7.44141 -7.23828,6.81445 c -3.98127,3.7482 -8.29556,7.67776 -9.58789,8.73047 -4.7439,3.86426 -24.8078,21.46768 -29.08594,25.51953 -1.1115,1.05271 -3.0231,2.87204 -4.24805,4.04297 -1.32675,1.26828 -2.39487,1.8586 -2.64062,1.46094 -0.47294,-0.76523 -0.37827,-0.95658 4.29492,-8.71875 1.90986,-3.17226 4.25906,-7.3361 5.2207,-9.25195 0.96166,-1.91584 2.66771,-4.77445 3.78907,-6.35352 1.12135,-1.57906 2.97844,-4.64106 4.1289,-6.80273 1.51009,-2.83743 3.88134,-5.58684 8.52344,-9.88867 3.53654,-3.27736 7.2125,-6.53257 8.16992,-7.23438 0.95744,-0.70181 5.39797,-4.2443 9.86719,-7.87305 4.18989,-3.40193 7.82013,-5.9738 8.43555,-5.99414 z m -288.9668,19.54297 c 2.73757,0.12041 7.37056,2.5062 9.19531,4.9336 0.88918,1.18281 2.6284,4.17581 3.86524,6.65234 1.23685,2.47653 2.70381,4.8804 3.25976,5.3418 1.4781,1.22672 1.27603,1.64585 -1.38086,2.8496 -1.609,0.72898 -2.96313,2.06614 -4.13476,4.08399 -0.95819,1.65026 -2.3676,4.01798 -3.13086,5.25977 -1.26315,2.05508 -1.30698,2.42687 -0.48633,4.14648 1.34093,2.80982 3.86044,2.87911 6.33008,0.17578 1.34888,-1.47653 2.39123,-2.05566 3.45117,-1.91797 0.95027,0.12344 2.03615,-0.35354 2.90039,-1.27539 1.126,-1.20106 1.33622,-2.0635 1.13867,-4.66406 -0.13327,-1.75451 -0.3687,-3.62014 -0.52343,-4.14649 -0.2123,-0.7222 0.1089,-0.87945 1.3125,-0.64257 3.47608,0.68411 9.35067,0.24571 12.17187,-0.90821 3.95881,-1.61921 5.87939,-1.04333 7.87695,2.36524 1.3622,2.32443 1.65195,3.81929 2.01368,10.36133 0.448,8.10257 -0.41383,16.44437 -2.02149,19.55664 -0.85684,1.65876 -4.57999,4.94661 -8.0332,7.09375 -0.94033,0.58469 -3.80554,1.64364 -6.36719,2.35351 -4.8772,1.35155 -9.15502,1.6757 -9.73437,0.73828 -0.1876,-0.30354 -1.54019,-0.71329 -3.00782,-0.91015 -5.3435,-0.71671 -11.84615,-4.65818 -18.12695,-10.99024 -3.20394,-3.23009 -6.56187,-7.19259 -7.46289,-8.80469 -1.88808,-3.37812 -3.66251,-8.46737 -3.59961,-10.32421 0.0238,-0.70181 -0.16498,-4.00236 -0.41797,-7.33594 -0.96717,-12.74429 3.71574,-23.86521 9.91406,-23.54492 1.22816,0.0635 3.00747,-0.0954 3.95508,-0.35352 0.30003,-0.0817 0.65189,-0.11095 1.04297,-0.0937 z m -6.66601,12.07617 c -0.514,0.007 -1.09605,0.14629 -1.76954,0.40235 -3.44602,1.31017 -3.93451,6.51183 -0.93359,9.92968 2.65307,3.02168 4.85072,2.87914 6.46289,-0.41796 1.10113,-2.25196 1.09534,-2.42478 -0.19336,-5.86914 -1.07896,-2.88377 -2.02442,-4.06605 -3.5664,-4.04493 z m 242.45117,0.49024 c 0.43983,-0.0607 0.41802,0.27348 0.10742,1.26953 -0.26466,0.84872 -0.63778,2.37586 -0.82813,3.39453 -0.19036,1.01866 -1.41927,3.74563 -2.73242,6.06055 -2.14985,3.7899 -2.63504,4.25263 -4.85937,4.65039 -4.86404,0.86979 -6.81834,0.47063 -12.54297,-2.56836 -3.63477,-1.92958 -6.01799,-3.64974 -6.77735,-4.89063 -0.64419,-1.05271 -2.06883,-2.75647 -3.16601,-3.78711 -1.09717,-1.03063 -1.99383,-2.03684 -1.99414,-2.23437 -3.1e-4,-0.19753 2.51131,-0.36034 5.58203,-0.36133 8.70431,-0.004 25.2938,-0.84598 26.61133,-1.35156 0.25572,-0.0981 0.453,-0.1614 0.59961,-0.18164 z m -115.19336,0.33008 c 22.76828,-0.0596 60.90384,0.16507 68.92969,0.49609 4.65179,0.19186 5.46204,0.85923 6.1621,5.07422 0.59736,3.59656 1.81532,5.79812 4.10938,7.43164 1.058,0.75336 1.92191,1.56541 1.92187,1.80469 -3e-5,0.23928 -15.14414,0.44799 -33.65429,0.46289 -18.51014,0.0148 -38.96531,0.22379 -45.45703,0.46484 -28.04905,1.04151 -50.85106,1.28942 -51.30274,0.55859 -0.28031,-0.45354 1.77767,-2.13283 5.49024,-4.48242 3.26535,-2.06655 7.65824,-4.84984 9.76367,-6.18554 2.10542,-1.33569 4.49878,-3.01935 5.3164,-3.74219 1.3378,-1.18273 2.61459,-1.35636 12.75977,-1.72266 2.49044,-0.0899 8.37151,-0.14027 15.96094,-0.16015 z m -127.40625,0.98242 c 0.49107,0.0975 1.00287,0.6113 1.76953,1.58593 1.44422,1.83606 1.69256,4.09019 0.66211,6.01563 -0.86608,1.61828 -2.17474,1.56228 -3.78125,-0.16211 -1.55843,-1.67277 -1.71618,-5.11585 -0.29883,-6.5332 0.68618,-0.68619 1.15736,-1.00376 1.64844,-0.90625 z m 205.29297,1.36328 c 1.59601,-0.0658 6.05917,2.6683 7.31054,4.57812 1.50745,2.30068 1.98282,5.25578 1.03125,6.40235 -1.04007,1.2532 -1.13103,1.23545 -4.3164,-0.80664 -4.03289,-2.5854 -6.82669,-9.15527 -4.30469,-10.12305 0.0791,-0.0304 0.1729,-0.0464 0.2793,-0.0508 z m -180.66797,7.49805 c 1.06991,-0.0347 1.01889,1.20657 -0.0664,1.62304 -0.47465,0.18215 -1.52784,1.75242 -2.3418,3.49024 -1.79317,3.82849 -5.1347,6.23312 -6.45312,4.64453 -0.65474,-0.78892 -0.63007,-1.28602 0.12695,-2.63477 1.02697,-1.82966 7.46694,-7.08194 8.73438,-7.12304 z m 191.56054,3.16601 c 0.3509,0 0.63868,0.41232 0.63868,0.91797 0,0.50564 -0.28778,1.09758 -0.63868,1.31445 -0.35091,0.21688 -0.63671,-0.19739 -0.63671,-0.91992 0,-0.72251 0.2858,-1.3125 0.63671,-1.3125 z m 3.44922,0.67383 c 0.52149,-0.0623 1.18987,0.30237 1.7793,1.11914 0.45851,0.63538 2.11383,1.85498 3.67969,2.71094 1.56586,0.85595 3.25484,2.28185 3.75195,3.16797 0.83362,1.48594 0.74721,1.86549 -1.10937,4.88281 -2.40639,3.91087 -3.14753,4.28019 -5.58985,2.79492 -2.28385,-1.38889 -7.23633,-6.92102 -7.23633,-8.08398 0,-0.46645 0.86136,-1.48537 1.91407,-2.26368 1.16672,-0.86259 1.91406,-1.9915 1.91406,-2.89062 0,-0.88722 0.375,-1.37517 0.89648,-1.4375 z m -194.17578,0.60156 c 0.37165,0 0.50008,0.28582 0.2832,0.63672 -0.21686,0.3509 -0.52104,0.63867 -0.67578,0.63867 -0.15475,0 -0.28125,-0.28777 -0.28125,-0.63867 0,-0.3509 0.30222,-0.63672 0.67383,-0.63672 z m 185.3125,3.12891 1.22266,2.10351 c 0.67213,1.15708 3.50497,4.4568 6.29492,7.33204 4.45308,4.58921 5.01926,5.43466 4.64648,6.91992 -0.23632,0.94158 -0.1161,2.06423 0.27149,2.53125 0.38306,0.46154 0.46772,0.97571 0.1875,1.14257 -0.76641,0.45642 -9.40116,1.23015 -9.76367,0.875 -0.47513,-0.46546 -23.88957,-1.31877 -34.76758,-1.26757 -68.21469,0.32154 -104.99746,-0.22597 -106.35352,-1.58203 -1.16547,-1.16547 -1.05905,-14.52446 0.125,-15.6836 1.18949,-1.16445 18.57821,-1.56302 89.00586,-2.03906 z m -205.60547,0.74414 c -0.0761,-0.007 -0.15407,-0.005 -0.23437,0.006 -0.58399,0.0761 -1.28433,0.61245 -2.1875,1.51562 -1.20787,1.20787 -1.56641,2.23498 -1.56641,4.49414 0,2.25916 0.35854,3.28823 1.56641,4.4961 0.86131,0.86131 2.00289,1.56445 2.53711,1.56445 1.50691,0 3.11166,-2.93043 2.70703,-4.94336 -0.98772,-4.91359 -1.68087,-7.02608 -2.82227,-7.13281 z m -0.85156,2.6543 c 0.64313,-0.0848 1.21021,0.92087 1.94727,3.22656 0.60528,1.89329 0.60605,2.61937 0,3.34961 -1.00899,1.21574 -1.47553,1.17608 -2.75196,-0.23438 -1.29849,-1.4348 -1.36241,-3.91753 -0.14258,-5.57031 0.34678,-0.46983 0.65494,-0.73294 0.94727,-0.77148 z m 30.61523,4.95703 c -2.31766,0 -5.04206,3.21611 -5.03906,5.94922 0.002,2.11559 2.07685,6.17187 3.15625,6.17187 0.34385,0 1.68543,0.93378 2.98047,2.07422 1.29505,1.14043 3.09946,2.40791 4.00977,2.81641 1.78018,0.79886 3.01741,0.71584 2.78711,-0.18555 -0.0784,-0.30705 -0.60659,-1.84868 -1.17383,-3.42774 -0.56723,-1.57907 -1.18476,-4.45088 -1.37305,-6.38085 -0.40713,-4.17339 -2.57484,-7.01758 -5.34766,-7.01758 z m 1.58204,2.02148 c 0.86197,-0.0238 1.09482,0.42327 1.54882,1.90039 0.36161,1.17647 0.84603,3.53833 1.07813,5.25 0.23208,1.71165 0.57304,3.50678 0.75781,3.98828 0.50445,1.31455 -1.10296,0.99134 -3.77344,-0.75781 -5.71718,-3.74473 -6.09467,-9.14473 -0.71484,-10.2207 0.45896,-0.0918 0.81619,-0.15223 1.10352,-0.16016 z m -17.36719,5.61524 c -1.3973,0.0312 -2.91416,0.56874 -4.08985,1.60351 -2.16731,1.90759 -2.21922,3.47 -0.18945,5.66016 1.98176,2.13831 4.16754,2.14899 6.67969,0.0351 2.17164,-1.82731 2.4829,-3.70234 0.9707,-5.86132 -0.69552,-0.99299 -1.97379,-1.46871 -3.37109,-1.4375 z m 224.23633,0.76562 c 0.61398,0.0524 1.42932,0.67496 2.91015,1.97461 2.48295,2.17918 7.53711,11.42048 7.53711,13.78125 0,1.74572 -1.12358,1.70652 -6.30859,-0.21875 -6.57785,-2.44246 -12.99128,-9.64933 -10.05078,-11.29492 0.57595,-0.32231 1.04687,-1.09873 1.04687,-1.72461 0,-1.62452 0.6936,-2.0987 1.76563,-1.20899 0.73729,0.61189 1.08808,0.54629 1.72461,-0.32421 0.41064,-0.56159 0.73493,-0.89824 1.12304,-0.97266 0.0809,-0.0155 0.16424,-0.0192 0.25196,-0.0117 z m -223.42969,0.5293 c 2.75682,0 2.78257,4.38012 0.0332,5.63281 -2.17554,0.99125 -3.17578,0.94258 -4.125,-0.20117 -1.66358,-2.0045 0.91799,-5.43164 4.0918,-5.43164 z"
     id="path2863"
     inkscape:connector-curvature="0"
     sodipodi:nodetypes="ccccccccscccccccccccccccccssccsscscscscccscccccccccccscccccccccccscscccsccsccccscccccccccccccssccccscsscccsccsccccsscscccsccccccsscscccccccccsccccssccccscscscccsccccccccsccscscscccccccccssccscccccccsccccssssccsccccscccccccccssccccsccccsccsssccsccsssccscscscccssccsccscsccccccsssssscsscccccssscccccccsccccccccccssccsccscsccccccccccccccccccsccccccccccscccccccccccccccccccccscccsccsccscccsccccsccsccccscscccccccccsscccssccccsccccssccccccccccccccscccsscssccccscscscscsssccscccccsccsccsscsccccccccscccccccsccccsccccccccccscssccccsccssccccccccccsscccssc"
     inkscape:export-filename="/home/phigit/Documents/Misc_Projects/Talks/2020-04-23-KreativeComputere/Images/Maler.png.png"
     inkscape:export-xdpi="284.10999"
     inkscape:export-ydpi="284.10999" />
</svg>
