<?xml version="1.0" encoding="UTF-8" standalone="no"?>
<!-- Created with Inkscape (http://www.inkscape.org/) -->

<svg
   xmlns:dc="http://purl.org/dc/elements/1.1/"
   xmlns:cc="http://creativecommons.org/ns#"
   xmlns:rdf="http://www.w3.org/1999/02/22-rdf-syntax-ns#"
   xmlns:svg="http://www.w3.org/2000/svg"
   xmlns="http://www.w3.org/2000/svg"
   xmlns:sodipodi="http://sodipodi.sourceforge.net/DTD/sodipodi-0.dtd"
   xmlns:inkscape="http://www.inkscape.org/namespaces/inkscape"
   version="1.1"
   id="svg134"
   width="816.64001"
   height="1122.5601"
   viewBox="0 0 816.64001 1122.5601"
   sodipodi:docname="Matematik.svg"
   inkscape:version="0.92.4 (5da689c313, 2019-01-14)">
  <metadata
     id="metadata140">
    <rdf:RDF>
      <cc:Work
         rdf:about="">
        <dc:format>image/svg+xml</dc:format>
        <dc:type
           rdf:resource="http://purl.org/dc/dcmitype/StillImage" />
        <dc:title />
      </cc:Work>
    </rdf:RDF>
  </metadata>
  <defs
     id="defs138" />
  <sodipodi:namedview
     pagecolor="#ffffff"
     bordercolor="#666666"
     borderopacity="1"
     objecttolerance="10"
     gridtolerance="10"
     guidetolerance="10"
     inkscape:pageopacity="0"
     inkscape:pageshadow="2"
     inkscape:window-width="1280"
     inkscape:window-height="780"
     id="namedview136"
     showgrid="false"
     inkscape:zoom="0.48816987"
     inkscape:cx="114.20849"
     inkscape:cy="543.27713"
     inkscape:window-x="0"
     inkscape:window-y="0"
     inkscape:window-maximized="1"
     inkscape:current-layer="svg134" />
  <path
     style="fill:#000000;fill-opacity:1;stroke-width:0.64000005"
     d="m 389.04087,909.52668 c -0.46799,-1.10733 -6.71751,-6.65635 -11.23225,-11.00329 -14.39009,-13.8553 -15.62071,-15.10458 -16.50858,-16.75898 -0.62295,-1.16083 -0.79787,-3.40512 -0.61463,-7.88621 0.14087,-3.44499 0.42128,-6.53081 0.62313,-6.8574 0.20185,-0.32666 1.01351,-0.59386 1.80369,-0.59386 1.41935,0 5.52777,-3.61664 5.52777,-4.86611 0,-0.35488 -0.71473,-1.61402 -1.58831,-2.79808 -1.21713,-1.64973 -1.42017,-2.3554 -0.8688,-3.01978 0.91313,-1.10029 1.11265,-0.95859 -4.79106,-3.40243 -4.17094,-1.72659 -5.44219,-2.62157 -7.60425,-5.35341 -1.42783,-1.8041 -3.04349,-4.21619 -3.59035,-5.36019 -1.37214,-2.8704 -3.36868,-2.75866 -14.47933,0.81037 -12.51018,4.01862 -13.42623,4.34476 -19.53375,6.955 -2.97872,1.27303 -5.67487,2.31463 -5.99144,2.31463 -1.95311,0 -21.02067,8.03385 -37.06225,15.61568 -3.42625,1.61939 -6.9635,2.94432 -7.86056,2.94432 -0.89705,0 -2.65581,0.42816 -3.90835,0.95155 -3.0151,1.25978 -5.14553,0.23488 -4.82135,-2.31949 0.0285,-0.22438 -0.21926,-1.35302 -0.55054,-2.50809 -0.33127,-1.15507 -0.75464,-12.92352 -0.94082,-26.15207 -0.18617,-13.22854 -0.46678,-33.26791 -0.62357,-44.53191 -0.15679,-11.264 -0.58083,-22.352 -0.9423,-24.64 -0.90033,-5.69875 -0.8464,-11.69248 0.11703,-13.00627 0.4542,-0.61939 2.32153,-1.3536 4.32,-1.6985 11.22587,-1.93747 21.0778,-3.94009 27.84,-5.65914 4.224,-1.07379 9.12,-2.14022 10.88,-2.36979 3.39091,-0.4423 12.94638,-2.24691 37.44,-7.07059 8.272,-1.62906 17.488,-3.33075 20.48,-3.78157 4.88581,-0.73613 8.33183,-1.3664 24.86846,-4.54822 7.78481,-1.49786 9.39486,-1.05914 7.70445,2.09945 -0.75926,1.41869 -0.7182,1.70554 0.35665,2.49152 1.01757,0.74407 1.09426,1.12314 0.47253,2.33568 -0.68135,1.32877 -0.63498,6.77287 0.15762,18.50586 0.11066,1.63808 0.57535,10.78208 1.03264,20.32 0.68339,14.25357 0.995,17.34157 1.74994,17.34157 0.50518,0 7.00682,-3.00793 14.44811,-6.68429 7.44128,-3.67635 15.03218,-7.42035 16.86866,-8.32 1.83648,-0.89964 3.78159,-1.63571 4.32247,-1.63571 2.17015,0 37.11245,20.57517 37.74596,22.22605 0.19136,0.49869 0.12018,1.38983 -0.15818,1.98029 -0.27836,0.59053 -0.4863,12.82048 -0.4621,27.17773 l 0.044,26.104 -1.59658,0.40077 c -2.37348,0.59571 -5.79462,2.76403 -5.79462,3.67264 0,0.43731 1.40289,1.55866 3.11753,2.4919 4.60532,2.5065 4.76892,2.83764 4.23568,8.57383 l -0.46228,4.9728 -3.18515,2.56 c -5.60952,4.50854 -12.77619,10.09223 -20.82578,16.22573 l -7.84,5.97382 -4.08211,3.26503 -5.80158,3.61529 -4.15419,2.60065 -4.20212,2.59494 c -6.39006,4.31827 -9.75786,5.85638 -11.16919,5.10106 -0.67467,-0.36109 -1.49342,-0.65652 -1.81947,-0.65652 m 9.30274,-5.28 c 15.2424,-9.61478 19.85719,-12.78342 27.68592,-19.00998 3.344,-2.65965 6.944,-5.38669 8,-6.06003 2.19432,-1.39937 12.43408,-9.97236 13.62489,-11.40717 0.63571,-0.76602 0.60098,-1.1106 -0.177,-1.75629 -0.53234,-0.44179 -0.96789,-1.344 -0.96789,-2.00487 0,-0.66092 -0.12845,-1.20166 -0.28543,-1.20166 -0.48472,0 -11.27785,7.7719 -17.00222,12.24301 -6.82736,5.33254 -16.24675,11.89728 -22.07235,15.3831 -7.30387,4.37031 -11.84001,7.6313 -11.84001,8.51175 0,0.45395 -0.432,1.18393 -0.96,1.62214 -1.4595,1.21127 -1.22656,5.76 0.29498,5.76 0.22091,0 1.8855,-0.936 3.69911,-2.08 z m -7.64674,-2.80755 0.18734,-3.82598 -3.38734,-2.83098 c -1.86304,-1.55706 -9.90256,-9.24454 -17.8656,-17.08327 -7.96304,-7.83872 -14.67373,-14.25222 -14.91265,-14.25222 -0.76583,0 -2.2891,4.36736 -2.2891,6.56307 0,1.93997 1.28615,3.34375 14.82448,16.18061 15.35799,14.56218 21.36076,19.69946 22.55746,19.3049 0.38393,-0.12659 0.78237,-1.95187 0.88541,-4.05613 z m 7.62449,-8.44768 c 9.04019,-5.34835 24.35165,-16.08301 33.46817,-23.46407 4.50179,-3.6448 13.94961,-10.19564 15.415,-10.68832 1.28855,-0.43315 -0.23122,-2.16979 -3.24403,-3.70681 l -2.31465,-1.1808 -4.56687,2.7584 c -2.51177,1.51718 -6.24144,4.03302 -8.28816,5.59085 -2.04671,1.55782 -5.46407,3.87904 -7.59413,5.15827 -2.13006,1.27923 -4.40669,2.91577 -5.05919,3.6368 -0.6525,0.72102 -1.39973,1.31091 -1.66051,1.31091 -0.695,0 -12.47788,7.47482 -16.83787,10.6816 -2.06272,1.51712 -4.19023,2.7584 -4.72778,2.7584 -1.4978,0 -8.28503,-6.01011 -21.07702,-18.66368 -12.49731,-12.36211 -12.21893,-12.19987 -15.22804,-8.87482 l -1.24892,1.38004 9.57608,9.29862 c 25.89855,25.14829 26.64026,25.81984 28.51707,25.81984 0.99148,0 3.18336,-0.81683 4.87085,-1.81523 z m -5.66109,-23.03162 c -0.0652,-6.22221 0.11431,-17.0025 0.39892,-23.95616 l 0.51746,-12.64301 -2.17356,-1.91827 c -1.19546,-1.05504 -4.53132,-3.8617 -7.41301,-6.23699 -2.8817,-2.3753 -8.43735,-7.12538 -12.34589,-10.55565 -8.02864,-7.04634 -10.73979,-8.77664 -11.63138,-7.42343 -0.31177,0.47322 -0.5177,4.02836 -0.45762,7.90036 0.1212,7.80966 -0.56437,15.60326 -1.47258,16.74073 -0.98161,1.22938 3.712,2.37312 9.92348,2.41824 5.1469,0.0371 5.76679,0.17716 6.88,1.55194 1.70066,2.10022 1.71329,7.46189 0.0197,8.36826 -4.19493,2.24505 -10.70227,3.39692 -14.79627,2.61907 -1.584,-0.30093 -2.99268,-0.43546 -3.13041,-0.29895 -0.53795,0.53319 5.17195,6.85824 16.22378,17.97172 12.04433,12.11142 18.1972,17.62746 19.06465,17.09133 0.28121,-0.17376 0.45793,-5.40692 0.39273,-11.62919 z m 7.27054,8.27629 c 1.50629,-1.01779 8.21072,-5.49677 14.89872,-9.95334 6.688,-4.45658 13.65793,-9.16788 15.48874,-10.46951 1.83081,-1.30163 6.93799,-4.67059 11.3493,-7.48659 l 8.02057,-5.12 0.11876,-9.6 c 0.0653,-5.28 0.17496,-14.352 0.24364,-20.16 0.15132,-12.79623 -0.18823,-17.28001 -1.30862,-17.28001 -0.45106,0 -2.79388,1.52141 -5.20626,3.38087 -2.41237,1.85952 -6.69013,4.64243 -9.50613,6.18432 -2.816,1.54189 -6.704,3.87456 -8.64,5.18374 -1.936,1.30919 -4.80381,3.02656 -6.37291,3.81652 -2.86976,1.44467 -7.39345,4.31494 -11.54709,7.32652 -9.74231,7.06375 -10.51497,7.76717 -10.95685,9.97543 -0.54382,2.71757 -1.24515,43.91853 -0.76872,45.16007 0.48737,1.27001 1.09535,1.13094 4.18685,-0.95802 z m -85.85918,-79.59835 c -0.19263,-0.50202 -0.34512,-1.51872 0.54633,-2.48058 1.78455,-1.92556 2.00831,-5.44038 0.14439,-7.50002 -0.44134,-0.48765 -1.81985,-0.0472 -2.03562,-0.51782 -0.21577,-0.47059 0.091,-0.6999 0.71584,-1.75885 0.76186,-1.29127 1.7096,-2.23988 2.10608,-2.10797 0.39648,0.13184 0.93465,1.944 1.19595,4.02694 0.63059,5.02701 0.81143,5.3872 2.70484,5.3872 2.26974,0 2.0459,1.5216 -0.45992,3.1264 m 10.05603,-3.01707 c -1.18848,-1.11605 -1.12257,-2.45951 -1.12257,-2.45951 -0.37468,-0.66511 0.24758,-1.32644 -0.0654,-1.8963 -0.1849,-0.33662 -1.57252,0.38824 -2.14854,0.16551 -0.57601,-0.22273 -0.85253,-0.49685 0.16057,-1.03903 0.88,-0.47097 1.78106,-1.20255 1.78106,-1.8471 0,-1.34438 -0.44516,-1.59911 -2.09678,-0.7152 -1.42336,0.76179 -3.20428,0.20806 -3.20428,-0.99623 0,-0.99008 5.52819,-3.61977 7.01059,-3.33484 0.62233,0.11961 1.16985,1.25555 1.47577,3.06176 0.57972,3.42284 -0.0598,3.35024 0.0756,6.48541 -0.34955,2.17094 -0.0953,2.27778 -0.0953,2.27778 m 2.43255,-0.76818 c 0.82017,-0.16992 -0.39119,0.11596 -0.50446,-0.9024 -0.0909,-0.81754 0.70106,-3.00084 1.76,-4.85165 2.16588,-3.7856 2.55033,-5.48474 0.93822,-4.14682 -0.69354,0.57555 -1.1883,0.61805 -1.66357,0.14278 -0.98955,-0.98956 -0.12501,-3.0336 1.69508,-4.00768 1.37981,-0.73843 1.75116,-0.69523 2.89083,0.33613 1.08529,0.98221 1.23724,1.65299 0.89355,3.94483 -0.37393,2.49357 -2.27822,4.93414 -1.09087,4.93414 0.72319,0 4.19819,-0.63446 4.40277,-0.30345 0.50076,0.81024 -4.38151,1.57123 -5.57592,2.29079 -0.74381,0.44811 -1.35464,0.51094 -1.96312,1.24678 m 0.38409,1.66438 c 0.17966,0.17965 2.82219,-1.28358 5.87229,-2.23455 3.71528,-1.1584 5.75791,-1.51674 6.18879,-1.08589 1.25682,1.25683 -0.15713,2.61037 -3.81646,3.65337 -2.04068,0.58164 -3.89829,1.24167 -4.12802,1.46669 -0.22974,0.22503 -0.0972,1.93895 0.29447,3.80864 0.58343,2.78496 0.91966,3.34522 1.86003,3.09927 0.63132,-0.16506 1.79481,0.22406 2.58552,0.86483 1.33718,1.08352 1.43767,1.67206 1.43767,8.42067 0,6.71533 0.13641,7.52493 1.8315,10.87021 1.00733,1.98797 3.23933,5.00115 4.96,6.696 l 3.1285,3.08141 0.0153,-2.53594 c 0.008,-1.39475 0.27872,-3.67206 0.60072,-5.06061 0.322,-1.38854 0.45697,-2.73254 0.29994,-2.98662 -0.15703,-0.25408 -1.44534,-0.006 -2.86292,0.55046 -1.71499,0.67367 -2.79114,0.79872 -3.21619,0.37364 -1.07586,-1.07584 -0.0825,-2.37831 3.09093,-4.0528 l 3.03225,-1.6 0.18083,-7.98093 c 0.20914,-9.23028 0.57504,-9.94912 6.37917,-12.53287 1.848,-0.82265 3.36,-1.79059 3.36,-2.15091 0,-0.36032 0.40212,-0.5008 0.8936,-0.31219 0.49148,0.18854 1.28348,-0.18048 1.76,-0.8201 0.50838,-0.68243 1.74784,-1.19225 2.99946,-1.23385 2.77139,-0.092 5.1778,-2.33965 4.21447,-3.93639 -0.37425,-0.62029 -0.73394,-5.5449 -0.81277,-11.128 -0.0778,-5.50835 -0.42608,-13.57235 -0.77403,-17.92 -0.34794,-4.34765 -0.89586,-12.87181 -1.2176,-18.94266 -0.32174,-6.07085 -0.77798,-11.35021 -1.01387,-11.73184 -0.25024,-0.40493 -1.13298,-0.51546 -2.11907,-0.26547 -3.19184,0.80921 -11.31123,2.2407 -25.37019,4.47289 -19.35772,3.07348 -25.55254,4.1186 -30.4,5.12871 -2.288,0.4768 -7.7149,1.46317 -12.05977,2.19187 -4.34488,0.72877 -10.24888,1.94112 -13.12,2.69421 -2.87113,0.75302 -6.37223,1.59296 -7.78023,1.8665 -9.57107,1.85939 -17.9233,3.92857 -18.29679,4.53292 -0.24205,0.39162 -0.74071,0.52628 -1.10812,0.2992 -0.63515,-0.39251 -7.45612,0.62234 -14.62265,2.17562 -1.81916,0.39424 -3.46121,1.11725 -3.64901,1.60666 -0.1878,0.4894 -0.0752,2.55859 0.25027,4.5982 1.07575,6.74176 1.89706,30.97274 1.92819,56.88667 0.0211,17.55008 0.32641,28.54547 0.97585,35.14176 1.08722,11.04282 1.19245,11.47885 2.6365,10.92474 0.5849,-0.22445 2.38248,-0.69869 3.99461,-1.05389 h -1.2e-4 c 1.61213,-0.3552 4.94715,-1.61447 7.41115,-2.79834 6.98658,-3.3568 22.5693,-10.25146 27.52,-12.17638 2.464,-0.95808 5.488,-2.17536 6.72,-2.70516 2.23997,-0.96326 22.21211,-8.14214 31.4675,-11.31085 2.69913,-0.92403 5.29113,-1.68454 5.76001,-1.68992 0.46887,-0.006 1.20701,-0.235 1.64031,-0.51027 1.06863,-0.67878 -1.00097,-6.10016 -3.88968,-10.18905 -2.23073,-3.15757 -3.61814,-6.47834 -3.61814,-8.6601 0,-1.6752 4.34581,-5.59079 6.20507,-5.59079 1.313,0 1.47493,-0.30451 1.47493,-2.77331 0,-1.52537 -0.16538,-2.93875 -0.36752,-3.14086 -0.20213,-0.20218 -4.80137,1.18118 -10.22054,3.07411 -7.3491,2.56704 -10.61731,3.40582 -12.86054,3.30086 -3.74737,-0.17542 -4.27031,-1.37312 -1.16589,-2.6702 1.56754,-0.65498 2.9997,-0.99102 2.9997,-0.99102 M 314.24,798.90693 c -0.42717,-1.12358 -1.08947,-1.6 -2.22416,-1.6 -1.94236,0 -2.17589,-1.57523 -0.37632,-2.5383 0.7464,-0.39949 1.31927,-1.48845 1.44,-2.73728 0.23595,-2.44083 2.07883,-3.21651 2.63044,-1.10714 0.22745,0.86976 0.77578,1.28999 1.52274,1.16691 2.86207,-0.47142 3.79877,2.2953 1.1217,3.31316 -1.16017,0.44108 -1.61125,1.04998 -1.52916,2.06413 0.19903,2.45862 0.008,3.03852 -1.00108,3.03852 -0.53671,0 -1.24958,-0.72 -1.58416,-1.6 z m 31.57323,-17.82496 c 1.69289,0.80845 2.65267,-3.27942 -1.37676,-2.4839 -2.87888,0.0553 -2.81777,-3.34378 0.56538,-4.03757 4.11684,-0.0318 3.62579,-3.78895 -0.2896,-3.23943 -3.35498,-0.0929 -4.34478,-1.27155 -2.40135,-2.85958 1.89773,-1.55066 2.73026,-1.54566 5.82807,0.0346 2.92094,1.49018 3.58523,3.048 2.58806,6.06944 -0.51688,1.56615 -0.5302,2.56378 -0.0463,3.46791 1.07664,2.01171 0.80699,3.39008 -1.04045,5.3184 -1.35649,1.41587 -2.29481,1.795 -4.44223,1.795 -1.49737,0 -1.59432,0.13795 -2.67645,-2.08329 0.32034,-1.68881 2.11275,-1.52807 3.29163,-1.98158 z m -8.81986,1.98496 c -0.13555,-0.44 -0.40773,-1.5431 -0.60484,-2.45139 -0.30927,-1.42509 -0.62699,-1.6119 -2.3187,-1.36365 -4.41342,0.64775 -6.00256,-4.19072 -2.52014,-7.67309 1.67467,-1.67469 2.27675,-1.89664 4.26822,-1.57344 2.82009,0.4576 3.44291,1.33991 3.00831,4.26157 -0.18325,1.232 -0.0798,3.54106 0.22988,5.13127 0.30969,1.59014 0.44476,3.24614 0.30015,3.68 -0.34263,1.0279 -2.04524,1.01977 -2.36288,-0.0115 z m -1.09019,-8.29304 c 0,-0.48492 -0.94437,-1.78696 -1.4347,-1.78696 -1.01691,0 -1.86162,1.72973 -1.29358,2.64883 0.48981,0.79252 2.72828,0.32674 2.72828,-0.86187 z M 381.92,851.02892 c 3.33833,-1.16717 2.64726,-5.00211 -0.82076,-4.55469 -1.12285,0.14484 -4.38505,-0.36953 -15.00456,-2.36588 -1.40649,-0.26445 -2.49233,-0.95392 -2.95098,-1.87386 -0.39911,-0.80058 -1.29836,-2.09274 -1.99833,-2.87155 -2.13399,-2.37434 -6.07496,-8.71962 -6.96686,-11.21722 -0.96578,-2.70451 -1.07558,-6.27494 -0.31405,-10.21255 0.63121,-3.26374 0.017,-3.9991 -1.14589,-1.37196 -1.63102,3.68473 -5.05573,3.95603 -6.82202,0.54035 -0.53318,-1.03104 -1.25002,-1.87463 -1.59298,-1.87463 -1.05727,0 -0.69186,1.87949 0.74264,3.81972 1.31353,1.77664 1.28819,3.86029 -0.047,3.86029 -0.35251,0 -1.27971,-0.864 -2.06044,-1.92 -0.78074,-1.056 -1.6264,-1.92001 -1.87925,-1.92001 -1.05843,0 0.40073,2.80973 2.70424,5.20724 1.36191,1.41747 2.47621,2.97568 2.47621,3.46272 0,0.48704 0.82067,1.83155 1.82372,2.98777 1.00305,1.15623 2.00276,2.83936 2.22157,3.74029 0.21883,0.90093 1.1188,2.62893 1.99995,3.84 0.88114,1.21107 1.8903,2.84999 2.24258,3.64199 0.35227,0.792 1.0696,1.44 1.59406,1.44 0.52447,0 1.8996,0.82067 3.05584,1.82374 1.15625,1.00301 2.96628,2.03347 4.02228,2.28986 1.056,0.25638 2.45271,0.94771 3.1038,1.53625 3.44281,3.1122 10.01469,3.9506 15.6162,1.99213 z m 27.2143,-15.21299 c 1.48814,-1.3481 9.32971,-6.43392 17.42571,-11.30195 8.096,-4.86797 15.296,-9.309 16,-9.869 0.704,-0.55993 2.576,-1.66861 4.16,-2.46381 3.05947,-1.5358 12.98645,-8.78854 13.31537,-9.72825 0.32303,-0.92295 -20.96234,-13.89492 -26.15992,-15.94272 -0.8555,-0.33703 -2.54741,-1.35764 -3.75979,-2.26804 -1.21239,-0.9104 -2.47962,-1.65523 -2.81607,-1.65523 -0.33645,0 -2.8005,1.39667 -5.47567,3.10375 -5.24538,3.34713 -19.50775,10.80332 -29.82393,15.59161 -3.52,1.6338 -9.25593,4.32877 -12.74653,5.9888 l -6.34653,3.01818 3.19283,2.94886 c 1.75607,1.62183 5.61627,5.1088 8.57824,7.74881 2.96198,2.64 6.82914,6.13196 8.5937,7.76 3.72619,3.43776 11.77246,9.52 12.59419,9.52 0.30949,0 1.78027,-1.10298 3.2684,-2.45101 z m -6.30292,-17.229 c -8.8457,-7.58451 -9.59374,-8.35884 -8.82491,-9.13529 1.02614,-1.03629 3.69522,0.46221 9.3602,5.2551 5.19956,4.39911 6.23334,5.51405 6.23334,6.7225 0,1.79571 -2.66404,0.67706 -6.76863,-2.84231 z m 5.4685,-7.60614 c -4.08629,-3.42842 -5.62212,-5.08762 -5.14816,-5.5616 0.47396,-0.47392 1.2979,-0.34842 2.76188,0.42074 4.74713,2.49408 10.72641,7.51788 10.72641,9.01241 0,2.11482 -2.69774,0.86253 -8.34013,-3.87155 z m 11.83215,-6.42816 c -3.47229,-3.61376 -4.1007,-4.87398 -2.82388,-5.6631 0.83318,-0.51495 2.59369,0.62502 6.6792,4.3248 2.78999,2.52652 3.07942,3.01644 2.32163,3.92947 -1.4086,1.69728 -2.49381,1.24205 -6.17695,-2.59117 z m 6.74463,-4.09946 c -3.94711,-3.2848 -4.71184,-5.13856 -2.3106,-5.60096 1.30011,-0.25037 8.71395,6.58554 8.71395,8.03469 0,1.70579 -2.63066,0.70592 -6.40335,-2.43373 z"
     id="path144"
     inkscape:connector-curvature="0"
     sodipodi:nodetypes="cccscsscccccccscscccssccccssccccccssscsccsccscccscccccccccccccssccscsccccssscccccccccsscscsccccscssccscccccccccccsccssccsscscccccccccscccsccssscscsccccccccccccscscccccscccscccccsccccsssccccccsccscccccccccsscccccsccccsssccccccsccccccscccccccsccsccccccccccccsscscccccccccscscscsccccsccccccccccccscccccccscscssscccsccccccscss"
     inkscape:export-filename="/home/phigit/Documents/Misc_Projects/Talks/2020-04-23-KreativeComputere/Images/Matematik.png"
     inkscape:export-xdpi="284.10999"
     inkscape:export-ydpi="284.10999" />
</svg>
