<?xml version="1.0" encoding="UTF-8" standalone="no"?>
<!-- Created with Inkscape (http://www.inkscape.org/) -->

<svg
   xmlns:dc="http://purl.org/dc/elements/1.1/"
   xmlns:cc="http://creativecommons.org/ns#"
   xmlns:rdf="http://www.w3.org/1999/02/22-rdf-syntax-ns#"
   xmlns:svg="http://www.w3.org/2000/svg"
   xmlns="http://www.w3.org/2000/svg"
   xmlns:sodipodi="http://sodipodi.sourceforge.net/DTD/sodipodi-0.dtd"
   xmlns:inkscape="http://www.inkscape.org/namespaces/inkscape"
   version="1.1"
   id="svg134"
   width="816.64001"
   height="1122.5601"
   viewBox="0 0 816.64001 1122.5601"
   sodipodi:docname="Matematik - RettetStil.svg"
   inkscape:version="0.92.4 (5da689c313, 2019-01-14)">
  <metadata
     id="metadata140">
    <rdf:RDF>
      <cc:Work
         rdf:about="">
        <dc:format>image/svg+xml</dc:format>
        <dc:type
           rdf:resource="http://purl.org/dc/dcmitype/StillImage" />
        <dc:title></dc:title>
      </cc:Work>
    </rdf:RDF>
  </metadata>
  <defs
     id="defs138" />
  <sodipodi:namedview
     pagecolor="#ffffff"
     bordercolor="#666666"
     borderopacity="1"
     objecttolerance="10"
     gridtolerance="10"
     guidetolerance="10"
     inkscape:pageopacity="0"
     inkscape:pageshadow="2"
     inkscape:window-width="1280"
     inkscape:window-height="780"
     id="namedview136"
     showgrid="false"
     inkscape:zoom="0.48816987"
     inkscape:cx="448.10865"
     inkscape:cy="297.46106"
     inkscape:window-x="0"
     inkscape:window-y="0"
     inkscape:window-maximized="1"
     inkscape:current-layer="svg134" />
  <path
     style="fill:#000000;fill-opacity:1;stroke-width:0.64000005"
     d="m 389.04087,909.52668 c -0.46799,-1.10733 -6.71751,-6.65635 -11.23225,-11.00329 -14.39009,-13.8553 -15.62071,-15.10458 -16.50858,-16.75898 -0.62295,-1.16083 -0.79787,-3.40512 -0.61463,-7.88621 0.14087,-3.44499 0.42128,-6.53081 0.62313,-6.8574 0.20185,-0.32666 1.01351,-0.59386 1.80369,-0.59386 1.41935,0 5.52777,-3.61664 5.52777,-4.86611 0,-0.35488 -0.71473,-1.61402 -1.58831,-2.79808 -1.21713,-1.64973 -1.42017,-2.3554 -0.8688,-3.01978 0.91313,-1.10029 1.11265,-0.95859 -4.79106,-3.40243 -4.17094,-1.72659 -5.44219,-2.62157 -7.60425,-5.35341 -1.42783,-1.8041 -3.04349,-4.21619 -3.59035,-5.36019 -1.37214,-2.8704 -3.36868,-2.75866 -14.47933,0.81037 -12.51018,4.01862 -13.42623,4.34476 -19.53375,6.955 -2.97872,1.27303 -5.67487,2.31463 -5.99144,2.31463 -1.95311,0 -21.02067,8.03385 -37.06225,15.61568 -3.42625,1.61939 -6.9635,2.94432 -7.86056,2.94432 -0.89705,0 -2.65581,0.42816 -3.90835,0.95155 -3.0151,1.25978 -5.14553,0.23488 -4.82135,-2.31949 0.0285,-0.22438 -0.21926,-1.35302 -0.55054,-2.50809 -0.33127,-1.15507 -0.75464,-12.92352 -0.94082,-26.15207 -0.18617,-13.22854 -0.46678,-33.26791 -0.62357,-44.53191 -0.15679,-11.264 -0.58083,-22.352 -0.9423,-24.64 -0.90033,-5.69875 -0.8464,-11.69248 0.11703,-13.00627 0.4542,-0.61939 2.32153,-1.3536 4.32,-1.6985 11.22587,-1.93747 21.0778,-3.94009 27.84,-5.65914 4.224,-1.07379 9.12,-2.14022 10.88,-2.36979 3.39091,-0.4423 12.94638,-2.24691 37.44,-7.07059 8.272,-1.62906 17.488,-3.33075 20.48,-3.78157 4.88581,-0.73613 8.33183,-1.3664 24.86846,-4.54822 7.78481,-1.49786 9.39486,-1.05914 7.70445,2.09945 -0.75926,1.41869 -0.7182,1.70554 0.35665,2.49152 1.01757,0.74407 1.09426,1.12314 0.47253,2.33568 -0.68135,1.32877 -0.63498,6.77287 0.15762,18.50586 0.11066,1.63808 0.57535,10.78208 1.03264,20.32 0.68339,14.25357 0.995,17.34157 1.74994,17.34157 0.50518,0 7.00682,-3.00793 14.44811,-6.68429 7.44128,-3.67635 15.03218,-7.42035 16.86866,-8.32 1.83648,-0.89964 3.78159,-1.63571 4.32247,-1.63571 2.17015,0 37.11245,20.57517 37.74596,22.22605 0.19136,0.49869 0.12018,1.38983 -0.15818,1.98029 -0.27836,0.59053 -0.4863,12.82048 -0.4621,27.17773 l 0.044,26.104 -1.59658,0.40077 c -2.37348,0.59571 -5.79462,2.76403 -5.79462,3.67264 0,0.43731 1.40289,1.55866 3.11753,2.4919 4.60532,2.5065 4.76892,2.83764 4.23568,8.57383 l -0.46228,4.9728 -3.18515,2.56 c -5.60952,4.50854 -12.77619,10.09223 -20.82578,16.22573 l -7.84,5.97382 -4.08211,3.26503 c -5.80158,3.61529 0,0 -5.80158,3.61529 l -4.15419,2.60065 -4.20212,2.59494 c -6.39006,4.31827 -9.75786,5.85638 -11.16919,5.10106 -0.67467,-0.36109 -1.49342,-0.65652 -1.81947,-0.65652 m 9.30274,-5.28 c 15.2424,-9.61478 19.85719,-12.78342 27.68592,-19.00998 3.344,-2.65965 6.944,-5.38669 8,-6.06003 2.19432,-1.39937 12.43408,-9.97236 13.62489,-11.40717 0.63571,-0.76602 0.60098,-1.1106 -0.177,-1.75629 -0.53234,-0.44179 -0.96789,-1.344 -0.96789,-2.00487 0,-0.66092 -0.12845,-1.20166 -0.28543,-1.20166 -0.48472,0 -11.27785,7.7719 -17.00222,12.24301 -6.82736,5.33254 -16.24675,11.89728 -22.07235,15.3831 -7.30387,4.37031 -11.84001,7.6313 -11.84001,8.51175 0,0.45395 -0.432,1.18393 -0.96,1.62214 -1.4595,1.21127 -1.22656,5.76 0.29498,5.76 0.22091,0 1.8855,-0.936 3.69911,-2.08 z m -7.64674,-2.80755 0.18734,-3.82598 -3.38734,-2.83098 c -1.86304,-1.55706 -9.90256,-9.24454 -17.8656,-17.08327 -7.96304,-7.83872 -14.67373,-14.25222 -14.91265,-14.25222 -0.76583,0 -2.2891,4.36736 -2.2891,6.56307 0,1.93997 1.28615,3.34375 14.82448,16.18061 15.35799,14.56218 21.36076,19.69946 22.55746,19.3049 0.38393,-0.12659 0.78237,-1.95187 0.88541,-4.05613 z m 7.62449,-8.44768 c 9.04019,-5.34835 24.35165,-16.08301 33.46817,-23.46407 4.50179,-3.6448 13.94961,-10.19564 15.415,-10.68832 1.28855,-0.43315 -0.23122,-2.16979 -3.24403,-3.70681 l -2.31465,-1.1808 -4.56687,2.7584 c -2.51177,1.51718 -6.24144,4.03302 -8.28816,5.59085 -2.04671,1.55782 -5.46407,3.87904 -7.59413,5.15827 -2.13006,1.27923 -4.40669,2.91577 -5.05919,3.6368 -0.6525,0.72102 -1.39973,1.31091 -1.66051,1.31091 -0.695,0 -12.47788,7.47482 -16.83787,10.6816 -2.06272,1.51712 -4.19023,2.7584 -4.72778,2.7584 -1.4978,0 -8.28503,-6.01011 -21.07702,-18.66368 -12.49731,-12.36211 -12.21893,-12.19987 -15.22804,-8.87482 l -1.24892,1.38004 9.57608,9.29862 c 25.89855,25.14829 26.64026,25.81984 28.51707,25.81984 0.99148,0 3.18336,-0.81683 4.87085,-1.81523 z m -5.66109,-23.03162 c -0.0652,-6.22221 0.11431,-17.0025 0.39892,-23.95616 l 0.51746,-12.64301 -2.17356,-1.91827 c -1.19546,-1.05504 -4.53132,-3.8617 -7.41301,-6.23699 -2.8817,-2.3753 -8.43735,-7.12538 -12.34589,-10.55565 -8.02864,-7.04634 -10.73979,-8.77664 -11.63138,-7.42343 -0.31177,0.47322 -0.5177,4.02836 -0.45762,7.90036 0.1212,7.80966 -0.56437,15.60326 -1.47258,16.74073 -0.98161,1.22938 3.712,2.37312 9.92348,2.41824 5.1469,0.0371 5.76679,0.17716 6.88,1.55194 1.70066,2.10022 1.71329,7.46189 0.0197,8.36826 -4.19493,2.24505 -10.70227,3.39692 -14.79627,2.61907 -1.584,-0.30093 -2.99268,-0.43546 -3.13041,-0.29895 -0.53795,0.53319 5.17195,6.85824 16.22378,17.97172 12.04433,12.11142 18.1972,17.62746 19.06465,17.09133 0.28121,-0.17376 0.45793,-5.40692 0.39273,-11.62919 z m 7.27054,8.27629 c 1.50629,-1.01779 8.21072,-5.49677 14.89872,-9.95334 6.688,-4.45658 13.65793,-9.16788 15.48874,-10.46951 1.83081,-1.30163 6.93799,-4.67059 11.3493,-7.48659 l 8.02057,-5.12 0.11876,-9.6 c 0.0653,-5.28 0.17496,-14.352 0.24364,-20.16 0.15132,-12.79623 -0.18823,-17.28001 -1.30862,-17.28001 -0.45106,0 -2.79388,1.52141 -5.20626,3.38087 -2.41237,1.85952 -6.69013,4.64243 -9.50613,6.18432 -2.816,1.54189 -6.704,3.87456 -8.64,5.18374 -1.936,1.30919 -4.80381,3.02656 -6.37291,3.81652 -2.86976,1.44467 -7.39345,4.31494 -11.54709,7.32652 -9.74231,7.06375 -10.51497,7.76717 -10.95685,9.97543 -0.54382,2.71757 -1.24515,43.91853 -0.76872,45.16007 0.48737,1.27001 1.09535,1.13094 4.18685,-0.95802 z m -85.85918,-79.59835 c -0.19263,-0.50202 -0.34512,-1.51872 0.54633,-2.48058 1.78455,-1.92556 2.00831,-5.44038 0.14439,-7.50002 -0.44134,-0.48765 -1.81985,-0.0472 -2.03562,-0.51782 -0.21577,-0.47059 0.091,-0.6999 0.71584,-1.75885 0.76186,-1.29127 1.7096,-2.23988 2.10608,-2.10797 0.39648,0.13184 0.93465,1.944 1.19595,4.02694 0.63059,5.02701 0.81143,5.3872 2.70484,5.3872 2.26974,0 2.0459,1.5216 -0.45992,3.1264 m 10.05603,-3.01707 c -1.18848,-1.11605 -1.12257,-2.45951 -1.12257,-2.45951 -0.37468,-0.66511 0.24758,-1.32644 -0.0654,-1.8963 -0.1849,-0.33662 -1.57252,0.38824 -2.14854,0.16551 -0.57601,-0.22273 -0.85253,-0.49685 0.16057,-1.03903 0.88,-0.47097 1.78106,-1.20255 1.78106,-1.8471 0,-1.34438 -0.44516,-1.59911 -2.09678,-0.7152 -1.42336,0.76179 -3.20428,0.20806 -3.20428,-0.99623 0,-0.99008 5.52819,-3.61977 7.01059,-3.33484 0.62233,0.11961 1.16985,1.25555 1.47577,3.06176 0.57972,3.42284 -0.0598,3.35024 0.0756,6.48541 -0.34955,2.17094 -0.0953,2.27778 -0.0953,2.27778 m 2.43255,-0.76818 c 0.82017,-0.16992 -0.39119,0.11596 -0.50446,-0.9024 -0.0909,-0.81754 0.70106,-3.00084 1.76,-4.85165 2.16588,-3.7856 2.55033,-5.48474 0.93822,-4.14682 -0.69354,0.57555 -1.1883,0.61805 -1.66357,0.14278 -0.98955,-0.98956 -0.12501,-3.0336 1.69508,-4.00768 1.37981,-0.73843 1.75116,-0.69523 2.89083,0.33613 1.08529,0.98221 1.23724,1.65299 0.89355,3.94483 -0.37393,2.49357 -2.27822,4.93414 -1.09087,4.93414 0.72319,0 4.19819,-0.63446 4.40277,-0.30345 0.50076,0.81024 -4.38151,1.57123 -5.57592,2.29079 -0.74381,0.44811 -1.35464,0.51094 -1.96312,1.24678 m 0.38409,1.66438 c 0.17966,0.17965 2.82219,-1.28358 5.87229,-2.23455 3.71528,-1.1584 5.75791,-1.51674 6.18879,-1.08589 1.25682,1.25683 -0.15713,2.61037 -3.81646,3.65337 -2.04068,0.58164 -3.89829,1.24167 -4.12802,1.46669 -0.22974,0.22503 -0.0972,1.93895 0.29447,3.80864 0.58343,2.78496 0.91966,3.34522 1.86003,3.09927 0.63132,-0.16506 1.79481,0.22406 2.58552,0.86483 1.33718,1.08352 1.43767,1.67206 1.43767,8.42067 0,6.71533 0.13641,7.52493 1.8315,10.87021 1.00733,1.98797 3.23933,5.00115 4.96,6.696 l 3.1285,3.08141 0.0153,-2.53594 c 0.008,-1.39475 0.27872,-3.67206 0.60072,-5.06061 0.322,-1.38854 0.45697,-2.73254 0.29994,-2.98662 -0.15703,-0.25408 -1.44534,-0.006 -2.86292,0.55046 -1.71499,0.67367 -2.79114,0.79872 -3.21619,0.37364 -1.07586,-1.07584 -0.0825,-2.37831 3.09093,-4.0528 l 3.03225,-1.6 0.18083,-7.98093 c 0.20914,-9.23028 0.57504,-9.94912 6.37917,-12.53287 1.848,-0.82265 3.36,-1.79059 3.36,-2.15091 0,-0.36032 0.40212,-0.5008 0.8936,-0.31219 0.49148,0.18854 1.28348,-0.18048 1.76,-0.8201 0.50838,-0.68243 1.74784,-1.19225 2.99946,-1.23385 2.77139,-0.092 5.1778,-2.33965 4.21447,-3.93639 -0.37425,-0.62029 -0.73394,-5.5449 -0.81277,-11.128 -0.0778,-5.50835 -0.42608,-13.57235 -0.77403,-17.92 -0.34794,-4.34765 -0.89586,-12.87181 -1.2176,-18.94266 -0.32174,-6.07085 -0.77798,-11.35021 -1.01387,-11.73184 -0.25024,-0.40493 -1.13298,-0.51546 -2.11907,-0.26547 -3.19184,0.80921 -11.31123,2.2407 -25.37019,4.47289 -19.35772,3.07348 -25.55254,4.1186 -30.4,5.12871 -2.288,0.4768 -7.7149,1.46317 -12.05977,2.19187 -4.34488,0.72877 -10.24888,1.94112 -13.12,2.69421 -2.87113,0.75302 -6.37223,1.59296 -7.78023,1.8665 -9.57107,1.85939 -17.9233,3.92857 -18.29679,4.53292 -0.24205,0.39162 -0.74071,0.52628 -1.10812,0.2992 -0.63515,-0.39251 -7.45612,0.62234 -14.62265,2.17562 -1.81916,0.39424 -3.46121,1.11725 -3.64901,1.60666 -0.1878,0.4894 -0.0752,2.55859 0.25027,4.5982 1.07575,6.74176 1.89706,30.97274 1.92819,56.88667 0.0211,17.55008 0.32641,28.54547 0.97585,35.14176 1.08722,11.04282 1.19245,11.47885 2.6365,10.92474 0.5849,-0.22445 2.38248,-0.69869 3.99461,-1.05389 h -1.2e-4 c 1.61213,-0.3552 4.94715,-1.61447 7.41115,-2.79834 6.98658,-3.3568 22.5693,-10.25146 27.52,-12.17638 2.464,-0.95808 5.488,-2.17536 6.72,-2.70516 2.23997,-0.96326 22.21211,-8.14214 31.4675,-11.31085 2.69913,-0.92403 5.29113,-1.68454 5.76001,-1.68992 0.46887,-0.006 1.20701,-0.235 1.64031,-0.51027 1.06863,-0.67878 -1.00097,-6.10016 -3.88968,-10.18905 -2.23073,-3.15757 -3.61814,-6.47834 -3.61814,-8.6601 0,-1.6752 4.34581,-5.59079 6.20507,-5.59079 1.313,0 1.47493,-0.30451 1.47493,-2.77331 0,-1.52537 -0.16538,-2.93875 -0.36752,-3.14086 -0.20213,-0.20218 -4.80137,1.18118 -10.22054,3.07411 -7.3491,2.56704 -10.61731,3.40582 -12.86054,3.30086 -3.74737,-0.17542 -4.27031,-1.37312 -1.16589,-2.6702 1.56754,-0.65498 2.9997,-0.99102 2.9997,-0.99102 M 314.24,798.90693 c -0.42717,-1.12358 -1.08947,-1.6 -2.22416,-1.6 -1.94236,0 -2.17589,-1.57523 -0.37632,-2.5383 0.7464,-0.39949 1.31927,-1.48845 1.44,-2.73728 0.23595,-2.44083 2.07883,-3.21651 2.63044,-1.10714 0.22745,0.86976 0.77578,1.28999 1.52274,1.16691 2.86207,-0.47142 3.79877,2.2953 1.1217,3.31316 -1.16017,0.44108 -1.61125,1.04998 -1.52916,2.06413 0.19903,2.45862 0.008,3.03852 -1.00108,3.03852 -0.53671,0 -1.24958,-0.72 -1.58416,-1.6 z m 31.57323,-17.82496 c 1.69289,0.80845 2.65267,-3.27942 -1.37676,-2.4839 -2.87888,0.0553 -2.81777,-3.34378 0.56538,-4.03757 4.11684,-0.0318 3.62579,-3.78895 -0.2896,-3.23943 -3.35498,-0.0929 -4.34478,-1.27155 -2.40135,-2.85958 1.89773,-1.55066 2.73026,-1.54566 5.82807,0.0346 2.92094,1.49018 3.58523,3.048 2.58806,6.06944 -0.51688,1.56615 -0.5302,2.56378 -0.0463,3.46791 1.07664,2.01171 0.80699,3.39008 -1.04045,5.3184 -1.35649,1.41587 -2.29481,1.795 -4.44223,1.795 -1.49737,0 -1.59432,0.13795 -2.67645,-2.08329 0.32034,-1.68881 2.11275,-1.52807 3.29163,-1.98158 z m -8.81986,1.98496 c -0.13555,-0.44 -0.40773,-1.5431 -0.60484,-2.45139 -0.30927,-1.42509 -0.62699,-1.6119 -2.3187,-1.36365 -4.41342,0.64775 -6.00256,-4.19072 -2.52014,-7.67309 1.67467,-1.67469 2.27675,-1.89664 4.26822,-1.57344 2.82009,0.4576 3.44291,1.33991 3.00831,4.26157 -0.18325,1.232 -0.0798,3.54106 0.22988,5.13127 0.30969,1.59014 0.44476,3.24614 0.30015,3.68 -0.34263,1.0279 -2.04524,1.01977 -2.36288,-0.0115 z m -1.09019,-8.29304 c 0,-0.48492 -0.94437,-1.78696 -1.4347,-1.78696 -1.01691,0 -1.86162,1.72973 -1.29358,2.64883 0.48981,0.79252 2.72828,0.32674 2.72828,-0.86187 z M 381.92,851.02892 c 3.33833,-1.16717 2.64726,-5.00211 -0.82076,-4.55469 -1.12285,0.14484 -4.38505,-0.36953 -15.00456,-2.36588 -1.40649,-0.26445 -2.49233,-0.95392 -2.95098,-1.87386 -0.39911,-0.80058 -1.29836,-2.09274 -1.99833,-2.87155 -2.13399,-2.37434 -6.07496,-8.71962 -6.96686,-11.21722 -0.96578,-2.70451 -1.07558,-6.27494 -0.31405,-10.21255 0.63121,-3.26374 0.017,-3.9991 -1.14589,-1.37196 -1.63102,3.68473 -5.05573,3.95603 -6.82202,0.54035 -0.53318,-1.03104 -1.25002,-1.87463 -1.59298,-1.87463 -1.05727,0 -0.69186,1.87949 0.74264,3.81972 1.31353,1.77664 1.28819,3.86029 -0.047,3.86029 -0.35251,0 -1.27971,-0.864 -2.06044,-1.92 -0.78074,-1.056 -1.6264,-1.92001 -1.87925,-1.92001 -1.05843,0 0.40073,2.80973 2.70424,5.20724 1.36191,1.41747 2.47621,2.97568 2.47621,3.46272 0,0.48704 0.82067,1.83155 1.82372,2.98777 1.00305,1.15623 2.00276,2.83936 2.22157,3.74029 0.21883,0.90093 1.1188,2.62893 1.99995,3.84 0.88114,1.21107 1.8903,2.84999 2.24258,3.64199 0.35227,0.792 1.0696,1.44 1.59406,1.44 0.52447,0 1.8996,0.82067 3.05584,1.82374 1.15625,1.00301 2.96628,2.03347 4.02228,2.28986 1.056,0.25638 2.45271,0.94771 3.1038,1.53625 3.44281,3.1122 10.01469,3.9506 15.6162,1.99213 z m 27.2143,-15.21299 c 1.48814,-1.3481 9.32971,-6.43392 17.42571,-11.30195 8.096,-4.86797 15.296,-9.309 16,-9.869 0.704,-0.55993 2.576,-1.66861 4.16,-2.46381 3.05947,-1.5358 12.98645,-8.78854 13.31537,-9.72825 0.32303,-0.92295 -20.96234,-13.89492 -26.15992,-15.94272 -0.8555,-0.33703 -2.54741,-1.35764 -3.75979,-2.26804 -1.21239,-0.9104 -2.47962,-1.65523 -2.81607,-1.65523 -0.33645,0 -2.8005,1.39667 -5.47567,3.10375 -5.24538,3.34713 -19.50775,10.80332 -29.82393,15.59161 -3.52,1.6338 -9.25593,4.32877 -12.74653,5.9888 l -6.34653,3.01818 3.19283,2.94886 c 1.75607,1.62183 5.61627,5.1088 8.57824,7.74881 2.96198,2.64 6.82914,6.13196 8.5937,7.76 3.72619,3.43776 11.77246,9.52 12.59419,9.52 0.30949,0 1.78027,-1.10298 3.2684,-2.45101 z m -6.30292,-17.229 c -8.8457,-7.58451 -9.59374,-8.35884 -8.82491,-9.13529 1.02614,-1.03629 3.69522,0.46221 9.3602,5.2551 5.19956,4.39911 6.23334,5.51405 6.23334,6.7225 0,1.79571 -2.66404,0.67706 -6.76863,-2.84231 z m 5.4685,-7.60614 c -4.08629,-3.42842 -5.62212,-5.08762 -5.14816,-5.5616 0.47396,-0.47392 1.2979,-0.34842 2.76188,0.42074 4.74713,2.49408 10.72641,7.51788 10.72641,9.01241 0,2.11482 -2.69774,0.86253 -8.34013,-3.87155 z m 11.83215,-6.42816 c -3.47229,-3.61376 -4.1007,-4.87398 -2.82388,-5.6631 0.83318,-0.51495 2.59369,0.62502 6.6792,4.3248 2.78999,2.52652 3.07942,3.01644 2.32163,3.92947 -1.4086,1.69728 -2.49381,1.24205 -6.17695,-2.59117 z m 6.74463,-4.09946 c -3.94711,-3.2848 -4.71184,-5.13856 -2.3106,-5.60096 1.30011,-0.25037 8.71395,6.58554 8.71395,8.03469 0,1.70579 -2.63066,0.70592 -6.40335,-2.43373 z M 158.13948,477.35721 c -0.62161,-0.39353 -0.95424,-2.12487 -1.074,-5.5902 -0.0954,-2.76106 -0.47669,-10.06011 -0.84726,-16.22011 -0.84868,-14.10729 -0.87772,-31.20579 -0.0773,-45.52901 1.44305,-25.82407 2.09461,-51.96481 2.26296,-90.791 0.11437,-26.37662 0.45476,-43.82167 0.94281,-48.32 1.10108,-10.14838 1.70464,-31.77782 1.18764,-42.56001 -0.79117,-16.49983 -0.78264,-34.56766 0.0167,-35.36702 0.42659,-0.42658 3.58274,-0.81193 7.60897,-0.92902 3.78401,-0.11004 7.74402,-0.43238 8.80002,-0.71631 l 1.92,-0.51623 0.32,-8.70498 c 0.176,-4.78773 0.5348,-8.9186 0.79733,-9.17971 0.26254,-0.2611 4.58254,-0.49994 9.6,-0.53073 l 9.12268,-0.056 -0.0528,-9.18634 -0.0528,-9.18634 2.29278,0.46049 c 4.18262,0.84005 46.18546,0.81586 63.18658,-0.0364 23.52456,-1.17927 85.14506,-1.60522 123.09642,-0.85091 l 20.15023,0.4005 0.55226,2.1595 c 0.81581,3.19 1.01565,57.61733 0.25115,68.3995 -0.78213,11.03077 -1.14869,22.9394 -1.04409,33.92001 0.0419,4.4 0.0451,8.576 0.007,9.28 -0.51194,9.49135 -0.89077,91.81816 -0.42896,93.22232 0.15515,0.47173 0.44359,12.37769 0.64098,26.45769 0.19739,14.08 0.5475,30.5919 0.77803,36.69312 0.4151,10.98641 -0.84621,11.86699 0.6928,12.45212 -3.18403,2.2841 -6.15347,1.4585 -7.24485,1.46564 -5.77992,0.0308 -10.49142,0.36587 -11.94443,0.84946 l -2.3995,0.79859 0.0701,7.15054 c 0.0385,3.93279 0.32025,7.62429 0.62605,8.20333 -3.35536,2.65723 -0.76812,2.29605 -9.09755,2.09696 C 368.13932,456.84185 368,456.95131 368,465.58128 c 0,5.10789 0.18896,6.28506 1.12,6.97759 -1.73775,5.07876 0.19851,3.46487 -5.32257,4.8227 -5.07326,0.16047 -5.71704,0.69285 -17.55743,-0.11684 -6.864,-0.46939 -19.824,-0.83793 -28.8,-0.819 -8.976,0.0189 -46.03102,0.10598 -82.3445,0.19343 -36.31347,0.0875 -67.16491,-0.0337 -68.55876,-0.26915 -1.70981,-0.28888 -3.31485,-0.10202 -4.93367,0.57437 -2.8028,1.17108 -2.35093,1.11722 -3.46359,0.41283 z M 363.2,474.2123 l 1.92,-0.51278 0.34549,-6.99631 c 0.47164,-9.55101 0.10381,-68.59846 -0.59576,-95.63631 -0.74895,-28.94645 -0.44059,-93.41466 0.49591,-103.68001 0.40141,-4.4 1.06016,-12.75201 1.46389,-18.56001 0.40372,-5.808 0.86509,-12.432 1.02526,-14.72 0.43771,-6.25267 0.58898,-23.7265 0.2735,-31.59264 l -0.27884,-6.95263 -7.83556,0.45193 c -11.7903,0.68004 -69.82688,0.50297 -79.69389,-0.24315 -25.02489,-1.89232 -43.91818,-2.66285 -64.64,-2.6362 -23.68582,0.0305 -36.36971,0.40445 -41.92,1.23607 -2.464,0.3692 -6.01657,0.67697 -7.8946,0.68394 l -3.41461,0.0127 0.45289,4.96 c 0.2491,2.728 0.71849,5.46902 1.04309,6.09115 0.40397,0.77424 0.29282,1.55571 -0.35227,2.47671 -0.80402,1.1479 -0.89203,4.78921 -0.59915,24.78885 0.29032,19.82442 0.17018,24.92523 -0.77825,33.0433 -0.93353,7.99053 -1.1635,16.89624 -1.37178,53.12 -0.2433,42.31575 -0.78111,64.48525 -2.11592,87.22154 -0.79214,13.49288 -0.81582,43.06997 -0.043,53.70033 0.35662,4.90542 0.93743,8.46941 1.56447,9.6 0.5485,0.98898 1.18763,2.32354 1.42028,2.96567 0.29105,0.80334 0.84502,1.06203 1.77592,0.82932 1.80448,-0.45108 10.87432,-0.39255 51.91293,0.33503 19.008,0.33699 46.512,0.40765 61.12,0.15702 36.71184,-0.62988 54.67406,-0.58144 63.68,0.17177 8.20801,0.68647 19.88758,0.52665 23.04,-0.31527 z M 262.75024,430.51566 c -8.08679,-1.17839 -11.91718,-3.24823 -18.14612,-9.80568 -5.6513,-5.94935 -8.94307,-12.31088 -9.50251,-18.36411 -0.81096,-8.77477 2.48589,-21.741 7.14007,-28.08126 4.21814,-5.74625 18.77265,-15.12847 28.15832,-18.15158 5.14892,-1.65846 14.24955,-3.03668 20.80859,-3.15129 5.16871,-0.0903 6.4257,0.0966 8.32,1.23716 1.22727,0.73896 3.09541,1.54563 4.15141,1.79258 5.12832,1.19932 15.8341,8.11333 19.6114,12.66543 4.81723,5.80536 8.8178,12.44539 10.46818,17.3748 1.92483,5.74912 3.26428,15.10842 2.63912,18.44075 -1.58221,8.43392 -16.00899,18.2715 -33.0387,22.52897 -14.4656,3.61645 -30.4285,4.99783 -40.60976,3.51423 z m 29.66194,-3.71455 c 18.40438,-3.27205 27.87314,-7.12107 35.98912,-14.62947 6.4531,-5.97 7.39977,-9.66257 5.13462,-20.02803 -1.44511,-6.61293 -3.08586,-10.42704 -7.00188,-16.27671 -3.75507,-5.60923 -8.53799,-10.38288 -12.6473,-12.62278 -7.78634,-4.24417 -9.15882,-4.83247 -12.98658,-5.56658 -4.02259,-0.77146 -14.87961,-1.57573 -19.41445,-1.43819 -14.48601,0.43937 -35.89431,13.54008 -40.44819,24.75207 -3.59274,8.84558 -4.59967,20.24226 -2.3629,26.74357 2.64412,7.68528 10.08252,15.96134 16.51019,18.36945 1.83964,0.68922 5.15164,1.5307 7.36,1.86996 6.00829,0.92302 21.49897,0.3145 29.86737,-1.17329 z M 278.4,412.32293 c 0,-0.54118 1.44,-4.01434 3.2,-7.71812 1.76,-3.70378 3.2,-6.861 3.2,-7.01603 0,-0.15503 -0.97273,-0.28188 -2.16163,-0.28188 -1.1889,0 -2.47805,-0.38126 -2.86477,-0.84723 -1.14018,-1.37384 0.45138,-2.35277 3.82516,-2.35277 h 3.02274 l 3.24926,-6.17202 c 1.78708,-3.39461 3.24924,-6.44519 3.24924,-6.77906 0,-0.33386 0.58427,-1.34979 1.29836,-2.25762 0.71409,-0.90783 1.07409,-1.86124 0.8,-2.1187 -0.27409,-0.25747 -4.26471,-0.77652 -8.86803,-1.15346 -12.66757,-1.03726 -16.96388,-2.20159 -15.07898,-4.08649 0.50109,-0.50109 1.55117,-0.48867 3.75224,0.0444 1.68103,0.40712 7.62327,1.09019 13.20499,1.51794 7.42502,0.56901 10.23853,1.01218 10.4838,1.65133 0.18438,0.48048 -1.71848,4.89486 -4.22857,9.80974 -2.5101,4.91485 -4.56381,9.21138 -4.56381,9.54782 0,0.33645 0.73441,0.79604 1.63202,1.02133 1.05939,0.26589 1.5567,0.77542 1.41737,1.45219 -0.16127,0.78326 -0.81051,0.99534 -2.61017,0.85262 l -2.3955,-0.18996 -3.78958,8.02996 c -2.45295,5.19772 -4.13956,8.02997 -4.78185,8.02997 -0.54576,0 -0.99229,-0.44279 -0.99229,-0.98397 z m 29.27221,-4.29603 c -1.4733,-1.11992 -5.59221,-8.16301 -5.59221,-9.56235 0,-1.74978 2.35274,-1.42894 3.61173,0.49252 1.28614,1.9629 1.7925,1.35435 2.43812,-2.93017 0.86162,-5.71795 2.99361,-15.05286 3.57037,-15.63288 0.36122,-0.36327 1.09111,-0.13896 1.88466,0.57919 1.0758,0.97358 1.29512,1.9666 1.29512,5.8637 0,2.58039 -0.34525,5.98249 -0.76723,7.56023 -0.79864,2.98603 -0.39657,4.32956 0.9059,3.02709 0.41653,-0.41653 1.27573,-0.75733 1.90933,-0.75733 1.83554,0 1.37364,2.17361 -1.088,5.12 -1.232,1.4746 -2.24,3.08585 -2.24,3.58055 0,1.27757 -2.34474,3.45945 -3.71767,3.45945 -0.63673,0 -1.63127,-0.36 -2.21012,-0.8 z m 3.65723,-137.21347 c -1.66691,-1.79863 -2.09445,-5.08969 -0.94115,-7.24464 0.48141,-0.89954 0.36921,-1.28066 -0.48,-1.63046 -2.08063,-0.857 -6.22548,-0.80974 -7.97745,0.091 -1.58449,0.8146 -1.87162,0.77681 -3.04975,-0.40132 -0.96576,-0.96576 -1.19032,-1.75116 -0.87229,-3.05083 0.75484,-3.08473 2.7912,-3.36135 2.7912,-0.37915 0,2.09035 1.21314,1.70641 2.88,-0.91149 1.60843,-2.52612 3.52,-2.73972 3.52,-0.39332 v 1.6663 l 2.19795,-1.92982 c 2.91149,-2.55632 4.49587,-2.99816 6.27533,-1.75002 1.22944,0.86234 1.45286,1.61344 1.48755,5.00099 0.0225,2.19244 0.27543,5.47174 0.56217,7.28733 0.51272,3.24653 0.48878,3.31791 -1.44904,4.32 -2.64098,1.3657 -3.11342,1.30125 -4.94452,-0.67453 z m 4.43687,-3.93215 c -0.90659,-3.88033 -3.44631,-4.28169 -3.44631,-0.54462 0,2.63026 1.04952,3.77862 2.66382,2.91467 0.89428,-0.47861 1.08761,-1.06414 0.78249,-2.37005 z m -2.7725,-8.7744 c -0.0502,-0.94994 -1.482,-0.77542 -1.81418,0.22113 -0.17944,0.53831 0.11314,0.77823 0.78047,0.64 0.58714,-0.12162 1.0523,-0.50912 1.03371,-0.86113 z M 224.64,262.26689 c -1.866,-1.86601 -1.6119,-4.08694 0.68911,-6.02312 2.37859,-2.00145 3.22627,-2.06158 4.78479,-0.33942 1.38326,1.52847 0.80641,2.99304 -1.67394,4.24997 -1.10819,0.56158 -1.26301,0.84553 -0.57718,1.05859 2.86882,0.89128 3.22374,1.10094 2.86002,1.68946 -0.70716,1.1442 -4.72262,0.72469 -6.0828,-0.63548 z m 10.78464,0.19104 c -1.70615,-1.98381 -1.86258,-2.60754 -1.08304,-4.31843 1.14988,-2.52373 5.0184,-3.04742 5.0184,-0.67935 0,0.48273 -0.648,0.96974 -1.44,1.08222 -2.4771,0.3518 -1.72565,2.10098 0.99904,2.32548 1.88366,0.1552 2.39251,0.44666 2.23468,1.28 -0.3003,1.58561 -4.43941,1.80964 -5.72908,0.31008 z m 28.69536,0.0357 c -0.242,-0.24203 -0.44,-1.20214 -0.44,-2.13363 0,-3.24953 5.79269,-6.96497 8.00127,-5.13202 1.20845,1.00293 0.64678,1.91895 -1.17663,1.91895 -2.10281,0 -4.15348,1.70202 -4.3828,3.63764 -0.20204,1.70537 -1.17492,2.53595 -2.00184,1.70903 z m -48.12471,-2.679 c -2.62663,-3.96914 -3.73248,-9.0677 -1.96672,-9.0677 0.52,0 1.35612,1.34747 1.95507,3.15075 1.66108,5.00103 2.5127,5.22641 4.60288,1.21812 0.97769,-1.87488 2.13179,-4.20087 2.56466,-5.16887 0.43287,-0.968 1.07194,-1.76 1.42016,-1.76 1.32338,0 1.39222,1.37892 0.16831,3.37168 -0.69868,1.13758 -2.04555,4.01232 -2.99304,6.38832 -2.05066,5.14237 -3.31296,5.55228 -5.75132,1.86767 z m 31.35637,0.90217 c -0.87541,-0.87544 -1.59166,-2.00596 -1.59166,-2.5123 0,-0.50634 -0.432,-1.08639 -0.96,-1.28901 -1.39318,-0.53461 -1.18023,-2.32856 0.27643,-2.32856 0.68002,0 1.85164,-0.864 2.60357,-1.92 1.6658,-2.33939 2.56,-2.45117 2.56,-0.32 0,1.0287 0.35954,1.6 1.00693,1.6 1.61497,0 0.77334,2.13974 -1.00693,2.56 -0.8763,0.20687 -1.68791,0.8675 -1.80356,1.46807 -0.16339,0.84842 0.25364,1.09194 1.87003,1.09194 1.55031,0 2.50881,-0.51327 3.7622,-2.01463 1.51091,-1.80983 1.92226,-1.96953 4.04661,-1.571 1.93492,0.36299 2.36472,0.71882 2.36472,1.95773 0,1.71417 -3.28324,4.8279 -5.09074,4.8279 -0.63389,0 -1.50476,-0.42442 -1.93527,-0.94315 -0.68908,-0.83029 -1.00577,-0.82781 -2.6467,0.0207 -1.76379,0.91208 -1.94952,0.87834 -3.45563,-0.62777 z m 9.76825,-2.66326 c -0.60988,-0.60989 -1.83263,0.37798 -1.37811,1.11341 0.27016,0.43712 0.62814,0.42608 1.08777,-0.0335 0.37681,-0.3768 0.50746,-0.86274 0.29034,-1.07985 z m 36.87552,1.71809 c 0.40651,-2.54216 0.36413,-2.62436 -1.34786,-2.61487 -2.35621,0.0131 -3.19354,0.62968 -3.46304,2.5502 -0.15415,1.09849 -0.62573,1.6 -1.50453,1.6 -1.07442,0 -1.24504,-0.35411 -1.06234,-2.20484 0.52867,-5.35531 3.94234,-10.97369 3.94234,-6.48849 0,2.12608 0.69748,2.40645 3.41561,1.37302 0.98995,-0.37637 1.85958,-1.45069 2.33129,-2.88 0.76876,-2.32935 1.72257,-2.93302 2.29154,-1.45031 0.17505,0.45617 -0.36601,3.40817 -1.20235,6.56 -1.13176,4.26517 -1.81467,5.78807 -2.67049,5.95529 -1.00791,0.19694 -1.09806,-0.0994 -0.73017,-2.4 z m 26.48457,1.16404 c -2.41098,-1.40427 -0.69073,-7.03124 2.1304,-6.96851 1.47355,0.0328 4.58856,3.12241 4.19143,4.15731 -0.32209,0.83937 -4.08617,3.52305 -4.88183,3.48061 -0.176,-0.009 -0.824,-0.31062 -1.44,-0.66941 z m -59.87018,-13.55231 c -1.47724,-1.77997 -1.51023,-4.22962 -0.10871,-8.07341 2.641,-7.2432 8.27404,-11.71129 8.81835,-6.99467 0.24578,2.12978 -0.86989,4.35165 -2.1851,4.35165 -0.68936,0 -0.85995,-0.38016 -0.57436,-1.28 0.6338,-1.99689 -0.49307,-1.49103 -2.05659,0.92324 -2.18259,3.37019 -2.46956,5.23173 -0.87093,5.64977 1.69067,0.44212 1.71922,1.7644 0.0476,2.20155 -0.90666,0.2371 -1.28,0.87298 -1.28,2.18009 0,1.95985 -0.69337,2.36335 -1.79018,1.04178 z m -11.94658,-1.99501 c -1.94861,-1.9486 -1.95892,-2.08303 -0.3607,-4.70424 1.70638,-2.79861 4.08878,-3.34424 6.14942,-1.40837 1.29071,1.21257 3.46804,4.6449 3.46804,5.467 0,0.49951 -2.48199,1.41563 -4.93676,1.8222 -2.3562,0.39024 -2.90175,0.24166 -4.32,-1.17659 z m 4.01927,-3.12689 c 0.14278,-1.23699 -0.0866,-1.75453 -0.77748,-1.75453 -1.14728,0 -2.2637,1.87181 -1.83373,3.07445 0.52518,1.46893 2.39862,0.52194 2.61121,-1.31992 z m 87.04613,-13.71695 c -3.00061,-1.8849 -3.80746,-4.90555 -2.0335,-7.61296 1.37111,-2.09257 0.28369,-3.56895 -1.71111,-2.32317 -1.24667,0.77856 -1.5557,0.71216 -4.98167,-1.07046 -1.23259,-0.64134 -1.81635,-0.56085 -3.52,0.48538 -1.5699,0.96409 -2.74559,1.1736 -5.08236,0.90569 -2.75653,-0.31603 -3.04214,-0.50488 -3.06301,-2.02529 l -0.023,-1.67677 -1.44102,1.76 c -1.95895,2.39259 -2.99293,2.23982 -2.99293,-0.44223 0,-2.37876 0.32005,-2.73181 3.23402,-3.56752 1.56045,-0.44754 2.1446,-0.29915 3.17462,0.80647 l 1.2623,1.35492 1.5691,-1.4741 c 1.1459,-1.07651 2.00313,-1.36516 3.17835,-1.07019 1.44328,0.36224 1.67782,0.14926 2.27407,-2.06506 0.94373,-3.50473 3.32127,-6.78354 5.10433,-7.03922 1.45813,-0.2091 1.49757,-0.10579 1.09123,2.85875 -0.23186,1.69163 -1.13852,4.15907 -2.01479,5.48321 -2.1627,3.26807 -2.00864,4.35244 0.30363,2.13714 1.58652,-1.51999 2.05762,-1.68389 2.87943,-1.00186 0.7826,0.64951 1.36679,0.65631 2.87061,0.0334 1.03844,-0.43013 2.2627,-0.65309 2.72058,-0.49547 0.45789,0.15762 1.83538,-0.3895 3.06109,-1.21583 2.59076,-1.74659 4.01209,-1.89113 5.14717,-0.52346 0.62123,0.74855 0.64291,1.35108 0.0921,2.56 -0.56758,1.24571 -1.1984,1.58105 -2.97409,1.58105 -2.43693,0 -3.07764,1.18438 -0.94274,1.74267 0.78217,0.20454 1.22406,0.76124 1.09548,1.38008 -0.20636,0.99321 -0.95459,1.14884 -3.04647,0.63368 -0.79658,-0.19618 -0.96,0.68961 -0.96,5.20357 0,4.96123 -0.11265,5.45376 -1.28,5.59631 -0.704,0.086 -2.05011,-0.32745 -2.99136,-0.91872 z m 2.16206,-4.74384 c -0.21361,-3.16878 -0.88122,-4.22287 -1.89837,-2.99728 -1.36472,1.64438 -1.57384,4.1106 -0.44433,5.24011 1.69678,1.69678 2.553,0.87706 2.3427,-2.24283 z M 326.72,215.54688 c 0.21755,-0.352 0.10754,-0.64 -0.24446,-0.64 -0.352,0 -0.81799,0.288 -1.03554,0.64 -0.21754,0.352 -0.10754,0.64 0.24446,0.64 0.352,0 0.818,-0.288 1.03554,-0.64 z m -121.22171,9.34205 c -1.70931,-1.81948 -1.53479,-3.626 0.61426,-6.35806 1.60774,-2.04391 4.11006,-2.25026 5.08974,-0.41971 0.56331,1.05255 0.39941,1.57221 -0.90839,2.88 -0.87764,0.87765 -1.89681,1.59572 -2.26481,1.59572 -1.21117,0 -0.69738,1.12332 0.67834,1.48307 0.74108,0.1938 1.22252,0.73139 1.06987,1.19465 -0.48497,1.47171 -2.72852,1.27474 -4.27901,-0.37567 z m -11.5035,0.17435 c -1.45307,-0.55084 -1.51005,-0.79031 -1.20443,-5.0617 0.29834,-4.16959 -0.15451,-6.00129 -1.10391,-4.46514 -0.22109,0.35774 -0.83702,0.65044 -1.36873,0.65044 -1.66832,0 -0.75033,-2.78679 1.13553,-3.44719 3.25242,-1.13895 10.78675,4.1911 10.78675,7.63094 0,2.54297 -5.56338,5.7093 -8.24521,4.69265 z m 4.44729,-3.13891 c 1.63645,-0.87581 1.56221,-2.0891 -0.25725,-4.20436 -1.94346,-2.2594 -2.98483,-1.55303 -2.98483,2.02464 0,3.02988 0.73287,3.5226 3.24208,2.17972 z m 28.384,1.85526 c -0.24721,-0.39999 -0.5905,-2.69834 -0.76287,-5.10743 -0.26769,-3.74133 -0.15181,-4.44219 0.79451,-4.80533 0.80205,-0.30777 1.77939,0.35133 3.54019,2.38744 l 2.43228,2.81257 0.41933,-2.56 c 0.55764,-3.40436 1.04423,-4.2169 3.54518,-5.92 2.60432,-1.7735 4.19241,-1.80889 6.90679,-0.15394 3.71485,2.26492 3.48258,4.80842 -0.56286,6.16394 -1.89809,0.636 -2.17863,1.00549 -2.17863,2.86939 0,1.46693 -0.32753,2.20304 -1.04202,2.34191 -0.84294,0.16383 -1.12779,-0.59839 -1.49094,-3.98939 -0.2469,-2.30555 -0.65639,-4.19191 -0.90997,-4.19191 -1.23525,0 -1.99707,1.84999 -1.99707,4.84964 0,2.26747 -0.32582,3.58404 -1.03202,4.17014 -0.89125,0.73967 -1.28289,0.57575 -2.87099,-1.20163 -2.20385,-2.46655 -2.49699,-2.52647 -2.49699,-0.51049 0,2.99555 -1.2459,4.54082 -2.29392,2.84509 z m 16.69224,-10.15003 c 0.41293,-0.66813 -2.63948,-2.37489 -3.21608,-1.79828 -0.18281,0.18279 -0.15077,0.80558 0.0712,1.38396 0.44265,1.15353 2.519,1.42708 3.14491,0.41432 z m 14.30692,9.80421 c -0.0521,-0.64181 -0.12411,-1.67985 -0.16,-2.30675 -0.0359,-0.6269 -0.4672,-1.38984 -0.9585,-1.69541 -1.08997,-0.67794 -0.4706,-2.60477 0.83729,-2.60477 0.53494,0 1.68456,-1.64975 2.6523,-3.80616 2.09354,-4.66501 3.74283,-6.34567 5.28114,-5.38157 1.38161,0.86589 1.74011,3.20982 0.68534,4.48075 -0.72982,0.87937 -0.89812,0.86953 -1.60245,-0.0937 -0.70731,-0.9673 -0.88893,-0.87916 -1.79368,0.87043 -1.25977,2.43613 -1.27189,3.29026 -0.0467,3.29026 1.52164,0 1.11532,1.64377 -0.59945,2.42508 -1.18456,0.53972 -1.60765,1.29393 -1.76,3.1374 -0.14076,1.70338 -0.53443,2.49015 -1.32055,2.63913 -0.71214,0.13496 -1.15451,-0.21271 -1.21476,-0.95468 z m 6.97032,-1.86471 c -0.86802,-0.86801 -0.52813,-4.10222 0.43111,-4.10222 0.49866,0 1.03516,0.36 1.19221,0.8 0.19819,0.55527 0.76744,0.35769 1.86081,-0.64585 1.86266,-1.70963 2.44031,-1.34212 2.44031,1.55252 0,1.38343 -0.30933,2.13333 -0.88,2.13333 -0.484,0 -1.71,0.166 -2.72444,0.36889 -1.01444,0.20289 -2.05844,0.15489 -2.32,-0.10667 z m 22.49096,-0.42222 c -0.0405,-0.088 -0.16154,-1.68034 -0.26917,-3.53855 -0.17244,-2.97722 -0.0122,-3.49877 1.34882,-4.39055 0.95658,-0.62678 2.15534,-0.85869 3.14917,-0.60925 0.92658,0.23255 1.60466,0.12714 1.60466,-0.24946 0,-0.3587 0.84935,-0.65219 1.88743,-0.65219 1.40496,0 2.32417,-0.57259 3.59597,-2.24 0.93969,-1.232 1.96234,-2.24 2.27257,-2.24 0.82393,0 0.68935,2.17869 -0.18884,3.05688 -0.57717,0.57717 -0.48473,1.04918 0.39612,2.02251 1.14267,1.26263 1.16038,1.26095 3.21328,-0.30488 2.71,-2.06701 8.24738,-2.26783 9.28096,-0.33658 1.10697,2.06839 0.7516,3.70982 -1.09749,5.06925 -1.73271,1.27386 -1.74015,1.30876 -0.48,2.25029 1.02057,0.76252 1.11915,1.11946 0.48641,1.76104 -0.63685,0.64575 -1.24156,0.59105 -3.06171,-0.27691 -1.24747,-0.59488 -2.99729,-1.0816 -3.88849,-1.0816 -0.8912,0 -2.20138,-0.31096 -2.91152,-0.69101 -0.99802,-0.53413 -1.5448,-0.46147 -2.40832,0.32 -2.27714,2.06078 -4.53637,0.55063 -4.53637,-3.03227 0,-1.9998 -1.6157,-2.40424 -4.23954,-1.06122 -1.80233,0.92252 -1.91279,1.14209 -1.12,2.22631 1.17279,1.60387 1.11333,3.29154 -0.1328,3.76972 -1.01623,0.38996 -2.76377,0.52759 -2.90114,0.22847 z m 14.15348,-5.6 c 0,-1.46236 -0.24143,-1.53834 -1.96207,-0.61748 -1.72899,0.92533 -1.54348,1.89748 0.36207,1.89748 1.17333,0 1.6,-0.34133 1.6,-1.28 z m 6.26039,0.11076 c 0.19671,-0.59855 -0.24645,-0.78748 -1.50128,-0.64 -0.97922,0.11508 -1.90599,0.5914 -2.0595,1.05848 -0.19671,0.59855 0.24646,0.78748 1.50129,0.64 0.97921,-0.11508 1.90599,-0.5914 2.05949,-1.05848 z M 312,214.26688 c 0.21755,-0.352 0.0906,-0.64 -0.28222,-0.64 -0.37278,0 -0.67778,0.288 -0.67778,0.64 0,0.352 0.12701,0.64 0.28223,0.64 0.15523,0 0.46023,-0.288 0.67777,-0.64 z m -36.8,5.93865 c -0.88,-0.15787 -1.8201,-0.49715 -2.08912,-0.75396 -0.68915,-0.65789 1.3936,-9.46188 2.44476,-10.33427 1.49802,-1.24325 2.07526,-0.15297 1.35255,2.55466 -0.37502,1.40502 -0.55278,2.67353 -0.39502,2.8189 0.15776,0.14537 1.19461,0.1259 2.30411,-0.0433 1.66557,-0.25395 2.19535,-0.77074 3.03865,-2.96415 1.44391,-3.75557 3.76546,-6.48949 5.08174,-5.98439 1.76649,0.67787 1.25906,3.78581 -1.17767,7.21313 -1.30415,1.83432 -2.24,3.91576 -2.24,4.98204 0,1.64155 -0.1685,1.78913 -1.62532,1.42349 -1.01376,-0.25443 -2.15102,-0.0397 -3.02241,0.57062 -0.76839,0.53821 -1.54899,0.93933 -1.73467,0.8914 -0.18568,-0.0479 -1.0576,-0.21633 -1.9376,-0.3742 z m -26.08,-1.86857 c -0.44,-0.18521 -0.8,-0.74475 -0.8,-1.24341 0,-0.63383 0.78448,-0.90667 2.60693,-0.90667 2.13703,0 2.56864,0.20188 2.39453,1.12 -0.21189,1.11729 -2.60209,1.7033 -4.20146,1.03008 z m 88.56927,-8.99414 c -0.72075,-0.72077 -0.43897,-1.47594 0.55073,-1.47594 0.528,0 0.96,0.271 0.96,0.60223 0,0.80703 -0.99941,1.38502 -1.51073,0.87371 z m 43.52055,244.93282 3.28981,-0.009 0.0789,-14.88 c 0.0434,-8.184 0.21141,-17.472 0.37339,-20.64 0.8802,-17.21538 0.98565,-53.69016 0.21279,-73.60001 -1.10378,-28.43469 -0.94485,-63.51786 0.34823,-76.86527 0.64271,-6.63427 1.11258,-20.75291 1.35032,-40.57474 0.20053,-16.72 0.66784,-35.2505 1.03845,-41.1789 0.37062,-5.92839 0.51574,-10.93701 0.32249,-11.13026 -0.33394,-0.33394 -4.36391,-0.39087 -17.34418,-0.24498 -3.168,0.0356 -11.52,-0.28391 -18.56,-0.71003 -17.38105,-1.05203 -97.52506,-0.97052 -105.92,0.10773 -4.07204,0.52301 -15.61593,0.75989 -34.9544,0.71725 l -28.87441,-0.0637 -0.39855,2.41143 c -0.50626,3.06315 -0.51266,9.65304 -0.0112,11.52404 l 0.38397,1.43261 25.04729,-0.0394 c 26.13198,-0.0411 47.73971,0.69241 68.88729,2.33849 8.94204,0.69603 21.96501,0.97257 45.9379,0.97548 32.54522,0.004 43.5731,-0.32954 45.61658,-1.3795 0.54697,-0.28105 1.41097,-0.25337 1.92,0.0615 0.78048,0.48277 0.89745,3.55996 0.7464,19.63534 -0.0985,10.48458 -0.51411,21.65487 -0.92355,24.82287 -0.40942,3.168 -0.79317,7.488 -0.85275,9.6 -0.0596,2.112 -0.33635,7.23206 -0.61502,11.37792 -0.39006,5.80301 -0.3909,7.74931 -0.5686,9.11378 -0.38144,2.92881 -0.38144,3.10987 -0.38144,3.10987 -0.22248,1.70823 -0.33746,2.73846 -0.63952,29.10517 -0.176,15.3633 -0.176,31.38927 0,35.61327 0.3194,13.63652 0.45709,4.40219 0.11349,16.32 -0.11358,4.048 -0.0107,12.04553 0.22867,17.77229 0.10295,15.30763 0.46678,17.3065 0.6364,29.97441 0.54447,17.46354 0.36375,27.92233 0.35961,38.48049 v 16.75068 l 3.65091,0.24192 c 2.008,0.13306 4.22691,0.15097 4.93091,0.0398 0.704,-0.11116 2.76042,-0.20605 4.56981,-0.21085 z m 24.33189,-19.41711 c 0.16667,-0.16667 -0.0224,-15.23597 -0.42016,-33.48734 -0.79823,-36.62775 -1.3803,-90.16015 -1.35594,-124.7043 0.0146,-20.70755 0.2478,-26.93037 1.97867,-52.80001 0.8071,-12.06298 0.56193,-65.63387 -0.30428,-66.48564 -0.67219,-0.66101 -36.30746,-1.67436 -58.88,-1.67436 -24.76476,0 -75.64435,0.94721 -86.72,1.61444 -6.16,0.3711 -21.856,0.60766 -34.88,0.5257 l -23.68,-0.14902 -0.0337,4.76443 c -0.0186,2.62045 0.0909,5.98845 0.24324,7.48445 l 0.27696,2.72 19.59676,-0.0281 c 10.77823,-0.0155 21.75677,-0.29707 24.39677,-0.6258 9.27593,-1.15502 65.3439,-1.49739 90.56,-0.55298 25.01058,0.93672 38.32527,1.09293 48.32,0.56688 l 6.08,-0.32 0.33464,2.56 c 0.18405,1.408 -0.0333,7.168 -0.48308,12.80001 -0.44975,5.632 -0.95269,21.904 -1.11764,36.16 -0.37583,32.48224 -0.69523,40.42058 -2.05534,51.08242 -0.78753,6.17342 -0.90608,9.0022 -0.43012,10.26316 0.43346,1.14836 0.45667,3.47524 0.0682,6.83759 -0.62582,5.41685 -0.27054,31.20148 0.81537,59.17684 0.6181,15.92376 0.56843,24.06921 -0.4126,67.65923 l -0.39204,17.41923 9.09564,-0.25189 c 5.0026,-0.13854 9.232,-0.38826 9.39867,-0.55493 z"
     id="path144"
     inkscape:connector-curvature="0"
     sodipodi:nodetypes="cccscsscccccccscscccssccccssccccccssscsccsccscccscccccccccccccssccscsccccssscccccccccsscscsccccscssccscccccccccccsccssccsscscccccccccscccsccssscscsccccccccccccscscccccscccscccccsccccsssccccccsccscccccccccsscccccsccccsssccccccsccccccscccccccsccsccccccccccccsscscccccccccscscscsccccsccccccccccccscccccccscscssscccsccccccscssccccscsccccscccccsssccscccsccccccccsccscccccccssscssccscccccccssssssccsssccsssssccccccssssscsccsscsscssscsccssccscsccscccccscccssscssssscsscccccscscscccccccccsccccsccccscccccssccccscsscccsccsscccccscscssccsscssccccccccccccscscccccccccccccsscsccscccccscccscccccccccccsccccccccscccccccscccscccccsccscscccccscccsscssssccsccscccsccssccssccscccccccccscscccsccscccsccssscccscsscsscccccccsccsccscssssccccccssscccccscccssccccccsscccsscccscscscscsccccccssccccccsssscccccccccccssscssscccccssccccssccsscscc" />
</svg>
