<?xml version="1.0" encoding="UTF-8" standalone="no"?>
<!-- Created with Inkscape (http://www.inkscape.org/) -->

<svg
   xmlns:dc="http://purl.org/dc/elements/1.1/"
   xmlns:cc="http://creativecommons.org/ns#"
   xmlns:rdf="http://www.w3.org/1999/02/22-rdf-syntax-ns#"
   xmlns:svg="http://www.w3.org/2000/svg"
   xmlns="http://www.w3.org/2000/svg"
   xmlns:sodipodi="http://sodipodi.sourceforge.net/DTD/sodipodi-0.dtd"
   xmlns:inkscape="http://www.inkscape.org/namespaces/inkscape"
   version="1.1"
   id="svg964"
   width="816.64001"
   height="1122.5601"
   viewBox="0 0 816.64001 1122.5601"
   sodipodi:docname="Ramboll.svg"
   inkscape:version="0.92.4 (5da689c313, 2019-01-14)">
  <metadata
     id="metadata970">
    <rdf:RDF>
      <cc:Work
         rdf:about="">
        <dc:format>image/svg+xml</dc:format>
        <dc:type
           rdf:resource="http://purl.org/dc/dcmitype/StillImage" />
        <dc:title></dc:title>
      </cc:Work>
    </rdf:RDF>
  </metadata>
  <defs
     id="defs968" />
  <sodipodi:namedview
     pagecolor="#ffffff"
     bordercolor="#666666"
     borderopacity="1"
     objecttolerance="10"
     gridtolerance="10"
     guidetolerance="10"
     inkscape:pageopacity="0"
     inkscape:pageshadow="2"
     inkscape:window-width="1280"
     inkscape:window-height="780"
     id="namedview966"
     showgrid="false"
     inkscape:zoom="1.3807529"
     inkscape:cx="138.24193"
     inkscape:cy="727.88676"
     inkscape:window-x="0"
     inkscape:window-y="0"
     inkscape:window-maximized="1"
     inkscape:current-layer="svg964" />
  <path
     style="fill:#000000;fill-opacity:1;stroke-width:0.64000005"
     d="m 51.811072,381.47119 c -3.55974,-1.76202 -8.24706,-7.56014 -11.78218,-14.57432 -2.71517,-5.38729 -2.71745,-5.39783 -2.83398,-13.12 -0.1294,-8.57496 1.47608,-30.68763 2.37333,-32.68838 0.31571,-0.704 1.03078,-2.91276 1.58905,-4.90835 1.72004,-6.14846 6.52562,-11.10152 12.60628,-12.99316 3.26234,-1.01489 5.03797,-1.07886 16.64,-0.59954 7.14338,0.29513 19.32396,0.4026 27.06796,0.23882 7.743998,-0.16378 16.095998,-0.25138 18.559998,-0.19467 2.464,0.0567 12.688,0.29807 22.72,0.53637 16.40233,0.38961 54.15948,-0.39095 65.28,-1.34955 2.288,-0.19723 4.88,-0.31104 5.76,-0.25292 2.22642,0.14705 3.19102,0.11547 11.36,-0.37188 l 7.2,-0.42954 -0.0204,1.52221 c -0.0112,0.83721 -0.43584,2.07119 -0.94365,2.74216 -0.50781,0.67098 -1.38608,2.83098 -1.95171,4.8 -0.56563,1.96903 -2.13167,5.50544 -3.4801,7.8587 -1.34843,2.35327 -2.64983,4.90296 -2.89201,5.666 -0.24218,0.76304 -1.119,2.38742 -1.94848,3.60974 -1.97446,2.90953 -2.49214,4.65317 -1.63575,5.50956 0.944,0.94399 3.66296,-1.64421 4.67898,-4.45397 0.42361,-1.17149 0.97953,-2.12998 1.23537,-2.12998 0.91317,0 16.67508,-16.01864 19.38772,-19.70349 l 2.76394,-3.75456 8.56302,0.24443 c 4.70967,0.13444 15.33102,0.45195 23.60302,0.70558 10.87659,0.3335 16.54592,0.23936 20.48,-0.34006 7.00359,-1.0315 10.17904,-0.57127 15.64211,2.26708 5.45988,2.83668 7.73457,5.05658 10.4965,10.24366 2.06619,3.88045 2.15187,4.33472 2.53039,13.4169 0.21548,5.17025 0.4051,14.00846 0.42139,19.64046 0.0326,11.2854 0.0919,11.06682 -5.23636,19.30265 -2.17756,3.36581 -7.36964,8.14154 -9.89526,9.10178 -1.34272,0.5105 -4.9158,0.77525 -22.59877,1.67441 -2.816,0.14319 -9.584,0.22305 -15.04,0.17745 -28.84549,-0.24103 -52.0272,-0.11566 -79.68,0.43092 -41.17054,0.81377 -43.37705,0.82099 -58.88,0.19271 -15.40321,-0.62424 -19.24407,1.91895 -50.030758,2.64339 -21.04697,0.49525 -25.32207,-0.64423 -25.32207,-0.64423 -3.45171,1.67095 -3.37845,1.67112 -6.78763,-0.0164 z m 30.111848,-1.5805 c 13.59444,-0.99529 32.34997,-3.19843 40.5002,-2.63455 11.27034,0.77973 41.32102,0.7521 71.04841,-0.0653 35.79045,-0.98416 39.87285,-1.01337 67.2,-0.4808 29.53496,0.57559 44.90622,-0.39437 49.93566,-3.15107 4.89598,-2.68354 7.04554,-5.12031 10.20155,-11.56458 3.32537,-6.79012 3.40293,-7.66206 2.21519,-24.90586 -0.36368,-5.28 -0.77167,-11.535 -0.90664,-13.89999 -0.41068,-7.19601 -4.14302,-12.3313 -12.01386,-16.52977 -2.24268,-1.19628 -4.0454,-1.3123 -26.24001,-1.68864 -41.34296,-0.70103 -39.38289,-0.88012 -42.67095,3.8989 -0.9986,1.45142 -4.3038,5.08257 -7.34487,8.06922 -3.04108,2.98666 -6.25664,6.47522 -7.1457,7.75237 l -1.61646,2.32209 1.33078,3.95037 c 1.83751,5.45458 1.28615,9.02562 -2.40767,15.59406 -3.97693,7.07187 -6.73439,9.66557 -12.00723,11.29418 -5.31167,1.64062 -7.36182,1.65339 -10.47478,0.0653 -5.35147,-2.73012 -7.61139,-8.31675 -6.87203,-16.98807 0.81206,-9.5241 3.91214,-14.96271 10.36627,-18.18606 2.53437,-1.26573 3.66914,-1.44738 7.3822,-1.18171 4.93085,0.3528 4.92905,0.35391 7.90821,-4.86213 2.0226,-3.54126 4.9229,-11.91875 4.4123,-12.74491 -0.18688,-0.30238 -3.55102,-0.36882 -7.47587,-0.14763 -12.14233,0.68431 -47.45373,1.10059 -75.93609,0.89522 -14.96,-0.10787 -29.792,-0.19461 -32.96,-0.19276 -47.618788,0.0278 -51.715058,0.0908 -54.491898,0.83856 -1.68598,0.45399 -3.75524,1.82445 -5.81279,3.84981 -2.79761,2.75383 -3.44719,3.92432 -5.22401,9.41332 -1.68286,5.19874 -2.13363,7.91091 -2.64151,15.89337 -0.33682,5.2937 -0.53504,13.80092 -0.44049,18.90492 l 0.1719,9.28 2.68428,4.82706 c 1.47636,2.65488 4.25227,6.51186 6.16869,8.57107 3.43236,3.6881 3.994063,2.65372 6.25512,3.34558 2.220468,0.67944 1.825542,1.08818 6.929542,0.71449 z m -1.016258,-18.9622 c -1.48672,-1.3412 -6.15513,-9.80168 -6.15513,-11.15486 0,-0.33311 -0.85549,-1.42527 -1.90109,-2.42702 -2.19808,-2.1059 -1.96679,-2.45696 -3.88488,5.89635 -1.05918,4.61278 -1.71382,6.1943 -2.97445,7.18592 -1.73399,1.36395 -2.84701,1.12237 -4.79659,-1.04111 -0.91881,-1.01962 -0.98102,-1.87246 -0.45945,-6.29928 0.33178,-2.816 1.04797,-9.296 1.59153,-14.4 1.49704,-14.05711 1.63223,-14.97834 2.32281,-15.82896 0.8069,-0.9939 18.57879,-0.39885 20.94983,0.70145 0.86224,0.40013 2.11767,1.67194 2.78986,2.82625 2.50438,4.30065 -0.36247,10.95901 -6.49063,15.07473 l -2.71608,1.82414 1.14457,1.78178 c 0.62951,0.97998 1.98631,2.98686 3.01511,4.45972 2.37977,3.40697 2.99848,8.60384 1.32786,11.15351 -1.34719,2.05608 -1.73039,2.08127 -3.76327,0.24738 z m -14.37554,-6.24466 c 0.60622,-1.93344 1.11981,-4.67526 1.14131,-6.09293 0.0421,-2.7748 1.47426,-5.42241 2.93312,-5.42241 1.25561,0 5.30314,3.66601 6.40937,5.80522 0.5049,0.97637 1.38553,3.16562 1.95695,4.865 0.57143,1.69938 1.33088,3.44978 1.68768,3.88978 2.64771,3.26517 3.45904,-3.30588 0.85754,-6.94536 -2.97834,-4.16668 -4.89929,-7.88269 -4.71306,-9.11726 0.12913,-0.856 1.07693,-1.50454 3.04428,-2.08305 3.07991,-0.90568 4.55755,-2.35313 6.41002,-6.27908 1.32322,-2.80431 0.94646,-4.72797 -1.42099,-7.25525 -1.16114,-1.23953 -2.00163,-1.44 -6.03737,-1.44 -4.97842,0 -6.12947,0.84424 -2.75493,2.02061 2.21781,0.77313 3.18752,2.24023 3.1841,4.81732 -0.003,2.31557 -2.05288,5.68079 -3.7269,6.11856 -1.57089,0.4108 -6.85661,-2.0925 -6.76671,-3.2047 0.0352,-0.43548 0.1072,-2.09751 0.16,-3.69338 0.0863,-2.60695 0.32841,-3.03871 2.38485,-4.25204 1.68489,-0.9941 2.06487,-1.49245 1.44,-1.88861 -1.29681,-0.82216 -5.41346,-0.65905 -6.11338,0.24224 -0.6662,0.85787 -1.88246,9.307 -2.70806,18.81241 -0.27958,3.21883 -0.70284,6.16714 -0.94057,6.55181 -0.23774,0.38466 -0.23479,2.44473 0.007,4.57793 0.56699,5.01161 1.98977,5.00091 3.56619,-0.0268 z m 8.86041,-21.11534 c 0.48292,-0.90234 0.48524,-1.65333 0.008,-2.54533 -0.81282,-1.51877 -2.98944,-2.7852 -3.86108,-2.2465 -0.70209,0.43392 -0.86331,4.98196 -0.2001,5.64516 0.8989,0.89893 3.39699,0.37301 4.05331,-0.85333 z m 40.480098,27.81611 c -0.78222,-0.54789 -1.83668,-2.43852 -2.3795,-4.26641 -1.73091,-5.82858 -4.36151,-7.23358 -6.64618,-3.5497 -1.6841,2.71549 -5.16621,5.98805 -6.938808,6.52123 -1.06664,0.32083 -1.65981,0.0326 -2.46646,-1.19848 -0.9233,-1.40915 -0.95987,-2.06131 -0.27995,-4.99183 0.7441,-3.2071 3.654958,-12.98118 6.340768,-21.29092 0.68262,-2.112 1.42146,-4.74614 1.64186,-5.85364 0.57668,-2.8978 2.34281,-4.28785 4.77051,-3.75463 2.46585,0.54159 2.77355,1.1351 4.83638,9.32872 0.9249,3.67375 2.40482,8.69555 3.28871,11.15955 1.69095,4.71381 3.14823,14.81585 2.50625,17.37365 -0.44723,1.78194 -2.5412,2.01603 -4.67358,0.52246 z m 2.59963,-3.09347 c 0.7587,-1.97715 -0.91207,-9.92922 -4.297,-20.45155 -3.40526,-10.58556 -4.87829,-13.543 -6.0825,-12.21197 -0.70393,0.77806 -1.67674,3.63637 -4.22738,12.42088 -1.17536,4.048 -2.73458,9.36977 -3.46493,11.82615 -0.730358,2.45638 -1.327918,5.12038 -1.327918,5.92 0,3.19011 3.192418,0.85179 5.878998,-4.30615 1.46146,-2.80584 1.58003,-2.88047 4.6051,-2.89805 2.23658,-0.013 3.19065,0.25548 3.41122,0.96 0.86942,2.77699 3.03,8.11717 3.56768,8.81805 0.8005,1.04346 1.51762,1.01481 1.93673,-0.0774 z M 108.46261,344.3072 c -1.34691,-0.35696 -2.61267,-1.07571 -2.8128,-1.59724 -0.48682,-1.26866 2.41796,-10.42147 3.30742,-10.42147 1.10033,0 4.25,11.00173 3.43188,11.98751 -0.75811,0.91346 -0.60207,0.91222 -3.9265,0.0312 z m 1.48892,-3.98094 c 0,-0.50722 -0.288,-1.10022 -0.64,-1.31777 -0.352,-0.21755 -0.64,0.19745 -0.64,0.92223 0,0.72477 0.288,1.31777 0.64,1.31777 0.352,0 0.64,-0.415 0.64,-0.92223 z m 41.74224,21.25362 c -1.78283,-2.14818 -2.05726,-4.44762 -1.41084,-11.82143 0.35734,-4.07615 0.80902,-8.16241 1.00375,-9.08058 l 0.35406,-1.66938 -1.37353,1.6 c -4.93163,5.74481 -5.04718,5.84179 -6.21215,5.21345 -0.62894,-0.33923 -1.99603,-2.08302 -3.03798,-3.87511 -1.04195,-1.79209 -2.12195,-3.25834 -2.4,-3.25834 -0.27805,0 -0.54081,2.232 -0.5839,4.96 -0.13367,8.46133 -0.38574,10.61417 -1.62992,13.92 -1.00361,2.66665 -1.50142,3.23438 -2.98674,3.40625 -3.27649,0.37913 -3.30994,0.19613 -3.23919,-17.72038 0.0569,-14.41529 0.20999,-16.88307 1.13475,-18.29443 0.74948,-1.14385 1.63838,-1.63144 2.9742,-1.63144 2.15527,0 3.19602,0.89655 6.96816,6.00273 1.46161,1.9785 3.0174,3.59727 3.45732,3.59727 0.43991,0 2.51882,-1.75728 4.6198,-3.90508 2.10099,-2.14779 5.11229,-4.47084 6.6918,-5.16233 2.86542,-1.25446 2.87416,-1.25438 3.91812,0.0349 0.83519,1.03142 0.94005,1.91159 0.51972,4.36233 -0.28962,1.68862 -0.8174,8.00864 -1.17286,14.04449 -0.78534,13.33574 -2.43236,19.61269 -5.23159,19.93809 -0.91013,0.10579 -1.97347,-0.19164 -2.36298,-0.66097 z m 3.79345,-5.04261 c 1.2212,-3.28903 3.23778,-29.30384 2.3494,-30.30818 -1.40477,-1.58813 -9.35885,5.71661 -10.95363,10.0594 -0.83203,2.26573 -2.58449,1.37962 -5.37932,-2.72 -1.07986,-1.584 -3.17326,-3.84919 -4.652,-5.03375 -3.25723,-2.60923 -4.19942,-2.07284 -4.11332,2.34171 0.0323,1.65662 0.12212,6.03604 0.19959,9.73204 0.0775,3.696 -0.17302,8.85935 -0.55665,11.47413 -0.76977,5.24667 -0.21859,6.90899 1.66599,5.02442 1.24144,-1.24145 2.3834,-11.82164 1.81547,-16.82029 -0.4064,-3.57688 0.68261,-5.93061 2.43314,-5.25887 0.5552,0.21305 2.03327,1.98784 3.2846,3.94399 1.35848,2.12365 2.7296,3.55357 3.40309,3.54904 0.64044,-0.004 2.19238,-1.54075 3.59069,-3.55485 2.94849,-4.24692 4.46793,-4.43463 4.79416,-0.59225 0.1193,1.40507 -0.0943,3.99468 -0.47463,5.75468 -0.85091,3.9375 -1.15203,13.7945 -0.45582,14.92099 0.85168,1.37804 1.93675,0.48407 3.04924,-2.51221 z m 18.46431,4.12488 c -1.232,-0.12182 -3.32663,-0.55602 -4.65474,-0.96488 -2.91141,-0.89629 -3.39651,-2.2693 -2.48598,-7.03643 0.35847,-1.87679 0.82419,-7.30035 1.03493,-12.05235 0.60236,-13.58265 0.97069,-16.04309 2.65363,-17.72602 1.1049,-1.10491 2.2001,-1.47398 4.37388,-1.47398 1.59495,0 4.23545,-0.3572 5.86778,-0.79379 l 2.96787,-0.79378 2.46412,2.77672 c 3.66428,4.12912 4.19728,9.98756 1.28125,14.08274 l -1.3471,1.89182 1.38413,3.09815 c 2.84144,6.36013 1.22511,13.91469 -3.51147,16.41226 -1.91021,1.00725 -7.53587,3.12611 -7.70877,2.90346 -0.0438,-0.0563 -1.08753,-0.2021 -2.31953,-0.32392 z m 6.87642,-3.56032 c 4.45899,-2.22693 5.92404,-4.38012 5.92119,-8.70245 -0.003,-4.2647 -1.66415,-7.54226 -4.13775,-8.16309 -2.29482,-0.57597 -2.00706,-2.00884 0.62421,-3.10825 1.3271,-0.5545 2.50393,-1.62111 2.88,-2.61026 0.98451,-2.58945 0.7525,-7.27446 -0.46206,-9.33055 -1.04875,-1.7754 -1.30274,-1.85874 -5.66449,-1.85874 -5.56628,0 -8.49946,0.91732 -8.9019,2.78395 -0.16318,0.75683 -0.72938,7.69225 -1.25824,15.41206 -0.67967,9.92128 -0.76266,14.27565 -0.28311,14.85348 0.64827,0.78112 4.65376,1.93685 7.21563,2.08197 0.66545,0.0377 2.49538,-0.57346 4.06652,-1.35812 z m -7.2414,-8.54897 c 0.2557,-3.4835 0.76569,-6.69604 1.13331,-7.139 0.79215,-0.95447 4.58895,-1.06594 6.23845,-0.18315 1.91834,1.02666 2.06028,2.56967 0.63139,6.8635 -1.44697,4.34812 -2.73732,5.64611 -6.32658,6.36396 l -2.14149,0.4283 z m 4.81427,0.60396 c 1.5631,-2.64926 1.51242,-4.5743 -0.14751,-5.60297 -0.8789,-0.54466 -1.27764,-0.48665 -1.75019,0.25464 -0.77786,1.22021 -0.82395,7.68 -0.0548,7.68 0.31724,0 1.19586,-1.04925 1.95251,-2.33167 z m -4.04257,-14.63304 c -0.67536,-0.67536 -0.85433,-1.68316 -0.59669,-3.36 0.52139,-3.39343 1.26116,-4.5585 3.2041,-5.04614 5.34077,-1.34045 7.53627,6.31684 2.42365,8.45303 -2.78935,1.16546 -3.8284,1.15578 -5.03106,-0.0469 z m 4.82289,-2.01448 c 0.64372,-0.58256 1.17039,-1.58043 1.17039,-2.21748 0,-1.32707 -1.96638,-2.60708 -3.00895,-1.95867 -1.36847,0.85109 -1.13706,5.23534 0.27633,5.23534 0.21551,0 0.91851,-0.47663 1.56223,-1.05919 z m 57.09071,24.52238 c -0.93255,-1.95557 -0.93074,-3.40766 0.0213,-17.12 0.57215,-8.24076 1.21294,-15.63119 1.42398,-16.42319 0.33595,-1.2608 0.80013,-1.44 3.72987,-1.44 2.52817,0 3.62802,0.31145 4.49918,1.27407 1.06721,1.17925 1.09432,1.76928 0.36429,7.92919 -0.79373,6.69744 -0.4517,13.44266 0.75842,14.95674 0.4008,0.50147 2.29375,0.8 5.0728,0.8 4.93792,0 7.49286,0.98443 8.77562,3.38128 2.03074,3.79449 0.28633,4.84893 -11.76576,7.112 -11.51664,2.16253 -11.62618,2.15854 -12.87968,-0.47009 z m 14.71756,-2.13102 c 8.13785,-1.23536 9.45329,-2.03408 6.83794,-4.15186 -1.10432,-0.89422 -2.53651,-1.18031 -5.9088,-1.18031 -2.44814,0 -4.98763,-0.2871 -5.6433,-0.63802 -1.84987,-0.99001 -2.72313,-6.74065 -2.46834,-16.25468 l 0.22462,-8.3873 -2.0253,-0.19647 c -2.5065,-0.24315 -2.72812,0.33285 -3.06379,7.96279 -0.13728,3.12052 -0.59294,9.30379 -1.01259,13.74059 -0.93016,9.83428 -0.54135,11.15502 3.12275,10.60791 1.28641,-0.19208 5.75798,-0.86827 9.93681,-1.50265 z m 19.8916,-0.50451 c -1.41921,-1.41921 -1.54302,-1.96463 -1.2712,-5.6 0.16563,-2.21522 0.58412,-8.17505 0.92998,-13.24409 l 0.62884,-9.21644 2.11145,-2.12324 c 2.44584,-2.4595 4.43762,-2.71773 6.33415,-0.82119 1.0062,1.00619 1.25478,1.84827 0.99186,3.36 -0.19296,1.10952 -0.66987,3.8893 -1.0598,6.1773 -0.82934,4.86632 -0.33459,10.0837 1.1073,11.67697 1.11558,1.2327 3.07634,1.48882 3.69794,0.48303 0.59287,-0.95927 5.25112,-0.77055 7.31423,0.29633 3.0323,1.56807 3.52553,4.96301 1.12628,7.7523 -1.29779,1.50879 -2.14272,1.78331 -6.88,2.23542 -10.28424,0.9815 -13.26689,0.78775 -15.03103,-0.97639 z m 20.04812,-2.62395 c 1.88706,-1.32175 1.80096,-3.20616 -0.2066,-4.52157 -1.36631,-0.89523 -2.02335,-0.94922 -4.07425,-0.33475 -4.23626,1.26921 -6.82846,0.95246 -8.40786,-1.02739 -1.32969,-1.66682 -1.38194,-2.16659 -0.98683,-9.44 0.22946,-4.224 0.58505,-8.616 0.79021,-9.76 0.31834,-1.77512 0.18623,-2.08 -0.90126,-2.08 -1.58605,0 -2.27983,0.89841 -3.21246,4.16 -1.48117,5.17994 -2.59904,20.56681 -1.67007,22.98766 0.56697,1.4775 16.56297,1.49126 18.66912,0.0161 z m -79.99376,3.66194 c 4.67361,-1.64587 7.88276,-4.77294 10.31624,-10.05237 1.12897,-2.44931 2.46831,-5.21772 2.9763,-6.15203 1.67452,-3.07982 0.74337,-8.86125 -1.42719,-8.86125 -0.33534,0 -1.38359,0.80776 -2.32945,1.79502 -1.44587,1.50917 -1.71974,2.36301 -1.71974,5.36184 0,4.2759 -1.33207,7.78617 -4.02367,10.60314 -1.71375,1.79358 -2.41949,2.08 -5.12515,2.08 -1.72575,0 -4.12994,-0.47083 -5.34265,-1.0463 -5.76089,-2.73372 -5.3704,-11.46013 0.73147,-16.34612 2.26065,-1.81018 5.3286,-3.23197 6.03367,-2.79621 0.92005,0.56862 2.44485,-1.23346 2.83509,-3.35063 0.32959,-1.78808 0.15884,-2.20319 -1.15193,-2.80041 -2.58654,-1.17851 -5.62545,-0.10022 -10.08549,3.57863 -3.25653,2.68614 -4.27708,3.94248 -4.54307,5.59271 -1.5117,9.37871 -1.71317,12.13988 -1.08898,14.92514 0.87082,3.88582 2.23897,5.87959 5.0565,7.36876 2.92242,1.54461 4.72841,1.56494 8.88805,0.10008 z m 3.44828,-10.66565 c 1.565,-2.26945 2.50562,-6.72 1.42027,-6.72 -0.21319,0 -1.25744,0.73192 -2.32057,1.62648 -1.06313,0.89456 -2.25291,1.51982 -2.64397,1.38947 -0.39106,-0.13036 -1.1468,-1.5808 -1.67943,-3.22321 -0.53263,-1.64242 -1.14236,-2.98768 -1.35496,-2.98948 -1.3641,-0.0115 -4.02297,3.64777 -4.49798,6.19035 -0.89558,4.79381 0.99982,6.67836 6.4579,6.42096 2.54465,-0.12001 3.04439,-0.41155 4.61874,-2.69457 z"
     id="path974"
     inkscape:connector-curvature="0"
     sodipodi:nodetypes="csscsccscsscscccccscccsccsssccscccscsssccccccsccsscscsccssccccssccssccscsccsacccssccssscscscccccccscccsccsssscssccssccccccccccccccccccsccscccscscsscccccccsccsssssccccccssccscsscsccccccccccsscccsccssccccccscsscsccccccccsccccccscscccccccccccscscccsccccsscsscscscscscsccccscscscsccscscsccsscscssccccscsssccccsscscscccccsscsccsscccccc" />
</svg>
