<?xml version="1.0" encoding="UTF-8" standalone="no"?>
<!-- Created with Inkscape (http://www.inkscape.org/) -->

<svg
   xmlns:dc="http://purl.org/dc/elements/1.1/"
   xmlns:cc="http://creativecommons.org/ns#"
   xmlns:rdf="http://www.w3.org/1999/02/22-rdf-syntax-ns#"
   xmlns:svg="http://www.w3.org/2000/svg"
   xmlns="http://www.w3.org/2000/svg"
   xmlns:sodipodi="http://sodipodi.sourceforge.net/DTD/sodipodi-0.dtd"
   xmlns:inkscape="http://www.inkscape.org/namespaces/inkscape"
   version="1.1"
   id="svg2353"
   width="816.64001"
   height="1122.5601"
   viewBox="0 0 816.64001 1122.5601"
   sodipodi:docname="Ret linje.svg"
   inkscape:version="0.92.4 (5da689c313, 2019-01-14)">
  <metadata
     id="metadata2359">
    <rdf:RDF>
      <cc:Work
         rdf:about="">
        <dc:format>image/svg+xml</dc:format>
        <dc:type
           rdf:resource="http://purl.org/dc/dcmitype/StillImage" />
        <dc:title />
      </cc:Work>
    </rdf:RDF>
  </metadata>
  <defs
     id="defs2357" />
  <sodipodi:namedview
     pagecolor="#ffffff"
     bordercolor="#666666"
     borderopacity="1"
     objecttolerance="10"
     gridtolerance="10"
     guidetolerance="10"
     inkscape:pageopacity="0"
     inkscape:pageshadow="2"
     inkscape:window-width="1280"
     inkscape:window-height="780"
     id="namedview2355"
     showgrid="false"
     inkscape:zoom="0.59463081"
     inkscape:cx="316.70326"
     inkscape:cy="224.93688"
     inkscape:window-x="0"
     inkscape:window-y="0"
     inkscape:window-maximized="1"
     inkscape:current-layer="svg2353" />
  <path
     style="fill:#000000;fill-opacity:1;stroke-width:0.64000005"
     d="m 525.67808,929.74351 c -0.71993,-0.86752 -0.28839,-1.49357 3.12562,-4.53472 2.17848,-1.94054 3.81445,-3.76518 3.63546,-4.05478 -0.17898,-0.2896 -4.86077,-0.55226 -10.40398,-0.58368 -5.54321,-0.0314 -20.87856,-0.38522 -34.07856,-0.78618 -16.70909,-0.50752 -28.86061,-0.53677 -40,-0.0962 -8.8,0.34803 -18.592,0.66035 -21.76,0.69401 -3.168,0.0339 -6.71546,0.0954 -7.88324,0.13709 -1.16778,0.0416 -2.52316,-0.25606 -3.01196,-0.66176 -0.4888,-0.40569 -1.21995,-0.53286 -1.62476,-0.28269 -0.40481,0.25018 -7.08048,0.40544 -14.83482,0.34509 -13.43833,-0.1047 -14.16459,-0.048 -15.50326,1.2096 -1.38435,1.30048 -1.42461,1.30189 -2.81222,0.0984 -1.26882,-1.10041 -2.21136,-1.19225 -9.54876,-0.93043 -4.47754,0.15981 -9.43699,0.54458 -11.02099,0.85498 -5.07331,0.99417 -8.37844,1.24237 -21.12,1.58598 -6.864,0.18515 -15.792,0.48103 -19.84,0.6576 -4.048,0.17652 -18.016,0.48301 -31.04,0.68103 -13.024,0.19801 -27.712,0.63366 -32.64,0.96806 -23.17086,1.57229 -27.5911,1.80647 -28.54845,1.51258 -0.56564,-0.1737 -1.43641,-1.38944 -1.93504,-2.7017 -0.76189,-2.00506 -0.83772,-8.00486 -0.475,-37.58592 1.67764,-136.81966 1.77925,-167.95995 0.59623,-182.72002 -0.4373,-5.456 -0.93718,-10.064 -1.11086,-10.24 -0.31494,-0.31917 -1.94132,1.44173 -4.36688,4.72813 -1.18306,1.60288 -1.41291,1.6713 -3.03501,0.90304 -2.23639,-1.05914 -2.23575,-2.15488 0.002,-3.312 0.97181,-0.50253 2.98781,-2.3616 4.48,-4.13127 2.80968,-3.33209 3.54399,-6.22924 1.75307,-6.91648 -0.528,-0.20262 -0.96,-0.62553 -0.96,-0.9399 0,-0.91629 2.33117,-0.65837 3.16847,0.35046 0.42086,0.50714 1.53613,1.01114 2.47837,1.12 1.28703,0.14874 2.11115,0.93159 3.31316,3.14708 0.88,1.62195 2.66898,4.24896 3.97551,5.83782 1.30654,1.5888 2.19454,3.06976 1.97334,3.29094 -0.93232,0.93229 -2.73498,0.27476 -4.13196,-1.50726 -0.82329,-1.05024 -2.17861,-2.79251 -3.01183,-3.87174 -0.83322,-1.07924 -1.66303,-1.81415 -1.84403,-1.63316 -0.58122,0.58119 -0.0919,21.52474 0.71444,30.57908 0.45308,5.08762 0.58228,10.72608 0.30796,13.44 -0.63846,6.31635 -1.65466,159.7531 -1.1203,169.15528 0.06,1.056 -0.11444,5.10406 -0.38767,8.99565 -0.34484,4.91136 -0.26878,7.76653 0.24863,9.33433 l 0.74542,2.25869 6.86525,-0.24691 c 3.77589,-0.13581 8.88124,-0.64243 11.34524,-1.12589 5.50145,-1.07942 18.51003,-1.54227 55.04,-1.95846 28.06384,-0.31968 48.38818,-1.1232 55.68001,-2.20122 6.5734,-0.97177 21.02094,-1.38182 61.44,-1.74368 53.0645,-0.47507 95.13966,-0.18099 105.41968,0.73683 2.01282,0.17972 4.5291,0.1529 5.59173,-0.0595 l 1.93204,-0.38636 -1.81912,-2.32167 c -2.37382,-3.02976 -3.28431,-4.81497 -3.28431,-6.43974 0,-2.15328 1.07375,-1.53971 3.97981,2.27411 5.14022,6.74586 6.90019,9.49939 6.89779,10.792 -0.004,2.19066 -2.41134,5.38727 -5.56155,7.38509 -3.39053,2.15021 -4.78363,2.35942 -5.99459,0.90035 z M 263.68062,898.82114 c -0.19334,-0.3129 0.58166,-1.2649 1.72223,-2.11558 2.96165,-2.20909 16.0437,-10.71629 20.95376,-13.62624 2.288,-1.35597 6.032,-3.67015 8.32,-5.14266 10.13511,-6.52256 18.9076,-11.51187 31.04,-17.65383 5.632,-2.8512 14.848,-7.85625 20.48,-11.12237 20.54621,-11.91526 34.77723,-19.87392 44.48,-24.87533 5.456,-2.81235 13.376,-7.12313 17.6,-9.57952 4.224,-2.45638 9.55201,-5.52621 11.84001,-6.82176 2.288,-1.29555 6.896,-4.08294 10.24,-6.19424 3.344,-2.11123 8.96,-5.37773 12.48,-7.25875 3.52,-1.88109 8.992,-5.04973 12.16,-7.04147 3.168,-1.99175 8.064,-4.86023 10.88,-6.3744 2.816,-1.51418 6.272,-3.53165 7.68,-4.48327 1.408,-0.95161 7.312,-4.26483 13.12,-7.36269 14.02109,-7.47853 24.97505,-13.72397 26.60124,-15.16685 0.72669,-0.64473 1.5644,-1.17228 1.86159,-1.17228 0.51656,0 10.71324,-6.34349 14.73717,-9.16813 3.089,-2.16845 24.55013,-14.48781 29.44,-16.89952 2.464,-1.2153 7.57091,-4.088 11.34869,-6.38381 6.22528,-3.78317 8.81131,-4.62164 8.81131,-2.85677 0,0.31449 -5.832,4.0841 -12.96,8.37677 -7.128,4.29273 -15.264,9.22675 -18.08,10.96448 -2.816,1.73773 -5.6581,3.33549 -6.31578,3.55046 -0.65768,0.21498 -2.67368,1.51143 -4.48,2.88096 -1.80632,1.36954 -3.53305,2.49127 -3.83717,2.4928 -0.30412,0 -2.60812,1.2562 -5.12,2.78816 -2.51188,1.53197 -8.59905,5.03149 -13.52705,7.77677 -4.928,2.74528 -10.544,5.91827 -12.48,7.05107 -1.936,1.1328 -8.128,4.44717 -13.76,7.36519 -5.632,2.91802 -11.536,6.23315 -13.12,7.36698 -1.584,1.13382 -5.30452,3.27558 -8.26781,4.75942 -2.96329,1.48384 -7.71529,4.29338 -10.56,6.24346 -2.84471,1.95008 -8.01264,4.94355 -11.48429,6.65216 -3.47166,1.70861 -9.65834,5.30701 -13.74819,7.99641 -14.06503,9.2489 -20.22201,12.75898 -36.89972,21.03642 -5.28,2.62055 -14.41598,7.58208 -20.3022,11.02567 -5.88621,3.44358 -13.66221,7.93856 -17.28,9.98886 -9.68098,5.4864 -15.80723,9.14528 -18.71721,11.17876 -1.41933,0.99174 -4.59659,2.62419 -7.06059,3.62752 -6.20566,2.52697 -17.32164,8.20064 -22.03317,11.24582 -2.16278,1.39789 -5.43409,3.29837 -7.26958,4.22336 -1.83549,0.92493 -4.92125,2.74989 -6.85725,4.05549 -1.936,1.3056 -5.33121,3.50048 -7.54491,4.8775 -2.2137,1.37709 -5.3817,3.42292 -7.04,4.54637 -1.6583,1.12346 -4.45335,2.81997 -6.21122,3.76992 -1.75787,0.95002 -4.46328,2.69479 -6.01203,3.87738 -2.85066,2.17664 -4.18898,2.61497 -4.82783,1.58131 z m 49.84671,-14.19859 c -0.23365,-0.37805 0.19359,-1.34567 0.94943,-2.15021 1.19844,-1.27571 1.27473,-1.68122 0.59641,-3.16998 -0.97292,-2.13537 -0.0413,-3.40673 1.78154,-2.43124 0.65755,0.35194 2.01605,0.48301 3.0189,0.29127 1.72697,-0.33012 1.80231,-0.25082 1.42492,1.49952 -0.34127,1.58278 -0.12172,2.00448 1.52982,2.93824 1.96256,1.10963 2.57782,2.43264 1.12826,2.42617 -0.44,0 -1.91016,-0.3118 -3.26702,-0.68857 -2.16777,-0.60192 -2.63858,-0.52384 -3.88125,0.64358 -1.56702,1.47213 -2.6381,1.68147 -3.28101,0.64122 z m 101.586,-47.63265 c -2.20313,-1.85382 -2.86102,-1.96025 -3.95672,-0.64 -0.94693,1.141 -3.2,1.28269 -3.2,0.20128 0,-0.41734 0.59193,-1.38886 1.31538,-2.15891 1.19001,-1.26675 1.22051,-1.49504 0.32,-2.39558 -2.14077,-2.14074 -0.66036,-4.06036 1.5728,-2.03936 0.96284,0.87136 1.24114,0.8078 2.80336,-0.64 1.70878,-1.58368 3.58847,-2.13562 3.58847,-1.05376 0,0.30457 -0.576,1.28595 -1.28,2.18099 -1.74112,2.21344 -1.61371,3.17792 0.64,4.84416 2.01134,1.48704 2.56588,3.30118 1.0091,3.30118 -0.501,0 -1.76657,-0.72 -2.81239,-1.6 z m -70.86164,-2.28032 c -0.23126,-0.3742 0.0777,-1.23078 0.68658,-1.90361 1.0289,-1.1369 1.03333,-1.33575 0.0627,-2.81716 -0.57439,-0.8766 -1.04435,-1.89203 -1.04435,-2.25638 0,-0.99629 1.9915,-0.79622 3.22986,0.32448 0.99463,0.90016 1.25239,0.81562 2.92831,-0.96 2.91332,-3.08666 4.69791,-2.43648 2.16183,0.78765 -1.62394,2.06451 -1.6175,3.14669 0.0248,4.17235 1.8852,1.17728 0.90002,2.16442 -1.67756,1.6809 -1.51322,-0.28391 -2.68099,-0.0916 -3.76758,0.62035 -1.85929,1.21824 -2.05275,1.24435 -2.60461,0.35142 z m 119.38493,-36.88467 c 0,-0.24474 0.76869,-1.2473 1.70821,-2.22797 1.50547,-1.57139 1.61941,-1.97786 0.96,-3.42515 -1.03751,-2.27706 -0.97187,-2.41677 0.913,-1.94368 0.96218,0.24147 2.05084,0.0936 2.58712,-0.35155 1.36216,-1.13044 2.48636,0.17209 1.59155,1.84409 -0.53987,1.00877 -0.42109,1.50125 0.58071,2.40787 1.9447,1.75994 1.53831,2.42957 -1.20796,1.9904 -1.97276,-0.31545 -2.69827,-0.13939 -3.61919,0.87821 -1.09324,1.208 -3.51344,1.77824 -3.51344,0.82778 z M 229.1104,790.00456 c -0.20607,-0.33344 -0.10187,-0.77479 0.23155,-0.98087 0.33342,-0.20608 0.77482,-0.10189 0.98088,0.23155 0.20606,0.33344 0.10187,0.77479 -0.23155,0.98087 -0.33343,0.20608 -0.77482,0.10189 -0.98088,-0.23155 z m 183.32621,-3.46311 c 0,-0.46662 0.72001,-1.52486 1.60001,-2.35155 1.93349,-1.81645 2.02603,-2.92698 0.32,-3.84 -1.38365,-0.74048 -1.7571,-2.56 -0.52544,-2.56 0.415,0 1.71448,0.34713 2.88773,0.77139 1.93685,0.70035 2.22415,0.64147 3.12173,-0.64 0.54371,-0.77626 1.40422,-1.41139 1.91226,-1.41139 1.04272,0 1.2666,2.27257 0.28372,2.88 -1.0893,0.67321 -0.70505,2.77312 0.5822,3.18163 1.59185,0.50528 2.8357,2.02803 2.3278,2.84979 -0.25011,0.40474 -1.45401,0.13555 -3.2102,-0.71763 l -2.81001,-1.36525 -2.30717,2.02573 c -2.41491,2.12032 -4.18263,2.61786 -4.18263,1.17728 z M 477.4937,754.2969 c -1.32746,-0.69702 -2.01456,-0.7655 -2.528,-0.25209 -1.06652,1.06649 -3.64908,0.87187 -3.64908,-0.27501 0,-0.53901 0.45088,-1.15309 1.00196,-1.36454 0.77854,-0.29876 0.90871,-0.93652 0.58374,-2.85997 -0.33153,-1.96231 -0.21863,-2.47539 0.54471,-2.47539 0.5296,0 1.09329,0.36 1.25263,0.8 0.23178,0.64 0.56071,0.64 1.64465,0 2.2224,-1.3122 2.85297,-1.00327 2.41565,1.18329 -0.28922,1.44608 -0.0532,2.41991 0.87127,3.5952 0.69737,0.88659 1.11087,1.86611 0.9189,2.17671 -0.44151,0.71436 -0.81196,0.65036 -3.05643,-0.5282 z m 93.96496,-14.74701 c 0.24819,-0.968 0.59876,-2.984 0.77905,-4.48 0.348,-2.88768 0.7587,-3.1806 2.73179,-1.94841 1.01448,0.63353 1.4637,0.56512 2.51099,-0.38266 2.21266,-2.00249 3.61074,0.0333 1.57087,2.28736 -0.99933,1.10426 -0.97451,1.27373 0.40096,2.73786 0.90763,0.96614 1.31048,1.96665 1.0574,2.62611 -0.37847,0.9863 -0.51518,0.98803 -1.84097,0.0237 -2.47744,-1.80237 -3.05888,-1.86182 -4.54594,-0.46477 -2.08023,1.95424 -3.22362,1.78298 -2.66415,-0.39904 z m -49.96844,-10.6622 c -0.47778,-1.24512 1.48767,-4.8578 2.64283,-4.8578 1.30892,0 1.17839,-0.86912 -0.33643,-2.24 -1.38437,-1.2528 -1.71138,-2.88 -0.5788,-2.88 0.38566,0 1.49566,0.5657 2.46667,1.25715 l 1.76546,1.25709 2.13767,-1.57709 c 1.17572,-0.86745 2.36972,-1.57715 2.65334,-1.57715 1.02958,0 0.48135,2.19405 -0.92134,3.68711 l -1.43699,1.5296 2.08277,1.71168 c 2.00979,1.65165 2.73577,3.31161 1.44834,3.31161 -0.34259,0 -1.90638,-0.62355 -3.47511,-1.38572 l -2.85222,-1.38573 -2.30717,2.02573 c -2.62172,2.30188 -2.81188,2.36684 -3.28902,1.12352 z"
     id="path2906"
     inkscape:connector-curvature="0"
     sodipodi:nodetypes="cccccccccccccccccssccssccccccsccccccccscccscccccsccccssccccccccccccscccccscscccscsccccssscsscccscccccsccccccccccccccscccsccccsccsccccsccccccccsccccccccscssccsccsccsccccccsccsccsccscccccccscccccccscscccscccscccc" />
</svg>
