<?xml version="1.0" encoding="UTF-8" standalone="no"?>
<!-- Created with Inkscape (http://www.inkscape.org/) -->

<svg
   xmlns:dc="http://purl.org/dc/elements/1.1/"
   xmlns:cc="http://creativecommons.org/ns#"
   xmlns:rdf="http://www.w3.org/1999/02/22-rdf-syntax-ns#"
   xmlns:svg="http://www.w3.org/2000/svg"
   xmlns="http://www.w3.org/2000/svg"
   xmlns:sodipodi="http://sodipodi.sourceforge.net/DTD/sodipodi-0.dtd"
   xmlns:inkscape="http://www.inkscape.org/namespaces/inkscape"
   version="1.1"
   id="svg134"
   width="816.64001"
   height="1122.5601"
   viewBox="0 0 816.64001 1122.5601"
   sodipodi:docname="RettetStil.svg"
   inkscape:version="0.92.4 (5da689c313, 2019-01-14)">
  <metadata
     id="metadata140">
    <rdf:RDF>
      <cc:Work
         rdf:about="">
        <dc:format>image/svg+xml</dc:format>
        <dc:type
           rdf:resource="http://purl.org/dc/dcmitype/StillImage" />
        <dc:title />
      </cc:Work>
    </rdf:RDF>
  </metadata>
  <defs
     id="defs138" />
  <sodipodi:namedview
     pagecolor="#ffffff"
     bordercolor="#666666"
     borderopacity="1"
     objecttolerance="10"
     gridtolerance="10"
     guidetolerance="10"
     inkscape:pageopacity="0"
     inkscape:pageshadow="2"
     inkscape:window-width="1280"
     inkscape:window-height="780"
     id="namedview136"
     showgrid="false"
     inkscape:zoom="0.48816987"
     inkscape:cx="-207.40087"
     inkscape:cy="755.56879"
     inkscape:window-x="0"
     inkscape:window-y="0"
     inkscape:window-maximized="1"
     inkscape:current-layer="svg134" />
  <path
     style="fill:#000000;fill-opacity:1;stroke-width:0.64000005"
     d="m 158.13948,477.35721 c -0.62161,-0.39353 -0.95424,-2.12487 -1.074,-5.5902 -0.0954,-2.76106 -0.47669,-10.06011 -0.84726,-16.22011 -0.84868,-14.10729 -0.87772,-31.20579 -0.0773,-45.52901 1.44305,-25.82407 2.09461,-51.96481 2.26296,-90.791 0.11437,-26.37662 0.45476,-43.82167 0.94281,-48.32 1.10108,-10.14838 1.70464,-31.77782 1.18764,-42.56001 -0.79117,-16.49983 -0.78264,-34.56766 0.0167,-35.36702 0.42659,-0.42658 3.58274,-0.81193 7.60897,-0.92902 3.78401,-0.11004 7.74402,-0.43238 8.80002,-0.71631 l 1.92,-0.51623 0.32,-8.70498 c 0.176,-4.78773 0.5348,-8.9186 0.79733,-9.17971 0.26254,-0.2611 4.58254,-0.49994 9.6,-0.53073 l 9.12268,-0.056 -0.0528,-9.18634 -0.0528,-9.18634 2.29278,0.46049 c 4.18262,0.84005 46.18546,0.81586 63.18658,-0.0364 23.52456,-1.17927 85.14506,-1.60522 123.09642,-0.85091 l 20.15023,0.4005 0.55226,2.1595 c 0.81581,3.19 1.01565,57.61733 0.25115,68.3995 -0.78213,11.03077 -1.14869,22.9394 -1.04409,33.92001 0.0419,4.4 0.0451,8.576 0.007,9.28 -0.51194,9.49135 -0.89077,91.81816 -0.42896,93.22232 0.15515,0.47173 0.44359,12.37769 0.64098,26.45769 0.19739,14.08 0.5475,30.5919 0.77803,36.69312 0.4151,10.98641 -0.84621,11.86699 0.6928,12.45212 -3.18403,2.2841 -6.15347,1.4585 -7.24485,1.46564 -5.77992,0.0308 -10.49142,0.36587 -11.94443,0.84946 l -2.3995,0.79859 0.0701,7.15054 c 0.0385,3.93279 0.32025,7.62429 0.62605,8.20333 -3.35536,2.65723 -0.76812,2.29605 -9.09755,2.09696 C 368.13932,456.84185 368,456.95131 368,465.58128 c 0,5.10789 0.18896,6.28506 1.12,6.97759 -1.73775,5.07876 0.19851,3.46487 -5.32257,4.8227 -5.07326,0.16047 -5.71704,0.69285 -17.55743,-0.11684 -6.864,-0.46939 -19.824,-0.83793 -28.8,-0.819 -8.976,0.0189 -46.03102,0.10598 -82.3445,0.19343 -36.31347,0.0875 -67.16491,-0.0337 -68.55876,-0.26915 -1.70981,-0.28888 -3.31485,-0.10202 -4.93367,0.57437 -2.8028,1.17108 -2.35093,1.11722 -3.46359,0.41283 z M 363.2,474.2123 l 1.92,-0.51278 0.34549,-6.99631 c 0.47164,-9.55101 0.10381,-68.59846 -0.59576,-95.63631 -0.74895,-28.94645 -0.44059,-93.41466 0.49591,-103.68001 0.40141,-4.4 1.06016,-12.75201 1.46389,-18.56001 0.40372,-5.808 0.86509,-12.432 1.02526,-14.72 0.43771,-6.25267 0.58898,-23.7265 0.2735,-31.59264 l -0.27884,-6.95263 -7.83556,0.45193 c -11.7903,0.68004 -69.82688,0.50297 -79.69389,-0.24315 -25.02489,-1.89232 -43.91818,-2.66285 -64.64,-2.6362 -23.68582,0.0305 -36.36971,0.40445 -41.92,1.23607 -2.464,0.3692 -6.01657,0.67697 -7.8946,0.68394 l -3.41461,0.0127 0.45289,4.96 c 0.2491,2.728 0.71849,5.46902 1.04309,6.09115 0.40397,0.77424 0.29282,1.55571 -0.35227,2.47671 -0.80402,1.1479 -0.89203,4.78921 -0.59915,24.78885 0.29032,19.82442 0.17018,24.92523 -0.77825,33.0433 -0.93353,7.99053 -1.1635,16.89624 -1.37178,53.12 -0.2433,42.31575 -0.78111,64.48525 -2.11592,87.22154 -0.79214,13.49288 -0.81582,43.06997 -0.043,53.70033 0.35662,4.90542 0.93743,8.46941 1.56447,9.6 0.5485,0.98898 1.18763,2.32354 1.42028,2.96567 0.29105,0.80334 0.84502,1.06203 1.77592,0.82932 1.80448,-0.45108 10.87432,-0.39255 51.91293,0.33503 19.008,0.33699 46.512,0.40765 61.12,0.15702 36.71184,-0.62988 54.67406,-0.58144 63.68,0.17177 8.20801,0.68647 19.88758,0.52665 23.04,-0.31527 z M 262.75024,430.51566 c -8.08679,-1.17839 -11.91718,-3.24823 -18.14612,-9.80568 -5.6513,-5.94935 -8.94307,-12.31088 -9.50251,-18.36411 -0.81096,-8.77477 2.48589,-21.741 7.14007,-28.08126 4.21814,-5.74625 18.77265,-15.12847 28.15832,-18.15158 5.14892,-1.65846 14.24955,-3.03668 20.80859,-3.15129 5.16871,-0.0903 6.4257,0.0966 8.32,1.23716 1.22727,0.73896 3.09541,1.54563 4.15141,1.79258 5.12832,1.19932 15.8341,8.11333 19.6114,12.66543 4.81723,5.80536 8.8178,12.44539 10.46818,17.3748 1.92483,5.74912 3.26428,15.10842 2.63912,18.44075 -1.58221,8.43392 -16.00899,18.2715 -33.0387,22.52897 -14.4656,3.61645 -30.4285,4.99783 -40.60976,3.51423 z m 29.66194,-3.71455 c 18.40438,-3.27205 27.87314,-7.12107 35.98912,-14.62947 6.4531,-5.97 7.39977,-9.66257 5.13462,-20.02803 -1.44511,-6.61293 -3.08586,-10.42704 -7.00188,-16.27671 -3.75507,-5.60923 -8.53799,-10.38288 -12.6473,-12.62278 -7.78634,-4.24417 -9.15882,-4.83247 -12.98658,-5.56658 -4.02259,-0.77146 -14.87961,-1.57573 -19.41445,-1.43819 -14.48601,0.43937 -35.89431,13.54008 -40.44819,24.75207 -3.59274,8.84558 -4.59967,20.24226 -2.3629,26.74357 2.64412,7.68528 10.08252,15.96134 16.51019,18.36945 1.83964,0.68922 5.15164,1.5307 7.36,1.86996 6.00829,0.92302 21.49897,0.3145 29.86737,-1.17329 z M 278.4,412.32293 c 0,-0.54118 1.44,-4.01434 3.2,-7.71812 1.76,-3.70378 3.2,-6.861 3.2,-7.01603 0,-0.15503 -0.97273,-0.28188 -2.16163,-0.28188 -1.1889,0 -2.47805,-0.38126 -2.86477,-0.84723 -1.14018,-1.37384 0.45138,-2.35277 3.82516,-2.35277 h 3.02274 l 3.24926,-6.17202 c 1.78708,-3.39461 3.24924,-6.44519 3.24924,-6.77906 0,-0.33386 0.58427,-1.34979 1.29836,-2.25762 0.71409,-0.90783 1.07409,-1.86124 0.8,-2.1187 -0.27409,-0.25747 -4.26471,-0.77652 -8.86803,-1.15346 -12.66757,-1.03726 -16.96388,-2.20159 -15.07898,-4.08649 0.50109,-0.50109 1.55117,-0.48867 3.75224,0.0444 1.68103,0.40712 7.62327,1.09019 13.20499,1.51794 7.42502,0.56901 10.23853,1.01218 10.4838,1.65133 0.18438,0.48048 -1.71848,4.89486 -4.22857,9.80974 -2.5101,4.91485 -4.56381,9.21138 -4.56381,9.54782 0,0.33645 0.73441,0.79604 1.63202,1.02133 1.05939,0.26589 1.5567,0.77542 1.41737,1.45219 -0.16127,0.78326 -0.81051,0.99534 -2.61017,0.85262 l -2.3955,-0.18996 -3.78958,8.02996 c -2.45295,5.19772 -4.13956,8.02997 -4.78185,8.02997 -0.54576,0 -0.99229,-0.44279 -0.99229,-0.98397 z m 29.27221,-4.29603 c -1.4733,-1.11992 -5.59221,-8.16301 -5.59221,-9.56235 0,-1.74978 2.35274,-1.42894 3.61173,0.49252 1.28614,1.9629 1.7925,1.35435 2.43812,-2.93017 0.86162,-5.71795 2.99361,-15.05286 3.57037,-15.63288 0.36122,-0.36327 1.09111,-0.13896 1.88466,0.57919 1.0758,0.97358 1.29512,1.9666 1.29512,5.8637 0,2.58039 -0.34525,5.98249 -0.76723,7.56023 -0.79864,2.98603 -0.39657,4.32956 0.9059,3.02709 0.41653,-0.41653 1.27573,-0.75733 1.90933,-0.75733 1.83554,0 1.37364,2.17361 -1.088,5.12 -1.232,1.4746 -2.24,3.08585 -2.24,3.58055 0,1.27757 -2.34474,3.45945 -3.71767,3.45945 -0.63673,0 -1.63127,-0.36 -2.21012,-0.8 z m 3.65723,-137.21347 c -1.66691,-1.79863 -2.09445,-5.08969 -0.94115,-7.24464 0.48141,-0.89954 0.36921,-1.28066 -0.48,-1.63046 -2.08063,-0.857 -6.22548,-0.80974 -7.97745,0.091 -1.58449,0.8146 -1.87162,0.77681 -3.04975,-0.40132 -0.96576,-0.96576 -1.19032,-1.75116 -0.87229,-3.05083 0.75484,-3.08473 2.7912,-3.36135 2.7912,-0.37915 0,2.09035 1.21314,1.70641 2.88,-0.91149 1.60843,-2.52612 3.52,-2.73972 3.52,-0.39332 v 1.6663 l 2.19795,-1.92982 c 2.91149,-2.55632 4.49587,-2.99816 6.27533,-1.75002 1.22944,0.86234 1.45286,1.61344 1.48755,5.00099 0.0225,2.19244 0.27543,5.47174 0.56217,7.28733 0.51272,3.24653 0.48878,3.31791 -1.44904,4.32 -2.64098,1.3657 -3.11342,1.30125 -4.94452,-0.67453 z m 4.43687,-3.93215 c -0.90659,-3.88033 -3.44631,-4.28169 -3.44631,-0.54462 0,2.63026 1.04952,3.77862 2.66382,2.91467 0.89428,-0.47861 1.08761,-1.06414 0.78249,-2.37005 z m -2.7725,-8.7744 c -0.0502,-0.94994 -1.482,-0.77542 -1.81418,0.22113 -0.17944,0.53831 0.11314,0.77823 0.78047,0.64 0.58714,-0.12162 1.0523,-0.50912 1.03371,-0.86113 z M 224.64,262.26689 c -1.866,-1.86601 -1.6119,-4.08694 0.68911,-6.02312 2.37859,-2.00145 3.22627,-2.06158 4.78479,-0.33942 1.38326,1.52847 0.80641,2.99304 -1.67394,4.24997 -1.10819,0.56158 -1.26301,0.84553 -0.57718,1.05859 2.86882,0.89128 3.22374,1.10094 2.86002,1.68946 -0.70716,1.1442 -4.72262,0.72469 -6.0828,-0.63548 z m 10.78464,0.19104 c -1.70615,-1.98381 -1.86258,-2.60754 -1.08304,-4.31843 1.14988,-2.52373 5.0184,-3.04742 5.0184,-0.67935 0,0.48273 -0.648,0.96974 -1.44,1.08222 -2.4771,0.3518 -1.72565,2.10098 0.99904,2.32548 1.88366,0.1552 2.39251,0.44666 2.23468,1.28 -0.3003,1.58561 -4.43941,1.80964 -5.72908,0.31008 z m 28.69536,0.0357 c -0.242,-0.24203 -0.44,-1.20214 -0.44,-2.13363 0,-3.24953 5.79269,-6.96497 8.00127,-5.13202 1.20845,1.00293 0.64678,1.91895 -1.17663,1.91895 -2.10281,0 -4.15348,1.70202 -4.3828,3.63764 -0.20204,1.70537 -1.17492,2.53595 -2.00184,1.70903 z m -48.12471,-2.679 c -2.62663,-3.96914 -3.73248,-9.0677 -1.96672,-9.0677 0.52,0 1.35612,1.34747 1.95507,3.15075 1.66108,5.00103 2.5127,5.22641 4.60288,1.21812 0.97769,-1.87488 2.13179,-4.20087 2.56466,-5.16887 0.43287,-0.968 1.07194,-1.76 1.42016,-1.76 1.32338,0 1.39222,1.37892 0.16831,3.37168 -0.69868,1.13758 -2.04555,4.01232 -2.99304,6.38832 -2.05066,5.14237 -3.31296,5.55228 -5.75132,1.86767 z m 31.35637,0.90217 c -0.87541,-0.87544 -1.59166,-2.00596 -1.59166,-2.5123 0,-0.50634 -0.432,-1.08639 -0.96,-1.28901 -1.39318,-0.53461 -1.18023,-2.32856 0.27643,-2.32856 0.68002,0 1.85164,-0.864 2.60357,-1.92 1.6658,-2.33939 2.56,-2.45117 2.56,-0.32 0,1.0287 0.35954,1.6 1.00693,1.6 1.61497,0 0.77334,2.13974 -1.00693,2.56 -0.8763,0.20687 -1.68791,0.8675 -1.80356,1.46807 -0.16339,0.84842 0.25364,1.09194 1.87003,1.09194 1.55031,0 2.50881,-0.51327 3.7622,-2.01463 1.51091,-1.80983 1.92226,-1.96953 4.04661,-1.571 1.93492,0.36299 2.36472,0.71882 2.36472,1.95773 0,1.71417 -3.28324,4.8279 -5.09074,4.8279 -0.63389,0 -1.50476,-0.42442 -1.93527,-0.94315 -0.68908,-0.83029 -1.00577,-0.82781 -2.6467,0.0207 -1.76379,0.91208 -1.94952,0.87834 -3.45563,-0.62777 z m 9.76825,-2.66326 c -0.60988,-0.60989 -1.83263,0.37798 -1.37811,1.11341 0.27016,0.43712 0.62814,0.42608 1.08777,-0.0335 0.37681,-0.3768 0.50746,-0.86274 0.29034,-1.07985 z m 36.87552,1.71809 c 0.40651,-2.54216 0.36413,-2.62436 -1.34786,-2.61487 -2.35621,0.0131 -3.19354,0.62968 -3.46304,2.5502 -0.15415,1.09849 -0.62573,1.6 -1.50453,1.6 -1.07442,0 -1.24504,-0.35411 -1.06234,-2.20484 0.52867,-5.35531 3.94234,-10.97369 3.94234,-6.48849 0,2.12608 0.69748,2.40645 3.41561,1.37302 0.98995,-0.37637 1.85958,-1.45069 2.33129,-2.88 0.76876,-2.32935 1.72257,-2.93302 2.29154,-1.45031 0.17505,0.45617 -0.36601,3.40817 -1.20235,6.56 -1.13176,4.26517 -1.81467,5.78807 -2.67049,5.95529 -1.00791,0.19694 -1.09806,-0.0994 -0.73017,-2.4 z m 26.48457,1.16404 c -2.41098,-1.40427 -0.69073,-7.03124 2.1304,-6.96851 1.47355,0.0328 4.58856,3.12241 4.19143,4.15731 -0.32209,0.83937 -4.08617,3.52305 -4.88183,3.48061 -0.176,-0.009 -0.824,-0.31062 -1.44,-0.66941 z m -59.87018,-13.55231 c -1.47724,-1.77997 -1.51023,-4.22962 -0.10871,-8.07341 2.641,-7.2432 8.27404,-11.71129 8.81835,-6.99467 0.24578,2.12978 -0.86989,4.35165 -2.1851,4.35165 -0.68936,0 -0.85995,-0.38016 -0.57436,-1.28 0.6338,-1.99689 -0.49307,-1.49103 -2.05659,0.92324 -2.18259,3.37019 -2.46956,5.23173 -0.87093,5.64977 1.69067,0.44212 1.71922,1.7644 0.0476,2.20155 -0.90666,0.2371 -1.28,0.87298 -1.28,2.18009 0,1.95985 -0.69337,2.36335 -1.79018,1.04178 z m -11.94658,-1.99501 c -1.94861,-1.9486 -1.95892,-2.08303 -0.3607,-4.70424 1.70638,-2.79861 4.08878,-3.34424 6.14942,-1.40837 1.29071,1.21257 3.46804,4.6449 3.46804,5.467 0,0.49951 -2.48199,1.41563 -4.93676,1.8222 -2.3562,0.39024 -2.90175,0.24166 -4.32,-1.17659 z m 4.01927,-3.12689 c 0.14278,-1.23699 -0.0866,-1.75453 -0.77748,-1.75453 -1.14728,0 -2.2637,1.87181 -1.83373,3.07445 0.52518,1.46893 2.39862,0.52194 2.61121,-1.31992 z m 87.04613,-13.71695 c -3.00061,-1.8849 -3.80746,-4.90555 -2.0335,-7.61296 1.37111,-2.09257 0.28369,-3.56895 -1.71111,-2.32317 -1.24667,0.77856 -1.5557,0.71216 -4.98167,-1.07046 -1.23259,-0.64134 -1.81635,-0.56085 -3.52,0.48538 -1.5699,0.96409 -2.74559,1.1736 -5.08236,0.90569 -2.75653,-0.31603 -3.04214,-0.50488 -3.06301,-2.02529 l -0.023,-1.67677 -1.44102,1.76 c -1.95895,2.39259 -2.99293,2.23982 -2.99293,-0.44223 0,-2.37876 0.32005,-2.73181 3.23402,-3.56752 1.56045,-0.44754 2.1446,-0.29915 3.17462,0.80647 l 1.2623,1.35492 1.5691,-1.4741 c 1.1459,-1.07651 2.00313,-1.36516 3.17835,-1.07019 1.44328,0.36224 1.67782,0.14926 2.27407,-2.06506 0.94373,-3.50473 3.32127,-6.78354 5.10433,-7.03922 1.45813,-0.2091 1.49757,-0.10579 1.09123,2.85875 -0.23186,1.69163 -1.13852,4.15907 -2.01479,5.48321 -2.1627,3.26807 -2.00864,4.35244 0.30363,2.13714 1.58652,-1.51999 2.05762,-1.68389 2.87943,-1.00186 0.7826,0.64951 1.36679,0.65631 2.87061,0.0334 1.03844,-0.43013 2.2627,-0.65309 2.72058,-0.49547 0.45789,0.15762 1.83538,-0.3895 3.06109,-1.21583 2.59076,-1.74659 4.01209,-1.89113 5.14717,-0.52346 0.62123,0.74855 0.64291,1.35108 0.0921,2.56 -0.56758,1.24571 -1.1984,1.58105 -2.97409,1.58105 -2.43693,0 -3.07764,1.18438 -0.94274,1.74267 0.78217,0.20454 1.22406,0.76124 1.09548,1.38008 -0.20636,0.99321 -0.95459,1.14884 -3.04647,0.63368 -0.79658,-0.19618 -0.96,0.68961 -0.96,5.20357 0,4.96123 -0.11265,5.45376 -1.28,5.59631 -0.704,0.086 -2.05011,-0.32745 -2.99136,-0.91872 z m 2.16206,-4.74384 c -0.21361,-3.16878 -0.88122,-4.22287 -1.89837,-2.99728 -1.36472,1.64438 -1.57384,4.1106 -0.44433,5.24011 1.69678,1.69678 2.553,0.87706 2.3427,-2.24283 z M 326.72,215.54688 c 0.21755,-0.352 0.10754,-0.64 -0.24446,-0.64 -0.352,0 -0.81799,0.288 -1.03554,0.64 -0.21754,0.352 -0.10754,0.64 0.24446,0.64 0.352,0 0.818,-0.288 1.03554,-0.64 z m -121.22171,9.34205 c -1.70931,-1.81948 -1.53479,-3.626 0.61426,-6.35806 1.60774,-2.04391 4.11006,-2.25026 5.08974,-0.41971 0.56331,1.05255 0.39941,1.57221 -0.90839,2.88 -0.87764,0.87765 -1.89681,1.59572 -2.26481,1.59572 -1.21117,0 -0.69738,1.12332 0.67834,1.48307 0.74108,0.1938 1.22252,0.73139 1.06987,1.19465 -0.48497,1.47171 -2.72852,1.27474 -4.27901,-0.37567 z m -11.5035,0.17435 c -1.45307,-0.55084 -1.51005,-0.79031 -1.20443,-5.0617 0.29834,-4.16959 -0.15451,-6.00129 -1.10391,-4.46514 -0.22109,0.35774 -0.83702,0.65044 -1.36873,0.65044 -1.66832,0 -0.75033,-2.78679 1.13553,-3.44719 3.25242,-1.13895 10.78675,4.1911 10.78675,7.63094 0,2.54297 -5.56338,5.7093 -8.24521,4.69265 z m 4.44729,-3.13891 c 1.63645,-0.87581 1.56221,-2.0891 -0.25725,-4.20436 -1.94346,-2.2594 -2.98483,-1.55303 -2.98483,2.02464 0,3.02988 0.73287,3.5226 3.24208,2.17972 z m 28.384,1.85526 c -0.24721,-0.39999 -0.5905,-2.69834 -0.76287,-5.10743 -0.26769,-3.74133 -0.15181,-4.44219 0.79451,-4.80533 0.80205,-0.30777 1.77939,0.35133 3.54019,2.38744 l 2.43228,2.81257 0.41933,-2.56 c 0.55764,-3.40436 1.04423,-4.2169 3.54518,-5.92 2.60432,-1.7735 4.19241,-1.80889 6.90679,-0.15394 3.71485,2.26492 3.48258,4.80842 -0.56286,6.16394 -1.89809,0.636 -2.17863,1.00549 -2.17863,2.86939 0,1.46693 -0.32753,2.20304 -1.04202,2.34191 -0.84294,0.16383 -1.12779,-0.59839 -1.49094,-3.98939 -0.2469,-2.30555 -0.65639,-4.19191 -0.90997,-4.19191 -1.23525,0 -1.99707,1.84999 -1.99707,4.84964 0,2.26747 -0.32582,3.58404 -1.03202,4.17014 -0.89125,0.73967 -1.28289,0.57575 -2.87099,-1.20163 -2.20385,-2.46655 -2.49699,-2.52647 -2.49699,-0.51049 0,2.99555 -1.2459,4.54082 -2.29392,2.84509 z m 16.69224,-10.15003 c 0.41293,-0.66813 -2.63948,-2.37489 -3.21608,-1.79828 -0.18281,0.18279 -0.15077,0.80558 0.0712,1.38396 0.44265,1.15353 2.519,1.42708 3.14491,0.41432 z m 14.30692,9.80421 c -0.0521,-0.64181 -0.12411,-1.67985 -0.16,-2.30675 -0.0359,-0.6269 -0.4672,-1.38984 -0.9585,-1.69541 -1.08997,-0.67794 -0.4706,-2.60477 0.83729,-2.60477 0.53494,0 1.68456,-1.64975 2.6523,-3.80616 2.09354,-4.66501 3.74283,-6.34567 5.28114,-5.38157 1.38161,0.86589 1.74011,3.20982 0.68534,4.48075 -0.72982,0.87937 -0.89812,0.86953 -1.60245,-0.0937 -0.70731,-0.9673 -0.88893,-0.87916 -1.79368,0.87043 -1.25977,2.43613 -1.27189,3.29026 -0.0467,3.29026 1.52164,0 1.11532,1.64377 -0.59945,2.42508 -1.18456,0.53972 -1.60765,1.29393 -1.76,3.1374 -0.14076,1.70338 -0.53443,2.49015 -1.32055,2.63913 -0.71214,0.13496 -1.15451,-0.21271 -1.21476,-0.95468 z m 6.97032,-1.86471 c -0.86802,-0.86801 -0.52813,-4.10222 0.43111,-4.10222 0.49866,0 1.03516,0.36 1.19221,0.8 0.19819,0.55527 0.76744,0.35769 1.86081,-0.64585 1.86266,-1.70963 2.44031,-1.34212 2.44031,1.55252 0,1.38343 -0.30933,2.13333 -0.88,2.13333 -0.484,0 -1.71,0.166 -2.72444,0.36889 -1.01444,0.20289 -2.05844,0.15489 -2.32,-0.10667 z m 22.49096,-0.42222 c -0.0405,-0.088 -0.16154,-1.68034 -0.26917,-3.53855 -0.17244,-2.97722 -0.0122,-3.49877 1.34882,-4.39055 0.95658,-0.62678 2.15534,-0.85869 3.14917,-0.60925 0.92658,0.23255 1.60466,0.12714 1.60466,-0.24946 0,-0.3587 0.84935,-0.65219 1.88743,-0.65219 1.40496,0 2.32417,-0.57259 3.59597,-2.24 0.93969,-1.232 1.96234,-2.24 2.27257,-2.24 0.82393,0 0.68935,2.17869 -0.18884,3.05688 -0.57717,0.57717 -0.48473,1.04918 0.39612,2.02251 1.14267,1.26263 1.16038,1.26095 3.21328,-0.30488 2.71,-2.06701 8.24738,-2.26783 9.28096,-0.33658 1.10697,2.06839 0.7516,3.70982 -1.09749,5.06925 -1.73271,1.27386 -1.74015,1.30876 -0.48,2.25029 1.02057,0.76252 1.11915,1.11946 0.48641,1.76104 -0.63685,0.64575 -1.24156,0.59105 -3.06171,-0.27691 -1.24747,-0.59488 -2.99729,-1.0816 -3.88849,-1.0816 -0.8912,0 -2.20138,-0.31096 -2.91152,-0.69101 -0.99802,-0.53413 -1.5448,-0.46147 -2.40832,0.32 -2.27714,2.06078 -4.53637,0.55063 -4.53637,-3.03227 0,-1.9998 -1.6157,-2.40424 -4.23954,-1.06122 -1.80233,0.92252 -1.91279,1.14209 -1.12,2.22631 1.17279,1.60387 1.11333,3.29154 -0.1328,3.76972 -1.01623,0.38996 -2.76377,0.52759 -2.90114,0.22847 z m 14.15348,-5.6 c 0,-1.46236 -0.24143,-1.53834 -1.96207,-0.61748 -1.72899,0.92533 -1.54348,1.89748 0.36207,1.89748 1.17333,0 1.6,-0.34133 1.6,-1.28 z m 6.26039,0.11076 c 0.19671,-0.59855 -0.24645,-0.78748 -1.50128,-0.64 -0.97922,0.11508 -1.90599,0.5914 -2.0595,1.05848 -0.19671,0.59855 0.24646,0.78748 1.50129,0.64 0.97921,-0.11508 1.90599,-0.5914 2.05949,-1.05848 z M 312,214.26688 c 0.21755,-0.352 0.0906,-0.64 -0.28222,-0.64 -0.37278,0 -0.67778,0.288 -0.67778,0.64 0,0.352 0.12701,0.64 0.28223,0.64 0.15523,0 0.46023,-0.288 0.67777,-0.64 z m -36.8,5.93865 c -0.88,-0.15787 -1.8201,-0.49715 -2.08912,-0.75396 -0.68915,-0.65789 1.3936,-9.46188 2.44476,-10.33427 1.49802,-1.24325 2.07526,-0.15297 1.35255,2.55466 -0.37502,1.40502 -0.55278,2.67353 -0.39502,2.8189 0.15776,0.14537 1.19461,0.1259 2.30411,-0.0433 1.66557,-0.25395 2.19535,-0.77074 3.03865,-2.96415 1.44391,-3.75557 3.76546,-6.48949 5.08174,-5.98439 1.76649,0.67787 1.25906,3.78581 -1.17767,7.21313 -1.30415,1.83432 -2.24,3.91576 -2.24,4.98204 0,1.64155 -0.1685,1.78913 -1.62532,1.42349 -1.01376,-0.25443 -2.15102,-0.0397 -3.02241,0.57062 -0.76839,0.53821 -1.54899,0.93933 -1.73467,0.8914 -0.18568,-0.0479 -1.0576,-0.21633 -1.9376,-0.3742 z m -26.08,-1.86857 c -0.44,-0.18521 -0.8,-0.74475 -0.8,-1.24341 0,-0.63383 0.78448,-0.90667 2.60693,-0.90667 2.13703,0 2.56864,0.20188 2.39453,1.12 -0.21189,1.11729 -2.60209,1.7033 -4.20146,1.03008 z m 88.56927,-8.99414 c -0.72075,-0.72077 -0.43897,-1.47594 0.55073,-1.47594 0.528,0 0.96,0.271 0.96,0.60223 0,0.80703 -0.99941,1.38502 -1.51073,0.87371 z m 43.52055,244.93282 3.28981,-0.009 0.0789,-14.88 c 0.0434,-8.184 0.21141,-17.472 0.37339,-20.64 0.8802,-17.21538 0.98565,-53.69016 0.21279,-73.60001 -1.10378,-28.43469 -0.94485,-63.51786 0.34823,-76.86527 0.64271,-6.63427 1.11258,-20.75291 1.35032,-40.57474 0.20053,-16.72 0.66784,-35.2505 1.03845,-41.1789 0.37062,-5.92839 0.51574,-10.93701 0.32249,-11.13026 -0.33394,-0.33394 -4.36391,-0.39087 -17.34418,-0.24498 -3.168,0.0356 -11.52,-0.28391 -18.56,-0.71003 -17.38105,-1.05203 -97.52506,-0.97052 -105.92,0.10773 -4.07204,0.52301 -15.61593,0.75989 -34.9544,0.71725 l -28.87441,-0.0637 -0.39855,2.41143 c -0.50626,3.06315 -0.51266,9.65304 -0.0112,11.52404 l 0.38397,1.43261 25.04729,-0.0394 c 26.13198,-0.0411 47.73971,0.69241 68.88729,2.33849 8.94204,0.69603 21.96501,0.97257 45.9379,0.97548 32.54522,0.004 43.5731,-0.32954 45.61658,-1.3795 0.54697,-0.28105 1.41097,-0.25337 1.92,0.0615 0.78048,0.48277 0.89745,3.55996 0.7464,19.63534 -0.0985,10.48458 -0.51411,21.65487 -0.92355,24.82287 -0.40942,3.168 -0.79317,7.488 -0.85275,9.6 -0.0596,2.112 -0.33635,7.23206 -0.61502,11.37792 -0.39006,5.80301 -0.3909,7.74931 -0.5686,9.11378 -0.38144,2.92881 -0.38144,3.10987 -0.38144,3.10987 -0.22248,1.70823 -0.33746,2.73846 -0.63952,29.10517 -0.176,15.3633 -0.176,31.38927 0,35.61327 0.3194,13.63652 0.45709,4.40219 0.11349,16.32 -0.11358,4.048 -0.0107,12.04553 0.22867,17.77229 0.10295,15.30763 0.46678,17.3065 0.6364,29.97441 0.54447,17.46354 0.36375,27.92233 0.35961,38.48049 v 16.75068 l 3.65091,0.24192 c 2.008,0.13306 4.22691,0.15097 4.93091,0.0398 0.704,-0.11116 2.76042,-0.20605 4.56981,-0.21085 z m 24.33189,-19.41711 c 0.16667,-0.16667 -0.0224,-15.23597 -0.42016,-33.48734 -0.79823,-36.62775 -1.3803,-90.16015 -1.35594,-124.7043 0.0146,-20.70755 0.2478,-26.93037 1.97867,-52.80001 0.8071,-12.06298 0.56193,-65.63387 -0.30428,-66.48564 -0.67219,-0.66101 -36.30746,-1.67436 -58.88,-1.67436 -24.76476,0 -75.64435,0.94721 -86.72,1.61444 -6.16,0.3711 -21.856,0.60766 -34.88,0.5257 l -23.68,-0.14902 -0.0337,4.76443 c -0.0186,2.62045 0.0909,5.98845 0.24324,7.48445 l 0.27696,2.72 19.59676,-0.0281 c 10.77823,-0.0155 21.75677,-0.29707 24.39677,-0.6258 9.27593,-1.15502 65.3439,-1.49739 90.56,-0.55298 25.01058,0.93672 38.32527,1.09293 48.32,0.56688 l 6.08,-0.32 0.33464,2.56 c 0.18405,1.408 -0.0333,7.168 -0.48308,12.80001 -0.44975,5.632 -0.95269,21.904 -1.11764,36.16 -0.37583,32.48224 -0.69523,40.42058 -2.05534,51.08242 -0.78753,6.17342 -0.90608,9.0022 -0.43012,10.26316 0.43346,1.14836 0.45667,3.47524 0.0682,6.83759 -0.62582,5.41685 -0.27054,31.20148 0.81537,59.17684 0.6181,15.92376 0.56843,24.06921 -0.4126,67.65923 l -0.39204,17.41923 9.09564,-0.25189 c 5.0026,-0.13854 9.232,-0.38826 9.39867,-0.55493 z"
     id="path144"
     inkscape:connector-curvature="0"
     sodipodi:nodetypes="ccccscsccccscccccsssccscccsccccccccsccscccccccssscssccscccccccssssssccsssccsssssccccccssssscsccsscsscssscsccssccscsccscccccscccssscssssscsscccccscscscccccccccsccccsccccscccccssccccscsscccsccsscccccscscssccsscssccccccccccccscscccccccccccccsscsccscccccscccscccccccccccsccccccccscccccccscccscccccsccscscccccscccsscssssccsccscccsccssccssccscccccccccscscccsccscccsccssscccscsscsscccccccsccsccscssssccccccssscccccscccssccccccsscccsscccscscscscsccccccssccccccsssscccccccccccssscssscccccssccccssccsscscc"
     inkscape:export-filename="/home/phigit/Documents/Misc_Projects/Talks/2020-04-23-KreativeComputere/Images/RettetStil.png"
     inkscape:export-xdpi="284.10999"
     inkscape:export-ydpi="284.10999" />
</svg>
