<?xml version="1.0" encoding="UTF-8" standalone="no"?>
<!-- Created with Inkscape (http://www.inkscape.org/) -->

<svg
   xmlns:dc="http://purl.org/dc/elements/1.1/"
   xmlns:cc="http://creativecommons.org/ns#"
   xmlns:rdf="http://www.w3.org/1999/02/22-rdf-syntax-ns#"
   xmlns:svg="http://www.w3.org/2000/svg"
   xmlns="http://www.w3.org/2000/svg"
   xmlns:sodipodi="http://sodipodi.sourceforge.net/DTD/sodipodi-0.dtd"
   xmlns:inkscape="http://www.inkscape.org/namespaces/inkscape"
   version="1.1"
   id="svg64"
   width="816.64001"
   height="1122.5601"
   viewBox="0 0 816.64001 1122.5601"
   sodipodi:docname="Tandhjul.svg"
   inkscape:version="0.92.4 (5da689c313, 2019-01-14)">
  <metadata
     id="metadata70">
    <rdf:RDF>
      <cc:Work
         rdf:about="">
        <dc:format>image/svg+xml</dc:format>
        <dc:type
           rdf:resource="http://purl.org/dc/dcmitype/StillImage" />
        <dc:title></dc:title>
      </cc:Work>
    </rdf:RDF>
  </metadata>
  <defs
     id="defs68" />
  <sodipodi:namedview
     pagecolor="#ffffff"
     bordercolor="#666666"
     borderopacity="1"
     objecttolerance="10"
     gridtolerance="10"
     guidetolerance="10"
     inkscape:pageopacity="0"
     inkscape:pageshadow="2"
     inkscape:window-width="1280"
     inkscape:window-height="780"
     id="namedview66"
     showgrid="false"
     inkscape:zoom="0.97633974"
     inkscape:cx="332.71288"
     inkscape:cy="534.2528"
     inkscape:window-x="0"
     inkscape:window-y="0"
     inkscape:window-maximized="1"
     inkscape:current-layer="svg64" />
  <path
     style="fill:#000000;stroke-width:0.64000005;fill-opacity:1"
     d="m 317.96535,594.71434 c -0.38666,-0.72247 -1.49071,-1.30707 -2.69182,-1.42533 -1.79012,-0.17625 -2.29637,-0.70226 -4.18753,-4.35103 -1.18317,-2.28279 -1.86331,-4.24651 -1.5114,-4.36381 0.35189,-0.1173 1.73267,-1.67952 3.06837,-3.47161 1.33571,-1.79208 3.20877,-4.29237 4.16235,-5.55619 3.66228,-4.85374 1.72406,-6.71564 -8.0455,-7.72869 -3.32647,-0.34494 -7.44317,-1.14375 -9.14821,-1.77514 l -3.10008,-1.14798 -0.20587,-3.50302 c -0.28414,-4.83458 0.74078,-7.82686 3.36697,-9.82996 1.94453,-1.48316 2.77698,-1.67306 7.33413,-1.67306 4.74578,0 5.27863,-0.13519 6.93719,-1.76 5.19216,-5.08653 5.27168,-7.24756 0.48758,-13.25114 -1.936,-2.42949 -3.52,-4.63329 -3.52,-4.89734 0,-0.26405 -0.46854,-0.94863 -1.0412,-1.52129 -0.9616,-0.9616 -0.95578,-1.23062 0.0761,-3.51886 3.64566,-8.08463 13.67821,-9.53082 19.09158,-2.75204 0.81246,1.01739 1.84206,1.46067 3.39266,1.46067 1.96007,0 2.34385,-0.28158 3.21036,-2.35542 0.54128,-1.29547 1.20632,-3.7608 1.47785,-5.4785 0.27153,-1.7177 0.7988,-3.4282 1.17171,-3.80111 1.43616,-1.43617 10.84946,-2.31928 15.27888,-1.43339 2.36569,0.47314 4.06093,3.34196 4.06566,6.88028 0.005,3.80665 1.1284,7.34388 2.57865,8.12003 1.58644,0.84904 3.07765,0.0747 10.19786,-5.29536 l 5.42009,-4.08783 2.18923,1.48565 c 1.20407,0.8171 2.39851,1.48565 2.65429,1.48565 1.11788,0 5.11631,6.08406 5.11631,7.78503 0,0.99823 0.26913,1.81497 0.59808,1.81497 0.32894,0 2.77694,-1.73147 5.44,-3.84771 4.30792,-3.42335 4.84192,-4.08524 4.84192,-6.00163 0,-1.18466 -0.36,-2.44224 -0.8,-2.79462 -0.44,-0.35238 -3.1139,-0.76842 -5.942,-0.92453 -6.54547,-0.36133 -13.25065,-3.20939 -15.58854,-6.62131 -1.40225,-2.04646 -1.48896,-2.61909 -1.07997,-7.13238 0.37598,-4.14921 0.75021,-5.29303 2.4225,-7.40447 2.45588,-3.1008 3.92565,-3.67335 9.42968,-3.67335 6.63712,0 8.21899,-0.46863 8.6809,-2.5717 0.34386,-1.56556 -0.15657,-2.35095 -4.06062,-6.37288 -5.54647,-5.71396 -9.0344,-12.52016 -7.66766,-14.96237 1.26369,-2.2581 6.42932,-5.53306 8.72735,-5.53306 1.24166,0 2.7662,-0.46029 3.38784,-1.02287 2.55037,-2.30805 8.85434,2.08422 7.07671,4.93067 -0.65907,1.05533 -0.4014,1.61485 1.88677,4.09722 2.93396,3.18298 5.33772,3.74896 7.19694,1.69454 1.05665,-1.16758 2.66205,-6.3637 3.07611,-9.95626 0.33715,-2.92526 2.80605,-4.31091 8.17075,-4.58574 3.24969,-0.16649 5.37792,0.0748 7.24325,0.82114 1.93566,0.77449 2.70895,0.85442 2.89406,0.2991 0.44397,-1.33193 2.56895,-0.81383 3.97061,0.96808 1.65605,2.10533 1.5939,6.14633 -0.0995,6.46702 -0.80501,0.15245 -1.22458,-0.48877 -1.67162,-2.55468 -0.55037,-2.54338 -0.59748,-2.35941 -0.60491,2.36178 -0.0123,7.85138 1.6334,11.84 4.88531,11.84 1.26917,0 3.33059,-1.71903 8.8316,-7.36473 7.9473,-8.15635 9.42849,-9.07362 12.54501,-7.76891 2.29211,0.95958 6.84939,5.67949 6.84939,7.09382 0,2.68928 -4.84326,8.62468 -10.2161,12.51983 -0.7673,0.55626 -1.69971,2.43274 -2.21711,4.4619 -0.76663,3.00668 -0.76497,3.74928 0.0117,5.25129 0.96084,1.85806 1.21924,1.9382 9.80569,3.0413 6.33519,0.81388 7.22002,1.70784 6.37975,6.44551 -0.34336,1.936 -0.89996,5.08623 -1.2369,7.00052 -0.46363,2.6341 -0.41868,3.60037 0.18482,3.97335 0.51968,0.32117 0.57637,0.69107 0.16276,1.06202 -0.66316,0.59479 -10.80265,2.68411 -13.02598,2.68411 -0.70481,0 -1.91106,0.88417 -2.68056,1.96483 l -1.39909,1.96483 2.41338,3.50411 c 1.32735,1.92726 3.95333,5.22997 5.8355,7.33936 3.79983,4.25854 3.68604,4.0179 2.73772,5.78985 -0.49789,0.93033 -0.47726,1.52844 0.0757,2.19473 0.59608,0.71824 0.5293,1.26814 -0.30944,2.54823 -1.12747,1.72074 -1.68692,2.00474 -7.54068,3.82797 l -3.65882,1.13959 -4.24298,-3.77675 c -2.33364,-2.07721 -5.29517,-4.70193 -6.58118,-5.83272 -2.68405,-2.36008 -6.05678,-2.84669 -6.82043,-0.98403 -0.25255,0.616 -0.6956,3.34963 -0.98456,6.07472 -0.7044,6.64312 -2.49061,9.85112 -6.01574,10.8042 -3.66542,0.991 -7.25199,0.82108 -10.13792,-0.48029 -2.80976,-1.26703 -4.87376,-4.70651 -6.19818,-10.32875 -0.89266,-3.78941 -2.43995,-5.26988 -5.50775,-5.26988 -1.98977,0 -6.01944,2.43322 -7.95362,4.80261 -1.46507,1.79473 -6.48082,4.79739 -8.01374,4.79739 -1.47678,0 -3.0483,-1.49864 -5.58624,-5.32719 l -1.62224,-2.44718 -1.36431,1.46442 c -1.55898,1.67337 -2.95786,5.76936 -2.43538,7.1309 0.38681,1.00802 3.21403,1.73905 6.72566,1.73905 1.24506,0 3.73925,0.46511 5.54265,1.03358 2.88081,0.9081 3.41213,1.3557 4.37625,3.68673 1.34586,3.25398 1.36275,4.39367 0.12682,8.5555 -1.46265,4.92529 -3.75728,6.56419 -9.19058,6.56419 -2.49336,0 -4.62586,0.32298 -5.07089,0.768 -1.30598,1.30598 -0.854,3.39014 1.152,5.312 1.15793,1.10937 1.92,2.4922 1.92,3.48397 0,0.90446 0.28307,2.63151 0.62906,3.83787 0.58182,2.02867 0.46166,2.36078 -1.6,4.42244 -1.22599,1.22598 -2.22906,2.4544 -2.22906,2.72982 0,0.27542 -1.01232,1.2729 -2.2496,2.21662 l -2.2496,1.71585 -2.89698,-1.10637 c -1.59334,-0.6085 -3.33106,-1.76885 -3.8616,-2.57856 -1.01403,-1.5476 -3.06801,-2.54158 -6.44962,-3.12113 -1.45474,-0.24932 -2.4942,0.0197 -3.68,0.95247 -1.48501,1.16811 -1.6526,1.73774 -1.6526,5.61732 0,5.30483 -1.39152,10.2301 -3.43181,12.14686 -1.3318,1.25116 -6.94873,3.47513 -8.0299,3.17936 -0.20806,-0.0569 -2.45279,-0.27291 -4.98828,-0.48 l 3e-5,0 c -2.53549,-0.20708 -4.98349,-0.75111 -5.44,-1.20895 -0.57754,-0.57923 -0.79634,-2.62331 -0.71931,-6.72 0.0822,-4.37174 -0.16553,-6.46428 -0.96217,-8.12757 -1.55376,-3.24406 -3.34921,-3.1785 -8.74853,0.31945 -6.10232,3.95339 -6.37506,5.23552 -0.68232,3.20742 1.38473,-0.49332 2.75273,-0.75168 3.04,-0.57414 0.98401,0.60816 0.52236,2.13774 -0.933,3.09133 -2.96398,1.94208 -7.31681,1.17867 -8.77086,-1.53824 m 32.43511,7.68009 c 3.10544,-1.89349 4.24339,-4.65682 4.38033,-10.63693 0.0816,-3.56145 0.44685,-5.67227 1.17356,-6.78135 2.88837,-4.40821 10.94994,-4.10069 14.87042,0.56725 1.91174,2.27623 2.0945,2.34816 4.4702,1.75919 1.94348,-0.4818 2.77831,-1.16545 3.87604,-3.17407 0.76947,-1.408 1.5894,-3.59454 1.82206,-4.859 0.37492,-2.03759 0.16238,-2.57535 -1.86926,-4.72952 -1.76518,-1.87164 -2.29003,-2.96181 -2.28248,-4.741 0.0171,-4.03044 1.79256,-5.19048 7.94412,-5.19048 4.18728,0 4.20299,-0.007 6.12207,-2.65602 2.18518,-3.01655 2.40411,-5.25376 0.83597,-8.54221 -1.2855,-2.69571 -2.6224,-3.14696 -8.05528,-2.71895 -3.19213,0.25149 -4.38704,0.0666 -6.05668,-0.93696 -1.99865,-1.20136 -2.08,-1.40994 -2.08,-5.33316 0,-3.90183 0.1306,-4.24323 2.94495,-7.6985 4.80974,-5.90506 5.35139,-9.85519 1.83372,-13.37287 -3.05401,-3.05401 -5.60405,-3.06253 -9.36892,-0.0313 -7.52135,6.0557 -10.49678,7.0477 -13.37136,4.45798 -1.82003,-1.63967 -2.49447,-3.46317 -3.40547,-9.20756 -0.69501,-4.38242 -0.89399,-4.79677 -2.51118,-5.22928 -1.85415,-0.49588 -10.02871,0.42035 -10.76814,1.20693 -0.23883,0.25405 -1.05446,2.56728 -1.81251,5.1405 -1.66969,5.6678 -2.98887,7.16141 -6.32506,7.16141 -2.42962,0 -6.23369,-2.14216 -8.33439,-4.6933 -0.57276,-0.69557 -1.84073,-1.06671 -3.64431,-1.06671 -3.26674,0 -5.76646,1.83376 -6.61265,4.85094 -0.7192,2.56436 0.24754,4.75587 4.02369,9.12132 3.57966,4.1383 3.68806,5.50851 0.87163,11.01812 -2.60872,5.10329 -4.96584,6.4566 -12.16744,6.98577 -3.48627,0.25617 -5.22702,0.66568 -5.60155,1.31776 -0.29885,0.52035 -0.96508,1.51279 -1.48049,2.20543 -0.84138,1.13068 -0.77435,1.57065 0.65619,4.30649 1.72161,3.29252 3.80886,4.34332 8.64179,4.3506 4.18613,0.006 8.96687,1.36076 10.61288,3.00677 1.35083,1.35083 1.53022,2.01024 1.27355,4.68141 -0.24897,2.59108 -0.79615,3.66235 -3.28402,6.42947 -4.67582,5.20064 -4.71718,7.53408 -0.17361,9.79449 l 2.38909,1.18857 3.32681,-2.20732 c 4.91852,-3.26342 7.5826,-4.0041 9.96703,-2.77107 3.2634,1.68757 4.53639,5.02053 4.55013,11.91326 0.006,2.89245 0.31791,5.14026 0.77764,5.6 1.30551,1.30551 9.45102,0.97112 11.84093,-0.4861 z m -7.81598,-31.39731 c -0.21367,-0.34572 -0.91559,-0.6286 -1.55982,-0.6286 -1.57022,0 -4.05154,-2.0763 -4.28353,-3.58434 -1.07765,-7.00525 -1.49432,-14.67773 -0.89397,-16.46122 1.06424,-3.16161 5.38288,-6.37083 9.25488,-6.87739 4.00865,-0.52444 5.4769,10e-4 9.24659,3.31174 3.00281,2.63689 3.7652,4.27404 4.37029,9.38463 0.49694,4.19715 -1.99744,10.68187 -4.72869,12.29335 -1.16528,0.68754 -2.11964,1.61978 -2.12079,2.07165 -0.003,1.00224 -8.68519,1.46063 -9.28496,0.49018 z m 0.32705,-1.88608 c 0,-0.60419 -2.02357,-1.94252 -2.93712,-1.94252 -0.2537,0 0.06,0.576 0.69712,1.28 1.24105,1.37135 2.24,1.66681 2.24,0.66252 z m 7.4643,-6.14064 c 5.41946,-3.15399 6.70819,-8.40601 2.92773,-11.93157 -2.49645,-2.32814 -4.19583,-3.07031 -7.03022,-3.07031 -3.6269,0 -5.84874,2.52855 -6.53889,7.44152 -0.62107,4.42122 0.42186,7.41142 3.10123,8.89156 1.99775,1.10361 3.94813,0.75927 7.54015,-1.3312 z m 76.8846,-14.72066 c 1.37205,-0.43571 2.6911,-4.49478 2.6911,-8.28122 0,-1.95861 0.43009,-4.59046 0.95575,-5.84854 0.52567,-1.2581 0.83481,-2.48313 0.68699,-2.72231 -0.14782,-0.23917 0.21409,-0.47776 0.80425,-0.53018 0.59016,-0.0524 2.29368,-0.36286 3.78562,-0.68986 2.45101,-0.5372 2.94663,-0.42244 5.13918,1.18998 1.33461,0.98149 3.66774,3.25647 5.18472,5.05553 1.51698,1.79905 3.42989,3.71114 4.2509,4.24909 1.35477,0.88768 1.69984,0.87078 3.7331,-0.18281 1.23219,-0.63849 3.12258,-2.27537 4.20086,-3.6375 1.92326,-2.42954 1.93991,-2.51146 0.87641,-4.31183 -0.59626,-1.00938 -2.76185,-3.63891 -4.81244,-5.8434 -5.26129,-5.65618 -5.60319,-6.43167 -4.82431,-10.94217 0.62418,-3.61457 0.73623,-3.77319 3.50338,-4.95933 2.00782,-0.86065 3.59616,-1.10739 5.33687,-0.82903 5.51712,0.88222 7.35717,-1.08925 8.05838,-8.63391 0.4783,-5.14636 0.92017,-4.78192 -6.69856,-5.52483 -7.41089,-0.72265 -10.3411,-3.34909 -10.3411,-9.26906 0,-2.76327 1.2246,-4.45624 8.10855,-11.20985 5.34736,-5.24611 6.13593,-7.2537 3.77612,-9.61351 -3.06059,-3.06059 -4.7134,-2.36103 -12.23454,5.17836 -8.14613,8.1659 -9.68464,8.97352 -14.19299,7.45037 -4.04096,-1.36524 -5.29714,-3.81803 -5.29714,-10.34302 0,-3.35886 -0.32685,-4.993 -1.34322,-6.71561 l -1.34321,-2.27659 h -4.72203 c -4.20033,0 -4.82268,0.1591 -5.63303,1.44 -1.02498,1.62019 -2.95334,9.70589 -2.96831,12.44635 -0.007,1.34949 -0.15649,1.56173 -0.60217,0.85708 -0.51468,-0.81371 -0.89403,-0.79272 -2.89192,0.16 -1.26474,0.60312 -2.70787,1.09657 -3.20694,1.09657 -0.49908,0 -3.58531,-2.33264 -6.85829,-5.18366 -6.3624,-5.54212 -8.21279,-6.60695 -10.35541,-5.95908 -4.58853,1.38745 -5.59234,6.20834 -2.32016,11.14274 1.05041,1.584 3.61875,4.464 5.70742,6.40001 5.47531,5.07507 5.99076,8.84175 1.58277,11.56604 -2.1029,1.29967 -2.64923,1.37032 -5.92108,0.76578 -3.53366,-0.65292 -8.58595,-0.28626 -10.25312,0.74411 -1.4767,0.91265 -2.6313,4.68489 -2.6313,8.5968 v 3.79383 l 3.30958,2.12375 c 2.31586,1.48608 4.73973,2.3687 8.07273,2.93954 2.61973,0.44869 4.98533,0.67847 5.2569,0.51063 0.69755,-0.43111 4.58436,0.9536 5.92079,2.10934 1.87035,1.61746 1.47121,5.80045 -0.85536,8.9641 -1.08646,1.47734 -2.31046,2.69915 -2.72,2.71513 -1.27989,0.0499 -7.35222,5.99192 -8.08025,7.90682 -0.55579,1.46182 -0.46822,2.28455 0.44108,4.14403 1.75582,3.59063 3.64804,3.43812 8.49507,-0.68468 6.48045,-5.51217 8.15021,-6.44942 10.65334,-5.97983 1.20064,0.22524 3.18268,0.99937 4.40455,1.72028 1.73263,1.02228 2.22157,1.72395 2.22157,3.1881 0,1.03254 0.432,2.91126 0.96,4.17494 0.528,1.26369 0.96,2.9378 0.96,3.72026 0,3.65007 6.28364,5.64673 12.0289,3.82225 z m -6.42681,-35.45373 c -1.31884,-0.25593 -2.92552,-0.94281 -3.57039,-1.5264 -0.64486,-0.5836 -1.60047,-1.06109 -2.12356,-1.06109 -2.26278,0 -4.45138,-9.19098 -3.2364,-13.59126 0.43274,-1.56725 0.41796,-2.50305 -0.0469,-2.96789 -0.47853,-0.47852 -0.31675,-0.79166 0.54812,-1.06099 0.67486,-0.21016 2.73313,-1.07757 4.57392,-1.9276 3.7283,-1.72163 5.80023,-1.61522 10.05732,0.5165 1.97105,0.987 2.77559,1.10701 3.67132,0.54761 1.65452,-1.03326 1.80446,-0.93061 1.80446,1.23541 0,1.07348 0.40413,2.73327 0.89806,3.68843 0.49393,0.95516 1.0957,3.05465 1.33727,4.66553 0.38589,2.57332 0.19878,3.31963 -1.54127,6.14758 -1.58259,2.57202 -2.6399,3.49273 -5.26262,4.58268 -3.51132,1.45924 -3.47941,1.45587 -7.10934,0.75149 z m 7.00314,-3.83933 c 3.19945,-1.95083 4.1999,-3.92999 3.69352,-7.30677 -0.43484,-2.89972 -2.23643,-5.34155 -3.40717,-4.61799 -0.346,0.21384 -1.25453,-0.40595 -2.01898,-1.3773 -1.20284,-1.52843 -1.82556,-1.75954 -4.62733,-1.71732 -2.82865,0.0426 -3.47712,0.31703 -5.13558,2.17317 -1.68574,1.88667 -1.85474,2.44099 -1.5103,4.9539 0.4652,3.39404 1.52873,5.05166 4.72086,7.35794 2.85712,2.06424 5.49671,2.23448 8.28498,0.53437 z m 3.74211,3.21606 c -0.43717,-0.70735 0.57241,-1.47113 1.16339,-0.88016 0.60851,0.60851 0.4951,1.47594 -0.19296,1.47594 -0.33122,0 -0.76792,-0.2681 -0.97043,-0.59578 z M 412.18548,481.4172 c -1.10482,-1.76909 -1.00553,-2.04776 0.64605,-1.8132 0.92542,0.13143 1.51308,0.7191 1.64451,1.64452 0.25659,1.80663 -1.20062,1.91394 -2.29056,0.16868 z m -14.23395,-18.56869 c -0.50761,-0.31372 -1.06693,-0.4264 -1.24293,-0.2504 -0.176,0.176 0.0953,0.57668 0.60293,0.8904 0.50761,0.31373 1.06693,0.4264 1.24293,0.2504 0.176,-0.176 -0.0953,-0.57667 -0.60293,-0.8904 z m -97.92,109.88389 c -1.232,-0.42013 -2.24,-1.19588 -2.24,-1.72388 0,-0.76939 0.76246,-0.9194 3.84,-0.75552 4.43325,0.23606 5.72505,1.03513 3.87768,2.39861 -1.47387,1.08781 -2.48113,1.10266 -5.47768,0.0808 z m 8.02307,-37.39244 c -1.80235,-2.6524 -2.18546,-5.93144 -0.69302,-5.93144 0.51153,0 1.4869,1.25883 2.16748,2.79741 0.68058,1.53857 1.55806,2.99557 1.94995,3.23777 1.17552,0.72651 0.80422,2.28482 -0.54441,2.28482 -0.73478,0 -1.93117,-0.99224 -2.88,-2.38856 z m 157.09693,0.78856 c 0,-0.528 0.288,-0.96 0.64,-0.96 0.352,0 0.64,0.432 0.64,0.96 0,0.528 -0.288,0.96 -0.64,0.96 -0.352,0 -0.64,-0.432 -0.64,-0.96 z m -88.84657,-48.09819 c 0.30249,-1.54411 4.93142,-3.01218 6.81214,-2.16048 0.8606,0.38972 1.39909,1.11492 1.28,1.72379 -0.15896,0.81276 -1.12296,1.10092 -4.25214,1.27109 -3.48364,0.18944 -4.01783,0.0734 -3.84,-0.8344 z"
     id="path76"
     inkscape:connector-curvature="0"
     sodipodi:nodetypes="ccscccsccccscsssccscscsccsccsssssscccsscccsccccsccccsccsccscccsccccscccccccscscccccsscsccccsccssccsccsccccccscccccsssccsccccccccsssccccsccsssccsscscsssccccsccccccccccsscscscccsscsscsscscscccccccccccccccsssssssccsccccscssccccscscscccccsccscscccssccsccssccccccscccscscccscsscscscsccscccccsccscsssssccccc" />
</svg>
