<?xml version="1.0" encoding="UTF-8" standalone="no"?>
<!-- Created with Inkscape (http://www.inkscape.org/) -->

<svg
   xmlns:dc="http://purl.org/dc/elements/1.1/"
   xmlns:cc="http://creativecommons.org/ns#"
   xmlns:rdf="http://www.w3.org/1999/02/22-rdf-syntax-ns#"
   xmlns:svg="http://www.w3.org/2000/svg"
   xmlns="http://www.w3.org/2000/svg"
   xmlns:sodipodi="http://sodipodi.sourceforge.net/DTD/sodipodi-0.dtd"
   xmlns:inkscape="http://www.inkscape.org/namespaces/inkscape"
   version="1.1"
   id="svg964"
   width="816.64001"
   height="1122.5601"
   viewBox="0 0 816.64001 1122.5601"
   sodipodi:docname="VectorSkriverStil.svg"
   inkscape:version="0.92.4 (5da689c313, 2019-01-14)">
  <metadata
     id="metadata970">
    <rdf:RDF>
      <cc:Work
         rdf:about="">
        <dc:format>image/svg+xml</dc:format>
        <dc:type
           rdf:resource="http://purl.org/dc/dcmitype/StillImage" />
        <dc:title />
      </cc:Work>
    </rdf:RDF>
  </metadata>
  <defs
     id="defs968" />
  <sodipodi:namedview
     pagecolor="#ffffff"
     bordercolor="#666666"
     borderopacity="1"
     objecttolerance="10"
     gridtolerance="10"
     guidetolerance="10"
     inkscape:pageopacity="0"
     inkscape:pageshadow="2"
     inkscape:window-width="1280"
     inkscape:window-height="780"
     id="namedview966"
     showgrid="false"
     inkscape:zoom="1.9526795"
     inkscape:cx="356.14941"
     inkscape:cy="455.1598"
     inkscape:window-x="0"
     inkscape:window-y="0"
     inkscape:window-maximized="1"
     inkscape:current-layer="svg964" />
  <path
     style="fill:#000000;fill-opacity:1;stroke-width:0.64000005"
     d="m 327.90757,798.47311 c -0.55847,-0.55847 -1.77043,-2.00525 -2.69323,-3.21511 -1.92793,-2.52768 -1.9066,-3.50784 0.38149,-17.52947 3.43832,-21.07027 6.00623,-45.60404 4.9906,-47.68001 -0.34443,-0.704 -1.56001,-2.288 -2.70128,-3.52 -1.98759,-2.1456 -6.72353,-8.39673 -9.77842,-12.90694 -0.79463,-1.17318 -5.40129,-7.46106 -10.23701,-13.97306 -4.83572,-6.512 -9.54297,-12.992 -10.46055,-14.4 -0.91759,-1.408 -2.64693,-3.61376 -3.84299,-4.9017 -1.19605,-1.28793 -4.19065,-4.86144 -6.65465,-7.94112 -11.13935,-13.92288 -13.29085,-16.3623 -13.89657,-15.75661 -0.5736,0.57357 -1.20452,4.17722 -3.13436,17.90241 -0.61835,4.39782 -1.0184,5.51756 -2.34366,6.56 -2.16382,1.70208 -3.44566,1.58208 -5.37185,-0.50298 -2.29546,-2.48474 -2.37114,-2.99654 -1.39601,-9.44 1.75079,-11.5689 2.07538,-14.19866 2.51858,-20.40467 0.65038,-9.10705 0.95291,-9.39595 15.62387,-14.91959 9.43734,-3.55318 14.51957,-5.40449 16.57737,-6.03866 1.19754,-0.36906 5.14686,-2.21433 8.77626,-4.10061 3.62939,-1.88628 7.96995,-3.89509 9.64568,-4.46401 l 3.04679,-1.03441 1.74453,2.12097 1.74454,2.12098 5.31242,-2.82754 c 2.92183,-1.55515 5.99926,-3.35515 6.83872,-4 0.83947,-0.64486 1.91947,-1.17247 2.4,-1.17247 1.06045,0 0.96552,1.38941 1.09037,-15.95762 l 0.10332,-14.35762 2.88,-0.74694 c 1.584,-0.41082 5.70009,-2.20661 9.14687,-3.99066 3.44678,-1.78405 7.41512,-3.43773 8.81854,-3.67483 3.14352,-0.53109 7.77575,0.53081 13.34557,3.05939 3.66527,1.66395 9.64566,3.79807 37.24499,13.29103 3.03378,1.04349 5.94114,1.89725 6.4608,1.89725 3.20051,0 3.61826,4.06766 3.80492,37.049 l 0.12095,21.36899 -2.35132,1.20627 c -1.29322,0.66349 -2.35131,1.60013 -2.35131,2.08148 0,0.9159 -8.89882,8.34381 -15.60632,13.02656 -2.15253,1.50278 -4.94513,3.86112 -6.20579,5.24077 -1.26066,1.37958 -3.08174,2.70656 -4.04686,2.9488 -1.22105,0.30649 -1.55119,0.64396 -1.08544,1.10976 0.67713,0.67712 10.30857,-5.46919 19.09186,-12.18343 7.75868,-5.93107 9.86654,-7.30906 10.69429,-6.99142 0.51598,0.19801 0.95861,1.875 1.15402,4.37222 0.27312,3.49056 0.12932,4.26061 -1.03939,5.56595 l -1.35637,1.51495 2.82781,2.32505 c 1.5553,1.27879 3.79887,3.18906 4.9857,4.24506 l 2.15788,1.92 0.61094,8.96 c 0.33601,4.928 0.4221,13.568 0.19129,19.2 l -0.41964,10.24 -2.93699,2.71316 c -1.61535,1.49228 -3.28697,2.71628 -3.71472,2.72 -0.42776,0.006 -1.76445,-0.85952 -2.97044,-1.9184 l -2.19271,-1.92519 0.30647,-14.64237 c 0.21999,-10.51097 0.10194,-14.76883 -0.41839,-15.09037 -0.81924,-0.5063 -4.48775,2.21831 -13.78721,10.23981 -3.52,3.03629 -6.93649,5.73299 -7.59221,5.99277 -1.11492,0.44166 -1.18681,1.36173 -1.10886,14.19143 0.0458,7.54553 0.26163,15.8023 0.47951,18.34841 0.26547,3.10196 0.15257,4.92276 -0.34218,5.51885 -0.40609,0.48935 -0.55128,1.37715 -0.32264,1.97299 0.59212,1.54298 -3.35094,5.48096 -5.47916,5.47207 -1.04077,-0.006 -2.76478,-1.04922 -4.74632,-2.87655 -2.84081,-2.61984 -3.07676,-3.05689 -2.70887,-5.01792 0.22164,-1.1815 0.53503,-6.87104 0.69641,-12.64345 0.16138,-5.77236 0.47337,-14.02324 0.69332,-18.33524 0.262,-5.1367 0.17605,-7.84 -0.24928,-7.84 -0.35705,0 -2.04204,1.14771 -3.74444,2.5504 -4.38267,3.6112 -13.91378,10.7392 -26.96961,20.1696 -4.92758,3.55924 -5.24567,4.33402 -5.24567,12.77658 0,2.1769 -0.42096,6.81671 -0.93548,10.31072 -0.51452,3.49396 -1.53697,13.40871 -2.27211,22.03271 -1.87315,21.97402 -1.62768,20.89702 -5.34709,23.46016 -3.44598,2.37479 -4.93871,2.63501 -6.44928,1.12442 z m 1.83991,-5.75687 c 0.47307,-1.88486 2.14549,-17.89267 2.6691,-25.54771 0.19262,-2.816 0.60215,-5.696 0.91006,-6.4 0.91405,-2.08986 1.16671,-25.92 0.27481,-25.92 -0.83294,0 -1.55233,5.43603 -1.60048,12.09388 -0.0325,4.49248 -1.13991,13.52321 -2.75498,22.46612 -1.53684,8.5097 -2.97446,18.32531 -2.97446,20.30867 0,1.82138 1.53741,4.65133 2.52692,4.65133 0.29387,0 0.72094,-0.74355 0.94903,-1.65229 z m 4.68095,0.85229 c 0.83796,-1.05798 1.8742,-8.83034 2.75181,-20.64 0.39238,-5.28 1.14084,-12.624 1.66324,-16.32 0.52242,-3.696 1.1085,-10.032 1.3024,-14.08 l 0.35257,-7.36 -1.81721,1.75827 -1.81721,1.75833 -0.20006,12.00167 c -0.13094,7.85549 -0.64243,14.87603 -1.48057,20.32173 -2.75375,17.89216 -3.2732,22.00589 -2.86258,22.67034 0.56379,0.91219 1.32947,0.87212 2.10761,-0.11034 z m 53.0241,-46.1682 c 0.18746,-0.48851 0.0964,-4.73651 -0.20235,-9.44 -0.49297,-7.76128 -0.60028,-8.28557 -1.16091,-5.6718 -0.76114,3.5486 -0.44607,16 0.40486,16 0.33966,0 0.77095,-0.39968 0.9584,-0.8882 z m -45.501,-16.42125 c 2.112,-1.73145 5.712,-4.43136 8,-5.99968 2.288,-1.56838 5.744,-4.01747 7.68,-5.44243 1.936,-1.42496 4.816,-3.50726 6.4,-4.62733 2.95354,-2.08838 5.0782,-3.87123 12.30288,-10.32339 2.28005,-2.03622 5.34064,-4.58118 6.80133,-5.65536 1.46069,-1.07424 2.65579,-2.08646 2.65579,-2.24954 0,-0.94771 -2.11264,-4.04281 -3.99202,-5.84851 -2.17664,-2.09126 -2.18371,-2.09293 -3.3538,-0.8 -0.93565,1.03392 -1.96071,1.29344 -5.07337,1.28474 -7.05624,-0.0198 -16.46468,-3.32871 -30.27156,-10.64621 -2.88793,-1.53056 -5.48971,-2.78285 -5.78175,-2.78285 -0.29204,0 -2.763,1.85568 -5.49102,4.12378 -2.72802,2.26809 -5.59823,4.32108 -6.37826,4.56217 -0.78001,0.24116 -3.34567,1.72468 -5.70145,3.29671 -4.03017,2.68947 -5.63677,3.04512 -5.63677,1.24787 0,-0.42573 -1.152,-2.16806 -2.56,-3.87194 -1.408,-1.70387 -2.56,-3.30406 -2.56,-3.55597 0,-0.25184 -1.57868,-2.28096 -3.50819,-4.50899 -4.85161,-5.6023 -4.94687,-6.15616 -1.57366,-9.14957 4.95854,-4.40032 13.24451,-9.81849 20.08344,-13.13241 1.73887,-0.84256 4.07006,-2.2249 5.18041,-3.07181 1.11036,-0.84691 2.66284,-1.53984 3.44995,-1.53984 1.99109,0 7.92233,4.07123 10.56344,7.25075 l 2.20156,2.65037 1.64153,-1.54208 c 0.90284,-0.84819 1.64152,-1.75987 1.64152,-2.02599 0,-0.26617 -2.664,-3.331 -5.92,-6.81075 -3.256,-3.47981 -7.7857,-8.4679 -10.06602,-11.08461 -7.20836,-8.27183 -15.65163,-16.59612 -16.83417,-16.59692 -1.48717,-10e-4 -8.37557,2.32699 -11.30009,3.81896 -3.20733,1.63626 -13.91668,5.78027 -14.93794,5.78027 -0.46517,0 -1.11938,0.24283 -1.45378,0.53963 -0.3344,0.2968 -2.336,1.06537 -4.448,1.70795 -3.38775,1.03073 -13.81166,6.06364 -15.25708,7.3665 -0.2954,0.26624 1.198,2.74803 3.31865,5.51501 2.12066,2.76697 6.21057,8.17318 9.0887,12.01376 2.87812,3.84051 7.77273,10.07315 10.8769,13.85024 3.10417,3.77702 7.37889,9.27475 9.49938,12.21715 2.12049,2.94234 6.5875,8.94976 9.92669,13.34976 7.84641,10.33908 10.65313,14.08359 17.26974,23.04 7.6593,10.36781 8.08505,10.88487 8.9257,10.83937 0.41323,-0.0224 2.47932,-1.45735 4.59132,-3.18881 z m 40.64,-8.64832 c 0,-3.0622 -0.23489,-4.6926 -0.64,-4.44224 -0.96329,0.59533 -0.58896,9.28 0.4,9.28 0.132,0 0.24,-2.17702 0.24,-4.83776 z m 5.11021,-2.94988 c 0.0116,-4.277 -0.52097,-6.213 -1.34947,-4.90599 -0.64568,1.01856 -0.74908,9.09197 -0.12445,9.71661 0.83711,0.83706 1.46419,-1.2096 1.47392,-4.81062 z m 29.50565,-6.12416 c -0.52589,-0.90317 -0.66081,-0.5961 -0.67639,1.53945 -0.0284,3.89415 0.88732,5.74707 1.13693,2.30055 0.10802,-1.49146 -0.0992,-3.21946 -0.46054,-3.84 z m 5.61959,-0.10183 c -0.0668,-1.97254 -0.0498,-9.11693 0.0378,-15.87654 0.0875,-6.75962 -0.03,-12.59636 -0.26124,-12.97044 -1.00092,-1.61952 -1.62722,0.42387 -1.52807,4.98548 0.0588,2.70329 -0.0202,10.18304 -0.17542,16.62156 -0.15525,6.43853 -0.15267,11.83604 0.006,11.99444 0.15841,0.1584 0.6828,-0.0397 1.16532,-0.44007 0.58302,-0.48384 0.83659,-1.93113 0.75591,-4.31443 z m -5.87825,-4.02637 c -0.20431,-0.51053 -0.35596,-0.35891 -0.38667,0.38669 -0.0278,0.67463 0.12348,1.05267 0.33614,0.84 0.21267,-0.21267 0.2354,-0.76467 0.0505,-1.22669 z M 395.13196,702.165 c 2.07876,-1.784 5.50757,-4.78784 7.61957,-6.67526 2.112,-1.88743 6.86401,-5.93799 10.56001,-9.00116 3.696,-3.06316 6.72,-5.92192 6.72,-6.35276 0,-0.90855 -6.62459,-6.7273 -7.65897,-6.7273 -0.38252,0 -2.19136,1.08 -4.01967,2.4 -1.8283,1.32 -4.79348,3.408 -6.58928,4.64 -1.7958,1.232 -5.52184,3.896 -8.28009,5.92 -2.98581,2.19098 -5.67079,3.68 -6.63573,3.68 -2.35796,0 -2.53899,0.88941 -0.48946,2.40467 2.53249,1.87239 3.91319,5.17914 3.91319,9.37204 0,1.97081 0.24319,3.58329 0.54043,3.58329 0.29723,0 2.24123,-1.45958 4.32,-3.24352 z m -76.33835,-14.12064 c 2.62874,-1.36166 9.86908,-6.30125 10.69498,-7.29638 0.93034,-1.12103 0.33613,-1.97498 -1.61706,-2.32391 -0.72942,-0.1303 -1.36527,-0.82464 -1.47824,-1.61421 -0.23695,-1.65619 2.68076,-6.5104 4.22557,-7.03008 3.63769,-1.22368 5.7227,-2.43808 6.25079,-3.64064 0.39262,-0.89408 1.36299,-1.48185 2.79101,-1.69062 1.20402,-0.176 2.29871,-0.6521 2.43265,-1.05792 0.13394,-0.40589 -1.33022,-2.34989 -3.25369,-4.32 -3.05304,-3.12717 -3.80907,-3.58087 -5.95265,-3.57267 -1.35049,0.006 -3.17544,0.43072 -4.05544,0.94553 -0.88,0.51482 -2.77685,1.51123 -4.21523,2.21421 -5.18431,2.53357 -13.74338,8.14048 -17.97811,11.77715 -2.59719,2.2304 -2.6668,3.57856 -0.32586,6.31143 0.99044,1.15622 2.47924,3.11027 3.30844,4.34227 2.96248,4.40154 5.87197,7.68 6.81569,7.68 0.52757,0 1.58829,-0.32589 2.35715,-0.72416 z m -6.62414,-8.71584 c -3.32468,-3.7561 -4.30057,-5.69338 -3.34787,-6.64608 0.49514,-0.4951 0.91561,-0.26317 1.48149,0.81734 0.43458,0.82983 1.90126,2.72628 3.25929,4.21447 2.33254,2.55597 3.1817,4.65427 1.88355,4.65427 -0.32209,0 -1.7965,-1.368 -3.27646,-3.04 z m 3.59576,-3.46906 c -3.64293,-4.0256 -4.19406,-5.01913 -2.7737,-5.00038 0.91515,0.0122 5.45141,4.56678 7.16038,7.18944 0.9824,1.50765 1.00634,1.76 0.16693,1.76 -0.53895,0 -2.58807,-1.77709 -4.55361,-3.94906 z m 4.80075,-3.17452 c -2.74013,-3.44148 -3.00987,-4.07648 -1.99737,-4.70228 0.33938,-0.20972 1.30822,0.71348 2.15295,2.05165 0.84474,1.33818 2.00706,2.82407 2.58293,3.30195 1.12515,0.93383 1.42292,2.63226 0.46149,2.63226 -0.32206,0 -1.76206,-1.47763 -3.2,-3.28358 z m 6.46093,-4.57741 c -1.0728,-1.29261 -2.03653,-4.22272 -1.4983,-4.5554 0.70613,-0.43641 4.0834,3.9913 3.61835,4.74381 -0.53313,0.8626 -1.30469,0.79405 -2.12005,-0.18841 z m 49.67662,19.89299 c 0.4224,-0.4224 0.768,-1.27629 0.768,-1.89747 0,-0.62125 0.55224,-1.42503 1.22718,-1.78624 0.67494,-0.36122 2.07538,-2.35424 3.1121,-4.42887 1.03671,-2.07462 2.35648,-4.44531 2.93282,-5.26816 0.57635,-0.82284 1.0479,-1.9744 1.0479,-2.55904 0,-0.58457 0.504,-1.20147 1.12,-1.37081 2.65542,-0.72992 12.87104,-24.64525 12.43945,-29.12141 -0.33349,-3.45888 -2.05833,-2.30323 -5.05604,3.38758 -1.12051,2.12717 -3.04934,5.54823 -4.28627,7.60237 -1.23694,2.05414 -2.70272,5.20973 -3.25729,7.01242 -0.83603,2.71763 -4.00773,9.82221 -6.17756,13.83763 -0.28531,0.528 -1.25101,2.4425 -2.146,4.25446 -0.89499,1.81197 -2.08098,3.67111 -2.63554,4.13133 -1.32711,1.10138 -5.68578,0.75584 -8.54219,-0.67718 -1.2422,-0.62323 -3.84256,-1.62195 -5.77856,-2.21946 -2.83981,-0.87635 -9.6024,-3.87833 -16.62933,-7.38189 -0.63276,-0.31545 -1.17165,-0.0256 -1.61602,0.8697 -0.36668,0.73869 -1.3038,1.43456 -2.0825,1.5465 -1.40239,0.20147 -1.39921,0.22086 0.33601,2.0432 3.76086,3.94956 19.57224,11.42637 25.75184,12.17734 5.80196,0.70515 8.66075,0.65927 9.472,-0.152 z m 14.40267,-2.592 c 1.44038,-1.144 4.53765,-3.376 6.88282,-4.96 10.44049,-7.05184 17.24252,-13.01901 17.24252,-15.12634 0,-2.12384 -3.85404,0.0115 -13.15408,7.28743 -2.58625,2.02336 -7.02059,5.38918 -9.8541,7.47955 -4.31958,3.18669 -5.15183,4.09139 -5.15183,5.6 0,2.32595 0.82502,2.26861 4.03467,-0.28064 z m -5.95467,-1.40224 c 0,-2.02483 -1.13488,-2.69715 -2.40643,-1.4256 -0.82677,0.82675 -0.85853,1.17843 -0.18022,1.99571 1.24682,1.50234 2.58665,1.20704 2.58665,-0.57011 z m -9.3364,-7.97997 c 2.62076,-2.6839 2.60374,-4.2743 -0.0387,-3.61113 -1.32211,0.33184 -2.58364,-0.59156 -8.41018,-6.15597 -3.77011,-3.60045 -7.20282,-7.16845 -7.62823,-7.9289 -0.42542,-0.76038 -3.59342,-3.82464 -7.04,-6.80941 -3.44659,-2.98477 -8.66851,-7.77805 -11.60428,-10.6517 -2.93577,-2.87366 -5.59977,-5.0629 -5.92,-4.86498 -1.24013,0.76644 -0.53859,3.77811 1.32515,5.68883 7.07693,7.25531 29.48562,31.33934 32.23468,34.64469 2.38264,2.86476 4.05171,2.79136 7.08152,-0.31143 z m -11.1436,0.16813 c 0,-0.55424 -3.62067,-4.94259 -7.23185,-8.76525 l -2.92786,-3.09933 -2.29956,1.81933 c -3.7264,2.94816 -3.06355,4.44935 3.41737,7.73933 4.73407,2.4032 9.0419,3.50182 9.0419,2.30592 z m -30.72,-2.42816 c 0,-0.5072 -0.30061,-1.10803 -0.66803,-1.3351 -0.82634,-0.51072 -2.64886,0.9104 -2.16715,1.68985 0.57317,0.92743 2.83518,0.64442 2.83518,-0.35475 z m 56.70081,-0.42586 c 0.67056,-0.74144 2.26552,-1.88211 3.54436,-2.53484 1.27884,-0.65268 4.87884,-3.75162 8,-6.88653 3.12116,-3.13492 7.28773,-6.72756 9.25905,-7.98362 l 3.58422,-2.28371 0.35205,-10.7616 c 0.45781,-13.99423 0.19843,-38.25592 -0.44176,-41.32161 -0.67559,-3.23522 -1.66114,-3.12826 -8.84552,0.96 -3.24752,1.848 -8.78653,4.80315 -12.3089,6.567 l -6.40431,3.20699 0.11494,3.83301 c 0.0632,2.10815 0.16977,10.10136 0.23678,17.76269 0.067,7.66132 0.36425,14.07947 0.66053,14.26264 0.29627,0.1831 1.14509,-0.75731 1.88625,-2.08973 3.89119,-6.9954 5.10295,-8.78089 6.47621,-9.54245 2.00189,-1.11018 4.6892,-1.09627 5.62318,0.0291 0.96921,1.16782 1.02818,7.18258 0.0816,8.32312 -1.17596,1.41696 -4.31542,8.20608 -4.78313,10.34355 -0.2378,1.08679 -2.43576,5.65191 -4.88437,10.14471 -2.4486,4.4928 -4.452,8.42765 -4.452,8.74406 0,0.98112 1.02639,0.63636 2.30081,-0.7728 z m -122.28512,-5.3719 c 0.31436,-3.14643 0.24568,-4.28947 -0.23074,-3.84 -0.76972,0.72621 -2.06208,8.03706 -1.56547,8.85574 0.6962,1.14778 1.36777,-0.72755 1.79621,-5.01574 z m 69.27765,4.04 c -0.39557,-1.18669 -1.77334,-1.38355 -1.77334,-0.25331 0,0.55731 0.456,1.01331 1.01334,1.01331 0.55733,0 0.89933,-0.34202 0.76,-0.76 z m 4.62666,-3.08 c -0.66281,-1.23846 -2.56,-1.80762 -2.56,-0.768 0,0.80589 1.44983,2.048 2.39052,2.048 0.6562,0 0.69553,-0.29709 0.16948,-1.28 z m 38.47958,-2.58214 c 0.16916,-2.07322 -0.1871,-2.59911 -4.2675,-6.29895 -2.44864,-2.22022 -6.03608,-5.53197 -7.97208,-7.35936 -1.936,-1.82739 -8.61507,-7.84896 -14.84238,-13.38129 -6.22732,-5.53232 -11.55532,-10.41866 -11.84,-10.85852 -0.28469,-0.43986 -0.5381,-2.95974 -0.56313,-5.59974 -0.025,-2.64 -0.11529,-10.05398 -0.20055,-16.47552 -0.0853,-6.42153 0.0229,-11.96339 0.24035,-12.31524 0.24405,-0.39488 1.34975,-0.15284 2.88892,0.63238 1.37145,0.69967 3.87578,1.82132 5.56517,2.49257 1.68939,0.67126 5.0432,2.54804 7.4529,4.17064 3.80796,2.56412 12.356,7.15402 21.3527,11.46539 1.48168,0.71004 2.8923,1.74522 3.1347,2.30039 0.2424,0.55516 0.51469,9.93739 0.60509,20.84939 0.21038,25.39494 0.18358,24.64 0.8748,24.64 0.32371,0 1.04257,-1.368 1.59747,-3.04 1.53021,-4.61082 1.4201,-27.9928 -0.17958,-38.13123 -0.66642,-4.22362 -1.58632,-7.92527 -2.08054,-8.37196 -0.48725,-0.44041 -2.75792,-1.59985 -5.04592,-2.57653 -2.288,-0.97669 -6.896,-3.27961 -10.24,-5.11762 -3.344,-1.83801 -7.52,-4.13079 -9.28,-5.09508 -1.76,-0.96428 -5.648,-2.93036 -8.64,-4.36908 -2.992,-1.43872 -6.38928,-3.33576 -7.54952,-4.21565 -3.58413,-2.71812 -3.44787,-3.75408 -3.07341,23.36678 l 0.2227,16.12964 6.9771,6.91036 c 3.83741,3.8007 11.86546,11.94538 17.84011,18.09923 12.08278,12.44519 15.6232,15.67674 16.34782,14.92186 0.26962,-0.2809 0.57327,-1.52864 0.67478,-2.77286 z m -31.8393,-0.92749 c 0.69282,-0.52461 1.03953,-1.32775 0.82008,-1.89965 -0.75469,-1.96666 -3.62036,-0.62323 -3.62036,1.69728 0,1.37286 1.14527,1.45562 2.80028,0.20237 z m 19.59972,-3.17261 c 0,-0.1552 -0.288,-0.46023 -0.64,-0.67776 -0.352,-0.21754 -0.64,-0.0906 -0.64,0.28224 0,0.37273 0.288,0.67776 0.64,0.67776 0.352,0 0.64,-0.12698 0.64,-0.28224 z m -99.2196,-3.55776 c 0,-1.2665 -0.12931,-1.39994 -0.6204,-0.64 -0.34122,0.528 -0.62039,1.68 -0.62039,2.56 0,1.26649 0.1293,1.39993 0.62039,0.64 0.34123,-0.528 0.6204,-1.68 0.6204,-2.56 z m 110.37212,-5.92 c 0.25409,-3.256 0.42455,-8.08 0.37881,-10.72 -0.38241,-22.06958 -0.45465,-23.43495 -1.33457,-25.22516 -0.93218,-1.89652 -2.57013,-2.92089 -13.71676,-8.57835 -3.168,-1.60791 -6.624,-3.55449 -7.68,-4.32573 -2.86061,-2.0892 -9.34038,-5.30684 -11.59521,-5.75781 -1.79327,-0.35865 -2.01307,-0.22411 -2.32875,1.42551 -0.19171,1.00184 -0.21577,4.98953 -0.0534,8.86153 0.16232,3.872 0.26756,9.58422 0.23388,12.6938 l -0.0613,5.65381 4.15896,3.94619 c 2.28742,2.17042 5.94901,5.53021 8.13687,7.46621 2.18785,1.936 6.77489,6.112 10.19342,9.28 7.51094,6.96051 12.30091,11.13453 12.8208,11.17209 0.2119,0.0154 0.59316,-2.63609 0.84725,-5.89209 z m -26.4433,-18.77931 c -1.79807,-1.61662 -3.26922,-3.20062 -3.26922,-3.52 0,-1.18736 2.39082,-0.51967 4.99392,1.39467 l 2.68608,1.97537 5.2e-4,-1.81537 c 2.9e-4,-0.99845 0.53465,-3.25536 1.18748,-5.01536 1.04313,-2.81229 1.60526,-3.41025 4.63947,-4.93524 1.8989,-0.95438 4.02853,-1.67438 4.73253,-1.6 2.04827,0.2164 2.03176,4.1169 -0.0349,8.24606 -2.4825,4.96002 -3.90443,6.28918 -6.72819,6.28918 -1.52512,0 -2.51228,0.34481 -2.74835,0.96 -0.61786,1.61013 -2.04083,1.09422 -5.45934,-1.97931 z m 13.0805,-6.71934 c 1.86285,-3.67616 1.15292,-4.59127 -2.21195,-2.85122 -2.02942,1.04945 -2.46519,1.89308 -1.33777,2.58987 0.352,0.21754 0.64,1.25953 0.64,2.31554 0,2.5312 0.91261,1.88692 2.90972,-2.05419 z m -17.83056,-0.65547 c -1.95079,-1.13467 -2.20126,-3.04978 -1.03763,-7.93389 1.25093,-5.2505 2.21741,-7.36732 3.34099,-7.31757 0.42762,0.0189 1.60147,1.72033 2.60856,3.78087 l 1.83107,3.74645 -1.08535,3.26769 c -1.59708,4.80834 -3.06487,5.96451 -5.65764,4.45645 z m 4.04084,-7.57606 c 0,-1.07022 -0.77801,-2.58983 -1.32595,-2.58983 -0.86345,0 -2.01104,2.55987 -1.61282,3.59761 0.27991,0.72945 0.64604,0.78439 1.64928,0.24748 0.70922,-0.37957 1.28949,-0.94443 1.28949,-1.25526 z m 11.84,-1.94983 c -0.65571,-1.06097 0.14123,-1.70359 3.16137,-2.54918 4.71854,-1.32111 6.83014,0.50239 2.61919,2.26184 -2.57434,1.07563 -5.21233,1.20676 -5.78056,0.28734 z m -13.41302,-8.53623 c -1.87606,-3.20124 -1.96045,-3.62377 -0.72387,-3.62377 1.23556,0 4.21689,3.65455 4.21689,5.16911 0,2.13576 -1.80329,1.33797 -3.49302,-1.54534 z m 5.04255,41.65624 c -2.25018,-2.68045 -9.44689,-10.18235 -13.52263,-14.09607 -2.93819,-2.82139 -4.24696,-3.69987 -4.75509,-3.19174 -0.76683,0.76683 4.58171,6.50425 13.42476,14.40083 4.76062,4.25107 7.2326,5.7216 4.85296,2.88698 z m -23.4243,-16.21304 c 0.11288,-0.67483 0.93764,-1.8399 1.83281,-2.58906 1.47556,-1.23488 1.63051,-1.8179 1.65903,-6.24241 0.0173,-2.68417 -0.17083,-5.08259 -0.41805,-5.32981 -0.59981,-0.59981 -12.55902,5.36993 -12.55902,6.26915 0,1.02908 7.88654,9.52173 8.64,9.30402 0.352,-0.10171 0.73236,-0.73706 0.84523,-1.41189 z m 60.90009,-26.98574 c 6.47749,-3.07152 16.01469,-8.5453 16.01469,-9.19148 0,-0.85242 -1.87961,-1.63569 -11.95172,-4.98058 -5.25518,-1.74521 -11.41189,-3.87988 -13.68158,-4.74372 -2.26969,-0.86384 -5.42271,-1.94564 -7.00671,-2.40401 -1.584,-0.45837 -4.464,-1.60563 -6.4,-2.54947 -7.86487,-3.83428 -12.56883,-4.29793 -17.65767,-1.74042 -6.51534,3.27442 -9.85173,5.31207 -9.85694,6.01998 -0.003,0.40233 3.09061,2.30991 6.87461,4.23906 3.784,1.92914 9.77089,5.05595 13.3042,6.94847 3.5333,1.89252 7.9973,4.12055 9.92,4.9512 1.92269,0.83063 5.6558,2.61496 8.2958,3.96517 5.36312,2.74292 5.26791,2.74695 12.14532,-0.5142 z m -9.87504,-3.95224 c -0.84878,-1.37336 9.01895,-7.74642 10.18647,-6.57891 0.74623,0.74623 0.16913,1.29682 -4.37943,4.17822 -5.08432,3.22079 -5.25626,3.29188 -5.80704,2.40069 z m -6.95657,-4.94862 c -0.89517,-0.89516 -0.34,-1.57621 3.05555,-3.74832 3.84466,-2.4594 5.6838,-2.85102 5.35432,-1.14012 -0.37707,1.95792 -7.31028,5.98803 -8.40987,4.88844 z m -13.23371,-6.29234 c 0,-1.0969 3.9698,-3.75826 6.56,-4.39783 1.47303,-0.36373 1.76,-0.22829 1.76,0.83063 0,0.8158 -0.98614,1.84313 -2.77623,2.8922 -3.11674,1.82653 -5.54377,2.12204 -5.54377,0.675 z m -6.08,-2.88803 c -0.66817,-1.08112 0.33831,-1.99853 3.94018,-3.59145 4.00977,-1.77331 4.69982,-1.86368 4.69982,-0.61552 0,0.88506 -6.17965,4.84697 -7.56013,4.84697 -0.37638,0 -0.86232,-0.288 -1.07987,-0.64 z"
     id="path974"
     inkscape:connector-curvature="0"
     sodipodi:nodetypes="ccscscscscccccsssccccccscscccsccsssccscccccccccccccccccccsccccccccccscsccscscccccscsssccccccccsscccssscccscccsccccscccscsccccscccsccccssscccccssccscsscccccccccccccccccccccccccsscssscsscccccccccccccsccscccccsccccscccccsccccccscccscccccccccccccccccsscsscsccscccccccscccsccccssccscccccssscccccscscccscccccccssccsscccsccccccccccsscsccscscscssccccscscsssscscsscccccccccccccssscccccccscssccsscccccccssccscssccssccssccccsssccssssssccccccsccsccsccscscscsssc"
     inkscape:export-filename="/home/phigit/Documents/Misc_Projects/Talks/2020-04-23-KreativeComputere/Images/Skriver.png"
     inkscape:export-xdpi="284.10999"
     inkscape:export-ydpi="284.10999" />
</svg>
