<?xml version="1.0" encoding="UTF-8" standalone="no"?>
<!-- Created with Inkscape (http://www.inkscape.org/) -->

<svg
   xmlns:dc="http://purl.org/dc/elements/1.1/"
   xmlns:cc="http://creativecommons.org/ns#"
   xmlns:rdf="http://www.w3.org/1999/02/22-rdf-syntax-ns#"
   xmlns:svg="http://www.w3.org/2000/svg"
   xmlns="http://www.w3.org/2000/svg"
   xmlns:sodipodi="http://sodipodi.sourceforge.net/DTD/sodipodi-0.dtd"
   xmlns:inkscape="http://www.inkscape.org/namespaces/inkscape"
   version="1.1"
   id="svg69"
   width="816.64001"
   height="1122.5601"
   viewBox="0 0 816.64001 1122.5601"
   sodipodi:docname="Vector læser.svg"
   inkscape:version="0.92.4 (5da689c313, 2019-01-14)">
  <metadata
     id="metadata75">
    <rdf:RDF>
      <cc:Work
         rdf:about="">
        <dc:format>image/svg+xml</dc:format>
        <dc:type
           rdf:resource="http://purl.org/dc/dcmitype/StillImage" />
        <dc:title />
      </cc:Work>
    </rdf:RDF>
  </metadata>
  <defs
     id="defs73" />
  <sodipodi:namedview
     pagecolor="#ffffff"
     bordercolor="#666666"
     borderopacity="1"
     objecttolerance="10"
     gridtolerance="10"
     guidetolerance="10"
     inkscape:pageopacity="0"
     inkscape:pageshadow="2"
     inkscape:window-width="1280"
     inkscape:window-height="780"
     id="namedview71"
     showgrid="false"
     inkscape:zoom="0.69037645"
     inkscape:cx="284.02483"
     inkscape:cy="728.49541"
     inkscape:window-x="0"
     inkscape:window-y="0"
     inkscape:window-maximized="1"
     inkscape:current-layer="svg69" />
  <path
     style="fill:#000000;fill-opacity:1;stroke-width:0.64000005"
     d="m 387.20152,319.71464 c -1.85975,-1.63563 -9.23882,-8.61963 -16.39793,-15.52001 -7.15911,-6.90037 -13.42637,-12.77828 -13.92726,-13.062 -0.50088,-0.28372 -6.94577,-0.42772 -14.32197,-0.32 -11.85417,0.17313 -13.54381,0.3284 -14.55275,1.33733 -0.92896,0.92897 -1.20103,2.59697 -1.46146,8.96 l -0.32,7.81854 -4.48,0.34308 c -4.88401,0.37401 -11.30744,-0.029 -26.56,-1.66626 -5.456,-0.58568 -10.80081,-1.02626 -11.87736,-0.97906 -1.33254,0.0584 -2.43403,-0.42157 -3.45059,-1.50364 -1.43456,-1.52703 -1.51545,-2.16233 -2.05905,-16.17179 -0.31121,-8.02029 -0.41475,-23.65434 -0.23009,-34.74234 l 0.33574,-20.16 7.24099,-7.04 c 10.10001,-9.81967 18.14059,-16.96 19.09829,-16.96 0.87607,0 0.62292,1.40987 -0.47,2.61753 -0.92787,1.02529 -0.90125,1.22915 0.32,2.4504 1.80429,1.80429 1.69253,2.4285 -0.85325,4.76575 -6.1068,5.60658 -8.05468,7.57063 -8.05468,8.12156 0,0.35782 4.81918,0.60476 11.80223,0.60476 10.69524,0 13.79445,0.41543 11.88821,1.59355 -0.9615,0.59424 -0.78932,1.60645 0.27328,1.60645 0.50803,0 1.37781,0.648 1.93283,1.44 0.80459,1.14814 1.62267,1.44 4.03629,1.44 2.8266,0 3.04058,0.11661 3.22967,1.76 0.11138,0.968 0.54338,1.75525 0.96,1.74943 0.41662,-0.006 3.63749,-0.96514 7.15749,-2.13183 4.98248,-1.65142 6.56589,-2.46415 7.14898,-3.66943 0.45216,-0.93463 0.92898,-7.12806 1.20316,-15.62817 0.24981,-7.744 0.77731,-16.24 1.17223,-18.88 l 0.71805,-4.8 3.51879,-0.39496 c 4.40343,-0.49425 6.84247,-1.13741 19.19879,-5.06261 5.456,-1.73319 13.376,-4.14693 17.6,-5.36387 4.224,-1.21693 9.87069,-3.01409 12.54818,-3.99369 l 4.86819,-1.78109 3.77181,1.99974 c 3.41566,1.8109 15.01109,6.59648 15.98326,6.59648 0.21945,0 4.32965,1.70822 9.13378,3.79605 4.80414,2.08783 10.8614,4.36531 13.46059,5.06107 5.03792,1.34856 6.12023,2.21256 5.11784,4.08554 -0.37579,0.70218 -0.55022,7.38342 -0.43534,16.67449 0.15883,12.84484 -0.19709,34.40331 -1.0431,63.18285 -0.12269,4.17348 -0.30192,4.829 -1.37315,5.02212 -2.22344,0.40086 -2.49782,1.28992 -0.91728,2.97232 1.47579,1.57091 1.49468,1.73446 0.75192,6.51205 -0.78375,5.04129 -1.51706,6.61352 -3.08463,6.61352 -0.49567,0 -4.23391,1.584 -8.3072,3.52 -4.0733,1.936 -7.53917,3.52 -7.70194,3.52 -0.16277,0 -4.95726,2.27564 -10.65444,5.05697 -5.69717,2.78134 -12.23049,5.8339 -14.51849,6.78347 -2.288,0.94957 -5.5227,2.41793 -7.18821,3.26302 -4.5162,2.29154 -6.27092,2.04501 -10.23042,-1.43732 z m 3.62955,-3.73499 c 0.24112,-1.92988 0.25721,-3.80203 0.0358,-4.16036 -0.22146,-0.35832 -4.77756,-4.50348 -10.12466,-9.21147 -5.34711,-4.70798 -10.71452,-9.60382 -11.92757,-10.87964 -2.20711,-2.32134 -3.77825,-2.75677 -6.91445,-1.9163 -0.792,0.21224 -1.44,0.73898 -1.44,1.17052 0,0.43154 2.664,3.25863 5.92,6.28243 3.256,3.0238 9.78091,9.26113 14.4998,13.86074 4.71887,4.59961 8.78969,8.36293 9.04624,8.36293 0.25655,0 0.66374,-1.57898 0.90486,-3.50885 z m 8.98908,1.68123 c 1.408,-0.63774 3.35254,-1.35703 4.3212,-1.59844 0.96865,-0.24141 6.72865,-2.84814 12.8,-5.79273 6.07134,-2.94459 14.96945,-7.22764 19.77358,-9.51788 5.70047,-2.71755 8.84793,-4.57733 9.06051,-5.35371 1.3501,-4.93062 1.3583,-4.90239 -1.28373,-4.41942 -1.33735,0.24446 -3.07904,0.86148 -3.87041,1.37115 -0.79137,0.50966 -3.81537,1.89982 -6.72,3.08924 -9.02596,3.69605 -14.08214,5.87608 -18.46312,7.96057 -2.3221,1.10486 -4.46316,2.00884 -4.75794,2.00884 -0.29478,0 -1.70689,0.55189 -3.13802,1.22643 -1.43113,0.67454 -4.83954,2.14369 -7.57422,3.26478 -2.73468,1.12109 -5.25468,2.56627 -5.6,3.21149 -0.71471,1.33547 -0.84106,4.67074 -0.20118,5.31063 0.74252,0.74252 3.00683,0.43774 5.65333,-0.76095 z m 5.81951,-12.33782 c 5.59927,-2.511 10.46849,-4.77952 10.82049,-5.04116 0.352,-0.26164 4.69359,-2.07948 9.64797,-4.03966 12.22701,-4.83755 18.83203,-7.90205 18.83203,-8.73742 0,-1.36298 -2.00441,-1.43147 -4.66238,-0.15931 -4.66583,2.23318 -14.69529,6.10262 -26.33444,10.16003 -3.49625,1.2188 -7.81625,2.89879 -9.6,3.73332 -1.78375,0.83454 -4.91998,2.25146 -6.96942,3.14872 l -3.72623,1.63137 -3.7156,-3.66522 c -2.04358,-2.01588 -5.49447,-5.10523 -7.66864,-6.86523 -2.17418,-1.76 -4.84407,-3.992 -5.93309,-4.96 -1.90709,-1.69516 -5.17186,-2.37938 -5.88069,-1.23247 -0.42853,0.69339 7.26296,8.28246 15.29049,15.08689 4.30985,3.65319 6.94198,5.43806 8.0595,5.46523 0.91273,0.0222 6.24073,-2.0141 11.84001,-4.52509 z m -81.83605,1.24638 c 0.56239,-0.46674 0.81654,-2.66857 0.81654,-7.07387 v -6.39619 l -4.10472,0.43958 c -3.10345,0.33235 -4.56333,0.20242 -5.98479,-0.53265 -1.32614,-0.68577 -2.08027,-0.77203 -2.55952,-0.29278 -1.1913,1.1913 -2.07097,-0.0927 -2.07097,-3.02281 0,-2.15406 -0.24288,-2.84222 -1.00313,-2.84222 -0.71187,0 -0.88517,0.37163 -0.59687,1.28 0.33425,1.05312 0.11501,1.28 -1.23687,1.28 -1.97686,0 -2.23644,1.64543 -0.35383,2.24295 1.77117,0.56215 0.95559,1.59705 -1.2586,1.59705 -2.02066,0 -2.5907,-0.91854 -2.5907,-4.17458 0,-2.45163 -0.70988,-3.13263 -2.63015,-2.52316 -0.97408,0.30917 -1.14684,0.61674 -0.63427,1.12931 1.21213,1.21213 0.7749,2.36843 -0.89558,2.36843 -1.92181,0 -2.13443,1.26007 -0.29383,1.7414 1.78425,0.46659 1.22245,1.73276 -0.87916,1.98146 -1.10586,0.13086 -1.85087,-0.15307 -2.09912,-0.8 -0.21166,-0.55157 -0.93002,-1.00286 -1.59636,-1.00286 -0.66634,0 -1.21153,-0.288 -1.21153,-0.64 0,-0.96912 -1.65881,-0.76587 -2.55415,0.31295 -0.43499,0.52412 -1.07371,0.77816 -1.41939,0.56451 -0.34568,-0.21364 -1.32955,-0.0132 -2.18637,0.44531 -1.33858,0.71638 -1.71286,0.6787 -2.65897,-0.26766 -0.89949,-0.89973 -0.94227,-1.19961 -0.23361,-1.63775 0.71882,-0.44442 0.69314,-0.80246 -0.14982,-2.08899 -0.91822,-1.40137 -0.92126,-1.68978 -0.0312,-2.9605 1.08704,-1.55197 2.79864,-1.82677 3.98553,-0.63987 1.12832,1.12831 0.9387,1.792 -0.512,1.792 -1.51114,0 -1.61617,1.10126 -0.27437,2.87688 0.82773,1.09534 1.05092,1.14084 1.56984,0.32 0.33271,-0.52629 0.60935,-1.58789 0.61474,-2.35911 0.0135,-1.9318 1.19505,-2.4896 2.24929,-1.06186 0.70066,0.94889 1.03544,1.02518 1.68542,0.38409 0.4461,-0.44 1.23481,-0.8 1.75269,-0.8 0.51788,0 1.44006,-0.45111 2.0493,-1.00245 0.9702,-0.87802 2.1545,-0.91851 9.54154,-0.32616 4.63863,0.37196 8.74778,0.87031 9.13146,1.10743 0.48116,0.29738 0.51802,0.0511 0.11879,-0.79384 -0.31836,-0.67374 -0.53754,-2.73699 -0.48709,-4.58499 0.0504,-1.848 -0.0449,-3.36 -0.212,-3.36 -1.29691,0 -2.77961,1.58479 -2.77961,2.97099 0,1.32036 -0.22155,1.55278 -1.12,1.17491 -0.616,-0.25908 -1.696,-0.53612 -2.4,-0.61564 -1.25024,-0.14122 -1.37486,-0.59508 -0.88148,-3.21026 0.17617,-0.93383 -0.10469,-1.28 -1.03852,-1.28 -0.98859,0 -1.41978,0.63135 -1.89402,2.7732 -0.59471,2.68597 -0.67522,2.75836 -2.56,2.30152 -1.07028,-0.25941 -2.80998,-0.41128 -3.86598,-0.33749 -5.49687,0.38416 -10.19962,0.008 -11.19803,-0.89545 -0.58452,-0.52898 -1.76008,-0.95262 -2.61236,-0.94142 -1.42476,0.0187 -1.45937,0.0888 -0.42961,0.87056 1.76979,1.34345 1.32381,2.16214 -1.43137,2.62763 l -2.55138,0.43105 0.26126,9.17364 c 0.1437,5.0455 0.55596,9.72427 0.91614,10.39727 0.54268,1.01403 1.89422,1.35465 7.89011,1.98847 3.97938,0.42067 10.54724,1.13501 14.59524,1.58745 9.33167,1.04298 19.2347,1.19151 20.30346,0.30452 z m 77.8618,-6.25072 c 2.07089,-0.75977 6.51164,-2.80538 9.86833,-4.54581 4.22236,-2.18927 6.86308,-3.16441 8.56935,-3.16441 2.48522,0 11.46131,-3.31185 13.40386,-4.94553 0.57574,-0.4842 3.16774,-1.89616 5.76,-3.13769 2.59226,-1.24153 4.94352,-2.66671 5.22501,-3.16706 0.28149,-0.50035 1.05649,-0.90973 1.72222,-0.90973 0.66574,0 1.38027,-0.2748 1.58786,-0.61068 0.31242,-0.50551 1.27335,-21.18983 1.1312,-24.34932 -0.11699,-2.60009 -0.0688,-4.58431 0.45051,-18.56 0.30739,-8.272 0.43893,-15.616 0.29232,-16.32 -0.14661,-0.704 -0.37976,-5.888 -0.5181,-11.52 l -0.25153,-10.24 -2.14129,0.22212 c -1.17771,0.12217 -2.62719,0.48217 -3.22107,0.8 -0.59388,0.31783 -1.69496,0.57788 -2.44684,0.57788 -0.75189,0 -6.45883,1.70485 -12.68208,3.78855 -6.22326,2.08371 -12.75501,3.99311 -14.51501,4.24311 -1.76,0.25 -3.92,0.81293 -4.8,1.25096 -0.88,0.43802 -3.83584,1.31819 -6.56853,1.95592 -2.777,0.64808 -5.43817,1.67848 -6.0333,2.33608 -1.18689,1.3115 -1.32069,3.64917 -1.67738,29.30538 -0.22831,16.42187 0.11049,22.48458 1.27797,22.86921 0.81366,0.26805 8.44215,-6.71936 17.79303,-16.29777 5.81063,-5.95201 7.78042,-7.21144 11.27897,-7.21144 1.91802,0 5.04924,2.40298 5.04924,3.87491 0,0.4032 -0.95353,1.64029 -2.11896,2.74909 -1.16543,1.1088 -4.26143,4.0583 -6.88,6.55445 -2.61857,2.49614 -7.34472,7.66553 -10.50255,11.48752 -3.15783,3.82198 -7.65284,8.76804 -9.9889,10.99124 l -4.2474,4.04216 -0.42795,5.91032 c -0.23538,3.25067 -0.60845,7.75231 -0.82905,10.00365 -0.46211,4.71629 -0.70786,4.63933 6.44007,2.01689 z m -8.12253,-5.95022 c 0.74557,-7.05659 0.58641,-7.75708 -1.65319,-7.27604 -0.91825,0.19722 -3.68554,0.69564 -6.14954,1.10759 -2.464,0.41195 -4.768,1.02382 -5.12,1.35969 -0.77409,0.73864 9.71102,10.71711 11.26862,10.72412 0.82621,0.004 1.1517,-1.16032 1.65411,-5.91536 z m -67.00273,-4.32 c 3.34297,-1.06795 5.82187,-1.28463 14.96338,-1.3079 9.81876,-0.025 17.27136,-0.45701 26.95662,-1.56259 1.76,-0.20091 5.9507,-0.46043 9.31266,-0.57673 3.36196,-0.11629 6.72238,-0.53776 7.46761,-0.93659 0.74522,-0.39883 2.17595,-0.56095 3.17939,-0.36027 1.64292,0.32859 2.52533,-0.32465 8.86877,-6.56551 3.87438,-3.81173 9.48495,-9.79561 12.46795,-13.29752 2.98299,-3.50191 7.97041,-8.87246 11.08316,-11.93455 6.02491,-5.92688 6.79598,-7.7556 3.43342,-8.14294 -1.29432,-0.1491 -2.24766,0.29723 -3.51452,1.64539 -0.95614,1.0175 -2.2167,2.11756 -2.80125,2.4446 -0.58455,0.32703 -6.01768,5.3466 -12.07363,11.1546 -6.05596,5.808 -11.48169,10.74608 -12.05719,10.97351 -0.57551,0.22742 -1.89225,1.30742 -2.9261,2.4 -1.03386,1.09257 -2.38069,1.98649 -2.99296,1.98649 -0.61227,0 -4.04835,0.57853 -7.63573,1.2856 -10.54602,2.07865 -17.40126,2.60483 -35.83501,2.75056 -13.94102,0.11021 -17.66026,-0.0384 -18.67049,-0.74599 -1.7958,-1.25783 -6.68625,-0.59531 -8.41776,1.14037 -1.17576,1.17858 -1.23322,1.45732 -0.40832,1.98074 0.528,0.33502 1.84096,0.61354 2.91768,0.61893 2.3887,0.012 4.45889,1.40958 3.97103,2.68092 -0.19759,0.51492 -1.95013,1.29224 -3.89452,1.72738 -3.92301,0.87793 -5.78495,2.33847 -4.23303,3.32047 1.55425,0.9835 6.63019,0.66552 10.83884,-0.67897 z m -30.04619,-11.20001 c -0.0502,-0.94994 -1.482,-0.77542 -1.81418,0.22112 -0.17944,0.53832 0.11313,0.77824 0.78047,0.64 0.58713,-0.12161 1.0523,-0.50912 1.03371,-0.86112 z m -3.65188,-4 c 1.12704,-2.92595 0.88198,-3.33822 -0.98171,-1.65159 -1.10614,1.00103 -1.23775,0.99095 -2.08731,-0.16 -0.74628,-1.01103 -1.05593,-1.08073 -1.74982,-0.39385 -0.69634,0.68929 -0.57641,1.03606 0.68896,1.99218 0.90023,0.68023 1.33873,1.47042 1.06329,1.91609 -0.25782,0.41716 -0.28866,1.22781 -0.0685,1.80145 0.34537,0.90002 0.51586,0.91775 1.24382,0.12935 0.46398,-0.5025 1.31506,-2.13763 1.8913,-3.63363 z m 9.73603,3.61859 c 0.23843,-0.38578 0.0263,-1.1086 -0.47135,-1.60626 -0.76499,-0.765 -1.08855,-0.77051 -2.0935,-0.0356 -0.65376,0.47804 -0.98366,1.20086 -0.73311,1.60626 0.57829,0.9357 2.72734,0.95895 3.29796,0.0356 z m 38.44204,-0.57859 c 3.46639,0 3.5971,-0.89632 0.56,-3.84 -1.232,-1.1941 -2.23976,-2.61859 -2.23948,-3.16554 0.001,-2.21286 2.46017,-7.40082 3.61332,-7.62333 2.82458,-0.545 2.96734,-1.51567 0.54877,-3.73137 -1.51598,-1.38881 -2.21236,-2.51844 -2.00053,-3.24509 0.17873,-0.61307 0.67015,-2.93149 1.09206,-5.15204 1.00611,-5.29529 0.51127,-5.84116 -4.04568,-4.46297 -1.85265,0.56032 -4.85866,1.35761 -6.68002,1.77177 -1.82136,0.41415 -3.43524,1.08951 -3.58641,1.50078 -0.15116,0.41129 -0.13476,6.85357 0.0364,14.3162 l 0.31128,13.56839 2.95512,0.25753 c 1.62532,0.14164 3.78313,0.15586 4.79513,0.0316 1.01202,-0.12428 3.10002,-0.22595 4.64002,-0.22595 z m 11.76,-0.81792 c 0,-1.33558 -7.70472,-10.38208 -8.84221,-10.38208 -0.57583,0 -1.31905,0.77369 -1.6516,1.7193 -0.52727,1.49926 -0.25679,2.17019 2.11347,5.24249 1.49497,1.93775 3.20012,3.65066 3.78923,3.80646 2.28599,0.60457 4.59111,0.41068 4.59111,-0.38617 z m 9.6,-0.0106 c 0,-0.45567 -1.50878,-1.96767 -3.35285,-3.36 -1.84407,-1.39233 -5.04088,-4.0723 -7.10402,-5.95548 -2.56236,-2.33886 -3.95913,-3.21603 -4.40734,-2.76782 -0.70418,0.70419 5.75077,9.13134 8.87935,11.59228 1.88342,1.48151 5.98486,1.818 5.98486,0.49102 z m -79.5957,-4.7453 c -0.42339,-1.0217 -0.29036,-1.86476 0.47967,-3.04 1.29509,-1.97654 3.58675,-2.12445 5.20532,-0.33595 1.16439,1.28664 1.17092,1.28529 2.32778,-0.48 1.19193,-1.81883 4.85337,-3.12525 5.89517,-2.10343 0.80566,0.79021 -0.11076,1.93317 -1.55001,1.93317 -1.76403,0 -1.54116,0.91468 0.67777,2.78179 2.29769,1.93338 2.38563,2.56593 0.48,3.45272 -1.32085,0.61467 -1.34395,0.70916 -0.27918,1.14194 0.64639,0.26273 1.92268,0.10059 2.88,-0.36586 0.94555,-0.46073 3.07688,-0.90704 4.73628,-0.99181 1.65941,-0.0848 3.66749,-0.60967 4.46241,-1.16645 1.91241,-1.3395 2.56592,-1.28131 4.73034,0.42123 1.00236,0.78844 2.36123,1.34227 3.01972,1.23072 0.65849,-0.11156 1.56731,0.30324 2.0196,0.92178 0.77162,1.05526 0.8684,1.03856 1.56911,-0.27072 0.9417,-1.7596 2.40755,-1.79838 2.95353,-0.0781 0.30897,0.97347 0.86302,1.26575 2.12313,1.12 l 1.70506,-0.19722 0.17966,-7.83475 c 0.0988,-4.30913 -0.0452,-8.63611 -0.32,-9.61554 -0.49253,-1.75537 -0.54757,-1.773 -3.85966,-1.23642 -2.94976,0.47788 -3.36,0.72865 -3.36,2.05386 0,3.67221 -2.27854,6.32738 -3.01456,3.51285 -0.4182,-1.59921 -1.74572,-1.63972 -3.28519,-0.10024 -1.24573,1.24573 -4.94179,1.70857 -5.5669,0.69712 -0.58144,-0.94079 -3.25407,-0.69635 -4.14675,0.37927 -0.72521,0.87383 -0.92639,0.87093 -1.91929,-0.0276 -0.99652,-0.90184 -1.14765,-0.90348 -1.48815,-0.0161 -0.44965,1.17179 -3.04122,1.30957 -4.13116,0.21963 -0.4224,-0.4224 -0.768,-1.2864 -0.768,-1.92 0,-0.6336 -0.3074,-1.152 -0.68313,-1.152 -0.38187,0 -0.51151,0.54071 -0.29396,1.22614 0.55632,1.7528 -0.35778,2.0517 -4.10264,1.3415 -2.3762,-0.45064 -3.629,-0.41572 -4.49531,0.1253 -1.63345,1.02011 -3.22496,-0.32888 -3.22496,-2.73353 0,-1.58634 -0.96148,-3.05126 -1.59008,-2.42266 -0.43952,0.43952 -0.90894,14.76812 -0.54366,16.59453 l 0.37149,1.85745 1.69621,-1.75436 c 1.35779,-1.40434 1.57932,-2.03644 1.11034,-3.16815 z m 4.7157,4.29378 c 0,-0.352 -0.415,-0.64 -0.92222,-0.64 -0.50723,0 -1.10023,0.288 -1.31778,0.64 -0.21755,0.352 0.19746,0.64 0.92223,0.64 0.72477,0 1.31777,-0.288 1.31777,-0.64 z m 84.27834,-0.0466 1.80166,-0.68659 -2.32126,-2.03341 c -5.47961,-4.80009 -16.66205,-13.41853 -21.34557,-16.4513 -1.04874,-0.67911 -2.05853,-1.66724 -2.24396,-2.19585 -0.45735,-1.3038 0.98688,-23.03325 2.21366,-33.30625 0.54646,-4.576 0.98986,-10.24701 0.98534,-12.60223 -0.004,-2.35523 0.28543,-4.46371 0.64431,-4.68551 1.13166,-0.6994 5.12267,0.97976 15.34748,6.45724 5.456,2.9228 12.56876,6.36348 15.80613,7.64595 3.23737,1.28247 6.15706,2.66764 6.4882,3.07816 0.36752,0.4556 0.39668,3.73842 0.0749,8.42639 -0.28997,4.224 -0.54566,15.24 -0.5682,24.48 -0.0431,17.6475 0.11003,18.53549 2.70173,15.67169 1.0452,-1.15493 1.24338,-7.80356 1.37804,-46.23169 l 0.0392,-11.2 -3.89627,-2.61215 c -2.98569,-2.00167 -7.39803,-3.7668 -18.88,-7.55283 -8.24105,-2.71739 -16.22923,-5.53803 -17.75151,-6.26809 -1.99429,-0.95643 -2.96236,-1.1328 -3.46404,-0.63112 -0.7444,0.7444 -1.26884,7.97306 -2.35242,32.42419 -0.37438,8.448 -1.00117,18.14159 -1.39287,21.54132 -0.40111,3.48148 -0.47429,6.59808 -0.16753,7.13551 0.90282,1.5817 7.3942,8.24576 11.1254,11.42134 1.92458,1.63799 5.02085,4.30199 6.8806,5.92 3.56907,3.10513 5.42939,3.5767 8.89698,2.25523 z m 14.49025,-25.91334 c 0.29072,-12.65003 0.57872,-24.00035 0.64,-25.22292 0.10203,-2.03565 -0.13115,-2.34328 -2.76859,-3.6525 -1.584,-0.78629 -4.176,-1.85039 -5.76,-2.36466 -1.584,-0.51427 -4.752,-1.91789 -7.04,-3.11915 -2.288,-1.20127 -6.72331,-3.52888 -9.85626,-5.17248 -3.13295,-1.6436 -6.18049,-2.98836 -6.77232,-2.98836 -0.89033,0 -1.26372,1.35312 -2.16342,7.84 -1.18717,8.55958 -3.035,36.68071 -2.50161,38.0707 0.18232,0.4751 1.37596,1.40327 2.65254,2.0626 1.27659,0.65932 5.09953,3.45505 8.49543,6.21273 13.14192,10.67207 15.19462,12.38128 15.53933,12.93903 0.20093,0.32511 2.24183,0.1009 4.68127,-0.51427 l 4.32504,-1.09067 0.52859,-23.00006 z m -16.28624,11.84356 c -6.85175,-1.83327 -16.15697,-10.3797 -14.89158,-13.67726 0.72441,-1.88779 1.74667,-1.3937 9.07964,4.38853 2.20056,1.7352 5.64994,4.06795 7.6653,5.1839 2.01536,1.11595 3.66429,2.42044 3.66429,2.89887 0,1.0866 -3.28243,1.80402 -5.51765,1.20596 z m -7.28235,-7.64358 c -0.63711,-0.704 -1.61774,-1.27042 -2.17919,-1.2587 -0.77572,0.0162 -0.65805,0.32349 0.49009,1.28 1.97065,1.64171 3.1803,1.62646 1.6891,-0.0213 z m 10.04518,-5.92 c -2.06377,-3.40894 -2.2199,-4.80964 -1.06258,-9.53221 1.65906,-6.76995 5.06487,-10.08468 8.23056,-8.01044 2.80925,1.84069 3.22358,4.21752 1.65334,9.48453 -0.77036,2.58396 -1.54866,5.50041 -1.72956,6.48098 -0.32417,1.75712 -2.86626,3.65714 -4.89296,3.65714 -0.51677,0 -1.50623,-0.936 -2.1988,-2.08 z m 7.29848,-11.06578 c 0.27765,-1.10623 0.0453,-2.02661 -0.727,-2.88 -1.40517,-1.5527 -2.5984,-1.59947 -3.4245,-0.13422 -0.48826,0.86604 -0.25063,1.51909 1.04794,2.88 2.07724,2.17695 2.58536,2.19893 3.10356,0.13422 z m -25.8089,1.81061 c -1.40248,-2.14456 -1.38687,-7.19766 0.0327,-10.58291 0.55309,-1.31894 2.08966,-3.69494 3.4146,-5.28 2.86731,-3.43022 5.29849,-3.87384 6.99982,-1.27729 0.97558,1.48893 0.97486,1.90934 -0.01,5.83018 -0.58378,2.32404 -1.78011,5.6438 -2.6585,7.37722 -2.94124,5.80425 -5.65684,7.17724 -7.77861,3.9328 z m 8.81738,-12.10936 c 0.73749,-1.93973 0.25343,-4.07547 -0.9237,-4.07547 -0.44293,0 -1.47381,0.71158 -2.29087,1.5813 l -1.48555,1.5813 1.53399,1.27741 c 2.01999,1.68212 2.40484,1.6378 3.16613,-0.36454 z m 16.12786,0.61256 c -2.68815,-1.56539 -3.63286,-3.40803 -1.74728,-3.40803 1.53363,0 6.06728,3.11448 6.06728,4.16803 0,1.30245 -1.11516,1.10627 -4.32,-0.76 z m -14.51024,-10.61856 c -2.57013,-1.46357 -3.70848,-3.03777 -2.18309,-3.01894 1.26686,0.0156 5.83323,2.74601 6.13691,3.66947 0.39532,1.20208 -1.14579,0.94852 -3.95382,-0.65053 z m -77.16976,52.90206 c 0,-0.49034 -0.576,-0.89153 -1.28,-0.89153 -1.20485,0 -1.74025,1.24642 -0.89742,2.08924 0.62281,0.62282 2.17742,-0.23231 2.17742,-1.19771 z m 23.15413,-11.22245 c 0.78098,-1.17621 1.11208,-1.2629 2.33129,-0.6104 2.38514,1.27649 2.63782,0.20139 0.48832,-2.07775 -1.68825,-1.79006 -2.38346,-2.10607 -4.08416,-1.85646 -1.66713,0.24468 -2.04958,0.59367 -2.04958,1.87025 0,1.76955 1.04888,4.04528 1.86446,4.04528 0.29668,0 0.94903,-0.61691 1.44967,-1.37092 z m -6.49185,-1.5507 c 1.13328,-2.11756 0.0318,-2.94808 -2.82376,-2.12912 -1.09454,0.31391 -2.10959,0.57074 -2.25567,0.57074 -0.57679,0 2.86143,3.0693 3.50901,3.13249 0.38051,0.0371 1.08721,-0.67122 1.57042,-1.57411 z m -17.05305,-1.92471 c 0.52174,-1.35966 -2.39684,-3.0758 -3.87595,-2.27908 -0.6453,0.34758 -1.67242,0.7861 -2.28249,0.97447 -0.61006,0.18837 -0.96431,0.71339 -0.78722,1.16672 0.4689,1.20027 6.49209,1.31985 6.94566,0.13789 z m 4.70316,-0.71557 c -0.59506,-0.59505 -1.29643,-0.86739 -1.55861,-0.6052 -0.26219,0.26218 -0.0531,0.74463 0.46476,1.0721 1.55812,0.98539 2.25057,0.68983 1.09385,-0.4669 z m 33.87914,-17.8999 c -0.50003,-0.50003 -18.49521,-1.16238 -31.79153,-1.17015 l -13.76,-0.008 -0.19828,3.11868 c -0.24156,3.79951 0.27795,5.65435 1.18291,4.22338 0.32767,-0.51813 0.60019,-1.59006 0.60557,-2.38206 0.008,-1.18992 0.36386,-1.44 2.04855,-1.44 1.19241,0 2.63461,0.55978 3.4741,1.34844 1.34258,1.26128 1.53026,1.28197 2.90366,0.32 2.31807,-1.62364 4.91936,-1.34615 5.40185,0.57623 0.83767,3.33752 -3.27149,6.34733 -6.02892,4.41595 -0.99356,-0.69591 -1.41918,-0.6803 -2.52256,0.0925 -1.23937,0.86809 -1.26391,1.05687 -0.37024,2.84828 1.10741,2.21985 2.11936,2.46859 2.59792,0.63856 0.39738,-1.51956 1.63354,-1.65976 2.75199,-0.31211 0.64654,0.77904 0.98964,0.81323 1.75838,0.17524 1.04382,-0.8663 4.59269,-0.74458 5.56307,0.19081 1.07946,1.04051 2.16736,0.64416 1.82503,-0.66491 -0.52406,-2.00401 2.45141,-2.39678 5.21553,-0.68846 1.23645,0.76417 2.51021,1.22741 2.83057,1.02942 0.32036,-0.198 1.89591,0.1268 3.50121,0.72177 2.76576,1.02506 2.98464,1.02212 4.17596,-0.056 1.01588,-0.91935 1.51781,-0.99831 2.61464,-0.41131 0.74657,0.39956 1.8983,0.5548 2.55938,0.34498 0.66108,-0.20982 1.42119,-0.0268 1.68913,0.40678 0.27065,0.4379 0.15235,0.89986 -0.26613,1.03936 -1.14637,0.38212 -0.90648,1.49875 0.68668,3.19626 l 1.44,1.53432 0.17762,-9.42212 c 0.0977,-5.18217 0.0679,-9.53179 -0.0661,-9.66583 z m -26.99153,15.1418 c -0.30964,-0.50102 -0.6778,-0.53819 -1.10447,-0.11152 -0.352,0.352 -0.43098,0.97818 -0.17553,1.39152 0.30965,0.50102 0.67781,0.5382 1.10448,0.11153 0.352,-0.352 0.43098,-0.97818 0.17552,-1.39153 z m -16.2525,-2.40541 1.57488,-2.40542 -2.06,-1.01338 -2.06,-1.01339 0.11881,3.41771 c 0.0653,1.87974 0.28366,3.4182 0.48513,3.4188 0.20147,6e-4 1.07501,-1.08135 1.94118,-2.40432 z m 22.9725,0.48541 c 0,-0.352 -0.432,-0.64 -0.96,-0.64 -0.528,0 -0.96,0.288 -0.96,0.64 0,0.352 0.432,0.64 0.96,0.64 0.528,0 0.96,-0.288 0.96,-0.64 z m 29.89383,-5.80513 c 2.1856,-0.67918 4.6886,-1.23487 5.56222,-1.23487 1.90852,0 2.13456,-0.31525 2.68237,-3.74104 0.38354,-2.39858 0.29555,-2.65896 -0.89847,-2.65896 -0.72802,0 -3.28482,0.68202 -5.6818,1.5156 -2.39698,0.83359 -5.36615,1.77875 -6.59815,2.10038 -1.80286,0.47065 -2.28053,0.93479 -2.44772,2.37845 -0.11425,0.98653 -0.0437,2.22123 0.15684,2.74376 0.39073,1.01823 0.40414,1.01618 7.22471,-1.10332 z m -49.52034,-0.86808 c 0.38335,-0.999 -1.03347,-2.53348 -1.71237,-1.85457 -0.23161,0.23161 -0.42112,0.94911 -0.42112,1.59445 0,1.38296 1.62651,1.58127 2.13349,0.26012 z m 7.46651,-0.0468 c 0,-0.528 -0.432,-0.96 -0.96,-0.96 -0.528,0 -0.96,0.432 -0.96,0.96 0,0.528 0.432,0.96 0.96,0.96 0.528,0 0.96,-0.432 0.96,-0.96 z m -7.32924,-11.89947 c 0.563,-1.08872 0.85539,-2.14772 0.64976,-2.35335 -0.531,-0.53099 -4.22527,3.135 -3.81999,3.79075 0.70286,1.13725 2.18675,0.46444 3.17023,-1.4374 z m 116.57802,-22.02067 c 2.04117,-0.52809 5.00722,-1.37749 6.59122,-1.88757 1.584,-0.51008 4.752,-1.40325 7.04,-1.98483 2.288,-0.58157 6.752,-1.87786 9.92,-2.88063 3.168,-1.00277 8.712,-2.7139 12.32,-3.80251 3.608,-1.08861 6.56,-2.26515 6.56,-2.61455 0,-0.3494 -1.368,-1.23293 -3.04,-1.96342 -9.05185,-3.95473 -16.73867,-7.13096 -18.72,-7.73519 -1.232,-0.37571 -6.26492,-2.27489 -11.18428,-4.2204 l -8.94429,-3.53727 -5.77571,2.01508 c -3.17664,1.1083 -8.79972,2.86064 -12.49572,3.8941 -3.696,1.03344 -10.32,3.05106 -14.72,4.48359 -4.4,1.43253 -9.6597,3.06467 -11.68822,3.62697 -2.02853,0.56231 -3.52083,1.29323 -3.31624,1.62427 0.47175,0.76331 3.9208,2.21417 9.24446,3.88874 8.95109,2.81558 17.19864,5.90184 22.4,8.38215 2.992,1.42675 6.88,2.79599 8.64,3.04274 1.76,0.24676 3.25795,0.48919 3.32878,0.53876 0.0708,0.0495 1.79883,-0.34196 3.84,-0.87003 z m -5.14181,-3.98679 c -0.62314,-1.00827 0.46517,-1.78245 7.73035,-5.49908 6.05149,-3.09573 7.40772,-3.5693 8.5189,-2.97461 0.72686,0.389 1.22976,0.9827 1.11755,1.31931 -0.19764,0.59294 -4.78546,2.7518 -12.03377,5.66266 -1.936,0.77748 -3.85086,1.55587 -4.25526,1.72975 -0.4044,0.17389 -0.88939,0.0668 -1.07777,-0.23803 z m -5.54697,-4.29678 c 0,-0.50804 0.5714,-1.32393 1.26976,-1.81308 2.27385,-1.59267 14.08357,-6.44322 14.55052,-5.97627 1.01742,1.01742 -1.15019,2.78927 -6.88748,5.63 -6.29469,3.11672 -8.9328,3.75443 -8.9328,2.15935 z m -6.96199,-4.13454 c -1.26473,-0.80106 -0.32769,-1.92345 2.7152,-3.25227 l 2.64679,-1.15584 -2.88,0.30535 c -1.584,0.16794 -3.71497,0.56987 -4.7355,0.89318 -2.57321,0.8152 -3.07008,0.74195 -2.83142,-0.4174 0.1138,-0.55288 2.22292,-1.85518 4.68692,-2.89401 2.464,-1.03882 5.632,-2.45926 7.04,-3.15654 3.10061,-1.5355 3.7527,-1.56615 4.86281,-0.22854 0.74281,0.89502 0.60135,1.25258 -1.04163,2.63287 -1.93713,1.62741 -1.7809,1.63646 2.40274,0.13914 4.68639,-1.67725 3.53566,1.24355 -1.30791,3.31975 -1.53017,0.6559 -3.26739,1.19256 -3.8605,1.19256 -0.59311,0 -2.13795,0.72 -3.43298,1.6 -2.58256,1.75489 -2.96309,1.84606 -4.26452,1.02175 z m 140.722,80.3001 c -1.584,-0.44204 -4.32,-1.55621 -6.08,-2.47595 -1.76,-0.91973 -5.13654,-2.46515 -7.50341,-3.43425 -2.36687,-0.96911 -4.44241,-2.12427 -4.61231,-2.56703 -0.1699,-0.44277 0.10885,-1.60593 0.61945,-2.58482 1.06036,-2.03281 1.25349,-6.9482 0.29627,-7.5398 -1.36645,-0.84451 -0.50134,-2.30322 2.88,-4.85616 3.69341,-2.78855 4.16298,-3.73348 2.52911,-5.08947 -1.3002,-1.07907 -0.93201,-3.33195 0.58018,-3.54998 1.06781,-0.15396 3.412,-1.90255 5.19234,-3.87309 0.3621,-0.40079 1.81037,-0.92696 3.21837,-1.16926 1.408,-0.24231 3.856,-1.25858 5.44,-2.25839 1.584,-0.9998 5.184,-3.01898 8,-4.48707 2.816,-1.46807 5.696,-3.16283 6.4,-3.76611 0.704,-0.60328 4.376,-2.95128 8.16,-5.21777 3.784,-2.26649 6.88,-4.46394 6.88,-4.88322 0,-0.41927 -0.864,-1.37754 -1.92,-2.12948 -1.056,-0.75194 -1.92,-1.62996 -1.92,-1.95116 0,-0.84709 -4.16861,-7.23368 -5.37506,-8.23495 -0.56372,-0.46784 -1.02494,-1.25639 -1.02494,-1.75234 0,-0.49595 -0.44059,-1.07079 -0.97908,-1.27743 -0.60727,-0.23304 -0.83745,-0.82191 -0.60613,-1.55074 0.46521,-1.46572 -1.25726,-4.1906 -2.9246,-4.62662 -2.00751,-0.52497 -1.45982,-2.22996 1.66433,-5.18112 l 2.91454,-2.75316 4.60546,1.10632 c 8.45687,2.0315 16.30203,4.92561 18.80539,6.93736 2.81505,2.26223 12.20076,12.74703 15.16169,16.93717 3.23031,4.57133 8.21638,11.1555 10.7984,14.25941 1.32,1.58681 2.4,3.30884 2.4,3.82674 0,2.11475 -1.93295,5.35435 -3.7578,6.29801 -2.37679,1.22908 -3.82873,1.25713 -6.94925,0.13422 -6.71347,-2.41582 -7.06122,-2.46377 -9.49494,-1.30889 -1.82171,0.86446 -2.23927,1.37887 -1.97777,2.4365 0.18232,0.73737 0.64926,2.60233 1.03764,4.14434 1.12712,4.47501 0.13065,6.45934 -4.2976,8.5581 -2.02416,0.95934 -6.41628,3.49642 -9.76028,5.63795 -3.344,2.14152 -7.82728,4.71563 -9.96284,5.72024 -2.13556,1.0046 -4.25882,2.27959 -4.71836,2.8333 -0.45955,0.55372 -1.16027,1.00698 -1.55717,1.00726 -1.34835,6.4e-4 -8.56638,3.70838 -12.9656,6.65959 -4.74046,3.18013 -4.91085,3.21759 -9.19603,2.02175 z m 1.92,-3.56185 c 0,-1.24748 -0.67883,-1.66784 -1.44924,-0.89742 -0.51272,0.51271 0.15832,2.17742 0.87771,2.17742 0.31434,0 0.57153,-0.576 0.57153,-1.28 z m 7.22495,-1.89463 c 0.98173,-0.49146 1.70173,-1.3157 1.6,-1.83164 -0.25882,-1.31273 -3.42972,-3.55937 -4.28106,-3.03321 -1.27913,0.79054 -0.75176,6.64583 0.53611,5.95228 0.198,-0.10663 1.16323,-0.59597 2.14495,-1.08743 z m 9.20011,-6.70235 c -0.21169,-0.55166 -0.68193,-1.00302 -1.04498,-1.00302 -0.73632,0 -0.90453,2.10223 -0.22275,2.784 0.7026,0.7026 1.689,-0.68316 1.26773,-1.78098 z m -4.50506,-0.36302 c 0.484,0 0.88,-0.34144 0.88,-0.75875 0,-0.41731 0.648,-1.46482 1.44,-2.32779 1.62709,-1.7729 1.54473,-1.7534 -3.52,0.83354 -4.03597,2.06147 -4.80653,3.27831 -1.68,2.653 1.1,-0.22 2.396,-0.4 2.88,-0.4 z m -9.82983,-0.976 c 0.16877,-1.41992 -13.08943,-8.76848 -15.34992,-8.50793 -3.19999,0.36884 -2.48511,2.09642 1.63207,3.9441 2.08325,0.93491 4.03972,1.70358 4.34771,1.70815 0.30798,0.004 2.28797,0.85339 4.39997,1.88625 3.89804,1.90632 4.83703,2.08948 4.97017,0.96943 z m 17.6033,-2.74443 c 0.1559,-0.46768 -0.13669,-0.61072 -0.76,-0.37153 -0.55741,0.2139 -1.01347,0.67009 -1.01347,1.01377 0,0.84121 1.45458,0.31446 1.77347,-0.64224 z m -14.47747,-1.71957 c 0,-0.3344 -0.3096,-0.7112 -0.688,-0.83733 -0.3784,-0.12614 -0.688,0.25066 -0.688,0.83733 0,0.58667 0.3096,0.96347 0.688,0.83733 0.3784,-0.12613 0.688,-0.50293 0.688,-0.83733 z m 20.44858,0.28544 c 1.0254,-0.54878 1.18329,-1.08583 0.84671,-2.88 -0.32944,-1.75606 -0.20822,-2.20544 0.59497,-2.20544 0.55478,0 1.30005,0.5444 1.65615,1.20977 0.57702,1.07818 0.89144,1.12588 2.89057,0.43862 3.05681,-1.05089 3.3027,-1.43037 1.91817,-2.96027 -1.01187,-1.1181 -1.06968,-1.51932 -0.3784,-2.62624 0.44876,-0.71859 0.70323,-1.41922 0.56549,-1.55697 -0.36942,-0.36941 -6.31483,3.49572 -8.08551,5.25643 -0.84,0.83526 -1.776,1.51866 -2.08,1.51866 -0.64646,0 -0.75302,3.42638 -0.12607,4.05333 0.56247,0.56247 0.71612,0.54514 2.19792,-0.24789 z m -13.82238,-0.84791 c 1.09098,-0.79774 1.12982,-1.13963 0.40444,-3.56071 -1.02753,-3.4296 -2.22358,-3.05634 -2.67845,0.83588 -0.4532,3.87794 -0.0173,4.40027 2.27401,2.72483 z m 3.5178,-4.55753 c 0,-0.528 -0.288,-0.96 -0.64,-0.96 -0.352,0 -0.64,0.432 -0.64,0.96 0,0.528 0.288,0.96 0.64,0.96 0.352,0 0.64,-0.432 0.64,-0.96 z m 28.21336,-2.59241 c 3.06287,-1.8606 3.81356,-2.66027 4.1423,-4.41261 0.43858,-2.33781 -0.53955,-4.83498 -1.89383,-4.83498 -0.46923,0 -2.77869,1.07025 -5.13214,2.37834 -3.82797,2.12764 -4.23772,2.54287 -3.88724,3.93929 0.23883,0.95155 0.0749,1.7568 -0.41989,2.06259 -0.62528,0.38644 -0.53755,0.80454 0.38208,1.82071 1.62703,1.79785 2.47529,1.67908 6.80872,-0.95334 z m -25.01336,-0.92759 c 0,-0.81455 -0.42667,-1.28 -1.17334,-1.28 -1.62572,0 -2.14826,0.68233 -1.30275,1.70112 1.06137,1.27886 2.47609,1.03826 2.47609,-0.42112 z m -5.47455,-2.32769 c 10.74084,-5.50095 19.65802,-10.63726 19.99585,-11.51764 0.1846,-0.48107 0.7483,-0.87467 1.25267,-0.87467 1.84982,0 5.69772,-2.49248 6.82221,-4.41909 0.72553,-1.24306 1.67907,-1.98849 2.56,-2.00126 1.81493,-0.0263 4.09656,-1.7238 3.28942,-2.44727 -0.33309,-0.29854 -3.26149,-1.58942 -6.50757,-2.86861 -4.7256,-1.86223 -6.22447,-2.20319 -7.52,-1.71062 -0.88992,0.33834 -1.61803,0.85244 -1.61803,1.14244 0,0.29 -0.936,0.87771 -2.08,1.30602 -2.55432,0.95633 -6.24,4.23409 -6.24,5.54937 0,0.53296 -0.31422,0.96902 -0.69828,0.96902 -0.38405,0 -2.32805,1.10394 -4.32,2.4532 -7.75653,5.25394 -9.32718,6.25079 -12.77308,8.1068 -5.77941,3.11286 -6.02772,4.99287 -1.0252,7.76193 1.37311,0.76007 2.62501,1.41257 2.78201,1.45 0.157,0.0374 2.893,-1.26739 6.08,-2.89962 z m 24.35455,-20.07231 c -0.21755,-0.352 0.0534,-0.64 0.60222,-0.64 0.54878,0 0.99778,0.288 0.99778,0.64 0,0.352 -0.27101,0.64 -0.60223,0.64 -0.33123,0 -0.78022,-0.288 -0.99777,-0.64 z m -12.4575,22.05288 c 0.63691,-0.76743 0.64842,-1.15795 0.0517,-1.75465 -0.59671,-0.5967 -0.90186,-0.55505 -1.37108,0.18712 -1.37112,2.16875 -0.26766,3.47977 1.31936,1.56753 z m -35.97558,-3.06591 c 0.12248,-0.63153 -0.20401,-1.06697 -0.8,-1.06697 -0.59368,0 -1.00692,0.5472 -1.00692,1.33333 0,1.55972 1.49553,1.33925 1.80692,-0.26636 z m 40.43308,-3.30697 c 0,-0.528 -0.432,-0.96 -0.96,-0.96 -0.99941,0 -1.26974,0.75693 -0.53334,1.49333 0.73641,0.73641 1.49334,0.46608 1.49334,-0.53333 z m 32.64,-7.11118 c 0,-0.68867 -5.21682,-6.64882 -5.8196,-6.64882 -0.31922,0 -0.5804,1.24521 -0.5804,2.76712 0,2.65144 0.10034,2.79523 2.4,3.43913 2.97541,0.83312 4,0.94647 4,0.44257 z m 6.13119,-1.89663 c 0.52565,-2.80194 0.12411,-3.20622 -3.73119,-3.75662 -3.66722,-0.52354 -3.82449,0.0233 -1.01289,3.52196 2.59156,3.22485 4.16848,3.30285 4.74408,0.23466 z m -23.41119,0.36781 c 0,-0.71111 -0.42667,-1.28 -0.96,-1.28 -0.53333,0 -0.96,0.56889 -0.96,1.28 0,0.71111 0.42667,1.28 0.96,1.28 0.53333,0 0.96,-0.56889 0.96,-1.28 z m 6.81474,-2.06413 c 1.22564,5.3e-4 1.31455,-0.20928 0.81975,-1.93456 -0.77923,-2.717 -1.00916,-2.81374 -3.49976,-1.47246 -3.0066,1.61916 -2.99907,4.83235 0.009,3.83584 0.71295,-0.23618 1.91491,-0.42916 2.67101,-0.42882 z m 13.01546,-4.81587 c -0.005,-0.264 -0.27774,-0.90366 -0.60521,-1.42147 -0.73736,-1.16594 -1.60243,-0.43675 -1.08414,0.91387 0.38277,0.99748 1.70747,1.39552 1.68935,0.5076 z m -5.1102,-1.76 c 0.4382,-0.528 1.19346,-0.96 1.67836,-0.96 1.19169,0 1.109,-0.8638 -0.23836,-2.48989 -0.93396,-1.12715 -1.43894,-1.25438 -3.04,-0.76591 l -1.92,0.58578 2.08,0.055 c 2.56167,0.0677 2.83877,1.71821 0.44149,2.62965 -0.90119,0.34263 -1.46019,0.9115 -1.24224,1.26416 0.55903,0.90452 1.31471,0.797 2.24075,-0.3188 z m -8.33587,-2.4 c -0.009,-0.44 -1.01953,-2.168 -2.24622,-3.84 -2.21044,-3.01286 -4.13791,-3.96415 -4.13791,-2.04223 0,0.54878 -0.288,0.81978 -0.64,0.60223 -0.352,-0.21755 -0.64,-1.48734 -0.64,-2.82175 0,-2.50232 -1.36569,-4.80817 -5.83876,-9.85833 -1.77192,-2.00052 -2.99172,-2.6565 -6.77144,-3.64153 -2.53561,-0.6608 -5.21446,-1.52485 -5.95302,-1.92011 -0.73854,-0.39526 -1.88517,-0.62857 -2.54805,-0.51847 -1.02464,0.17019 -0.61213,1.04449 2.75301,5.83479 2.17704,3.09904 4.82226,6.97444 5.87826,8.61202 1.3739,2.13055 2.51161,3.1271 4,3.5037 1.144,0.28945 2.08,0.80604 2.08,1.14798 0,0.34194 0.504,0.63086 1.12,0.64205 0.616,0.0112 1.67904,0.4432 2.36232,0.96 0.68328,0.51681 1.73388,0.93965 2.33467,0.93965 0.60079,0 2.34575,0.71653 3.87768,1.59229 3.09354,1.76849 4.39328,2.00875 4.36946,0.80771 z m 0.5332,-6.288 c -0.12613,-0.3784 -0.50293,-0.688 -0.83733,-0.688 -0.3344,0 -0.7112,0.3096 -0.83733,0.688 -0.12614,0.3784 0.25066,0.688 0.83733,0.688 0.58667,0 0.96347,-0.3096 0.83733,-0.688 z m 4.27911,-1.87592 c -1.27337,-1.40706 -1.97153,-1.25666 -1.37559,0.29632 0.20843,0.54318 0.86465,0.9876 1.45825,0.9876 0.9849,0 0.97768,-0.11227 -0.0827,-1.28392 z m -6.85577,-6.2972 c 0.18341,-0.5508 -0.12432,-0.78144 -0.85393,-0.64 -0.62737,0.12161 -1.26971,0.60863 -1.42742,1.08224 -0.18341,0.5508 0.12432,0.78144 0.85394,0.64 0.62736,-0.12161 1.2697,-0.60863 1.42741,-1.08224 z m -2.16078,-2.83936 c 0.4762,-0.75493 0.45918,-1.27644 -0.0585,-1.79414 -1.03936,-1.03936 -2.12138,-0.14895 -2.12138,1.74572 0,1.76477 1.08209,1.78881 2.17989,0.0484 z m -4.8696,-5.48581 c 0.65859,-0.41778 0.6144,-0.70587 -0.21365,-1.39309 -1.1052,-0.91724 -2.85764,-0.29764 -3.35188,1.1851 -0.28789,0.86364 2.29447,1.01428 3.56553,0.20799 z m -56.77551,40.86629 c 0.0193,-0.528 0.28269,-1.536 0.58522,-2.24 l 0.55003,-1.28 0.0352,1.28 c 0.0193,0.704 -0.24399,1.712 -0.58522,2.24 -0.55146,0.85333 -0.61649,0.85333 -0.58521,0 z"
     id="path79"
     inkscape:connector-curvature="0"
     sodipodi:nodetypes="cscccscccccsscsscsssssscsccscccccsccccssccsccccssscscccccccsscsccccsscccscsssccccscscccscccscscccscscssscsssscsscccssccccccccsccsccscscccsscscscccccccccccsccscscssscccssccsssscccscssssccccccsccsccccsccccscccscsccscscccccccccsccccsccscccccccccccccccccccccccccssccsssscccsccccsssccccccccccccccssccssccssscscssccsccssssscccccsccssccccccccssscsscccccscsssccssscccsssssssccscssccscccccccccccscccsccscssssccccsscsccccsscscscscccccccccccccscsccscccccccscccscsccscccccscsccccccscssssssscsccscsccscssssssccscscsssccccccsccsccccccccsccscssscccccccccsscsccccccccsscccccssssscscccscssccsssscccccccscscsscccccsscssscscscsccccccscscscsccsccccccsscscsssssssccscccccsscsscscccscssssscccssssssccccccsscssssssscsscsssssssccccccccccsccccscccccssssccccccsccssccscscccscccccccccsccccccccccccc"
     inkscape:export-filename="/home/phigit/Documents/Misc_Projects/Talks/2020-04-23-KreativeComputere/Images/Vector Læser.png"
     inkscape:export-xdpi="358.09"
     inkscape:export-ydpi="358.09" />
</svg>
